<?xml version="1.0" encoding="utf-8"?><svg xmlns="http://www.w3.org/2000/svg" xmlns:xlink="http://www.w3.org/1999/xlink"><symbol viewBox="0 0 51.82 9.85" id="arrow-left" xmlns="http://www.w3.org/2000/svg"><path d="M51.82 4.45H1.8L5.29.68 4.55 0 0 4.92l4.55 4.93.74-.68-3.45-3.72h49.98v-1z"/></symbol><symbol viewBox="0 0 51.82 9.85" id="arrow-right" xmlns="http://www.w3.org/2000/svg"><path d="M47.27 0l-.73.68 3.44 3.73H0v1h50.02l-3.48 3.76.73.68 4.55-4.92L47.27 0z"/></symbol><symbol viewBox="0 0 275.1 263.39" id="cap" xmlns="http://www.w3.org/2000/svg"><path d="M240.35 50.18a1.72 1.72 0 00-1.72-1.64H209c-5.7-11.42-15.25-18.94-26-18.94s-20.35 7.52-26.05 18.94h-29.6a1.72 1.72 0 00-1.72 1.64l-1.87 35.76a91.21 91.21 0 00-17.22-1.56C78.81 84.38 57.83 95 44.18 116s-15.79 46.32-15.79 59.49a1.78 1.78 0 001.28 1.7c17.13 5 28.94 7.76 44.09 8.82 4 3.87 33.64 32.23 40.23 38.82 4.3 4.3 15.66 8.79 28 8.79 8.59 0 17.65-2.19 25.11-8.13 14.72-11.73 40.17-17.56 52.86-17.3h.04a2.89 2.89 0 002.89-2.84 2.84 2.84 0 00-1.11-2.33 920.972 920.972 0 01-21.45-17.76h45.27a1.72 1.72 0 001.25-.53 1.71 1.71 0 00.47-1.28zM116.5 222.28c-5.71-5.7-28.54-27.61-37.3-36q3.38.14 7 .18h3.38c28.49 0 80.92-7.86 92.89-12.14 3.35 3 16.8 15.1 35.63 30.27-13.74.28-38.58 6.38-53.26 18.08-16.31 13.02-41.91 6.04-48.34-.39zm51.34-100.7c9.49 16.34 13.06 36 13.26 49.49-10.95 3.77-62.41 11.85-91.49 11.85h-1.39c.3-65.45 16.55-91.12 19.3-95 27.2.28 47.48 11.59 60.32 33.66zM103.21 88c-5.11 8.21-18.27 35.12-18.53 94.9-19.77-.33-31.93-2.76-52.73-8.76.4-41.08 19.36-84.38 71.26-86.14zm81.43 83.51a110.61 110.61 0 00-2.54-21.77 25.17 25.17 0 009.74-2.55 2.61 2.61 0 001-.64 20.28 20.28 0 012.76-2.56l.07-.06v-.47a12.06 12.06 0 01.19-2 1.88 1.88 0 00-.61-1.9 8.79 8.79 0 01-2.43-4.9 1.16 1.16 0 00-.64-.89 25.93 25.93 0 00-3.64-1.85 3.09 3.09 0 01-1.64-1.34 2.49 2.49 0 01-.16-2.25 2.3 2.3 0 011.12-1.16 20.27 20.27 0 00-1.81-4 .92.92 0 00-.34-.31 15.82 15.82 0 01-3.91-3.43.86.86 0 00-.79-.32h-.59c-1.1 0-2.2.06-3.29.12a3 3 0 00-2.16 1 13.27 13.27 0 00-1.94 2.65c-.06.12-.15.22-.22.34-.6-1.15-1.22-2.29-1.87-3.42a79.49 79.49 0 00-6.17-9.12c0-.09-.07-.17-.09-.25a1.86 1.86 0 01-.19-.11 65.78 65.78 0 00-37.28-23.65L129 52h26.39a54.39 54.39 0 00-3.27 11.92 8.86 8.86 0 103.44.29A50.83 50.83 0 01159.09 52h47.8a50.38 50.38 0 013.52 12.1 8.86 8.86 0 103.47-.11 54.48 54.48 0 00-3.29-12H237l6.78 129.78H196.3c-6.15-5.3-10.24-9-11.66-10.28zm-31.53-96.6a1.72 1.72 0 001.72-1.72c0-1.67.08-3.31.22-4.92a4.87 4.87 0 11-3.45-.15c-.14 1.66-.22 3.35-.22 5.07a1.72 1.72 0 001.73 1.72zm58-1.72a1.73 1.73 0 003.45 0c0-1.66-.08-3.3-.21-4.91a4.87 4.87 0 11-3.48-.16c.19 1.66.28 3.35.28 5.07zM183 33.05c9 0 17 6.08 22.2 15.49h-44.4C166 39.13 174 33.05 183 33.05z"/><path d="M178.18 91a4.07 4.07 0 00-.25.39c.08.11.2.25.29.36a15.13 15.13 0 003.68 3.13 61.49 61.49 0 01.36-6.32l.12-1.14c.07-.59.14-1.15.18-1.71a7.72 7.72 0 00-1 .83 27.73 27.73 0 00-3.38 4.46zm30.42 31.35a3.44 3.44 0 00-.84-2.24 10.92 10.92 0 01-1.95-3.22l-1.06-.39-2.43-.87a.37.37 0 00-.2.12 3.39 3.39 0 01-1.43 2.46c-.32.22-.64.42-1 .63l-.41.26-.34.21a3.44 3.44 0 00-.55.39 4.36 4.36 0 01-2.21 2c-.46.18-.6.33-.65.94a11.48 11.48 0 01-.8 3.11c-.17.47-.33.91-.44 1.34a1.59 1.59 0 00.36 1.81 9.88 9.88 0 011.89 2.93l.42.9c.27.57.54 1.15.82 1.71a6 6 0 002.07 2.49 1.14 1.14 0 00.69.23 1 1 0 00.3 0 20.59 20.59 0 013.32-.48c.93-.06 1.15-.36 1.34-.72a10.92 10.92 0 011.75-2.41 2.44 2.44 0 00.61-1.18 5.32 5.32 0 012-3.16 1 1 0 00.45-.8 5.73 5.73 0 00-1-3 6.34 6.34 0 01-.71-3.06zm-13.68-4.81a29.76 29.76 0 013.18-5l.1-.15a3.49 3.49 0 001-2.57v-.38a19.91 19.91 0 00-.38-4.29 7.18 7.18 0 00-1.22-3.46 8.21 8.21 0 00-5.32-2.82 2.17 2.17 0 00-.36 0c-.61 0-1.21.17-1.43 1.44a4.4 4.4 0 01-1.63 2.74c-.53.42-.56.65-.56.72a8 8 0 01-1.8 4.14c-1.22 1.52-1.66 3.4-1.44 6.09a1.39 1.39 0 00.18.63 8.28 8.28 0 011.09 2.47 2.68 2.68 0 001.28 1.63 7.24 7.24 0 002.85 1h.25a.51.51 0 00.34-.08 18.48 18.48 0 013.84-2zm-14.39-18.13c-.77-1-1.43-1.9-2-2.8a3.8 3.8 0 00-2.83-1.85 9.18 9.18 0 00-1.28-.09 11.14 11.14 0 00-1.41.1 1 1 0 00-1 .89c-.09.3-.17.61-.25.91s-.15.6-.23.89a8.74 8.74 0 01-2.29 4.15 1.75 1.75 0 00-.43.91 7.68 7.68 0 00-.21 2.24v.12a10.43 10.43 0 00.11 2c.45 2.79 1.37 4.59 3 5.84a6 6 0 01.94.94 3.89 3.89 0 003 1.31 3.29 3.29 0 002.1-.69 10.42 10.42 0 003.6-6.83c0-.22.05-.44.07-.66a6.11 6.11 0 01.82-2.89.72.72 0 00.14-.65 9 9 0 00-1.85-3.84zm27.74 14.73a16 16 0 003.31 4c.09-.47.19-.93.29-1.39a21.48 21.48 0 00.53-3.29 20.37 20.37 0 00-.83-6.63 43.83 43.83 0 01-3.3 7.31zm-47.69-12.03c.53.31 1 .64 1.55 1 .8.51 1.57 1 2.37 1.44v-1.35a27.37 27.37 0 01.19-4.34c.07-.52.16-1 .25-1.56a8.9 8.9 0 00-4.36 4.81zM200 98.52l.07-.87.07-.84c0-.35 0-.7-.07-1-.05-.8-.1-1.63-.2-2.43a17.61 17.61 0 00-.65-3.23 29.18 29.18 0 01-2.71 5.31l3.08 2.74zM102.29 83.83h6.34a1.78 1.78 0 000-3.55h-6.34a1.78 1.78 0 000 3.55zm32.09 44.3c-.53-1.15-1-2.4-1.55-3.83l-.24-.7c-.12-.35-.24-.7-.37-1a4.45 4.45 0 00-.37.64 13.69 13.69 0 00-.87 3.22v.27l.28.17a12.57 12.57 0 003.12 1.23zm2.93 16.77a7.94 7.94 0 00-.44 2.1 4.59 4.59 0 01-1.3 2.91 2.78 2.78 0 00-.73 1.32 4.88 4.88 0 01-1.5 2.47l-1.06 1-.52.45a2.65 2.65 0 00-.85 2.75c.07.31.16.62.26.93a3 3 0 001.87 2.14 16.39 16.39 0 002.9.87 5.88 5.88 0 012.22.88c.28.18.56.36.85.53l1.13.72a1.12 1.12 0 001.27.09h.07l.48-.22a15.9 15.9 0 015-1.36 9.44 9.44 0 003-.85 14.85 14.85 0 005-4.19 1.64 1.64 0 00.34-.62 11.88 11.88 0 01.78-2.19.14.14 0 000-.06l-.12-.28a8.8 8.8 0 01-.45-1.21 1.35 1.35 0 00-.87-1 6.39 6.39 0 01-2.72-2.35.82.82 0 00-.61-.39 15.92 15.92 0 00-2.58-.29 2.09 2.09 0 01-1.32-.43 1.81 1.81 0 01-.74-1.32 1.37 1.37 0 01.32-1 15.6 15.6 0 00-2.2-2 .77.77 0 00-.28-.12 11.45 11.45 0 01-3.3-1.24.61.61 0 00-.57 0l-.32.12c-.65.26-1.32.51-2 .78a1.72 1.72 0 00-1.01 1.06zm13.24-.9c0 .31.08.6.13.88a1.18 1.18 0 00.71 1 7.36 7.36 0 011.86 1.31l.48.44c.3.28.61.56.92.82a4.15 4.15 0 001.81 1 .7.7 0 00.43 0l.15-.09a10 10 0 011.61-1c.47-.24.5-.46.5-.7a6.49 6.49 0 01.25-1.75 1.41 1.41 0 000-.79 3.1 3.1 0 01.18-2.2.6.6 0 000-.54 4.24 4.24 0 00-1.31-1.51 4.6 4.6 0 01-1.24-1.53 2.51 2.51 0 00-1-1.1 8.16 8.16 0 01-1.9-1.46h-.66l-1.54-.05a.19.19 0 00-.08.1 1.91 1.91 0 01-.1 1.68l-.34.55-.15.22-.13.19a1.38 1.38 0 00-.2.33 2.32 2.32 0 01-.67 1.59c-.2.2-.24.31-.1.67a7.6 7.6 0 01.39 1.94zm-27.15-5a1.52 1.52 0 00-1.21-.21 1.59 1.59 0 00-.73.52 7.08 7.08 0 00-.83 1.31l-.09.17a3.3 3.3 0 00-.23 3c.15.37.32.73.49 1.09s.26.58.38.87a6.08 6.08 0 001.66 2.6 7.89 7.89 0 011.73 2.5c.13.26.26.51.4.76a6.4 6.4 0 001.62 2.1 1 1 0 00.94.17h.1a3 3 0 00.86-.65q1.74-2 3.45-4a.78.78 0 00.2-.56 10.9 10.9 0 00-.24-2.79 4.13 4.13 0 00-1.41-2.34l-.24-.2a20.16 20.16 0 01-2.45-2.34 5.78 5.78 0 01-2.8-1 10.76 10.76 0 00-1.6-1zm17.36-3.93a5.16 5.16 0 00.86 3.91 1.05 1.05 0 00.29.34 6.66 6.66 0 011.34 1.26 2 2 0 001.21.71 4.6 4.6 0 001.92 0h.15a.3.3 0 00.17-.12 9.66 9.66 0 011.61-1.94l.05-.06a16.55 16.55 0 01.38-3.51v-.1a2.18 2.18 0 00-.18-1.66l-.07-.1v-.11a15.36 15.36 0 00-1.39-2.39 5.55 5.55 0 00-1.63-1.78 5.77 5.77 0 00-3.81-.74h-.21c-.35.1-.65.3-.43 1.09a2.38 2.38 0 01-.19 1.88c-.2.34-.15.49-.13.53a4.71 4.71 0 01.06 2.79zm-12.03 1.55a7.37 7.37 0 00.66 1.24 6.78 6.78 0 003.64 3 4.87 4.87 0 01.87.38 2.85 2.85 0 002.25.18 1.9 1.9 0 001.11-.86 6.16 6.16 0 00.26-4.87c-.05-.14-.1-.27-.14-.41a3.73 3.73 0 01-.32-1.89.49.49 0 00-.1-.42 7.36 7.36 0 00-2.18-2c-.75-.46-1.42-.89-2.06-1.34a3.08 3.08 0 00-2.31-.62 6.3 6.3 0 00-.84.18 7 7 0 00-.88.3.57.57 0 00-.41.69c0 .2.07.4.1.61s.07.39.1.59a4.84 4.84 0 01-.3 3 1.11 1.11 0 000 .65 5.22 5.22 0 00.55 1.59zm28.71-.26l-.23-.83a14.1 14.1 0 00-.6-1.91 15.2 15.2 0 00-2.2-3.54 24.81 24.81 0 01.24 4.64 11.36 11.36 0 002.79 1.64zm-34.86.21l1.35.31c.7.16 1.36.31 2 .42l-.4-.85a18.54 18.54 0 01-1.14-2.77c-.1-.34-.2-.69-.29-1a5 5 0 00-1.52 3.89zm23.07-9.43l.33.14-.2-.51-.19-.48c-.11-.2-.22-.39-.32-.59-.25-.44-.5-.91-.77-1.35a13.28 13.28 0 00-1.24-1.73 15.24 15.24 0 01-.09 3.44z"/></symbol><symbol viewBox="0 0 275.1 263.39" id="food" xmlns="http://www.w3.org/2000/svg"><path d="M69.55 154.56l-3.77 3.86a2 2 0 002.86 2.8l3.77-3.87a2 2 0 00-2.86-2.79zm186.5-48.14A10.39 10.39 0 00245.66 96H212.4V67.79l-29.61-34.31a2 2 0 10-3 2.61l28.61 33.19V96h-39.63a10.39 10.39 0 000 20.78h.16l11.92 110.76h53.05l12.63-110.81a10.38 10.38 0 009.52-10.31zm-25.23 117.7H184l-11.6-107.31h70.65zm15.83-110.84h-78.1v.07a6.94 6.94 0 01.21-13.87h76.89a6.94 6.94 0 011 13.8z"/><path d="M154.49 170.54a55.89 55.89 0 00-55.82-55.81H85.08a55.89 55.89 0 00-55.82 55.81 14.49 14.49 0 000 27.81v8.09a21.85 21.85 0 0021.84 21.83h81.55a21.85 21.85 0 0021.84-21.83v-8.09a14.49 14.49 0 000-27.81zm-121.23-.61a51.88 51.88 0 0151.82-51.2h13.59a51.88 51.88 0 0151.82 51.2H33.26zm117.23 29v7.49a17.85 17.85 0 01-17.84 17.83H51.1a17.85 17.85 0 01-17.84-17.83V199h117.23zm-.11-4h-117a10.51 10.51 0 010-21h117a10.51 10.51 0 010 21z"/><path d="M74.8 130.35l-4.42 4.52a2 2 0 002.86 2.8l4.42-4.52a2 2 0 00-2.86-2.8zm35.33 0l-4.42 4.52a2 2 0 002.86 2.8l4.42-4.52a2 2 0 00-2.86-2.8zM89.35 147l-4.42 4.52a2 2 0 002.86 2.8l4.42-4.52a2 2 0 00-2.86-2.8zm33.25 0l-4.42 4.52a2 2 0 002.86 2.8l4.42-4.52a2 2 0 00-2.86-2.8zm83.58 6.63a36.09 36.09 0 01-.91-3.74c-.05-.23-.09-.46-.13-.69s-.13-.69-.2-1a4 4 0 00-.42.65 16.77 16.77 0 00-1.2 3.21c0 .09 0 .19-.07.27l.23.15a8.89 8.89 0 002.7 1.15zm16.37 24.65a1.15 1.15 0 00-.69-1 5.4 5.4 0 01-2.28-2.42.67.67 0 00-.53-.4 15.61 15.61 0 00-2.44-.44 1.83 1.83 0 01-1.2-.48 1.54 1.54 0 01-.49-1.29 1.46 1.46 0 01.44-.87 12.22 12.22 0 00-1.77-2 .58.58 0 00-.25-.12 9.43 9.43 0 01-2.89-1.31.54.54 0 00-.51 0l-.3.11c-.64.21-1.27.42-1.9.65a1.77 1.77 0 00-1.07 1 8 8 0 00-.66 1.89 4.52 4.52 0 01-1.5 2.55 2.93 2.93 0 00-.79 1.14 4.68 4.68 0 01-1.55 2.07l-1 .75-.48.35a2.39 2.39 0 00-1 2.28 7.5 7.5 0 00.11.81 2.48 2.48 0 001.3 2 12.8 12.8 0 002.31 1 4.73 4.73 0 011.76 1l.66.54.88.73a1 1 0 001.09.21h.06l.44-.14a14.64 14.64 0 014.6-.66 9.32 9.32 0 002.92-.44 15.44 15.44 0 005.46-3.3 1.81 1.81 0 00.44-.55 12.51 12.51 0 011.15-2v-.06l-.08-.26a8.09 8.09 0 01-.24-1.34zm5.06-11.79a3.71 3.71 0 01-1-1.6 2.07 2.07 0 00-.88-1.15 6.8 6.8 0 01-1.72-1.53h-.68l-1.57-.07a.24.24 0 00-.1.1 2 2 0 01-.39 1.68q-.22.28-.45.54l-.19.23-.16.18a2.51 2.51 0 00-.25.32 2.73 2.73 0 01-.94 1.55.52.52 0 00-.21.66 7.15 7.15 0 01.09 2 8.29 8.29 0 000 .85 1 1 0 00.53 1 5.9 5.9 0 011.62 1.36l.41.45c.25.29.51.57.78.85a3.71 3.71 0 001.64 1.09.74.74 0 00.44 0l.17-.08a12.49 12.49 0 011.85-.87c.53-.2.61-.41.65-.65a6.51 6.51 0 01.6-1.72 1.66 1.66 0 00.14-.79 3.24 3.24 0 01.62-2.21.58.58 0 00.12-.54 3.55 3.55 0 00-1.12-1.65zm-25.88 6.28a10 10 0 00.11-2.5 3.37 3.37 0 00-.93-2.16l-.17-.19a16.5 16.5 0 01-1.84-2.17 4.21 4.21 0 01-2.19-1 8.08 8.08 0 00-1.21-.9 1.12 1.12 0 00-1-.21 1.56 1.56 0 00-.63.45 6.77 6.77 0 00-.78 1.14l-.09.15a3.23 3.23 0 00-.46 2.6c.09.33.19.65.29 1s.15.51.23.77v.05a5.06 5.06 0 001.07 2.31 6.58 6.58 0 011.13 2.24c.08.23.15.46.24.68a5.34 5.34 0 001.09 1.89.75.75 0 00.74.21h.07a2.57 2.57 0 00.76-.5l3.29-3.27a.76.76 0 00.28-.59zm9.84-8.24a5.09 5.09 0 011.07 1.24 1.67 1.67 0 001 .73 4.52 4.52 0 001.83.07h.15a.29.29 0 00.18-.11 11 11 0 011.88-1.85l.06-.06a17.42 17.42 0 011-3.48v-.11a2.09 2.09 0 00.1-1.66l-.05-.11v-.11a13.47 13.47 0 00-1-2.43 4.53 4.53 0 00-1.32-1.8 5 5 0 00-3.6-.69h-.21c-.36.11-.68.31-.58 1.09a2.65 2.65 0 01-.46 1.89c-.24.33-.21.47-.2.52a4.82 4.82 0 01-.32 2.73 4.92 4.92 0 00.25 3.8.78.78 0 00.22.34zm-11.38-2.74a5.86 5.86 0 00.42 1.15 5.12 5.12 0 002.78 2.87 3.72 3.72 0 01.71.38 2.37 2.37 0 002 .24 2 2 0 001.1-.77 6.31 6.31 0 00.88-4.62 2.66 2.66 0 00-.07-.39 3.78 3.78 0 010-1.83.46.46 0 000-.41 5.55 5.55 0 00-1.72-1.92 20.21 20.21 0 01-1.67-1.28 2.32 2.32 0 00-2-.57 4.94 4.94 0 00-.76.18 6 6 0 00-.8.31.62.62 0 00-.43.69v1.14a5.31 5.31 0 01-.6 2.82 1 1 0 00-.09.6 4.7 4.7 0 00.27 1.34zm27.31-.79a10.66 10.66 0 00-1.93-5.72 27.28 27.28 0 01-.62 4.85 9.75 9.75 0 002.63 1.73c-.03-.25-.05-.53-.08-.86zm-29.73 1.34c-.08-.27-.17-.53-.25-.79a16 16 0 01-.66-2.56c-.05-.31-.09-.63-.13-1a5.38 5.38 0 00-1.67 3.59l1.07.29c.56.2 1.09.35 1.64.47zm19.61-9.8l-.12-.52-.11-.5c-.07-.2-.15-.39-.22-.6-.18-.46-.35-.93-.55-1.38a10.28 10.28 0 00-.95-1.76 17.37 17.37 0 01-.64 3.57l2.28 1.05z"/></symbol><symbol viewBox="0 0 971.51 652.53" id="giant-arrow" xmlns="http://www.w3.org/2000/svg"><path d="M452.92 0L0 434.02 111.21 550.1l336.86-322.59 407.36 425.02 116.08-111.2L452.92 0z"/></symbol><symbol viewBox="0 0 24 24" id="person" xmlns="http://www.w3.org/2000/svg"><path d="M20.88 20.05l.43-.5c.1-.12.19-.25.29-.38s.27-.35.39-.53.17-.28.25-.42l.34-.56.23-.48c.09-.19.18-.37.26-.56s.14-.37.21-.55l.19-.54c.06-.21.11-.43.16-.64a4.6 4.6 0 00.13-.5c0-.25.08-.51.12-.77l.06-.41a12 12 0 10-23.88 0l.06.4c0 .26.07.53.12.78s.08.33.12.49.11.44.17.65.13.36.19.53.13.38.21.56.17.37.26.55.15.33.23.49.22.37.33.55l.26.43c.12.18.26.35.39.53s.19.26.29.38.28.33.43.49.18.21.28.31a12 12 0 0017.2 0c.1-.09.18-.2.28-.3zm-5.4-7.48A4.93 4.93 0 0017 9 5 5 0 007 9a4.93 4.93 0 001.52 3.57 11 11 0 00-5.43 4A1.63 1.63 0 003 16.3c-.1-.22-.2-.43-.28-.65l-.15-.4c-.07-.21-.14-.43-.2-.65s-.07-.27-.1-.4-.09-.49-.13-.74 0-.23-.05-.35A8.27 8.27 0 012 12v-1a10 10 0 019-8.95h1a9.42 9.42 0 011.2.08 10.71 10.71 0 011.28.24 10.5 10.5 0 011.16.38 2.85 2.85 0 01.31.12A10 10 0 0121 7.69c.12.25.23.5.33.76a9.59 9.59 0 01.39 1.29l.09.38A10.6 10.6 0 0122 12a8.27 8.27 0 01-.07 1.11c0 .12 0 .23-.05.35s-.08.49-.13.73-.07.27-.1.41-.13.44-.2.65l-.15.4c-.08.22-.18.43-.28.64a2.56 2.56 0 00-.11.24 11 11 0 00-5.43-3.96zM9 9a3 3 0 113 3 3 3 0 01-3-3zm3 13a10 10 0 01-7.71-3.64 9 9 0 0115.42 0A10 10 0 0112 22z"/></symbol><symbol viewBox="0 0 129.74 129.74" id="play" xmlns="http://www.w3.org/2000/svg"><path d="M55.81 82.59l29.3-17.99-29.3-18.31v36.3z"/><path d="M64.87 0a64.87 64.87 0 1064.87 64.87A64.94 64.94 0 0064.87 0zm0 127.74a62.87 62.87 0 1162.87-62.87 62.94 62.94 0 01-62.87 62.87z"/></symbol><symbol viewBox="0 0 275.1 263.39" id="tickets" xmlns="http://www.w3.org/2000/svg"><path d="M90.52 102.39a1.85 1.85 0 00-2.48-.85l-5.75 2.8a1.85 1.85 0 00.81 3.52 1.81 1.81 0 00.81-.19l5.75-2.8a1.86 1.86 0 00.86-2.48zm16.8-8.18a1.87 1.87 0 001.68 1.05 1.81 1.81 0 00.81-.19l5.76-2.8a1.86 1.86 0 00-1.63-3.34l-5.75 2.8a1.86 1.86 0 00-.87 2.48zm-3.85 1.88a1.85 1.85 0 00-2.48-.85L95.23 98a1.85 1.85 0 101.63 3.33l5.75-2.8a1.86 1.86 0 00.86-2.44zm-28.38 11.75l-5.75 2.8a1.85 1.85 0 00.81 3.52A1.81 1.81 0 0071 114l5.76-2.8a1.85 1.85 0 00-1.63-3.33zM107 47.7a1.86 1.86 0 00-2.48-.86L45 75.83a1.85 1.85 0 00.81 3.52 1.91 1.91 0 00.81-.18l59.56-29a1.86 1.86 0 00.82-2.47zm-6.35 68.83c-.17-.47-.33-.92-.5-1.37a6.33 6.33 0 00-.44 1 24.23 24.23 0 00-.95 4.69v.39l.35.16a12.84 12.84 0 004 1 53.29 53.29 0 01-2.08-5c-.17-.25-.27-.56-.38-.87zm.45 33.33a15.11 15.11 0 00-.4-3.48 4.68 4.68 0 00-1.76-2.78l-.28-.22a22 22 0 01-3-2.61 5.75 5.75 0 01-3.27-.94 11.88 11.88 0 00-1.87-1 1.59 1.59 0 00-1.38-.08 2.18 2.18 0 00-.78.76 9 9 0 00-.83 1.75l-.1.22a4.57 4.57 0 000 3.71c.18.43.39.85.6 1.27s.32.67.47 1a7.31 7.31 0 002 3 8.89 8.89 0 012.06 2.84c.16.3.32.6.49.89a7.57 7.57 0 001.91 2.37 1 1 0 001.07.12l.12-.06a3.67 3.67 0 00.94-.86q1.9-2.62 3.84-5.25a1.14 1.14 0 00.17-.65zm11.33-28.22l-.28.11c-.47.23-.86.59-.56 1.64a3.71 3.71 0 01-.22 2.7c-.26.52-.19.71-.17.77a6.79 6.79 0 01.16 3.84 6.82 6.82 0 001.17 5.2 1.32 1.32 0 00.37.41 6.93 6.93 0 011.76 1.48 2.29 2.29 0 001.59.78 6.07 6.07 0 002.54-.31l.2-.08a.39.39 0 00.23-.19 15.85 15.85 0 012.19-3 .36.36 0 00.07-.1 25.1 25.1 0 01.57-5v-.15a3 3 0 00-.23-2.32l-.1-.13-.06-.15a17.62 17.62 0 00-1.9-3.14 6.19 6.19 0 00-2.23-2.2 6.92 6.92 0 00-5.1-.16zm-5.34 10.13a5.2 5.2 0 01-.44-2.52.64.64 0 00-.14-.55 7.78 7.78 0 00-2.8-2.29c-.95-.46-1.8-.92-2.6-1.39a3.26 3.26 0 00-2.86-.37 9.79 9.79 0 00-1 .42 7.19 7.19 0 00-1 .6.86.86 0 00-.44 1c0 .27.1.53.15.79l.15.78a7.33 7.33 0 01-.2 4 1.57 1.57 0 000 .86 6.68 6.68 0 00.68 1.79v.05a8.47 8.47 0 00.84 1.5 7.2 7.2 0 004.48 3.35 5.79 5.79 0 011.06.37 3.3 3.3 0 002.75-.1 2.84 2.84 0 001.36-1.31 8.91 8.91 0 00.21-6.58c-.07-.05-.13-.23-.2-.4zM91 130.59a7.59 7.59 0 00-1.53 5.32l1.55.17c.81.09 1.58.19 2.35.22-.16-.34-.33-.69-.51-1a23.14 23.14 0 01-1.47-3.39c-.18-.46-.3-.91-.39-1.32zm23.56-18.28a24 24 0 01-.09 5.08l3.38 1 .45.13-.27-.69-.27-.67-.44-.78c-.34-.59-.69-1.21-1.06-1.79a14.6 14.6 0 00-1.7-2.28z"/><path d="M254 58.07a1.89 1.89 0 00-1.14-.84L153.37 32.3a1.85 1.85 0 00-2.25 1.35l-11.83 47.22a1.87 1.87 0 00.2 1.41l1.74 2.9-3-1h-.11a5.3 5.3 0 01-.67-.23h-.1l-5.11-1.77L134 77a.56.56 0 000-.12 5.16 5.16 0 01.23-.66.49.49 0 010-.11l2.37-6.86a1.85 1.85 0 00-.09-1.42L115.3 24a1.82 1.82 0 00-1.06-.94 1.85 1.85 0 00-1.42.09L20.59 68.06a1.86 1.86 0 00-.86 2.48L41 114.32a1.88 1.88 0 001.06.94l6.94 2.37h.11a5.9 5.9 0 01.67.23h.1L55 119.7l-1.76 5.12v.09a7 7 0 01-.24.69v.1l-2.37 6.86a1.84 1.84 0 00.09 1.42L100.5 236.5a1.88 1.88 0 001.06.94 1.86 1.86 0 00.61.1 1.75 1.75 0 00.81-.19l32-15.56 72.15 18.07a1.82 1.82 0 00.46.06 1.89 1.89 0 001-.26 1.91 1.91 0 00.85-1.14l27.7-110.6a1.81 1.81 0 00-.21-1.4l-3.73-6.24-.06-.1a5.17 5.17 0 01-.36-.59l-.06-.11-2.78-4.64 4.64-2.78.09-.06c.2-.13.4-.25.61-.36l.1-.06 6.23-3.73a1.87 1.87 0 00.85-1.14l11.83-47.23a1.87 1.87 0 00-.29-1.41zM103 233.21L54.28 133.05l2.1-6.09a8.74 8.74 0 00.34-1l2.11-6.1 4.94-2.41a1.85 1.85 0 10-1.62-3.33l-5 2.41-6.08-2.1a8.74 8.74 0 00-1-.34L44 112 23.88 70.58l88.9-43.27 20.16 41.43-2.11 6.08a9.57 9.57 0 00-.33 1l-2.32 6.71a1.89 1.89 0 00-1.3.11l-5.75 2.8a1.86 1.86 0 00.81 3.53 1.81 1.81 0 00.81-.19L128.5 86a1.83 1.83 0 00.9-1l6.71 2.33c.32.12.65.24 1 .33l6.09 2.11 2.32 4.77-3.65 2.19-.09.05a5.73 5.73 0 01-.62.38h-.09l-6.25 3.84a1.91 1.91 0 00-.85 1.14l-7.16 28.59h-.38a.34.34 0 00-.11.17 2.85 2.85 0 01.18 1l-.33 1.31v.06c-.15.28-.32.56-.5.84l-.21.35-.18.29a3.05 3.05 0 00-.28.5 3.68 3.68 0 01-1 2.35.72.72 0 00-.14 1 9.93 9.93 0 01.46 2l-1.94 7.73h-.46a2.55 2.55 0 01-1.76-.41 2.1 2.1 0 01-1-1.67 2 2 0 01.42-1.31 17.6 17.6 0 00-2.89-2.41.94.94 0 00-.37-.11 13 13 0 01-4.28-1.17.74.74 0 00-.72.05l-.41.21c-.82.43-1.66.86-2.47 1.31a2.51 2.51 0 00-1.27 1.58 11.28 11.28 0 00-.5 2.76 6.34 6.34 0 01-1.51 3.85 4 4 0 00-.84 1.74 6.58 6.58 0 01-1.69 3.21c-.4.42-.81.83-1.22 1.25l-.59.59a3.34 3.34 0 00-.87 3.37 10.45 10.45 0 00.32 1.09 3.5 3.5 0 002.24 2.44 18 18 0 003.41.89 6.68 6.68 0 012.64.93l1 .61q.7.39 1.38.81a1.39 1.39 0 001.55.05h.08l.58-.29A20.76 20.76 0 01118 166l-5.47 21.82L102 193a1.85 1.85 0 00.81 3.52 2 2 0 00.81-.18l7.7-3.75-5 20.13a1.88 1.88 0 00.21 1.41 1.84 1.84 0 001.14.84l21.76 5.45zm136-128.15l-5.53 3.31c-.3.16-.6.34-.89.53l-6.09 3.66a1.84 1.84 0 00-1.07-.75l-6.21-1.56a1.86 1.86 0 10-.9 3.6l6.21 1.56a1.73 1.73 0 00.45 0 1.86 1.86 0 00.84-.2l3.65 6.08a10.11 10.11 0 00.53.9l3.32 5.52-27.09 108.11-95.91-24 27.07-108 5.54-3.31a9.87 9.87 0 00.88-.54l5.54-3.31 5.32 1.33a1.8 1.8 0 00.45.06 1.86 1.86 0 00.45-3.66L150.23 93l-3.31-5.53a7.27 7.27 0 00-.54-.89L143.07 81l11.2-44.68 95.9 24z"/><path d="M211.43 108.31l-6.21-1.55a1.85 1.85 0 10-.9 3.59l6.21 1.56a1.74 1.74 0 00.45.06 1.86 1.86 0 00.45-3.66zm-27.93-7l-6.21-1.55a1.86 1.86 0 10-.9 3.6l6.21 1.55a1.74 1.74 0 00.45.06 1.86 1.86 0 00.45-3.66zm13.96 3.5l-6.2-1.55a1.85 1.85 0 10-.91 3.59l6.21 1.56a1.82 1.82 0 00.46.06 1.86 1.86 0 00.44-3.66zm-35.04-4.95l6.21 1.55a1.74 1.74 0 00.45.06 1.86 1.86 0 00.45-3.66l-6.21-1.55a1.86 1.86 0 10-.9 3.6zM195 214.83l-64.25-16.09a1.86 1.86 0 10-.9 3.6l64.25 16.09a1.74 1.74 0 00.45.06 1.86 1.86 0 00.45-3.66zm4.64-18.44l-64.25-16.09a1.85 1.85 0 10-.9 3.59L198.74 200a1.74 1.74 0 00.45.06 1.86 1.86 0 00.45-3.66zM166.15 57.54l64.25 16.09a1.74 1.74 0 00.45.06 1.86 1.86 0 00.45-3.69l-64.25-16.06a1.86 1.86 0 00-.9 3.6zm17.36 63.36c.18-.46.35-.92.5-1.37a6.89 6.89 0 00-1 .49 23.3 23.3 0 00-3.74 3 3.69 3.69 0 00-.28.27c0 .1.11.24.16.35a13 13 0 002.39 3.35c.41-1.58.93-3.27 1.61-5.15.13-.33.25-.63.36-.94zM163 151.05a6.55 6.55 0 01-3.36 1.36c-.57.07-1.15.12-1.73.18l-.84.08a3.32 3.32 0 00-2.83 2 9.75 9.75 0 00-.45 1 3.51 3.51 0 00.13 3.3 18.06 18.06 0 002.08 2.93 6.73 6.73 0 011.42 2.42c.13.38.26.75.4 1.12s.36 1 .53 1.51a1.39 1.39 0 001.15 1h.09l.63.15a20.48 20.48 0 016 2.53 13.22 13.22 0 003.81 1.57 21.84 21.84 0 008.93 0 2.33 2.33 0 00.92-.34 17.83 17.83 0 012.81-1.54h.07l.11-.38a9.14 9.14 0 01.57-1.59 1.63 1.63 0 00-.12-1.7 7.46 7.46 0 01-1-4.55 1 1 0 00-.35-.87 21.09 21.09 0 00-2.62-2.28 2.63 2.63 0 01-1.08-1.45 2.13 2.13 0 01.34-1.89 1.93 1.93 0 011.16-.73 17.29 17.29 0 00-.66-3.71.87.87 0 00-.22-.32 12.91 12.91 0 01-2.51-3.65.78.78 0 00-.59-.42h-.05l-.45-.09c-.91-.21-1.82-.41-2.74-.59a2.55 2.55 0 00-2 .39 11.23 11.23 0 00-2.15 1.8 6.44 6.44 0 01-3.64 2 3.86 3.86 0 00-1.76.76zm29.26-.92l-.93.33-.39.13-.32.11a2.49 2.49 0 00-.54.2 3.73 3.73 0 01-2.24 1.18c-.41.06-.56.15-.73.64a10 10 0 01-1.3 2.41 11.92 11.92 0 00-.64 1 1.37 1.37 0 00-.08 1.58 8.44 8.44 0 011 2.81l.16.83c.1.53.2 1.06.32 1.59a5.22 5.22 0 001.2 2.49.94.94 0 00.52.32 1.09 1.09 0 00.25 0 16.77 16.77 0 012.84.28c.78.14 1-.05 1.26-.31a9.23 9.23 0 012-1.63 2 2 0 00.74-.85 4.53 4.53 0 012.33-2.19.84.84 0 00.54-.56 5 5 0 00-.17-2.69 5.41 5.41 0 01-.06-2.65 2.94 2.94 0 00-.22-2 9.45 9.45 0 01-1-3.07l-.8-.54-1.82-1.22a.25.25 0 00-.2.06 2.81 2.81 0 01-1.72 1.75zm-37.36-15.8c-.12.45-.24.91-.35 1.36s-.19.72-.28 1.08a7.12 7.12 0 00-.38 3.54 9.19 9.19 0 01-.26 3.5c-.07.33-.14.66-.19 1a7.51 7.51 0 00-.06 3.06 1 1 0 00.73.77h.12a3.44 3.44 0 001.28 0c2.1-.53 4.21-1 6.31-1.55a1.16 1.16 0 00.63-.41 15.28 15.28 0 001.94-2.92 4.75 4.75 0 00.44-3.27l-.08-.35a22.65 22.65 0 01-.62-3.93 5.69 5.69 0 01-1.9-2.82 12.29 12.29 0 00-.8-2c-.44-.81-.87-.91-1-.95a2.13 2.13 0 00-1.09.08 9.66 9.66 0 00-1.76.81l-.21.11a4.59 4.59 0 00-2.47 2.89zm32.58-1.15a3.71 3.71 0 01-1.91 1.93c-.53.23-.6.42-.62.48a6.8 6.8 0 01-2.35 3 6.83 6.83 0 00-2.44 4.73 1 1 0 000 .55 7 7 0 01.38 2.27 2.34 2.34 0 00.72 1.61 6 6 0 002.15 1.41l.2.06a.39.39 0 00.3 0 15.81 15.81 0 013.59-.87h.11a25.26 25.26 0 013.67-3.49l.11-.09a3 3 0 001.32-1.94v-.31a17.07 17.07 0 00.57-3.62 6.25 6.25 0 00-.29-3.12 7 7 0 00-3.81-3.43 1.61 1.61 0 00-.29-.09c-.44-.1-.97-.08-1.41.92zm-14.27-7.61l-.39.7-.38.69a7.44 7.44 0 01-2.75 3 1.6 1.6 0 00-.55.66 6.88 6.88 0 00-.63 1.8v.06a8.74 8.74 0 00-.32 1.68c-.21 2.4.18 4.08 1.27 5.45a4.74 4.74 0 01.57 1 3.33 3.33 0 002.18 1.69 2.77 2.77 0 001.88-.13 8.86 8.86 0 004.38-4.9 4.81 4.81 0 00.2-.53 5.29 5.29 0 011.28-2.21.65.65 0 00.25-.51 7.74 7.74 0 00-.68-3.55c-.43-1-.79-1.86-1.09-2.74a3.21 3.21 0 00-2-2.11 7.44 7.44 0 00-1-.34 11.65 11.65 0 00-1.18-.21.88.88 0 00-1.04.5zm26.15 22.77a13.69 13.69 0 001.92 4c.17-.37.34-.73.52-1.09a18 18 0 001.11-2.6 17 17 0 00.69-5.66 36 36 0 01-4.24 5.35zm-32.31-22.89a7.53 7.53 0 00-4.59 3.09c.37.37.72.74 1.08 1.12.55.59 1.09 1.15 1.66 1.68l.27-1.11a21.92 21.92 0 011.05-3.55c.17-.41.35-.82.53-1.23zm28.73 8.29l.22-.74.23-.68c.05-.29.1-.58.16-.88.12-.67.25-1.37.34-2.05a14.6 14.6 0 00.13-2.8 24.86 24.86 0 01-3.34 3.83l2 2.9z"/></symbol></svg>