
<svg xmlns="http://www.w3.org/2000/svg" viewBox="0 0 275.1 263.39">
 
    
    
    <path d="M240.35 50.18a1.72 1.72 0 0 0-1.72-1.64H209c-5.7-11.42-15.25-18.94-26-18.94s-20.35 7.52-26.05 18.94h-29.6a1.72 1.72 0 0 0-1.72 1.64l-1.87 35.76a91.21 91.21 0 0 0-17.22-1.56C78.81 84.38 57.83 95 44.18 116s-15.79 46.32-15.79 59.49a1.78 1.78 0 0 0 1.28 1.7c17.13 5 28.94 7.76 44.09 8.82 4 3.87 33.64 32.23 40.23 38.82 4.3 4.3 15.66 8.79 28 8.79 8.59 0 17.65-2.19 25.11-8.13 14.72-11.73 40.17-17.56 52.86-17.3h.04a2.89 2.89 0 0 0 2.89-2.84 2.84 2.84 0 0 0-1.11-2.33 920.972 920.972 0 0 1-21.45-17.76h45.27a1.72 1.72 0 0 0 1.25-.53 1.71 1.71 0 0 0 .47-1.28zM116.5 222.28c-5.71-5.7-28.54-27.61-37.3-36q3.38.14 7 .18h3.38c28.49 0 80.92-7.86 92.89-12.14 3.35 3 16.8 15.1 35.63 30.27-13.74.28-38.58 6.38-53.26 18.08-16.31 13.02-41.91 6.04-48.34-.39zm51.34-100.7c9.49 16.34 13.06 36 13.26 49.49-10.95 3.77-62.41 11.85-91.49 11.85h-1.39c.3-65.45 16.55-91.12 19.3-95 27.2.28 47.48 11.59 60.32 33.66zM103.21 88c-5.11 8.21-18.27 35.12-18.53 94.9-19.77-.33-31.93-2.76-52.73-8.76.4-41.08 19.36-84.38 71.26-86.14zm81.43 83.51a110.61 110.61 0 0 0-2.54-21.77 25.17 25.17 0 0 0 9.74-2.55 2.61 2.61 0 0 0 1-.64 20.28 20.28 0 0 1 2.76-2.56l.07-.06v-.47a12.06 12.06 0 0 1 .19-2 1.88 1.88 0 0 0-.61-1.9 8.79 8.79 0 0 1-2.43-4.9 1.16 1.16 0 0 0-.64-.89 25.93 25.93 0 0 0-3.64-1.85 3.09 3.09 0 0 1-1.64-1.34 2.49 2.49 0 0 1-.16-2.25 2.3 2.3 0 0 1 1.12-1.16 20.27 20.27 0 0 0-1.81-4 .92.92 0 0 0-.34-.31 15.82 15.82 0 0 1-3.91-3.43.86.86 0 0 0-.79-.32h-.59c-1.1 0-2.2.06-3.29.12a3 3 0 0 0-2.16 1 13.27 13.27 0 0 0-1.94 2.65c-.06.12-.15.22-.22.34-.6-1.15-1.22-2.29-1.87-3.42a79.49 79.49 0 0 0-6.17-9.12c0-.09-.07-.17-.09-.25a1.86 1.86 0 0 1-.19-.11 65.78 65.78 0 0 0-37.28-23.65L129 52h26.39a54.39 54.39 0 0 0-3.27 11.92 8.86 8.86 0 1 0 3.44.29A50.83 50.83 0 0 1 159.09 52h47.8a50.38 50.38 0 0 1 3.52 12.1 8.86 8.86 0 1 0 3.47-.11 54.48 54.48 0 0 0-3.29-12H237l6.78 129.78H196.3c-6.15-5.3-10.24-9-11.66-10.28zm-31.53-96.6a1.72 1.72 0 0 0 1.72-1.72c0-1.67.08-3.31.22-4.92a4.87 4.87 0 1 1-3.45-.15c-.14 1.66-.22 3.35-.22 5.07a1.72 1.72 0 0 0 1.73 1.72zm58-1.72a1.73 1.73 0 0 0 3.45 0c0-1.66-.08-3.3-.21-4.91a4.87 4.87 0 1 1-3.48-.16c.19 1.66.28 3.35.28 5.07zM183 33.05c9 0 17 6.08 22.2 15.49h-44.4C166 39.13 174 33.05 183 33.05z"/>
    <path d="M178.18 91a4.07 4.07 0 0 0-.25.39c.08.11.2.25.29.36a15.13 15.13 0 0 0 3.68 3.13 61.49 61.49 0 0 1 .36-6.32l.12-1.14c.07-.59.14-1.15.18-1.71a7.72 7.72 0 0 0-1 .83 27.73 27.73 0 0 0-3.38 4.46zM208.6 122.35a3.44 3.44 0 0 0-.84-2.24 10.92 10.92 0 0 1-1.95-3.22l-1.06-.39-2.43-.87a.37.37 0 0 0-.2.12 3.39 3.39 0 0 1-1.43 2.46c-.32.22-.64.42-1 .63l-.41.26-.34.21a3.44 3.44 0 0 0-.55.39 4.36 4.36 0 0 1-2.21 2c-.46.18-.6.33-.65.94a11.48 11.48 0 0 1-.8 3.11c-.17.47-.33.91-.44 1.34a1.59 1.59 0 0 0 .36 1.81 9.88 9.88 0 0 1 1.89 2.93l.42.9c.27.57.54 1.15.82 1.71a6 6 0 0 0 2.07 2.49 1.14 1.14 0 0 0 .69.23 1 1 0 0 0 .3 0 20.59 20.59 0 0 1 3.32-.48c.93-.06 1.15-.36 1.34-.72a10.92 10.92 0 0 1 1.75-2.41 2.44 2.44 0 0 0 .61-1.18 5.32 5.32 0 0 1 2-3.16 1 1 0 0 0 .45-.8 5.73 5.73 0 0 0-1-3 6.34 6.34 0 0 1-.71-3.06zM194.92 117.54a29.76 29.76 0 0 1 3.18-5l.1-.15a3.49 3.49 0 0 0 1-2.57v-.38a19.91 19.91 0 0 0-.38-4.29 7.18 7.18 0 0 0-1.22-3.46 8.21 8.21 0 0 0-5.32-2.82 2.17 2.17 0 0 0-.36 0c-.61 0-1.21.17-1.43 1.44a4.4 4.4 0 0 1-1.63 2.74c-.53.42-.56.65-.56.72a8 8 0 0 1-1.8 4.14c-1.22 1.52-1.66 3.4-1.44 6.09a1.39 1.39 0 0 0 .18.63 8.28 8.28 0 0 1 1.09 2.47 2.68 2.68 0 0 0 1.28 1.63 7.24 7.24 0 0 0 2.85 1h.25a.51.51 0 0 0 .34-.08 18.48 18.48 0 0 1 3.84-2zM180.53 99.41c-.77-1-1.43-1.9-2-2.8a3.8 3.8 0 0 0-2.83-1.85 9.18 9.18 0 0 0-1.28-.09 11.14 11.14 0 0 0-1.41.1 1 1 0 0 0-1 .89c-.09.3-.17.61-.25.91s-.15.6-.23.89a8.74 8.74 0 0 1-2.29 4.15 1.75 1.75 0 0 0-.43.91 7.68 7.68 0 0 0-.21 2.24v.12a10.43 10.43 0 0 0 .11 2c.45 2.79 1.37 4.59 3 5.84a6 6 0 0 1 .94.94 3.89 3.89 0 0 0 3 1.31 3.29 3.29 0 0 0 2.1-.69 10.42 10.42 0 0 0 3.6-6.83c0-.22.05-.44.07-.66a6.11 6.11 0 0 1 .82-2.89.72.72 0 0 0 .14-.65 9 9 0 0 0-1.85-3.84zM208.27 114.14a16 16 0 0 0 3.31 4c.09-.47.19-.93.29-1.39a21.48 21.48 0 0 0 .53-3.29 20.37 20.37 0 0 0-.83-6.63 43.83 43.83 0 0 1-3.3 7.31zM160.58 102.11c.53.31 1 .64 1.55 1 .8.51 1.57 1 2.37 1.44v-1.35a27.37 27.37 0 0 1 .19-4.34c.07-.52.16-1 .25-1.56a8.9 8.9 0 0 0-4.36 4.81zM200 98.52l.07-.87.07-.84c0-.35 0-.7-.07-1-.05-.8-.1-1.63-.2-2.43a17.61 17.61 0 0 0-.65-3.23 29.18 29.18 0 0 1-2.71 5.31l3.08 2.74z"/>
   
    
    
    <path d="M102.29 83.83h6.34a1.78 1.78 0 0 0 0-3.55h-6.34a1.78 1.78 0 0 0 0 3.55zM134.38 128.13c-.53-1.15-1-2.4-1.55-3.83l-.24-.7c-.12-.35-.24-.7-.37-1a4.45 4.45 0 0 0-.37.64 13.69 13.69 0 0 0-.87 3.22v.27l.28.17a12.57 12.57 0 0 0 3.12 1.23zM137.31 144.9a7.94 7.94 0 0 0-.44 2.1 4.59 4.59 0 0 1-1.3 2.91 2.78 2.78 0 0 0-.73 1.32 4.88 4.88 0 0 1-1.5 2.47l-1.06 1-.52.45a2.65 2.65 0 0 0-.85 2.75c.07.31.16.62.26.93a3 3 0 0 0 1.87 2.14 16.39 16.39 0 0 0 2.9.87 5.88 5.88 0 0 1 2.22.88c.28.18.56.36.85.53l1.13.72a1.12 1.12 0 0 0 1.27.09h.07l.48-.22a15.9 15.9 0 0 1 5-1.36 9.44 9.44 0 0 0 3-.85 14.85 14.85 0 0 0 5-4.19 1.64 1.64 0 0 0 .34-.62 11.88 11.88 0 0 1 .78-2.19.14.14 0 0 0 0-.06l-.12-.28a8.8 8.8 0 0 1-.45-1.21 1.35 1.35 0 0 0-.87-1 6.39 6.39 0 0 1-2.72-2.35.82.82 0 0 0-.61-.39 15.92 15.92 0 0 0-2.58-.29 2.09 2.09 0 0 1-1.32-.43 1.81 1.81 0 0 1-.74-1.32 1.37 1.37 0 0 1 .32-1 15.6 15.6 0 0 0-2.2-2 .77.77 0 0 0-.28-.12 11.45 11.45 0 0 1-3.3-1.24.61.61 0 0 0-.57 0l-.32.12c-.65.26-1.32.51-2 .78a1.72 1.72 0 0 0-1.01 1.06zM150.55 144c0 .31.08.6.13.88a1.18 1.18 0 0 0 .71 1 7.36 7.36 0 0 1 1.86 1.31l.48.44c.3.28.61.56.92.82a4.15 4.15 0 0 0 1.81 1 .7.7 0 0 0 .43 0l.15-.09a10 10 0 0 1 1.61-1c.47-.24.5-.46.5-.7a6.49 6.49 0 0 1 .25-1.75 1.41 1.41 0 0 0 0-.79 3.1 3.1 0 0 1 .18-2.2.6.6 0 0 0 0-.54 4.24 4.24 0 0 0-1.31-1.51 4.6 4.6 0 0 1-1.24-1.53 2.51 2.51 0 0 0-1-1.1 8.16 8.16 0 0 1-1.9-1.46h-.66l-1.54-.05a.19.19 0 0 0-.08.1 1.91 1.91 0 0 1-.1 1.68l-.34.55-.15.22-.13.19a1.38 1.38 0 0 0-.2.33 2.32 2.32 0 0 1-.67 1.59c-.2.2-.24.31-.1.67a7.6 7.6 0 0 1 .39 1.94zM123.4 139a1.52 1.52 0 0 0-1.21-.21 1.59 1.59 0 0 0-.73.52 7.08 7.08 0 0 0-.83 1.31l-.09.17a3.3 3.3 0 0 0-.23 3c.15.37.32.73.49 1.09s.26.58.38.87a6.08 6.08 0 0 0 1.66 2.6 7.89 7.89 0 0 1 1.73 2.5c.13.26.26.51.4.76a6.4 6.4 0 0 0 1.62 2.1 1 1 0 0 0 .94.17h.1a3 3 0 0 0 .86-.65q1.74-2 3.45-4a.78.78 0 0 0 .2-.56 10.9 10.9 0 0 0-.24-2.79 4.13 4.13 0 0 0-1.41-2.34l-.24-.2a20.16 20.16 0 0 1-2.45-2.34 5.78 5.78 0 0 1-2.8-1 10.76 10.76 0 0 0-1.6-1zM140.76 135.07a5.16 5.16 0 0 0 .86 3.91 1.05 1.05 0 0 0 .29.34 6.66 6.66 0 0 1 1.34 1.26 2 2 0 0 0 1.21.71 4.6 4.6 0 0 0 1.92 0h.15a.3.3 0 0 0 .17-.12 9.66 9.66 0 0 1 1.61-1.94l.05-.06a16.55 16.55 0 0 1 .38-3.51v-.1a2.18 2.18 0 0 0-.18-1.66l-.07-.1v-.11a15.36 15.36 0 0 0-1.39-2.39 5.55 5.55 0 0 0-1.63-1.78 5.77 5.77 0 0 0-3.81-.74h-.21c-.35.1-.65.3-.43 1.09a2.38 2.38 0 0 1-.19 1.88c-.2.34-.15.49-.13.53a4.71 4.71 0 0 1 .06 2.79zM128.73 136.62a7.37 7.37 0 0 0 .66 1.24 6.78 6.78 0 0 0 3.64 3 4.87 4.87 0 0 1 .87.38 2.85 2.85 0 0 0 2.25.18 1.9 1.9 0 0 0 1.11-.86 6.16 6.16 0 0 0 .26-4.87c-.05-.14-.1-.27-.14-.41a3.73 3.73 0 0 1-.32-1.89.49.49 0 0 0-.1-.42 7.36 7.36 0 0 0-2.18-2c-.75-.46-1.42-.89-2.06-1.34a3.08 3.08 0 0 0-2.31-.62 6.3 6.3 0 0 0-.84.18 7 7 0 0 0-.88.3.57.57 0 0 0-.41.69c0 .2.07.4.1.61s.07.39.1.59a4.84 4.84 0 0 1-.3 3 1.11 1.11 0 0 0 0 .65 5.22 5.22 0 0 0 .55 1.59zM157.44 136.36l-.23-.83a14.1 14.1 0 0 0-.6-1.91 15.2 15.2 0 0 0-2.2-3.54 24.81 24.81 0 0 1 .24 4.64 11.36 11.36 0 0 0 2.79 1.64zM122.58 136.57l1.35.31c.7.16 1.36.31 2 .42l-.4-.85a18.54 18.54 0 0 1-1.14-2.77c-.1-.34-.2-.69-.29-1a5 5 0 0 0-1.52 3.89zM145.65 127.14l.33.14-.2-.51-.19-.48c-.11-.2-.22-.39-.32-.59-.25-.44-.5-.91-.77-1.35a13.28 13.28 0 0 0-1.24-1.73 15.24 15.24 0 0 1-.09 3.44z"/>
 
</svg>