
<svg xmlns="http://www.w3.org/2000/svg" viewBox="0 0 275.1 263.39">
  
    
    <path d="M69.55 154.56l-3.77 3.86a2 2 0 0 0 2.86 2.8l3.77-3.87a2 2 0 0 0-2.86-2.79zM256.05 106.42A10.39 10.39 0 0 0 245.66 96H212.4V67.79l-29.61-34.31a2 2 0 1 0-3 2.61l28.61 33.19V96h-39.63a10.39 10.39 0 0 0 0 20.78h.16l11.92 110.76h53.05l12.63-110.81a10.38 10.38 0 0 0 9.52-10.31zm-25.23 117.7H184l-11.6-107.31h70.65zm15.83-110.84h-78.1v.07a6.94 6.94 0 0 1 .21-13.87h76.89a6.94 6.94 0 0 1 1 13.8z"/>
    <path d="M154.49 170.54a55.89 55.89 0 0 0-55.82-55.81H85.08a55.89 55.89 0 0 0-55.82 55.81 14.49 14.49 0 0 0 0 27.81v8.09a21.85 21.85 0 0 0 21.84 21.83h81.55a21.85 21.85 0 0 0 21.84-21.83v-7.77-.32a14.49 14.49 0 0 0 0-27.81zm-121.23-.61a51.88 51.88 0 0 1 51.82-51.2h13.59a51.88 51.88 0 0 1 51.82 51.2H33.26zm117.23 29v7.49a17.85 17.85 0 0 1-17.84 17.83H51.1a17.85 17.85 0 0 1-17.84-17.83V199h117.23zm-.11-4h-117a10.51 10.51 0 0 1 0-21h117a10.51 10.51 0 0 1 0 21z"/>
    <path d="M74.8 130.35l-4.42 4.52a2 2 0 0 0 2.86 2.8l4.42-4.52a2 2 0 0 0-2.86-2.8zM110.13 130.35l-4.42 4.52a2 2 0 0 0 2.86 2.8l4.42-4.52a2 2 0 0 0-2.86-2.8zM89.35 147l-4.42 4.52a2 2 0 0 0 2.86 2.8l4.42-4.52a2 2 0 0 0-2.86-2.8zM122.6 147l-4.42 4.52a2 2 0 0 0 2.86 2.8l4.42-4.52a2 2 0 0 0-2.86-2.8zM206.18 153.63a36.09 36.09 0 0 1-.91-3.74c-.05-.23-.09-.46-.13-.69s-.13-.69-.2-1a4 4 0 0 0-.42.65 16.77 16.77 0 0 0-1.2 3.21c0 .09 0 .19-.07.27l.23.15a8.89 8.89 0 0 0 2.7 1.15zM222.55 178.28a1.15 1.15 0 0 0-.69-1 5.4 5.4 0 0 1-2.28-2.42.67.67 0 0 0-.53-.4 15.61 15.61 0 0 0-2.44-.44 1.83 1.83 0 0 1-1.2-.48 1.54 1.54 0 0 1-.49-1.29 1.46 1.46 0 0 1 .44-.87 12.22 12.22 0 0 0-1.77-2 .58.58 0 0 0-.25-.12 9.43 9.43 0 0 1-2.89-1.31.54.54 0 0 0-.51 0l-.3.11c-.64.21-1.27.42-1.9.65a1.77 1.77 0 0 0-1.07 1 8 8 0 0 0-.66 1.89 4.52 4.52 0 0 1-1.5 2.55 2.93 2.93 0 0 0-.79 1.14 4.68 4.68 0 0 1-1.55 2.07l-1 .75-.48.35a2.39 2.39 0 0 0-1 2.28 7.5 7.5 0 0 0 .11.81 2.48 2.48 0 0 0 1.3 2 12.8 12.8 0 0 0 2.31 1 4.73 4.73 0 0 1 1.76 1l.66.54.88.73a1 1 0 0 0 1.09.21h.06l.44-.14a14.64 14.64 0 0 1 4.6-.66 9.32 9.32 0 0 0 2.92-.44 15.44 15.44 0 0 0 5.46-3.3 1.81 1.81 0 0 0 .44-.55 12.51 12.51 0 0 1 1.15-2v-.06l-.08-.26a8.09 8.09 0 0 1-.24-1.34zM227.61 166.49a3.71 3.71 0 0 1-1-1.6 2.07 2.07 0 0 0-.88-1.15 6.8 6.8 0 0 1-1.72-1.53h-.68l-1.57-.07a.24.24 0 0 0-.1.1 2 2 0 0 1-.39 1.68q-.22.28-.45.54l-.19.23-.16.18a2.51 2.51 0 0 0-.25.32 2.73 2.73 0 0 1-.94 1.55.52.52 0 0 0-.21.66 7.15 7.15 0 0 1 .09 2 8.29 8.29 0 0 0 0 .85 1 1 0 0 0 .53 1 5.9 5.9 0 0 1 1.62 1.36l.41.45c.25.29.51.57.78.85a3.71 3.71 0 0 0 1.64 1.09.74.74 0 0 0 .44 0l.17-.08a12.49 12.49 0 0 1 1.85-.87c.53-.2.61-.41.65-.65a6.51 6.51 0 0 1 .6-1.72 1.66 1.66 0 0 0 .14-.79 3.24 3.24 0 0 1 .62-2.21.58.58 0 0 0 .12-.54 3.55 3.55 0 0 0-1.12-1.65zM201.73 172.77a10 10 0 0 0 .11-2.5 3.37 3.37 0 0 0-.93-2.16l-.17-.19a16.5 16.5 0 0 1-1.84-2.17 4.21 4.21 0 0 1-2.19-1 8.08 8.08 0 0 0-1.21-.9 1.12 1.12 0 0 0-1-.21 1.56 1.56 0 0 0-.63.45 6.77 6.77 0 0 0-.78 1.14l-.09.15a3.23 3.23 0 0 0-.46 2.6c.09.33.19.65.29 1s.15.51.23.77v.05a5.06 5.06 0 0 0 1.07 2.31 6.58 6.58 0 0 1 1.13 2.24c.08.23.15.46.24.68a5.34 5.34 0 0 0 1.09 1.89.75.75 0 0 0 .74.21h.07a2.57 2.57 0 0 0 .76-.5l3.29-3.27a.76.76 0 0 0 .28-.59zM211.57 164.53a5.09 5.09 0 0 1 1.07 1.24 1.67 1.67 0 0 0 1 .73 4.52 4.52 0 0 0 1.83.07h.15a.29.29 0 0 0 .18-.11 11 11 0 0 1 1.88-1.85l.06-.06a17.42 17.42 0 0 1 1-3.48v-.11a2.09 2.09 0 0 0 .1-1.66l-.05-.11v-.11a13.47 13.47 0 0 0-1-2.43 4.53 4.53 0 0 0-1.32-1.8 5 5 0 0 0-3.6-.69h-.21c-.36.11-.68.31-.58 1.09a2.65 2.65 0 0 1-.46 1.89c-.24.33-.21.47-.2.52a4.82 4.82 0 0 1-.32 2.73 4.92 4.92 0 0 0 .25 3.8.78.78 0 0 0 .22.34zM200.19 161.79a5.86 5.86 0 0 0 .42 1.15 5.12 5.12 0 0 0 2.78 2.87 3.72 3.72 0 0 1 .71.38 2.37 2.37 0 0 0 2 .24 2 2 0 0 0 1.1-.77 6.31 6.31 0 0 0 .88-4.62 2.66 2.66 0 0 0-.07-.39 3.78 3.78 0 0 1 0-1.83.46.46 0 0 0 0-.41 5.55 5.55 0 0 0-1.72-1.92 20.21 20.21 0 0 1-1.67-1.28 2.32 2.32 0 0 0-2-.57 4.94 4.94 0 0 0-.76.18 6 6 0 0 0-.8.31.62.62 0 0 0-.43.69V156.96a5.31 5.31 0 0 1-.6 2.82 1 1 0 0 0-.09.6 4.7 4.7 0 0 0 .27 1.34zM227.5 161a10.66 10.66 0 0 0-1.93-5.72 27.28 27.28 0 0 1-.62 4.85 9.75 9.75 0 0 0 2.63 1.73c-.03-.25-.05-.53-.08-.86zM197.77 162.34c-.08-.27-.17-.53-.25-.79a16 16 0 0 1-.66-2.56c-.05-.31-.09-.63-.13-1a5.38 5.38 0 0 0-1.67 3.59l1.07.29c.56.2 1.09.35 1.64.47zM217.38 152.54l-.12-.52-.11-.5c-.07-.2-.15-.39-.22-.6-.18-.46-.35-.93-.55-1.38a10.28 10.28 0 0 0-.95-1.76 17.37 17.37 0 0 1-.64 3.57l2.28 1.05z"/>
  
</svg>