
<svg xmlns="http://www.w3.org/2000/svg" viewBox="0 0 24 24"><path d="M20.88 20.05l.43-.5c.1-.12.19-.25.29-.38s.27-.35.39-.53.17-.28.25-.42l.34-.56.23-.48c.09-.19.18-.37.26-.56s.14-.37.21-.55l.19-.54c.06-.21.11-.43.16-.64a4.6 4.6 0 0 0 .13-.5c0-.25.08-.51.12-.77l.06-.41a12 12 0 1 0-23.88 0l.06.4c0 .26.07.53.12.78s.08.33.12.49.11.44.17.65.13.36.19.53.13.38.21.56.17.37.26.55.15.33.23.49.22.37.33.55l.26.43c.12.18.26.35.39.53s.19.26.29.38.28.33.43.49.18.21.28.31a12 12 0 0 0 17.2 0c.1-.09.18-.2.28-.3zm-5.4-7.48A4.93 4.93 0 0 0 17 9 5 5 0 0 0 7 9a4.93 4.93 0 0 0 1.52 3.57 11 11 0 0 0-5.43 4A1.63 1.63 0 0 0 3 16.3c-.1-.22-.2-.43-.28-.65l-.15-.4c-.07-.21-.14-.43-.2-.65s-.07-.27-.1-.4-.09-.49-.13-.74 0-.23-.05-.35A8.27 8.27 0 0 1 2 12v-1a10 10 0 0 1 9-8.95h1a9.42 9.42 0 0 1 1.2.08 10.71 10.71 0 0 1 1.28.24 10.5 10.5 0 0 1 1.16.38 2.85 2.85 0 0 1 .31.12A10 10 0 0 1 21 7.69c.12.25.23.5.33.76a9.59 9.59 0 0 1 .39 1.29l.09.38A10.6 10.6 0 0 1 22 12a8.27 8.27 0 0 1-.07 1.11c0 .12 0 .23-.05.35s-.08.49-.13.73-.07.27-.1.41-.13.44-.2.65l-.15.4c-.08.22-.18.43-.28.64a2.56 2.56 0 0 0-.11.24 11 11 0 0 0-5.43-3.96zM9 9a3 3 0 1 1 3 3 3 3 0 0 1-3-3zm3 13a10 10 0 0 1-7.71-3.64 9 9 0 0 1 15.42 0A10 10 0 0 1 12 22z"/></svg>