
<svg xmlns="http://www.w3.org/2000/svg" viewBox="0 0 275.1 263.39">
    <path d="M90.52 102.39a1.85 1.85 0 0 0-2.48-.85l-5.75 2.8a1.85 1.85 0 0 0 .81 3.52 1.81 1.81 0 0 0 .81-.19l5.75-2.8a1.86 1.86 0 0 0 .86-2.48zM107.32 94.21a1.87 1.87 0 0 0 1.68 1.05 1.81 1.81 0 0 0 .81-.19l5.76-2.8a1.86 1.86 0 0 0-1.63-3.34l-5.75 2.8a1.86 1.86 0 0 0-.87 2.48zM103.47 96.09a1.85 1.85 0 0 0-2.48-.85L95.23 98a1.85 1.85 0 1 0 1.63 3.33l5.75-2.8a1.86 1.86 0 0 0 .86-2.44zM75.09 107.84l-5.75 2.8a1.85 1.85 0 0 0 .81 3.52A1.81 1.81 0 0 0 71 114l5.76-2.8a1.85 1.85 0 0 0-1.63-3.33zM107 47.7a1.86 1.86 0 0 0-2.48-.86L45 75.83a1.85 1.85 0 0 0 .81 3.52 1.91 1.91 0 0 0 .81-.18l59.56-29a1.86 1.86 0 0 0 .82-2.47zM100.65 116.53c-.17-.47-.33-.92-.5-1.37a6.33 6.33 0 0 0-.44 1 24.23 24.23 0 0 0-.95 4.69v.39l.35.16a12.84 12.84 0 0 0 4 1 53.29 53.29 0 0 1-2.08-5c-.17-.25-.27-.56-.38-.87zM101.1 149.86a15.11 15.11 0 0 0-.4-3.48 4.68 4.68 0 0 0-1.76-2.78l-.28-.22a22 22 0 0 1-3-2.61 5.75 5.75 0 0 1-3.27-.94 11.88 11.88 0 0 0-1.87-1 1.59 1.59 0 0 0-1.38-.08 2.18 2.18 0 0 0-.78.76 9 9 0 0 0-.83 1.75l-.1.22a4.57 4.57 0 0 0 0 3.71c.18.43.39.85.6 1.27s.32.67.47 1a7.31 7.31 0 0 0 2 3 8.89 8.89 0 0 1 2.06 2.84c.16.3.32.6.49.89a7.57 7.57 0 0 0 1.91 2.37 1 1 0 0 0 1.07.12l.12-.06a3.67 3.67 0 0 0 .94-.86q1.9-2.62 3.84-5.25a1.14 1.14 0 0 0 .17-.65zM112.43 121.64l-.28.11c-.47.23-.86.59-.56 1.64a3.71 3.71 0 0 1-.22 2.7c-.26.52-.19.71-.17.77a6.79 6.79 0 0 1 .16 3.84 6.82 6.82 0 0 0 1.17 5.2 1.32 1.32 0 0 0 .37.41 6.93 6.93 0 0 1 1.76 1.48 2.29 2.29 0 0 0 1.59.78 6.07 6.07 0 0 0 2.54-.31l.2-.08a.39.39 0 0 0 .23-.19 15.85 15.85 0 0 1 2.19-3 .36.36 0 0 0 .07-.1 25.1 25.1 0 0 1 .57-5v-.15a3 3 0 0 0-.23-2.32l-.1-.13-.06-.15a17.62 17.62 0 0 0-1.9-3.14 6.19 6.19 0 0 0-2.23-2.2 6.92 6.92 0 0 0-5.1-.16zM107.09 131.77a5.2 5.2 0 0 1-.44-2.52.64.64 0 0 0-.14-.55 7.78 7.78 0 0 0-2.8-2.29c-.95-.46-1.8-.92-2.6-1.39a3.26 3.26 0 0 0-2.86-.37 9.79 9.79 0 0 0-1 .42 7.19 7.19 0 0 0-1 .6.86.86 0 0 0-.44 1c0 .27.1.53.15.79l.15.78a7.33 7.33 0 0 1-.2 4 1.57 1.57 0 0 0 0 .86 6.68 6.68 0 0 0 .68 1.79v.05a8.47 8.47 0 0 0 .84 1.5 7.2 7.2 0 0 0 4.48 3.35 5.79 5.79 0 0 1 1.06.37 3.3 3.3 0 0 0 2.75-.1 2.84 2.84 0 0 0 1.36-1.31 8.91 8.91 0 0 0 .21-6.58c-.07-.05-.13-.23-.2-.4zM91 130.59a7.59 7.59 0 0 0-1.53 5.32l1.55.17c.81.09 1.58.19 2.35.22-.16-.34-.33-.69-.51-1a23.14 23.14 0 0 1-1.47-3.39c-.18-.46-.3-.91-.39-1.32zM114.56 112.31a24 24 0 0 1-.09 5.08l3.38 1 .45.13-.27-.69-.27-.67-.44-.78c-.34-.59-.69-1.21-1.06-1.79a14.6 14.6 0 0 0-1.7-2.28z"/>
    <path d="M254 58.07a1.89 1.89 0 0 0-1.14-.84L153.37 32.3a1.85 1.85 0 0 0-2.25 1.35l-11.83 47.22a1.87 1.87 0 0 0 .2 1.41l1.74 2.9-3-1h-.11a5.3 5.3 0 0 1-.67-.23h-.1l-5.11-1.77L134 77a.56.56 0 0 0 0-.12 5.16 5.16 0 0 1 .23-.66.49.49 0 0 1 0-.11l2.37-6.86a1.85 1.85 0 0 0-.09-1.42L115.3 24a1.82 1.82 0 0 0-1.06-.94 1.85 1.85 0 0 0-1.42.09L20.59 68.06a1.86 1.86 0 0 0-.86 2.48L41 114.32a1.88 1.88 0 0 0 1.06.94l6.94 2.37h.11a5.9 5.9 0 0 1 .67.23h.1L55 119.7l-1.76 5.12v.09a7 7 0 0 1-.24.69v.1l-2.37 6.86a1.84 1.84 0 0 0 .09 1.42L100.5 236.5a1.88 1.88 0 0 0 1.06.94 1.86 1.86 0 0 0 .61.1 1.75 1.75 0 0 0 .81-.19l32-15.56 72.15 18.07a1.82 1.82 0 0 0 .46.06 1.89 1.89 0 0 0 1-.26 1.91 1.91 0 0 0 .85-1.14l27.7-110.6a1.81 1.81 0 0 0-.21-1.4l-3.73-6.24-.06-.1a5.17 5.17 0 0 1-.36-.59l-.06-.11-2.78-4.64 4.64-2.78.09-.06c.2-.13.4-.25.61-.36l.1-.06 6.23-3.73a1.87 1.87 0 0 0 .85-1.14l11.83-47.23a1.87 1.87 0 0 0-.29-1.41zM103 233.21L54.28 133.05l2.1-6.09a8.74 8.74 0 0 0 .34-1l2.11-6.1 4.94-2.41a1.85 1.85 0 1 0-1.62-3.33l-5 2.41-6.08-2.1a8.74 8.74 0 0 0-1-.34L44 112 23.88 70.58l88.9-43.27 20.16 41.43-2.11 6.08a9.57 9.57 0 0 0-.33 1l-2.32 6.71a1.89 1.89 0 0 0-1.3.11l-5.75 2.8a1.86 1.86 0 0 0 .81 3.53 1.81 1.81 0 0 0 .81-.19L128.5 86a1.83 1.83 0 0 0 .9-1l6.71 2.33c.32.12.65.24 1 .33l6.09 2.11 2.32 4.77-3.65 2.19-.09.05a5.73 5.73 0 0 1-.62.38h-.09l-6.25 3.84a1.91 1.91 0 0 0-.85 1.14l-7.16 28.59h-.38a.34.34 0 0 0-.11.17 2.85 2.85 0 0 1 .18 1l-.33 1.31v.06c-.15.28-.32.56-.5.84l-.21.35-.18.29a3.05 3.05 0 0 0-.28.5 3.68 3.68 0 0 1-1 2.35.72.72 0 0 0-.14 1 9.93 9.93 0 0 1 .46 2l-1.94 7.73h-.46a2.55 2.55 0 0 1-1.76-.41 2.1 2.1 0 0 1-1-1.67 2 2 0 0 1 .42-1.31 17.6 17.6 0 0 0-2.89-2.41.94.94 0 0 0-.37-.11 13 13 0 0 1-4.28-1.17.74.74 0 0 0-.72.05l-.41.21c-.82.43-1.66.86-2.47 1.31a2.51 2.51 0 0 0-1.27 1.58 11.28 11.28 0 0 0-.5 2.76 6.34 6.34 0 0 1-1.51 3.85 4 4 0 0 0-.84 1.74 6.58 6.58 0 0 1-1.69 3.21c-.4.42-.81.83-1.22 1.25l-.59.59a3.34 3.34 0 0 0-.87 3.37 10.45 10.45 0 0 0 .32 1.09 3.5 3.5 0 0 0 2.24 2.44 18 18 0 0 0 3.41.89 6.68 6.68 0 0 1 2.64.93l1 .61q.7.39 1.38.81a1.39 1.39 0 0 0 1.55.05h.08l.58-.29A20.76 20.76 0 0 1 118 166l-5.47 21.82L102 193a1.85 1.85 0 0 0 .81 3.52 2 2 0 0 0 .81-.18l7.7-3.75-5 20.13a1.88 1.88 0 0 0 .21 1.41 1.84 1.84 0 0 0 1.14.84l21.76 5.45zm136-128.15l-5.53 3.31c-.3.16-.6.34-.89.53l-6.09 3.66a1.84 1.84 0 0 0-1.07-.75l-6.21-1.56a1.86 1.86 0 1 0-.9 3.6l6.21 1.56a1.73 1.73 0 0 0 .45 0 1.86 1.86 0 0 0 .84-.2l3.65 6.08a10.11 10.11 0 0 0 .53.9l3.32 5.52-27.09 108.11-95.91-24 27.07-108 5.54-3.31a9.87 9.87 0 0 0 .88-.54l5.54-3.31 5.32 1.33a1.8 1.8 0 0 0 .45.06 1.86 1.86 0 0 0 .45-3.66L150.23 93l-3.31-5.53a7.27 7.27 0 0 0-.54-.89L143.07 81l11.2-44.68 95.9 24z"/>
    <path d="M211.43 108.31l-6.21-1.55a1.85 1.85 0 1 0-.9 3.59l6.21 1.56a1.74 1.74 0 0 0 .45.06 1.86 1.86 0 0 0 .45-3.66zM183.5 101.31l-6.21-1.55a1.86 1.86 0 1 0-.9 3.6l6.21 1.55a1.74 1.74 0 0 0 .45.06 1.86 1.86 0 0 0 .45-3.66zM197.46 104.81l-6.2-1.55a1.85 1.85 0 1 0-.91 3.59l6.21 1.56a1.82 1.82 0 0 0 .46.06 1.86 1.86 0 0 0 .44-3.66zM162.42 99.86l6.21 1.55a1.74 1.74 0 0 0 .45.06 1.86 1.86 0 0 0 .45-3.66l-6.21-1.55a1.86 1.86 0 1 0-.9 3.6zM195 214.83l-64.25-16.09a1.86 1.86 0 1 0-.9 3.6l64.25 16.09a1.74 1.74 0 0 0 .45.06 1.86 1.86 0 0 0 .45-3.66zM199.64 196.39l-64.25-16.09a1.85 1.85 0 1 0-.9 3.59L198.74 200a1.74 1.74 0 0 0 .45.06 1.86 1.86 0 0 0 .45-3.66zM166.15 57.54l64.25 16.09a1.74 1.74 0 0 0 .45.06 1.86 1.86 0 0 0 .45-3.69l-64.25-16.06a1.86 1.86 0 0 0-.9 3.6zM183.51 120.9c.18-.46.35-.92.5-1.37a6.89 6.89 0 0 0-1 .49 23.3 23.3 0 0 0-3.74 3 3.69 3.69 0 0 0-.28.27c0 .1.11.24.16.35a13 13 0 0 0 2.39 3.35c.41-1.58.93-3.27 1.61-5.15.13-.33.25-.63.36-.94zM163 151.05a6.55 6.55 0 0 1-3.36 1.36c-.57.07-1.15.12-1.73.18l-.84.08a3.32 3.32 0 0 0-2.83 2 9.75 9.75 0 0 0-.45 1 3.51 3.51 0 0 0 .13 3.3 18.06 18.06 0 0 0 2.08 2.93 6.73 6.73 0 0 1 1.42 2.42c.13.38.26.75.4 1.12s.36 1 .53 1.51a1.39 1.39 0 0 0 1.15 1h.09l.63.15a20.48 20.48 0 0 1 6 2.53 13.22 13.22 0 0 0 3.81 1.57 21.84 21.84 0 0 0 8.93 0 2.33 2.33 0 0 0 .92-.34 17.83 17.83 0 0 1 2.81-1.54h.07l.11-.38a9.14 9.14 0 0 1 .57-1.59 1.63 1.63 0 0 0-.12-1.7 7.46 7.46 0 0 1-1-4.55 1 1 0 0 0-.35-.87 21.09 21.09 0 0 0-2.62-2.28 2.63 2.63 0 0 1-1.08-1.45 2.13 2.13 0 0 1 .34-1.89 1.93 1.93 0 0 1 1.16-.73 17.29 17.29 0 0 0-.66-3.71.87.87 0 0 0-.22-.32 12.91 12.91 0 0 1-2.51-3.65.78.78 0 0 0-.59-.42h-.05l-.45-.09c-.91-.21-1.82-.41-2.74-.59a2.55 2.55 0 0 0-2 .39 11.23 11.23 0 0 0-2.15 1.8 6.44 6.44 0 0 1-3.64 2 3.86 3.86 0 0 0-1.76.76zM192.26 150.13l-.93.33-.39.13-.32.11a2.49 2.49 0 0 0-.54.2 3.73 3.73 0 0 1-2.24 1.18c-.41.06-.56.15-.73.64a10 10 0 0 1-1.3 2.41 11.92 11.92 0 0 0-.64 1 1.37 1.37 0 0 0-.08 1.58 8.44 8.44 0 0 1 1 2.81l.16.83c.1.53.2 1.06.32 1.59a5.22 5.22 0 0 0 1.2 2.49.94.94 0 0 0 .52.32 1.09 1.09 0 0 0 .25 0 16.77 16.77 0 0 1 2.84.28c.78.14 1-.05 1.26-.31a9.23 9.23 0 0 1 2-1.63 2 2 0 0 0 .74-.85 4.53 4.53 0 0 1 2.33-2.19.84.84 0 0 0 .54-.56 5 5 0 0 0-.17-2.69 5.41 5.41 0 0 1-.06-2.65 2.94 2.94 0 0 0-.22-2 9.45 9.45 0 0 1-1-3.07l-.8-.54-1.82-1.22a.25.25 0 0 0-.2.06 2.81 2.81 0 0 1-1.72 1.75zM154.9 134.33c-.12.45-.24.91-.35 1.36s-.19.72-.28 1.08a7.12 7.12 0 0 0-.38 3.54 9.19 9.19 0 0 1-.26 3.5c-.07.33-.14.66-.19 1a7.51 7.51 0 0 0-.06 3.06 1 1 0 0 0 .73.77h.12a3.44 3.44 0 0 0 1.28 0c2.1-.53 4.21-1 6.31-1.55a1.16 1.16 0 0 0 .63-.41 15.28 15.28 0 0 0 1.94-2.92 4.75 4.75 0 0 0 .44-3.27l-.08-.35a22.65 22.65 0 0 1-.62-3.93 5.69 5.69 0 0 1-1.9-2.82 12.29 12.29 0 0 0-.8-2c-.44-.81-.87-.91-1-.95a2.13 2.13 0 0 0-1.09.08 9.66 9.66 0 0 0-1.76.81l-.21.11a4.59 4.59 0 0 0-2.47 2.89zM187.48 133.18a3.71 3.71 0 0 1-1.91 1.93c-.53.23-.6.42-.62.48a6.8 6.8 0 0 1-2.35 3 6.83 6.83 0 0 0-2.44 4.73 1 1 0 0 0 0 .55 7 7 0 0 1 .38 2.27 2.34 2.34 0 0 0 .72 1.61 6 6 0 0 0 2.15 1.41l.2.06a.39.39 0 0 0 .3 0 15.81 15.81 0 0 1 3.59-.87h.11a25.26 25.26 0 0 1 3.67-3.49l.11-.09a3 3 0 0 0 1.32-1.94v-.31a17.07 17.07 0 0 0 .57-3.62 6.25 6.25 0 0 0-.29-3.12 7 7 0 0 0-3.81-3.43 1.61 1.61 0 0 0-.29-.09c-.44-.1-.97-.08-1.41.92zM173.21 125.57l-.39.7-.38.69a7.44 7.44 0 0 1-2.75 3 1.6 1.6 0 0 0-.55.66 6.88 6.88 0 0 0-.63 1.8v.06a8.74 8.74 0 0 0-.32 1.68c-.21 2.4.18 4.08 1.27 5.45a4.74 4.74 0 0 1 .57 1 3.33 3.33 0 0 0 2.18 1.69 2.77 2.77 0 0 0 1.88-.13 8.86 8.86 0 0 0 4.38-4.9 4.81 4.81 0 0 0 .2-.53 5.29 5.29 0 0 1 1.28-2.21.65.65 0 0 0 .25-.51 7.74 7.74 0 0 0-.68-3.55c-.43-1-.79-1.86-1.09-2.74a3.21 3.21 0 0 0-2-2.11 7.44 7.44 0 0 0-1-.34 11.65 11.65 0 0 0-1.18-.21.88.88 0 0 0-1.04.5zM199.36 148.34a13.69 13.69 0 0 0 1.92 4c.17-.37.34-.73.52-1.09a18 18 0 0 0 1.11-2.6 17 17 0 0 0 .69-5.66 36 36 0 0 1-4.24 5.35zM167.05 125.45a7.53 7.53 0 0 0-4.59 3.09c.37.37.72.74 1.08 1.12.55.59 1.09 1.15 1.66 1.68l.27-1.11a21.92 21.92 0 0 1 1.05-3.55c.17-.41.35-.82.53-1.23zM195.78 133.74l.22-.74.23-.68c.05-.29.1-.58.16-.88.12-.67.25-1.37.34-2.05a14.6 14.6 0 0 0 .13-2.8 24.86 24.86 0 0 1-3.34 3.83l2 2.9z"/>
</svg>