<?xml version="1.0" encoding="utf-8"?>
<!-- Generator: Adobe Illustrator 23.0.1, SVG Export Plug-In . SVG Version: 6.00 Build 0)  -->
<svg version="1.1" id="Layer_1" xmlns="http://www.w3.org/2000/svg" xmlns:xlink="http://www.w3.org/1999/xlink" x="0px" y="0px"
	 viewBox="0 0 249.622 111.515" enable-background="new 0 0 249.622 111.515" xml:space="preserve">
<g>
	<path fill="#FFCC00" d="M217.795,58.292v-43.23h-75.933v-2.377h77.122h1.188v1.189v44.418H217.795z M183.829,98.673h33.966V70.007
		h2.377v29.854v1.188h-1.188h-35.154V98.673z M36.12,70.007v28.666h33.966v2.376H34.932h-1.188v-1.188V70.007H36.12z M34.932,12.684
		h65.684v2.377H36.12v43.23h-2.377V13.873v-1.189H34.932z"/>
	<path fill="none" stroke="#FFCC00" stroke-width="0.216" stroke-miterlimit="22.9256" d="M217.795,58.292v-43.23h-75.933v-2.377
		h77.122h1.188v1.189v44.418H217.795z M183.829,98.673h33.966V70.007h2.377v29.854v1.188h-1.188h-35.154V98.673z M36.12,70.007
		v28.666h33.966v2.376H34.932h-1.188v-1.188V70.007H36.12z M34.932,12.684h65.684v2.377H36.12v43.23h-2.377V13.873v-1.189H34.932z"
		/>
	<polygon fill-rule="evenodd" clip-rule="evenodd" points="130.099,8.018 117.249,8.018 117.249,11.935 121.639,11.935 
		121.639,23.509 121.202,23.509 121.202,45.717 120.106,45.717 120.106,23.509 117.249,23.509 117.249,46.447 130.099,46.447 	"/>
	<rect x="131.254" y="7.017" fill-rule="evenodd" clip-rule="evenodd" width="1.001" height="39.353"/>
	<rect x="119.394" y="5.939" fill-rule="evenodd" clip-rule="evenodd" width="10.704" height="1.576"/>
	<path fill-rule="evenodd" clip-rule="evenodd" d="M110.538,6.863h6.073v5.71H121V22.87h-4.389v23.654h-6.073v-1.387h1.661v-0.746
		h-1.661v-1.247h1.661v-0.747h-1.661v-1.246h1.661v-0.747h-1.661v-1.247h1.661V38.41h-1.661v-1.247h1.661v-0.747h-1.661v-1.246
		h1.661v-0.747h-1.661v-1.247h1.661v-0.747h-1.661v-1.247h1.661v-0.747h-1.661v-1.246h1.661v-0.747h-1.661v-1.247h1.661v-0.747
		h-1.661V25.2h1.661v-0.746h-1.661v-1.247h1.661V22.46h-1.661v-1.247h1.661v-0.747h-1.661v-1.247h1.661v-0.746h-1.661v-1.247h1.661
		v-0.747h-1.661v-1.247h1.661v-0.747h-1.661v-1.247h1.661v-0.746h-1.661v-1.247h1.661v-0.747h-1.661V9.251h1.661V8.503h-1.661V6.863
		z M110.538,5.906h7.03v5.71h4.39v12.212h-4.39v23.654h-7.988V5.906H110.538z"/>
	<path fill-rule="evenodd" clip-rule="evenodd" d="M153.318,35.079c0.595,0.098,0.998,0.66,0.9,1.255
		c-0.099,0.595-0.66,0.997-1.255,0.899c-2.019-0.341-4.253-0.681-6.242-0.034c-0.615,0.2-1.094,0.53-1.441,0.957
		c-0.616,0.759-0.856,1.866-0.735,3.147c0.134,1.4,0.696,2.98,1.675,4.554c0.243,0.391,0.512,0.78,0.806,1.165
		c-0.691,0.098-1.52,0.288-2.269,0.593c-0.137-0.199-0.267-0.4-0.392-0.6c-1.16-1.864-1.831-3.778-1.995-5.508
		c-0.176-1.848,0.224-3.508,1.216-4.73c0.608-0.75,1.427-1.322,2.459-1.657C148.444,34.339,150.88,34.668,153.318,35.079
		 M146.263,44.363c0.123,0.524,0.613,0.902,1.168,0.867l8.444-0.524c0.555-0.035,0.994-0.47,1.051-1.005L146.263,44.363z
		 M155.735,42.454l-8.444,0.525c-0.619,0.038-1.094,0.576-1.055,1.196c0.001,0.019,0.003,0.039,0.005,0.058l10.693-0.665
		c0-0.018-0.001-0.038-0.001-0.057C156.892,42.891,156.355,42.416,155.735,42.454z M153.415,46.32l-2.013-0.87l-4.173,0.19
		l1.942,0.969L153.415,46.32z M153.941,41.992l-2.013-0.87l-4.173,0.19l1.941,0.969L153.941,41.992z M145.76,40.112
		c0.124,0.524,0.614,0.902,1.168,0.868l8.444-0.525c0.555-0.035,0.994-0.47,1.051-1.005L145.76,40.112z M155.233,38.203
		l-8.444,0.525c-0.619,0.038-1.094,0.577-1.055,1.196c0.001,0.019,0.002,0.038,0.004,0.057l10.693-0.664
		c0-0.019-0.001-0.039-0.002-0.058C156.39,38.64,155.851,38.165,155.233,38.203z M202.899,45.68c1.196,0,2.165,0.918,2.165,2.05
		c0,1.132-0.969,2.049-2.165,2.049c-1.197,0-2.166-0.918-2.166-2.049C200.734,46.597,201.703,45.68,202.899,45.68z M188.417,56.968
		l0.642,0.063l-0.071,0.488l15.024,3.47l1.275-8.785l-7.561-2.387c-1.827,1.601-3.969,2.83-6.299,3.593l-2.738,0.665
		c-1.767,0.284-3.606,0.309-5.471,0.038c-1.865-0.271-3.621-0.817-5.234-1.592l-1.693-0.246L173.7,55.3l14.651,2.126L188.417,56.968
		z M156.421,34.455l-8.784-1.275l-0.167,1.156c1.963-0.297,3.935-0.023,5.921,0.31c0.832,0.14,1.396,0.926,1.259,1.759
		c-0.138,0.834-0.926,1.4-1.761,1.26c-1.887-0.316-4.016-0.652-5.889-0.094l-0.072,0.498l9.009-0.279L156.421,34.455z
		 M104.388,47.926h1.156h14.611v-1.078h20.383v4.301l3.482-2.729v0.001c1.883-1.476,7.333-1.262,9.936-1.424
		c0.619-0.039,1.157,0.437,1.196,1.056c0.004,0.06,0.002,0.12-0.003,0.179h-0.021c-1.736-0.006-3.513-0.088-5.244,0.017
		c-1.355,0.082-2.775,0.298-3.959,1.005c-0.087,0.052-0.172,0.106-0.254,0.162l0.125,0.075h0.002c2.15-1.42,5.282-1.142,9.331-1.128
		c-0.106,0.479-0.52,0.853-1.032,0.885c-2.713,0.169-5.274-0.313-7.284,0.254l2.571,0.027l7.381,0.342l0.004-0.028l0.057-0.394
		l0.086-0.592l0.446-3.077l0.426-2.936l0.272-1.877l4.119,0.598l-0.549,3.98l0.656,0.109l0.277-1.907l6.039,0.876l3.426,3.285
		c0.269,0.316,0.549,0.625,0.839,0.923l-0.24,0.308l-1.393,1.794l-0.422,0.543l-0.275,0.355l-2.099,2.702
		c-19.35-2.808-43.858-1.081-64.045-0.925V47.926z"/>
	<path fill-rule="evenodd" clip-rule="evenodd" d="M91.19,52.818l0.996-0.659l1.467,0.476L91.19,52.818z M88.349,52.002l1.848,0.891
		l-2.422,0.18L88.349,52.002z M87.146,51.421l0.975,0.471l-0.007,0.001l-0.645,1.203l-0.592,0.044l0.022,0.3l7.59-0.564l-0.023-0.3
		l-0.555,0.041l0.18-0.263l-1.758-0.61l-0.361,0.026l-1.368,0.819l-3.254-1.549L87.146,51.421z M90.767,46.299
		c1.833-0.066,3.403,1.123,3.639,2.745h-0.001c-0.102-0.27-0.403-0.454-0.745-0.428c-0.341,0.025-0.612,0.251-0.673,0.534
		l-0.021,0.001c-0.101-0.27-0.403-0.453-0.744-0.428c-0.341,0.025-0.613,0.251-0.673,0.533l-0.02,0.001
		c-0.084-0.224-0.306-0.388-0.574-0.423l0.234,3.152L90.94,52.18l-0.249-3.337c-0.297,0.055-0.524,0.265-0.58,0.521l-0.02,0.001
		c-0.102-0.27-0.403-0.453-0.744-0.428c-0.341,0.025-0.613,0.251-0.673,0.533l-0.02,0.002c-0.102-0.27-0.403-0.453-0.745-0.428
		c-0.302,0.023-0.55,0.203-0.645,0.441c0.045-1.614,1.426-2.984,3.239-3.168l-0.033-0.453l0.263-0.02L90.767,46.299z"/>
	<path fill-rule="evenodd" clip-rule="evenodd" d="M100.126,52.333l1.02-0.621l1.448,0.531L100.126,52.333z M97.317,51.409
		l1.813,0.96l-2.428,0.088L97.317,51.409z M96.137,50.783l0.957,0.508h-0.007l-0.691,1.178l-0.593,0.021l0.01,0.301l7.606-0.276
		l-0.011-0.301l-0.557,0.02l0.191-0.256l-1.733-0.676l-0.362,0.013l-1.398,0.766l-3.192-1.672L96.137,50.783z M99.949,45.802
		c1.835,0.004,3.358,1.252,3.533,2.881h-0.001c-0.092-0.274-0.387-0.468-0.728-0.456c-0.342,0.012-0.622,0.227-0.693,0.507
		l-0.02,0.001c-0.091-0.274-0.386-0.469-0.727-0.456c-0.342,0.012-0.622,0.227-0.693,0.508l-0.02,0
		c-0.076-0.227-0.291-0.4-0.558-0.445l0.114,3.158L99.9,51.685l-0.122-3.344c-0.298,0.045-0.535,0.246-0.599,0.5l-0.02,0.001
		c-0.091-0.274-0.386-0.468-0.728-0.456c-0.342,0.012-0.622,0.227-0.693,0.507l-0.02,0.001c-0.091-0.274-0.386-0.468-0.728-0.456
		c-0.304,0.011-0.558,0.181-0.662,0.416c0.106-1.611,1.539-2.928,3.357-3.043l-0.016-0.454l0.263-0.01L99.949,45.802z"/>
	<path d="M72.979,43.226c-0.395-0.555-0.866-1.051-1.396-1.471c-0.855-0.679-1.864-1.164-2.955-1.4
		c0.422,0.319,0.819,0.729,1.18,1.216c0.403,0.543,0.763,1.183,1.064,1.898L72.979,43.226z M70.211,43.545
		c-0.264-0.598-0.573-1.134-0.915-1.593c-0.782-1.054-1.73-1.696-2.693-1.723l0.424,3.683L70.211,43.545z M66.394,43.985
		l-0.424-3.683c-0.931,0.245-1.709,1.086-2.231,2.29c-0.228,0.525-0.407,1.117-0.529,1.759L66.394,43.985z M62.549,44.426
		c0.131-0.764,0.336-1.469,0.605-2.09c0.242-0.556,0.535-1.046,0.872-1.452c-1.008,0.477-1.88,1.179-2.559,2.034
		c-0.421,0.53-0.767,1.12-1.025,1.75L62.549,44.426z M59.269,47.347c0.002-0.354,0.028-0.704,0.075-1.047l-0.712,0.082l-0.171-1.485
		l1.265-0.145c0.29-0.81,0.712-1.563,1.241-2.23c1.247-1.571,3.094-2.667,5.244-2.914c2.15-0.247,4.197,0.401,5.768,1.647
		c0.667,0.53,1.248,1.167,1.715,1.89l1.266-0.146l0.17,1.485l-0.712,0.082c0.125,0.324,0.229,0.658,0.311,1.003l4.472-0.515
		l-0.229-1.989l3.979-0.458l0.229,1.989l2.126-0.244l1.247,10.837l-3.507,0.403L81.681,43.73l-1.215,0.14l1.365,11.861
		l-27.168,3.126l-1.366-11.861l-1.215,0.14l1.365,11.861l-3.507,0.403l-1.247-10.836l2.125-0.245l-0.228-1.989l3.979-0.457
		l0.229,1.988L59.269,47.347z"/>
	<path d="M62.397,46.988c-0.015-0.353-0.016-0.699-0.004-1.039l-2.392,0.275c-0.056,0.344-0.087,0.694-0.094,1.05L62.397,46.988z"/>
	<path d="M66.682,46.494l-0.118-1.025l-3.53,0.406c-0.015,0.339-0.016,0.686-0.001,1.039L66.682,46.494z"/>
	<path d="M70.966,46.001c-0.066-0.347-0.146-0.685-0.237-1.011l-3.53,0.406l0.118,1.025L70.966,46.001z"/>
	<path d="M74.091,45.641c-0.086-0.345-0.196-0.68-0.33-1l-2.391,0.275c0.089,0.327,0.168,0.665,0.232,1.012L74.091,45.641z"/>
	<path d="M195.505,33.301c-0.271-1.053-0.706-2.051-1.283-2.957l-6.774,4.689L195.505,33.301z M195.723,37.288
		c0.156-1.09,0.132-2.168-0.048-3.203l-8.049,1.73L195.723,37.288z M194.396,41.075c0.539-0.91,0.944-1.917,1.184-2.999
		l-8.108-1.475L194.396,41.075z M191.729,44.047c0.853-0.641,1.609-1.415,2.231-2.299l-6.914-4.468L191.729,44.047z M175.628,38.394
		c0.271,1.053,0.706,2.051,1.283,2.957l6.775-4.689L175.628,38.394z M175.41,34.406c-0.155,1.091-0.132,2.169,0.049,3.203
		l8.049-1.729L175.41,34.406z M176.738,30.619c-0.539,0.909-0.944,1.916-1.185,2.999l8.108,1.476L176.738,30.619z M179.405,27.647
		c-0.854,0.641-1.609,1.415-2.231,2.298l6.914,4.468L179.405,27.647z M183.02,25.908c-1.053,0.271-2.051,0.706-2.957,1.283
		l4.689,6.775L183.02,25.908z M187.008,25.691c-1.09-0.156-2.169-0.132-3.203,0.048l1.73,8.049L187.008,25.691z M190.795,27.019
		c-0.909-0.539-1.916-0.944-2.999-1.185l-1.475,8.108L190.795,27.019z M193.767,29.684c-0.641-0.854-1.415-1.608-2.298-2.231
		l-4.468,6.914L193.767,29.684z M185.739,20.286l1.581,3.693l0.638-3.507C187.214,20.356,186.472,20.294,185.739,20.286z
		 M190.965,26.192l-0.035-4.168l-2.67,3.098C189.225,25.363,190.132,25.727,190.965,26.192z M191.727,21.555l0.033,3.969
		l1.914-2.962C193.056,22.183,192.405,21.846,191.727,21.555z M188.119,24.058l2.52-2.924c-0.612-0.21-1.244-0.384-1.893-0.519
		L188.119,24.058z M194.211,28.949l1.542-3.874l-3.639,1.857C192.903,27.513,193.607,28.192,194.211,28.949z M196.668,24.942
		l-1.504,3.775l2.965-2.051C197.684,26.057,197.196,25.481,196.668,24.942z M192.522,25.822l3.297-1.683
		c-0.465-0.408-0.956-0.79-1.471-1.142L192.522,25.822z M196.21,32.838l2.922-2.971l-4.075,0.302
		C195.554,30.999,195.944,31.896,196.21,32.838z M200.027,30.099l-2.78,2.827l3.445-0.74
		C200.52,31.472,200.297,30.775,200.027,30.099z M195.708,29.316l3.847-0.285c-0.287-0.589-0.611-1.158-0.97-1.706L195.708,29.316z
		 M196.556,37.08l3.83-1.649l-3.885-1.259C196.646,35.117,196.668,36.093,196.556,37.08z M201.128,35.986l-3.732,1.607l3.546,0.645
		C201.06,37.482,201.121,36.73,201.128,35.986z M197.572,33.678l3.523,1.142c-0.041-0.625-0.119-1.242-0.233-1.849L197.572,33.678z
		 M195.221,41.246l4.168-0.035l-3.098-2.669C196.051,39.506,195.687,40.411,195.221,41.246z M199.859,42.007l-3.969,0.034
		l2.962,1.913C199.23,43.335,199.567,42.685,199.859,42.007z M197.354,38.399l2.925,2.52c0.21-0.612,0.384-1.244,0.52-1.893
		L197.354,38.399z M192.465,44.491l3.876,1.544l-1.859-3.641C193.902,43.183,193.222,43.886,192.465,44.491z M196.471,46.948
		l-3.774-1.503l2.051,2.964C195.356,47.965,195.933,47.477,196.471,46.948z M195.589,42.801l1.685,3.299
		c0.409-0.465,0.791-0.957,1.143-1.472L195.589,42.801z M192.099,45.989l0.285,3.846c0.589-0.288,1.159-0.611,1.706-0.97
		L192.099,45.989z M185.428,51.409l-1.607-3.732l-0.645,3.545C183.932,51.34,184.684,51.401,185.428,51.409z M183.015,47.635
		l-2.52,2.925c0.612,0.21,1.244,0.384,1.894,0.519L183.015,47.635z M174.467,46.752l1.502-3.775l-2.965,2.051
		C173.449,45.637,173.938,46.213,174.467,46.752z M174.924,38.857l-2.923,2.971l4.076-0.302
		C175.58,40.696,175.19,39.798,174.924,38.857z M171.106,41.596l2.781-2.828l-3.447,0.741
		C170.613,40.222,170.836,40.919,171.106,41.596z M175.425,42.379l-3.846,0.285c0.288,0.589,0.612,1.158,0.97,1.705L175.425,42.379z
		 M174.577,34.614l-3.83,1.649l3.886,1.259C174.488,36.577,174.465,35.601,174.577,34.614z M170.005,35.709l3.732-1.608
		l-3.546-0.645C170.073,34.213,170.012,34.964,170.005,35.709z M173.562,38.016l-3.524-1.142c0.041,0.625,0.119,1.242,0.234,1.849
		L173.562,38.016z M175.913,30.449l-4.168,0.035l3.097,2.67C175.083,32.188,175.446,31.282,175.913,30.449z M171.274,29.687
		l3.969-0.033l-2.962-1.914C171.903,28.359,171.566,29.009,171.274,29.687z M173.779,33.295l-2.925-2.52
		c-0.21,0.612-0.384,1.244-0.519,1.894L173.779,33.295z M178.669,27.203l-3.877-1.543l1.859,3.64
		C177.231,28.511,177.912,27.807,178.669,27.203z M174.662,24.747l3.776,1.502l-2.052-2.965
		C175.777,23.729,175.201,24.218,174.662,24.747z M175.545,28.893l-1.685-3.3c-0.409,0.466-0.791,0.957-1.143,1.472L175.545,28.893z
		 M182.557,25.203l-2.971-2.922l0.302,4.076C180.719,25.86,181.616,25.47,182.557,25.203z M179.818,21.386l2.828,2.781l-0.74-3.447
		C181.192,20.893,180.495,21.116,179.818,21.386z M179.035,25.706l-0.285-3.847c-0.59,0.288-1.159,0.612-1.706,0.97L179.035,25.706z
		 M186.8,24.857l-1.63-3.787l-1.252,3.838C184.853,24.768,185.821,24.746,186.8,24.857z M183.397,23.842l1.142-3.524
		c-0.625,0.041-1.242,0.119-1.849,0.234L183.397,23.842z M188.742,51.901c-0.872,0.173-1.766,0.275-2.672,0.302
		c-0.016,0.002-0.032,0.002-0.048,0.002c-2.15,0.058-4.313-0.313-6.321-1.082c-0.022-0.006-0.042-0.014-0.063-0.023
		c-0.972-0.377-1.893-0.841-2.757-1.382l0.578-0.584c0.62,0.378,1.269,0.715,1.947,1.007l-0.028-3.33l0.793-0.923l0.032,3.783
		l2.67-3.097c-0.878-0.22-1.707-0.54-2.478-0.948l0.536-0.624c0.748,0.378,1.553,0.67,2.406,0.859l0.845-4.645l0.465-0.541
		l0.299,0.818l-0.821,4.511c0.84,0.12,1.673,0.133,2.484,0.05l0.283,0.774c-0.835,0.101-1.692,0.107-2.559,0.009l1.649,3.83
		l1.087-3.354l0.446,1.223l-0.92,2.84c0.625-0.04,1.242-0.119,1.849-0.234l-0.032-0.146L188.742,51.901z M188.457,19.744
		c0.027,0.002,0.053,0.007,0.078,0.014c1.007,0.186,1.975,0.46,2.899,0.814c0.021,0.005,0.041,0.013,0.06,0.022
		c1.988,0.77,3.765,1.908,5.265,3.317c0.025,0.018,0.049,0.041,0.07,0.065c0.814,0.774,1.545,1.628,2.183,2.547l0.009,0.013
		l0.007,0.01c0.572,0.829,1.069,1.711,1.482,2.634c0.017,0.027,0.03,0.057,0.04,0.088c0.83,1.887,1.311,3.944,1.374,6.074
		c0.001,0.017,0.001,0.034,0.001,0.05c0.03,1.1-0.052,2.219-0.254,3.344c-0.002,0.027-0.007,0.052-0.014,0.077
		c-0.186,1.006-0.46,1.974-0.813,2.896c-0.007,0.023-0.015,0.045-0.025,0.066c-0.771,1.99-1.91,3.769-3.321,5.269
		c-0.016,0.019-0.033,0.037-0.052,0.054c-0.776,0.818-1.633,1.552-2.556,2.191l-0.002,0.002l-0.009,0.006l-0.008,0.005
		c-0.83,0.574-1.712,1.07-2.636,1.483c-0.027,0.017-0.058,0.03-0.089,0.04l-0.175,0.076l-0.421-1.492l-0.303-4.076
		c-0.36,0.216-0.733,0.411-1.116,0.585l-0.279-0.754c0.422-0.194,0.829-0.417,1.22-0.665l-3.141-4.539l-1.42-3.845l-2.029-0.326
		l-2.757,3.202l-4.356,3.016c0.27,0.359,0.564,0.702,0.879,1.024l-0.524,0.609c-0.283-0.285-0.549-0.585-0.799-0.898l-1.352,3.397
		l-1.316,1.528c-0.798-0.765-1.516-1.608-2.142-2.512c-0.575-0.832-1.074-1.717-1.488-2.644c-0.017-0.027-0.03-0.057-0.04-0.088
		c-0.831-1.888-1.311-3.945-1.374-6.075c-0.001-0.016-0.001-0.033-0.001-0.05c-0.029-1.1,0.052-2.219,0.254-3.344
		c0.002-0.027,0.007-0.053,0.015-0.078c0.185-1.007,0.46-1.975,0.813-2.898c0.007-0.021,0.014-0.041,0.023-0.061
		c0.772-1.993,1.913-3.773,3.326-5.275c0.014-0.016,0.029-0.033,0.044-0.046c0.781-0.823,1.643-1.561,2.572-2.203
		c0.832-0.577,1.719-1.076,2.648-1.492c0.026-0.015,0.054-0.027,0.083-0.037c1.888-0.83,3.944-1.311,6.075-1.374
		c0.013-0.001,0.027-0.001,0.04-0.001l0.001-0.001h0.001c0.015-0.001,0.03-0.001,0.045-0.001
		C186.237,19.461,187.344,19.543,188.457,19.744z"/>
	<polygon points="171.15,53.07 184.705,37.322 185.801,37.575 192.99,57.044 191.782,56.824 185.063,38.397 172.283,53.276 	"/>
	<path fill-rule="evenodd" clip-rule="evenodd" d="M123.3,82.508c2.466,0.001,4.933,0.002,7.399,0.003
		c1.06,0.001,2.35-0.174,3.121-0.977c0.816-0.849,0.994-2.288,0.999-3.413c0.014-2.756-0.853-4.431-3.818-4.449
		c-2.567-0.016-5.134-0.025-7.701-0.025c0,1.478,0,2.956,0,4.433C123.3,79.556,123.3,81.033,123.3,82.508 M190.968,75.807
		c2.161,0.086,4.321,0.175,6.482,0.27c-0.606-1.384-1.209-2.77-1.797-4.161c-0.489-1.157-0.977-2.314-1.462-3.472
		c-0.461,1.032-0.919,2.065-1.372,3.101C192.196,72.963,191.58,74.385,190.968,75.807z M169.059,72.23
		c2.588,0.095,5.176,0.186,7.764,0.294c2.65,0.111,3.771-0.942,3.756-3.603c-0.006-1.075-0.2-2.28-0.986-3.076
		c-0.823-0.833-2.108-1.123-3.237-1.21c-2.432-0.188-4.865-0.355-7.297-0.527c0,1.33,0,2.66,0,3.99
		C169.059,69.477,169.059,70.853,169.059,72.23z M99.164,63.089c0,1.243,0,2.486,0,3.729c0,1.215,0,2.431,0,3.646
		c2.485-0.055,4.97-0.116,7.455-0.157c2.789-0.045,4.174-1.116,4.174-3.994c0-0.923-0.138-2.11-0.822-2.818l-0.041-0.045
		c-0.225-0.263-0.582-0.391-0.909-0.465c-0.743-0.169-1.545-0.199-2.305-0.174C104.198,62.893,101.681,62.995,99.164,63.089z
		 M99.164,74.265c0,1.384,0,2.768,0,4.152c0,1.373,0,2.745,0,4.119c2.605-0.007,5.21-0.013,7.816-0.017
		c3.003-0.005,4.461-1.187,4.48-4.261c0.005-0.818-0.1-1.704-0.467-2.444c-0.252-0.506-0.594-0.95-1.08-1.216
		c-0.869-0.441-2.288-0.493-3.251-0.477C104.163,74.161,101.663,74.214,99.164,74.265z M51.125,73.84
		c2.543-0.169,5.086-0.343,7.63-0.495c2.645-0.159,3.906-1.269,3.89-3.977c-0.005-0.865-0.148-2.033-0.873-2.613
		c-0.775-0.62-2.16-0.59-3.094-0.479c-2.52,0.298-5.036,0.63-7.553,0.952c0,1.144,0,2.286,0,3.43
		C51.125,71.718,51.125,72.779,51.125,73.84z M123.3,69.823c2.583,0,5.167,0.008,7.75,0.026c2.118,0.016,4.187,0.59,5.624,2.235
		c1.461,1.672,1.893,3.961,1.893,6.12c0,2.153-0.443,4.412-1.948,6.042c-1.423,1.542-3.333,2.152-5.393,2.152
		c-3.448,0-6.896,0-10.344,0h-1.315v-1.315c0-4.178,0-8.357,0-12.535c0-4.18,0-8.36,0-12.54v-1.307l1.306-0.008
		c0.37-0.003,0.741-0.005,1.111-0.005h1.315v1.314c0,1.856,0,3.713,0,5.57C123.3,66.991,123.3,68.407,123.3,69.823z M199.024,79.751
		c-3.194-0.122-6.39-0.237-9.585-0.346c-0.376,0.879-0.75,1.76-1.113,2.644c-0.484,1.176-0.962,2.354-1.443,3.532l-0.334,0.818
		h-0.884c-0.408,0-0.818,0-1.226,0h-1.965l0.75-1.816c1.492-3.612,3.003-7.215,4.541-10.808c1.483-3.465,3.034-6.901,4.575-10.341
		l0.389-0.868l0.945,0.097c0.474,0.049,0.946,0.102,1.418,0.158l0.765,0.091l0.295,0.712c1.487,3.587,2.99,7.167,4.528,10.733
		c1.472,3.412,2.999,6.801,4.54,10.182l0.847,1.86h-2.043c-0.384,0-0.766,0-1.149,0h-0.843l-0.351-0.767
		c-0.502-1.094-1-2.188-1.495-3.285C199.795,81.484,199.408,80.618,199.024,79.751z M169.059,75.98c0,1.292,0,2.583,0,3.875
		c0,1.743,0,3.487,0,5.231V86.4h-1.315c-0.367,0-0.736,0-1.103,0h-1.314v-1.315c0-3.943,0-7.885,0-11.827c0-3.945,0-7.89,0-11.835
		v-1.418l1.413,0.106c3.457,0.259,6.915,0.508,10.37,0.794c2.007,0.167,3.858,0.885,5.258,2.369c1.454,1.541,1.959,3.58,1.959,5.649
		c0,2.025-0.47,4.101-1.966,5.559c-1.493,1.455-3.598,1.833-5.609,1.758C174.187,76.146,171.623,76.064,169.059,75.98z
		 M145.604,62.968c0,1.214,0,2.427,0,3.641c0,1.239,0,2.478,0,3.717c4.235,0.096,8.469,0.204,12.704,0.329l1.275,0.038v1.275
		c0,0.405,0,0.81,0,1.215v1.351l-1.35-0.036c-4.209-0.114-8.419-0.208-12.629-0.294c0,1.383,0,2.766,0,4.148
		c0,1.392,0,2.785,0,4.177c4.471,0.01,8.942,0.02,13.413,0.033l1.311,0.004v1.31c0,0.403,0,0.806,0,1.21V86.4h-1.314
		c-5.281,0-10.562,0-15.843,0h-1.314v-1.315c0-4.126,0-8.254,0-12.38c0-4.129,0-8.258,0-12.387v-1.365l1.363,0.051
		c5.239,0.196,10.477,0.429,15.711,0.722l1.241,0.069v1.243c0,0.405,0,0.81,0,1.215v1.387l-1.384-0.074
		C154.395,63.332,150,63.141,145.604,62.968z M112.369,71.883c0.795,0.533,1.411,1.244,1.862,2.091
		c0.703,1.32,0.962,2.8,0.962,4.285c0,0.956-0.106,1.917-0.382,2.834c-0.249,0.827-0.601,1.62-1.096,2.332
		c-1.516,2.183-3.883,2.976-6.454,2.976c-3.51,0-7.02,0-10.53,0h-1.315v-1.315c0-4.074,0-8.148,0-12.222c0-4.077,0-8.152,0-12.229
		v-1.262l1.262-0.051c3.576-0.145,7.151-0.3,10.729-0.413c1.907-0.059,3.754,0.455,5.157,1.794c1.504,1.435,1.96,3.479,1.96,5.487
		c0,1.6-0.263,3.312-1.201,4.65C113.049,71.232,112.728,71.58,112.369,71.883z M73.925,79.419c1.759-2.5,3.508-5.008,5.223-7.539
		c2.575-3.799,5.107-7.628,7.632-11.461l0.366-0.555l0.662-0.036c0.464-0.024,0.927-0.052,1.39-0.079l1.392-0.083v1.395
		c0,4.005,0,8.01,0,12.015c0,4.003,0,8.006,0,12.009V86.4h-1.315c-0.372,0-0.746,0-1.118,0h-1.314v-1.315c0-3.724,0-7.447,0-11.17
		c0-2.267,0-4.533,0-6.8c-1.731,2.613-3.473,5.219-5.241,7.806c-2.511,3.672-5.075,7.307-7.658,10.929L73.551,86.4h-0.676
		c-0.456,0-0.911,0-1.367,0h-1.315v-1.315c0-3.765,0-7.53,0-11.295c0-3.767,0-7.533,0-11.301v-1.192l1.186-0.116
		c0.369-0.036,0.739-0.071,1.109-0.106l1.437-0.135v1.443c0,3.531,0,7.061,0,10.592C73.925,75.124,73.925,77.272,73.925,79.419z
		 M51.125,77.436c0,1.069,0,2.138,0,3.207c0,1.48,0,2.962,0,4.443V86.4H49.81c-0.367,0-0.735,0-1.102,0h-1.315v-1.315
		c0-3.313,0-6.625,0-9.937c0-3.314,0-6.628,0-9.943v-1.15l1.14-0.153c3.451-0.464,6.901-0.942,10.357-1.369
		c1.926-0.239,3.903,0.02,5.433,1.305c1.588,1.334,2.069,3.379,2.069,5.369c0,2.039-0.487,4.097-1.933,5.609
		c-1.442,1.509-3.501,2.048-5.523,2.159C56.332,77.118,53.729,77.279,51.125,77.436z"/>
	<path d="M175.713,105.365h-3.004l-3.425-4.817v4.817h-2.523v-9.81h2.523v4.537l3.539-4.537h2.821l-3.817,4.75L175.713,105.365z
		 M159.736,97.568h-0.812v2.961h0.794c0.447,0,0.811-0.128,1.095-0.386c0.283-0.257,0.423-0.607,0.423-1.051
		c0-0.431-0.14-0.794-0.423-1.086C160.529,97.714,160.17,97.568,159.736,97.568z M163.829,98.952c0,1.086-0.385,1.962-1.159,2.628
		c-0.727,0.643-1.635,0.964-2.727,0.964h-1.019v2.821h-2.523v-9.81h3.609c1.109,0,2.009,0.286,2.697,0.859
		C163.456,97.02,163.829,97.867,163.829,98.952z M150.334,100.512c0-0.829-0.274-1.539-0.82-2.129
		c-0.549-0.589-1.229-0.884-2.044-0.884c-0.815,0-1.48,0.292-2,0.876c-0.517,0.584-0.777,1.278-0.777,2.085
		c0,0.806,0.271,1.503,0.812,2.093c0.543,0.59,1.209,0.884,2,0.884c0.768,0,1.431-0.294,1.992-0.884
		C150.054,101.962,150.334,101.282,150.334,100.512z M152.821,105.365h-2.487v-1.157c-0.748,0.935-1.781,1.402-3.101,1.402
		c-1.471,0-2.668-0.502-3.591-1.506c-0.888-0.969-1.331-2.184-1.331-3.644c0-1.471,0.459-2.704,1.379-3.696
		c0.919-0.993,2.099-1.489,3.539-1.489c1.346,0,2.371,0.449,3.071,1.349v-1.069h2.523V105.365z M139.257,105.365h-2.558v-7.778
		h-3.188v7.778h-2.558v-9.81h8.304V105.365z M124.938,100.512c0-0.829-0.274-1.539-0.82-2.129c-0.549-0.589-1.23-0.884-2.044-0.884
		c-0.814,0-1.48,0.292-2,0.876c-0.517,0.584-0.777,1.278-0.777,2.085c0,0.806,0.271,1.503,0.811,2.093
		c0.543,0.59,1.209,0.884,2,0.884c0.768,0,1.431-0.294,1.991-0.884C124.658,101.962,124.938,101.282,124.938,100.512z
		 M127.426,105.365h-2.488v-1.157c-0.747,0.935-1.781,1.402-3.101,1.402c-1.471,0-2.669-0.502-3.591-1.506
		c-0.888-0.969-1.331-2.184-1.331-3.644c0-1.471,0.458-2.704,1.378-3.696c0.92-0.993,2.099-1.489,3.538-1.489
		c1.346,0,2.371,0.449,3.072,1.349v-1.069h2.523V105.365z M111.671,102.439c0-0.806-0.523-1.209-1.565-1.209h-1.028v2.242h1.129
		C111.183,103.472,111.671,103.128,111.671,102.439z M111.355,98.375c0-0.654-0.456-0.981-1.364-0.981h-0.913v2.119h0.864
		C110.885,99.513,111.355,99.134,111.355,98.375z M114.386,102.544c0,1.88-1.367,2.821-4.1,2.821h-3.732v-9.81h3.732
		c2.394,0,3.591,0.876,3.591,2.627c0,0.818-0.415,1.46-1.243,1.927v0.052C113.802,100.64,114.386,101.434,114.386,102.544z
		 M104.132,105.365h-3.004l-3.425-4.817v4.817H95.18v-9.81h2.522v4.537l3.539-4.537h2.82l-3.816,4.75L104.132,105.365z
		 M89.148,100.512c0-0.829-0.274-1.539-0.82-2.129c-0.55-0.589-1.23-0.884-2.044-0.884c-0.815,0-1.48,0.292-2,0.876
		c-0.517,0.584-0.777,1.278-0.777,2.085c0,0.806,0.272,1.503,0.812,2.093c0.543,0.59,1.209,0.884,2,0.884
		c0.768,0,1.431-0.294,1.992-0.884C88.867,101.962,89.148,101.282,89.148,100.512z M91.635,105.365h-2.487v-1.157
		c-0.747,0.935-1.781,1.402-3.101,1.402c-1.472,0-2.669-0.502-3.591-1.506c-0.888-0.969-1.331-2.184-1.331-3.644
		c0-1.471,0.459-2.704,1.379-3.696c0.92-0.993,2.099-1.489,3.539-1.489c1.346,0,2.371,0.449,3.071,1.349v-1.069h2.523V105.365z"/>
	<path fill-rule="evenodd" clip-rule="evenodd" fill="#FFCC00" d="M247.141,72.315c-59.066-27.937-185.594-27.937-244.661,0
		C66.867,49.76,182.756,49.76,247.141,72.315"/>
</g>
</svg>
