<svg xmlns="http://www.w3.org/2000/svg" width="51.456" height="29.335" viewBox="0 0 51.456 29.335">
  <g id="Group_4630" data-name="Group 4630" transform="translate(-5.198 -10.009)">
    <path id="Path_2905" data-name="Path 2905" d="M54.954,24.025a1.065,1.065,0,0,1-.066.186,1.051,1.051,0,0,1-.6.549,7.672,7.672,0,0,1,1.884,1.934s0,0,0,0l-.011.008a12.336,12.336,0,0,1,.293,2.954h0a1.054,1.054,0,0,1-1.94.569,1.052,1.052,0,0,1-.692-.652,2.868,2.868,0,0,0-.5-.788l-.084-.1a2.668,2.668,0,0,0,.335,1.891,2.771,2.771,0,0,0,.19.279c.022.029.045.057.067.084a1.485,1.485,0,0,0,.77.013,1.055,1.055,0,0,1,1.2.436,1.053,1.053,0,0,1,.755.969l.1,2.381A1.056,1.056,0,0,1,55.4,35.891a6.736,6.736,0,0,1-1.949-.766c-.159-.094-.345-.208-.53-.335s-.383-.273-.609-.455a9.308,9.308,0,0,1-1.9-1.739,8.248,8.248,0,0,1-1.3-2.187,3.445,3.445,0,0,1-.664.088,3.79,3.79,0,0,1-.387,0c-.092-.006-.192-.017-.3-.032-.027,0-.054-.006-.081-.011h0v0c-.083-.013-.164-.027-.242-.043V31.47h0a1.055,1.055,0,0,1-1.393,1s-.405-.142-.9-.259c-.038.173-.081.366-.131.578-.067.29-.151.636-.254,1.047a5.409,5.409,0,0,1-2.312,3.421,4.9,4.9,0,0,1-.716.371,5.375,5.375,0,0,1-.78.262h0c-1.634.409-9.311,1.1-9.333,1.1s-3.718.352-6.52.352c-2.043,0-6.547-.385-10.533-.841-.647-.074-1.4-.165-2.236-.273-.81-.1-1.488-.2-2-.271h0c-4.812-.711-5.1-5.421-5.118-6.193,0-.033,0-.066,0-.1V17.589c0-2.2,1.693-4.734,5.52-6.053,5.227-1.8,13.242-1.617,18.44-1.376a49.749,49.749,0,0,1,6.752.759,36.662,36.662,0,0,1,4.289,1.05l.033,0,.2.01.2.01.195.01h.014l.2.01.2.011.2.01.179.01h.016l.185.01.178.01.157.009h.017l.119.007a1.04,1.04,0,0,1,.157.015l.29.05a1.055,1.055,0,0,1,.886.967l.008.11a1.052,1.052,0,0,1,.8-.152l2.265.482a1.054,1.054,0,0,1,.709.469,1.055,1.055,0,0,1,.566.408l.146-.131,0,0a1.051,1.051,0,0,1,.98-.233l2.638.72a1.048,1.048,0,0,1,.588.351,1.035,1.035,0,0,1,.082.111,1.054,1.054,0,0,1,.382,1.816l-1.214,1.027a22.933,22.933,0,0,1,2.312,1.2h0a1.053,1.053,0,0,1,.417,1.3,3.156,3.156,0,0,1-.333.581L54,21.19a2.762,2.762,0,0,1,.956,2.835Zm1.183,2.625a.5.5,0,0,1,.029.051l.011-.008Z" transform="translate(0 0)" fill="#fff" fill-rule="evenodd"/>
    <path id="Path_2906" data-name="Path 2906" d="M50.735,29.407a3.077,3.077,0,0,1-.75.22l-.064,0-.064.006-.064.007-.065.008-.065.009-.065.01-.065.011-.065.012-.065.013-.065.013-.065.014-.064.015-.064.015-.064.016-.341.09.077-.207-.065,0-.132,0-.131,0-.13,0h-.382l-.125,0-.123,0-.122,0-.121.005-.119.006-.118.007-.117.008-.116.009-.114.01-.113.011-.112.011-.11.012-.109.013-.108.014-.107.015-.106.016-.1.016-.1.017-.1.018-.1.019-.1.02-.1.02-.1.021-.1.022-.061.014-.061.015-.06.015-.06.015-.059.016-.059.016-.058.016-.267.076.024-.25,0-.032v-.1l0-.032,0-.032,0-.032-.007-.044-.008-.043-.009-.042-.011-.041-.012-.04-.014-.038-.015-.036-.016-.034-.019-.036-.021-.033-.022-.03-.024-.027-.025-.024-.026-.021-.028-.018-.03-.016-.029-.012-.031-.01-.032-.007-.033,0-.035,0h-.037l-.039,0-.042.008-.044.012-.047.015-.049.02-.052.025-.054.03-.057.035-.059.04-.066.049,0,0L43.6,29.4l-.068.06-.063.061-.06.061-.056.062-.053.063-.049.064-.047.064-.043.064-.04.065-.038.064-.035.065-.033.064-.031.064-.028.064-.04.1-.065.059-.033.035-.031.038-.029.041-.027.044-.025.046-.022.047-.02.049-.018.049-.016.05-.014.05-.013.049-.011.048-.009.046-.008.044-.015.1-.086.066-.038.03-.037.03-.037.03-.036.03-.036.03-.035.03-.035.031-.034.03-.034.031-.033.031-.033.031-.032.031-.032.031-.031.031-.031.031-.066.069-.064.069-.061.07-.059.07-.057.07-.055.071-.053.07-.05.071-.048.071L41.4,32.4l-.044.071-.042.071-.04.071-.038.071-.036.07-.034.07-.032.07-.03.07-.028.069-.026.069-.024.068-.022.068-.02.067-.018.067-.016.066-.014.065-.012.065-.011.064-.009.063-.007.063-.005.062,0,.061,0,.045v.133l0,.043,0,.042,0,.041.007.064-.014.08-.01.059-.01.059-.011.059-.01.059-.011.059-.011.059-.014.078-.021.045-.016.035-.018.043-.02.05-.021.056-.021.061-.021.066-.02.07-.018.073-.016.076-.013.077-.009.078,0,.079v.078l.005.076.011.076.005.025.007.025.008.024.008.023.009.022.01.021.011.02.01.018.024.035.026.032.029.029.031.027.033.024.036.022.038.019.23.1-.141.169-.015.017-.016.017-.016.018-.017.018-.017.018-.017.018-.018.018-.037.038-.036.038-.035.038-.034.038-.032.038-.03.038-.027.037-.062.1-.089.015-.021,0-.021.006-.021.007-.021.007-.021.009-.021.01-.019.01-.041.024-.038.026-.035.029L40.2,37.1l-.03.035-.028.038-.025.041-.023.045-.008.017-.008.019-.007.02-.007.02-.006.021-.005.021,0,.022-.02.118-.115.031-.021.007-.021.007-.02.008-.02.009-.02.009-.02.01-.018.01-.038.025-.035.027-.032.029-.03.031-.027.033-.024.035-.021.037-.019.041,0,.006,0,.009,0,.009,0,.008,0,.008,0,.009,0,.009-.016.062-.089.067-.047.037-.047.038-.047.04-.047.042-.047.043-.046.044-.045.045-.044.047-.043.048-.041.048-.039.049-.037.05-.035.05-.032.05-.027.046-.009.019-.012.027-.012.026-.012.027-.012.027-.012.027-.012.027-.009.019,0,.009,0,.015,0,.015,0,.015,0,.015,0,.015,0,.015v.021l0,.054v.054l0,.053v.018l0,.014,0,.014,0,.014,0,.014,0,.014,0,.014v0l.008.013.015.026.015.026.015.025.015.025.015.026.015.026.008.013.018.02.027.028.031.028.033.028.037.028.04.028.043.027.15.087-.041.136-.005.021,0,.023,0,.025,0,.026,0,.028v.091l0,.033,0,.034,0,.035,0,.036.006.037.007.038.007.037,0,.011,0,.014,0,.013,0,.013,0,.013.006.027,0,.01.02.076.023.079.026.081.029.082.031.083.034.084.036.085.038.085.04.085.042.085.043.085.045.084.047.083.048.082.049.081.05.079.041.062.041.061.042.059.042.058.042.056.042.055.042.053.042.051.042.049.042.047.041.044.041.042.04.039.04.036.039.034.037.03.054.04.052.034.05.028.048.021.045.015.042.01.039,0,.138,0,.045.088,0,.005,0,0,0,0,0,0,0,0,0,0,0,0,.01.018.011.019.011.019L41,42.9l.011.018.012.018.012.018.011.016.032.043.033.04.034.038.035.036.035.033.036.031.036.029.037.026.037.024.037.022.036.019.036.017.035.015.034.013.033.011.015,0,.006,0,0,0v-.026l-.005-.045-.011-.049-.017-.052-.023-.056-.028-.058-.032-.06-.249-.439.452.187.054.021.056.021.058.02.061.019.062.018.064.017.065.015.067.013.068.012.069.009.069.007.07,0,.07,0,.071,0,.071,0,.091-.01.091-.013.09-.016.09-.019.089-.021.087-.024.085-.025.083-.027.08-.028.077-.028L43.6,42.7l.07-.028.066-.028.061-.027.057-.026.176-.082.072.126,0,.006,0,.006,0,.006.007.011,0,.006,0,.005.01.015.011.016.012.016.012.016.013.015.013.016.014.016.015.017.036.038.039.039.042.038.044.038.045.037.046.036.047.035.048.034.048.032.048.031.047.029.046.028.045.026.043.024.041.022.016.008,0-.031-.009-.046-.013-.051-.016-.056-.019-.059-.021-.062-.023-.064-.026-.069,0-.013-.008-.026-.013-.04-.016-.051-.018-.058-.018-.061-.018-.061-.065-.227.3-.03.12-.012.117-.013.114-.013.111-.013.108-.013.1-.013.1-.013.1-.012.091-.012.086-.012.08-.011.075-.011.068-.01.062-.009.055-.008.014,0,.013,0,.013,0,.012,0,.012,0,.011,0h.011l.02,0h0l.044-.007.054-.008.054-.008.053-.008.053-.008.053-.008.052-.008.045-.007h0l.06-.009.052-.008.052-.008.051-.008L47.084,42l.05-.007.05-.008.049-.007.049-.007.048-.007.048-.007.047-.007.047-.007.046-.007.046-.006.26-.036-.052.218.042.11L47.7,42.3l-.022.014-.024.016-.027.018-.029.019-.061.039-.042.027-.039.025-.041.027-.043.028-.044.03-.046.031-.048.033-.049.034-.05.035-.07.05-.072.051-.073.052-.074.053-.074.053-.075.054-.075.055-.075.056-.075.056-.074.056-.073.057-.072.057-.071.057-.07.057-.068.057-.066.057-.064.057-.061.057-.059.056-.056.056-.053.055-.049.054-.046.054-.042.052-.038.051-.033.05-.029.048-.024.045-.019.043-.014.041-.01.037,0,.03v.013l.019.373-.216-.2-.013,0-.067.028-.1.044-.125.063-.054.03-.052.034-.051.037-.049.041-.048.045-.046.048-.044.051L44.495,45l-.04.055-.037.057-.035.058-.032.06-.029.06-.027.061-.023.061-.02.061-.012.041-.01.041-.009.041-.007.04-.006.039,0,.039,0,.038v.079l.006.111-.464.243-.129-.176-.053-.071-.053-.069-.051-.066-.05-.063-.049-.06-.047-.056h0l.007.044.01.057.012.06.013.062.014.065.016.067.048.189-.169.077-.053.029-.053.033-.052.038-.05.042L43,46.432l-.043.053-.039.06-.034.066-.029.074-.022.082-.015.092-.007.1,0,.113.014.124.026.137.029.114.032.1.035.091.037.081.04.073.043.065.046.059.05.054.054.051.059.048.064.046.069.045.075.045.081.046.087.047.092.05.043.023.044.024.045.024.046.025.048.026.049.028.05.029.152.089-.041.133,0,.012v.025l0,.012,0,.012.005.012.009.015.055.075.059.076.06.074.061.071.062.069.063.067.064.065.065.063.066.061.067.059.068.057.069.055.07.053.071.051.072.049.072.047.073.045.073.043.074.042.075.04.075.038.076.036.076.035.076.033.077.031.078.03.078.028.078.027.079.025.079.024.079.022.079.02.066.016.066.015.066.014.066.013.066.012.066.011.067.01.066.009.066.008.066.007.066.007.066.006.066,0,.066,0,.065,0,.065,0h.258l.064,0,.063,0,.063,0,.063,0,.062,0,.062-.005.061-.006.061-.007.06-.007.06-.008.059-.009.058-.009.119-.02.117-.023.114-.025.111-.027L49.1,50.3l.1-.031.1-.033.1-.034.093-.036.089-.037.085-.039.08-.039.076-.04.071-.041.065-.041.06-.041.068-.052.06-.052.053-.053.045-.052.037-.051.029-.05.022-.048.017-.053.018-.064.021-.066.024-.062.025-.058.027-.054.028-.051.029-.047.03-.044.031-.041.031-.038.031-.035.03-.032.029-.03.028-.027.027-.025.025-.022.037-.034.035-.032.032-.03.028-.029.025-.027.021-.025.017-.023.013-.021L51,48.54l.007-.018,0-.018,0-.018v-.021l0-.024L51,48.412l-.057-.161.171-.088.051-.031.053-.038.055-.043L51.33,48l.057-.054.058-.059.059-.063.06-.067.06-.071.061-.074.062-.076.062-.079.063-.081.063-.082L52,47.212l.072-.094.073-.094.073-.094.073-.092.073-.09.073-.087.072-.083.072-.079.072-.074.071-.068.071-.062.071-.055.072-.047.074-.038.078-.028.021,0,.034-.008.023,0,.029-.005.037-.007.046-.008.054-.009.062-.011.069-.012.076-.014.083-.015.089-.017.1-.018.1-.02.106-.021.111-.023.116-.024.12-.026.124-.027.127-.029.131-.031.134-.032.136-.033.138-.035.14-.037.141-.038.142-.04.143-.041.143-.043L56,45.449l.126-.04.049-.03.063-.041.063-.043.063-.045.063-.047.063-.049.062-.051.062-.053.062-.056.061-.058.061-.06.06-.062.059-.064.059-.065.057-.068.057-.069.055-.072L57.2,44.4l.053-.075.052-.077.05-.079.049-.081.047-.083.045-.085.044-.087.042-.088.04-.09.038-.092.036-.094.034-.1.032-.1.029-.1.026-.1.024-.1.022-.105.02-.109.018-.113.016-.117.014-.121.013-.125.011-.13.01-.134.008-.138.007-.143.006-.147,0-.152,0-.157L71.635,43.61l-1.2-16.468-.3-.052-.16-.01-.169-.01-.178-.01-.185-.01-.191-.01-.2-.01-.2-.01-.2-.011-.2-.01-.2-.01-.2-.01-.2-.01-.2-.01-.246-.012-.332-.016-.181-.009-.173-.008-.164-.008-.154-.007-.144-.007-.132-.006-.119-.006-.1-.005-.09,0-.074,0-.057,0-.039,0H65.6l-.2-.018-.212-.015-.222-.013-.232-.01-.242-.008-.251-.005-.26,0h-.268l-.277,0-.285.006-.292.008-.3.011-.307.014-.314.017-.32.02-.326.024-.332.026-.338.03-.343.033-.348.036-.352.04-.357.043-.361.046-.365.05-.368.054-.371.057-.374.061-.377.065-.379.068-.381.073-.382.076a28.141,28.141,0,0,0-4.523,1.276C50.9,29.1,50.53,29.223,50.735,29.407Z" transform="translate(-27.858 -13.963)" fill="#fff" fill-rule="evenodd"/>
    <path id="Path_2907" data-name="Path 2907" d="M45.25,18.121a42.644,42.644,0,0,0-10.9-1.8c-5.362-.249-12.625-.446-17.846,1.254-3.476,1.131-5.011,3.286-5.011,5.123V36.772s-.1,4.611,4.218,5.248a144.977,144.977,0,0,0,14.617,1.374c2.8,0,6.426-.343,6.426-.343s7.6-.687,9.172-1.079a4.12,4.12,0,0,0,3.041-3.286c.2-.8.329-1.367.411-1.749-4.981.376-11.684,1.617-15.154,3.743-1.344-.2-1.176-1.444.134-2.351,3.052-1.452,8.72-2.2,13.394-2.273h0l-.065-.016,1.813.292.008-.048-.491-1.521L35.366,32.439l0,.157,0,.152-.006.147-.007.143-.008.138-.01.134-.011.13-.013.125-.014.121-.016.117-.018.113-.02.109-.022.105-.024.1-.026.1-.029.1-.032.1-.034.1-.036.094-.038.092-.04.09-.042.088-.044.087-.045.085-.047.083-.049.081-.05.079-.052.077-.053.075-.054.073-.055.072-.057.069-.057.068-.059.065-.059.064-.06.062-.061.06-.061.058-.062.056-.062.053-.062.051-.063.049-.063.047-.063.045-.063.043-.063.041-.049.03-.126.04-.143.044-.143.043-.143.041-.142.04-.141.038-.14.037-.138.035-.136.033-.134.032-.131.031L31.858,37l-.124.027-.12.026-.116.024-.111.023-.106.021-.1.02-.1.018L31,37.179l-.083.015-.076.014-.069.012-.062.011-.054.009-.046.008-.037.007-.029.005-.023,0-.034.008-.021,0-.078.028-.074.038-.072.047-.071.055-.071.062-.071.068-.072.074-.072.079-.072.083-.073.087-.073.09-.073.092-.073.094-.073.094-.072.094-.064.083-.063.082-.063.081-.062.079-.062.076L29,38.838l-.06.071-.06.067-.059.063-.058.059-.057.054-.056.049-.055.043-.053.038-.051.031-.171.088.057.161.007.029,0,.024v.021l0,.018,0,.018-.007.018-.009.019-.013.021-.017.023-.021.025-.025.027-.028.029-.032.03L28.2,39.9l-.037.034-.025.022-.027.025-.028.027-.029.03-.03.032-.031.035-.031.038-.031.041-.03.044-.029.047-.028.051-.027.054-.025.058-.024.062-.021.066-.018.064-.017.053-.022.048-.029.05-.037.051-.045.052-.053.053-.06.052-.068.052-.06.041-.065.041-.071.041-.076.04-.08.039-.085.039-.089.037-.093.036-.1.034-.1.033-.1.031-.108.029-.111.027-.114.025-.117.023-.119.02-.058.009-.059.009-.06.008-.06.007-.061.007-.061.006-.062.005-.062,0-.063,0-.063,0-.063,0-.064,0h-.258l-.065,0-.065,0-.066,0-.066,0-.066-.006-.066-.007-.066-.007-.066-.008-.066-.009-.067-.01-.066-.011-.066-.012-.066-.013-.066-.014-.066-.015-.066-.016-.079-.02-.079-.022-.079-.024-.079-.025-.078-.027-.078-.028-.078-.03-.077-.031-.076-.033-.076-.035L23,41.189l-.075-.038-.075-.04-.074-.042-.073-.043-.073-.045-.072-.047-.072-.049-.071-.051-.07-.053-.069-.055-.068-.057-.067-.059-.066-.061-.065-.063-.064-.065-.063-.067-.062-.069-.061-.071-.06-.074-.059-.076-.055-.075-.009-.015-.005-.012,0-.012,0-.012v-.025l0-.012.041-.133-.152-.089-.05-.029-.049-.028-.048-.026-.047-.025-.045-.024-.044-.024-.043-.023-.092-.05-.087-.047-.081-.046-.075-.045-.069-.045-.064-.046-.059-.048-.054-.051-.05-.054-.046-.059-.043-.065-.04-.073-.037-.081-.035-.091-.032-.1-.029-.114-.026-.137-.014-.124,0-.113.007-.1.015-.092.022-.082.029-.074L20.3,37.7l.039-.06.043-.053.047-.048.05-.042.052-.038.053-.033.053-.029.169-.077-.048-.189-.016-.067L20.725,37l-.013-.062-.012-.06-.01-.057-.007-.044h0l.047.056.049.06.05.063.051.066.053.069.053.071.129.176.464-.243-.006-.111V36.9l0-.038,0-.039.006-.039.007-.04.009-.041.01-.041.012-.041.02-.061.023-.061.027-.061.029-.06.032-.06.035-.058.037-.057.04-.055.042-.053.044-.051L22,36l.048-.045.049-.041.051-.037.052-.034.054-.03.125-.063.1-.044.067-.028.013,0,.216.2-.019-.373v-.013l0-.03.01-.037.014-.041.019-.043.024-.045.029-.048.033-.05.038-.051.042-.052.046-.054.049-.054.053-.055.056-.056.059-.056.061-.057.064-.057.066-.057.068-.057.07-.057.071-.057.072-.057.073-.057.074-.056.075-.056L24,34.194l.075-.055.075-.054.074-.053.074-.053.073-.052.072-.051.07-.05.05-.035.049-.034.048-.033.046-.031.044-.03.043-.028.041-.027.039-.025.042-.027.061-.039L25,33.5l.027-.018.024-.016.022-.014.114-.078-.042-.11.052-.218-.26.036-.046.006-.046.007L24.8,33.1l-.047.007-.048.007-.048.007-.049.007-.049.007-.05.008-.05.007-.051.008-.051.008-.052.008-.052.008-.06.009h0l-.045.007L24.1,33.2l-.053.008-.053.008-.053.008-.054.008-.054.008-.044.007h0l-.02,0h-.011l-.011,0-.012,0-.012,0-.013,0-.013,0-.014,0-.055.008-.062.009-.068.01-.075.011-.08.011-.086.012-.091.012-.1.012-.1.013-.1.013-.108.013-.111.013-.114.013-.117.013-.12.012-.3.03.065.227.018.061.018.061.018.058.016.051.013.04.008.026,0,.013.026.069.023.064.021.062.019.059.016.056.013.051.009.046,0,.031-.016-.008-.041-.022-.043-.024-.045-.026-.046-.028-.047-.029-.048-.031-.048-.032-.048-.034-.047-.035-.046-.036-.045-.037-.044-.038-.042-.038-.039-.039-.036-.038-.015-.017-.014-.016-.013-.016-.013-.015-.012-.016-.012-.016-.011-.016-.01-.015,0-.005,0-.006-.007-.011,0-.006,0-.006,0-.006L21.4,33.66l-.176.082-.057.026-.061.027-.066.028-.07.028-.074.028-.077.028-.08.028-.083.027-.085.025-.087.024-.089.021-.09.019-.09.016-.091.013-.091.01-.071,0-.071,0-.07,0-.07,0-.069-.007-.069-.009-.068-.012-.067-.013-.065-.015-.064-.017L19.292,34l-.061-.019-.058-.02-.056-.021-.054-.021-.452-.187.249.439.032.06.028.058.023.056.017.052.011.049.005.045v.026l0,0-.006,0-.015,0-.033-.011-.034-.013-.035-.015-.036-.017-.036-.019-.037-.022L18.7,34.4l-.037-.026-.036-.029-.036-.031-.035-.033-.035-.036L18.49,34.2l-.033-.04-.032-.043-.011-.016-.012-.018-.012-.018-.011-.018-.011-.019-.011-.019L18.346,34l-.01-.018,0,0,0,0,0,0,0,0,0,0,0,0,0-.005-.045-.088-.138,0-.039,0-.042-.01-.045-.015-.048-.021-.05-.028-.052-.034-.054-.04-.037-.03-.039-.034-.04-.036-.04-.039-.041-.042-.041-.044-.042-.047-.042-.049-.042-.051-.042-.053-.042-.055-.042-.056-.042-.058-.042-.059L17.194,33l-.041-.062-.05-.079-.049-.081-.048-.082-.047-.083-.045-.084-.043-.085-.042-.085-.04-.085-.038-.085-.036-.085-.034-.084-.031-.083-.029-.082-.026-.081-.023-.079-.02-.076,0-.01-.006-.027,0-.013,0-.013,0-.013,0-.014,0-.011-.007-.037-.007-.038-.006-.037,0-.036,0-.035,0-.034,0-.033v-.091l0-.028,0-.026,0-.025,0-.023.005-.021.041-.136-.15-.087-.043-.027-.04-.028-.037-.028-.033-.028-.031-.028-.027-.028-.018-.02-.008-.013-.015-.026-.015-.026-.015-.025-.015-.025L16.1,30.5l-.015-.026-.008-.013v0l0-.014,0-.014,0-.014,0-.014,0-.014,0-.014v-.018l0-.053v-.054l0-.054v-.021l0-.015,0-.015,0-.015,0-.015,0-.015,0-.015,0-.009.009-.019.012-.027L16.117,30l.012-.027.012-.027.012-.026.012-.027.009-.019.027-.046.032-.05.035-.05.037-.05.039-.049.041-.048.043-.048.044-.046.045-.045.046-.044.047-.043.047-.042.047-.04.047-.038L16.8,29.2l.089-.067.016-.062,0-.009,0-.009,0-.008,0-.008,0-.009,0-.009,0-.006.019-.041.021-.037.024-.035.027-.033.03-.031.032-.029.035-.027.038-.025.018-.01.02-.01.02-.009.02-.009.02-.008.021-.007.021-.007.115-.031.02-.118,0-.022.005-.021.006-.021.007-.02.007-.02.008-.019.008-.017.023-.045.025-.041.028-.038.03-.035.033-.032.035-.029.038-.026.041-.024.019-.01.021-.01.021-.009L17.8,28.1l.021-.007.021-.006.021,0,.089-.015.062-.1.027-.037.03-.038.032-.038.034-.038.035-.038.036-.038.037-.038.018-.018.017-.018.017-.018.017-.018.016-.018.016-.017.015-.017.141-.169-.23-.1-.038-.019-.036-.022-.033-.024-.031-.027-.029-.029-.026-.032-.024-.035-.01-.018-.011-.02-.01-.021-.009-.022-.008-.023L18,27,18,26.977l-.005-.025-.011-.076-.005-.076v-.078l0-.079.009-.078L18,26.488l.016-.076.018-.073.02-.07.021-.066.021-.061.021-.056.02-.05.018-.043.016-.035.021-.045.014-.078.011-.059.011-.059.01-.059.011-.059.01-.059.01-.059.014-.08-.007-.064,0-.041,0-.042,0-.043v-.133l0-.045,0-.061.005-.062.007-.063.009-.063.011-.064.012-.065.014-.065.016-.066.018-.067.02-.067.022-.068.024-.068.026-.069.028-.069.03-.069.032-.07.034-.07.036-.07.038-.071.04-.071.042-.071.044-.071.046-.071.048-.071.05-.071.053-.07.055-.071.057-.07.059-.07.061-.069.064-.069.066-.069.031-.031.031-.031.032-.031.032-.031L19.5,22.7l.033-.031.034-.031.034-.03.035-.031.035-.03.036-.03.036-.03.037-.03.037-.03.038-.03.086-.066.015-.1.008-.044.009-.046.011-.048.013-.049.014-.05.016-.05.018-.049.02-.049.022-.047.025-.046.027-.044.029-.041.031-.038.033-.035.065-.059.04-.1.028-.064.031-.064.033-.064.035-.065.038-.064.04-.065.043-.064.046-.064.049-.064.053-.063.056-.062.06-.061.063-.061.068-.06.073-.059,0,0,.066-.049.059-.04.057-.035.054-.03.052-.025.049-.02.047-.015.044-.012.042-.008.039,0H21.6l.035,0,.033,0,.032.007.031.01.029.012.03.016.028.018.026.021.025.024.024.027.022.03.021.033.019.036.016.034.015.036L22,20.6l.012.04.011.041.009.042.008.043.007.044,0,.032,0,.032,0,.032v.1l0,.032-.024.25.267-.076.058-.016.059-.016.059-.016.06-.015.06-.015.061-.015.061-.014.1-.022.1-.021.1-.02.1-.02L23.2,21l.1-.018.1-.017.1-.016.106-.016.107-.015.108-.014.109-.013.11-.012.112-.011.113-.011.114-.01.116-.009.117-.008.118-.007.119-.006.121-.005.122,0,.123,0,.125,0h.382l.13,0,.131,0,.132,0,.065,0-.077.207.341-.09.064-.016.064-.015.064-.015.065-.014.065-.013.065-.013.065-.012.065-.011.065-.01L27.1,20.8l.065-.008.064-.007.064-.006.064,0a3.077,3.077,0,0,0,.75-.22c-.205-.184.165-.306.607-.479A28.141,28.141,0,0,1,33.241,18.8l.382-.076L34,18.654l.379-.068.377-.065.374-.061.371-.057.368-.054.365-.05.361-.046.357-.043.352-.04.348-.036L38,18.1l.338-.03.332-.026L39,18.02l.32-.02.314-.017.307-.014.3-.011.292-.008.285-.006.277,0h.268l.26,0,.251.005.242.008.232.01.222.013.212.015.2.018H43l.039,0,.057,0,.074,0,.09,0,.1.005.119.006.132.006.144.007.154.007.164.008.173.008.181.009.332.016.246.012.2.01.038,0Zm13.326,7.174a2.248,2.248,0,0,1-.343.54c-.245.294-.442.736.392,1.324a1.688,1.688,0,0,1,.54,1.717s-2.747-1.275-3.973-1.766-5.1-2.5-6.818-3.188a19.232,19.232,0,0,0-5.886-1.128c-1.717-.049-3.826.1-3.826.1a13.312,13.312,0,0,1,3.532-1.422c1.128-.294,4.022-.245,8.584.785a27.923,27.923,0,0,1,7.8,3.041Zm-8.338,3.483s.49,1.864-1.275,1.766a55.516,55.516,0,0,0-7.358.2,45.551,45.551,0,0,0-4.562.687s.294-1.815.687-2.011a31.668,31.668,0,0,1,7.21-1.128A34.18,34.18,0,0,1,50.238,28.777Z" transform="translate(-5.234 -5.114)" fill="#0090df" fill-rule="evenodd"/>
    <g id="Group_4476" data-name="Group 4476" transform="translate(7.07 12.677)">
      <path id="Path_2908" data-name="Path 2908" d="M27.975,35.295c.1.884.979.867,1.636.787.147-.018.3-.042.456-.072a5.15,5.15,0,0,0,1.953-.756.1.1,0,0,1,.131.018.09.09,0,0,1-.017.128,5.476,5.476,0,0,1-2.086.815c-.158.031-.317.056-.475.075s-.309.032-.454.038c-.066,0-.129,0-.189,0-.012,0-.039-.016-.039,0a.129.129,0,0,1-.084.121A9.787,9.787,0,0,0,26.052,37.8a.108.108,0,0,1-.14,0,.082.082,0,0,1,0-.125,5.684,5.684,0,0,1,1.46-.87c-.527.056-1.313.177-1.772.282-.094.021-.173.042-.231.061a.113.113,0,0,1-.034.061.147.147,0,0,1-.188.01.087.087,0,0,1-.028-.037h0c-.034-.09.038-.162.191-.217a2.76,2.76,0,0,1,.3-.082c.313-.072.775-.151,1.208-.212a18.532,18.532,0,0,0-2.353-.025.072.072,0,0,1-.083-.091.148.148,0,0,1,.118-.118,17.459,17.459,0,0,1,2.2.012,1.135,1.135,0,0,0-.745-.34.072.072,0,0,1-.081-.094.149.149,0,0,1,.121-.115,1.317,1.317,0,0,1,.9.386.876.876,0,0,1,.138.161l.013.022.19.014c.174.013.316.027.406.041a.589.589,0,0,1,.233.067c.333-.134.618-.234.779-.289a1.128,1.128,0,0,1-.891-.963c-.063.018-.136.058-.178.069h0l-.073-.276-.328.248-.2-.228a4.426,4.426,0,0,1,.488-.342,5.7,5.7,0,0,1,.548-.293A6.523,6.523,0,0,1,31.1,33.9l-.136.336a6.208,6.208,0,0,0-3.3.8,8.451,8.451,0,0,1,3.317-.578l-.18.33a2.474,2.474,0,0,0-.809.018,1.529,1.529,0,0,1,.074.427c.043.874-.99.932-1.593.611a1.014,1.014,0,0,1-.444-.559l-.057.016Zm8.2-7.242c.055-.382-.243-.37-.5-.434l-.255.329c.047.012.112.025.175.038.152.031.124.1.01.1-.209,0-.4-.119-.364-.346.005-.031.011-.063.014-.1.014,0-.09,0-.069,0,.674-.182,1.033-.237,1.7-.379a37.117,37.117,0,0,1,10.01-.864.326.326,0,0,0,.307-.19.154.154,0,0,0-.127-.231,37.678,37.678,0,0,0-10.165.875c-.806.172-1.615.369-2.413.593s-1.6.554-2.387.839l-.005,0a.246.246,0,0,0-.151.259.153.153,0,0,0,.21.128l.005,0c.765-.277,1.55-.6,2.342-.823.121-.034.229-.061.351-.093a.514.514,0,0,0,.17.537c.22.209,1.08.238,1.148-.235ZM32.43,39.889a.073.073,0,0,1-.1-.074.133.133,0,0,1,.09-.127h0a.511.511,0,0,1,.159-.015h0a1.08,1.08,0,0,1,.174.024,6.38,6.38,0,0,1,1.345.559h0a3.026,3.026,0,0,0,.35.149c.126.045.26.085.4.121a5.479,5.479,0,0,0,1.892.176.072.072,0,0,1,.086.087.145.145,0,0,1-.111.12,5.721,5.721,0,0,1-1.988-.179c-.143-.037-.282-.079-.414-.126a3.187,3.187,0,0,1-.369-.158h0a6.238,6.238,0,0,0-1.3-.543.868.868,0,0,0-.139-.02h0a.262.262,0,0,0-.075.005h0Zm0,0Zm-10.222-6.38c-.44-.424-.792-.813-.794-.815l-.315.255s.475.525,1.026,1.03a2.015,2.015,0,0,0-.2,1.113.681.681,0,0,0,.088.231.647.647,0,0,0,.329.264c-.028.035-.074.082-.121.131a1.889,1.889,0,0,0-.276.328.662.662,0,0,0-.217.073.725.725,0,0,0-.316.336.772.772,0,0,0-.061.2.748.748,0,0,0-.2.084.68.68,0,0,0-.284.325.6.6,0,0,0-.029.091,2.642,2.642,0,0,0-.714.762A9.278,9.278,0,0,0,17.71,37.6c-.161,0-.3-.005-.4,0s-.192,0-.242.006h-.026a.152.152,0,0,0-.124.114.073.073,0,0,0,.079.1l.017,0c.041,0,.12,0,.23-.005s.248,0,.394,0a8.84,8.84,0,0,1,2.383.324.932.932,0,0,0-.036.145l-1.346-.065a.16.16,0,0,0-.146.1.076.076,0,0,0,.067.11l1.419.069a.65.65,0,0,0,.035.145,6.432,6.432,0,0,0-3.632,1.084.087.087,0,0,0-.01.128.1.1,0,0,0,.135.011,6.218,6.218,0,0,1,3.626-1.019,1.118,1.118,0,0,0,.325.258,1.145,1.145,0,0,0,0,.563.075.075,0,0,0-.056-.009s-1.6.288-1.908.954a.073.073,0,0,0,.063.107.151.151,0,0,0,.149-.078c.241-.516,1.672-.776,1.676-.777a.143.143,0,0,0,.1-.091,4.855,4.855,0,0,0,.619,1.361,3.429,3.429,0,0,0,.689.814.7.7,0,0,0,.469.182l.017.034a1.374,1.374,0,0,0,.1.164,1.153,1.153,0,0,0,.645.463.17.17,0,0,0,.174-.124v0h0a.925.925,0,0,0-.171-.511,2.344,2.344,0,0,0,1.1.206,4.082,4.082,0,0,0,1.293-.387c.01.019.022.037.034.056a1.209,1.209,0,0,0,.112.142h0a2.674,2.674,0,0,0,.75.541.145.145,0,0,0,.192-.13s0-.01,0-.017h0a2.038,2.038,0,0,0-.14-.483s-.071-.22-.109-.362c.659-.064,1.24-.147,1.518-.187l.095-.013h0l.426-.064h0c.283-.043.543-.082.783-.115a.139.139,0,0,0,0,.095c-.083.058-.309.2-.585.39-.742.525-1.767,1.251-1.821,1.775,0,0,0,.031,0,.036s-.027-.036-.418.166a1.551,1.551,0,0,0-.7.9,1.263,1.263,0,0,0-.059.359c0,.023,0,.045,0,.067l-.267.14c-.145-.2-.287-.384-.412-.522l0,0-.006-.006c-.078-.078-.227.011-.212.123a4.477,4.477,0,0,0,.1.5.991.991,0,0,0-.541,1.285,1.46,1.46,0,0,0,.969,1.117c.112.06.236.126.371.205a.25.25,0,0,0,.031.235,4.04,4.04,0,0,0,2.356,1.568A5.367,5.367,0,0,0,30,49.833a3.815,3.815,0,0,0,1.553-.563.922.922,0,0,0,.386-.489,1.152,1.152,0,0,1,.391-.627c.206-.188.344-.314.243-.567a3.471,3.471,0,0,0,.99-1.022c.381-.5.784-1.026,1.06-1.041l.088-.336c-.505.027-.984.655-1.438,1.248a2.438,2.438,0,0,1-.924.994.237.237,0,0,0-.1.03.281.281,0,0,0-.121.351c.008.019-.025.049-.075.094a1.661,1.661,0,0,0-.564.906.383.383,0,0,1-.153.162,3.175,3.175,0,0,1-1.279.447,4.9,4.9,0,0,1-1.931-.072,3.8,3.8,0,0,1-1.651-.864.271.271,0,0,0,.1-.06.213.213,0,0,0-.011-.329,6.327,6.327,0,0,0-1.117-.725c-.438-.234-.7-.374-.827-.932-.108-.473.063-.654.2-.723a2.625,2.625,0,0,0,.118.276,1.506,1.506,0,0,0,.117.2.832.832,0,0,0,.139.154h0l0,0a.139.139,0,0,0,.048.018.673.673,0,0,0,.141,0,1.406,1.406,0,0,0,1.052.419c.664-.027,1.019-.055,1.094-.062.132.008,1.269.063,1.676-.361h0a1.094,1.094,0,0,1,.237-.169.193.193,0,0,0,.019.059.173.173,0,0,0,.245.07,7.038,7.038,0,0,0,1.376-1.058A8.017,8.017,0,0,0,32.1,44a2.687,2.687,0,0,0,.532-1.282,1.6,1.6,0,0,0-.423-1.143c-.806-1-1.717-.863-3.85-.543h0l-.426.064h0l-.093.013a13.691,13.691,0,0,1-4,.155h0c-.922-.291-.976-.94-.976-.942a.186.186,0,0,0-.257-.161.283.283,0,0,0-.073.037c-.075-.146-.159-.31-.223-.442-.155-.317.621.2.873.272s.615-.308.615-.308l.925-1.336s-.782.721-1.124.752-.572-.246-.8.026-.8.119-1.182.114-.764-1.341-.764-1.341a15.761,15.761,0,0,0,.5,1.762l1.052.671a.272.272,0,0,0-.011.107,2.4,2.4,0,0,1-.078,1.308c-.018.025-.107-.027-.23-.123a3.216,3.216,0,0,1-.64-.761,3.853,3.853,0,0,1-.691-1.64.84.84,0,0,0,.015-.311c-.031-.157-.047-.138-.173-.23a.676.676,0,0,1-.179-.183.445.445,0,0,1-.043-.087A.143.143,0,0,0,20.4,38.4a.075.075,0,0,0-.052-.108c0-.005,0-.011,0-.016a.506.506,0,0,1,.011-.077.143.143,0,0,0,.038-.033.1.1,0,0,0,.012-.112l.021-.042a1.825,1.825,0,0,1,.42-.494,1.333,1.333,0,0,0,.356.533l.306-.263a1.062,1.062,0,0,1-.31-.477.36.36,0,0,1,.006-.223.179.179,0,0,1,.073-.088.226.226,0,0,1,.077-.028,1.641,1.641,0,0,0,.494.813.281.281,0,0,0,.372.012.227.227,0,0,0,.012-.34,1.266,1.266,0,0,1-.429-.746.408.408,0,0,1,.027-.207.094.094,0,0,1,.031-.042.132.132,0,0,1,.094,0,.313.313,0,0,0,.362-.262c0-.058.109-.169.207-.27a2.154,2.154,0,0,0,.181-.2.159.159,0,0,0,.034-.1c.034,0,.068-.008.1-.015a1.169,1.169,0,0,0,.392-.153.984.984,0,0,0,.194-.154.176.176,0,0,0,.1-.025,4.527,4.527,0,0,1,1.922-.564,1.146,1.146,0,0,1,.2.008c.024,0,.03,0,.033,0l0,0h0a.28.28,0,0,0,.372.015.229.229,0,0,0,.017-.34h0a.387.387,0,0,0-.224-.095,1.6,1.6,0,0,0-.284-.013,4.173,4.173,0,0,0-.669.085.1.1,0,0,0,.02-.022,2.646,2.646,0,0,1,.488-.534,3.947,3.947,0,0,1,.685-.456.107.107,0,0,0,.047-.131.083.083,0,0,0-.118-.043,4.281,4.281,0,0,0-.745.5,2.969,2.969,0,0,0-.548.6.073.073,0,0,0,.04.115l.006,0q-.091.021-.185.045a.116.116,0,0,0,.005-.026,4.376,4.376,0,0,1,1.063-2.047,3.088,3.088,0,0,1,.286-.288,1.3,1.3,0,0,1,.244-.173h0a.108.108,0,0,0,.051-.131.082.082,0,0,0-.117-.046h0a1.639,1.639,0,0,0-.313.22,3.437,3.437,0,0,0-.317.318,4.662,4.662,0,0,0-1.131,2.194.1.1,0,0,0,.005.042,5.32,5.32,0,0,0-.809.309l-.1-.335-.639-.436.716.125.167-.331-1.221-.213-.043.085-.092-.086.26-.11a1.738,1.738,0,0,1-.04-.477,3.2,3.2,0,0,1,.986-2.015,4.64,4.64,0,0,1,.371-.34.3.3,0,0,0,.069.016c.286.037.382-.126.464-.4a6.673,6.673,0,0,1,1.3-.63.158.158,0,0,0,.22.084.452.452,0,0,0,.195-.221q.271-.082.566-.151A12.686,12.686,0,0,1,29.83,29.1a9.174,9.174,0,0,0-1.179.515l.118.275a6.865,6.865,0,0,1,2.871-.822l.017-.049a18.283,18.283,0,0,1,4.213.1l.239-.309c-.768-.353-4.6-.109-4.607-.108l-.009.035a5.038,5.038,0,0,0-1.062.177l.049-.13a13.622,13.622,0,0,0-3.724.287q-.25.058-.483.126a1.236,1.236,0,0,0,0-.291,1.17,1.17,0,0,0-.106-.366.572.572,0,0,0-.264-.271c-.214-.1-.5-.064-.858.216h0l-.008.006a2.509,2.509,0,0,0-.789,1.068,1.291,1.291,0,0,0-.371.8,5.3,5.3,0,0,0-.568.5,3.609,3.609,0,0,0-1.11,2.275,2.188,2.188,0,0,0,.013.37Zm.7,1.107a2.763,2.763,0,0,0,.275.169c.051.178.057.332-.085.42a.654.654,0,0,1-.219.086.6.6,0,0,1-.3-.016.418.418,0,0,1-.227-.176.453.453,0,0,1-.059-.154,1.461,1.461,0,0,1,.1-.736l.055.046,0,.005-.125.393a.081.081,0,0,0,0,.034.271.271,0,0,0,.461.106.341.341,0,0,0,.131-.179Zm6.47.3.084.083a.074.074,0,0,1,.018.072s-.081.423-.627.33c-.235-.04-.3-.157-.291-.276l-.152.043a.42.42,0,0,0,.141.279.96.96,0,0,0,.516.223l.086.011h0a.714.714,0,0,0,.468-.054h0c.062-.047.086-.147.079-.292a.883.883,0,0,0-.11-.465l-.212.046Zm-1.4,11.35a.226.226,0,0,0,.055.009c.118-.011.25-.026.381-.042s.267-.031.379-.042h0c.105-.009.183-.128.117-.188-.107-.1-.221-.215-.341-.338-.084-.087-.172-.177-.26-.264.032.007.067.014.1.019a3.575,3.575,0,0,0,.477.035c.435,0,.909-.073,1.037-.254l-.3-.116a2.639,2.639,0,0,1-.624.031,3.8,3.8,0,0,0-.947.049,1.335,1.335,0,0,0-.6-.341h0a.164.164,0,0,0-.166.137,1.208,1.208,0,0,0,.012.129l0,0a.217.217,0,0,0-.241.075.462.462,0,0,1-.36.229,1.89,1.89,0,0,1-.639-.121.222.222,0,0,1-.135-.115.444.444,0,0,1-.042-.2.938.938,0,0,1,.044-.266,1.052,1.052,0,0,1,.45-.612c.544-.282.655-.474.677-.551h.006c.035-.343.955-.994,1.621-1.465.456-.323.813-.575.819-.748a.191.191,0,0,0,0-.031,3.581,3.581,0,0,1,1.568.055,6.306,6.306,0,0,0-1.3.774h0c-.059.065-.128.153-.207.253a2.314,2.314,0,0,1-.913.826l.014.319A2.676,2.676,0,0,0,29.835,42.5c.069-.089.131-.167.182-.224h0A7.9,7.9,0,0,1,31.4,41.5a1.823,1.823,0,0,1,.4.377,1.335,1.335,0,0,1,.363.936,1.215,1.215,0,0,1-.041.239.082.082,0,0,0-.039-.045.123.123,0,0,0-.147.026l-.1.113c-.23.277-.71.868-1.119,1.373-.358.441-.539.8-.6.8a.149.149,0,0,0-.122.114.072.072,0,0,0,.059.094c-.089.045-.2.1-.31.152a2.97,2.97,0,0,0-.8.489h0c-.26.271-1.3.2-1.306.2h-.028s-.359.033-1.092.062a1.065,1.065,0,0,1-.64-.183.1.1,0,0,0,.012-.132,7.743,7.743,0,0,1-.485-.622l.177-.093a.454.454,0,0,0,.254.187,2.144,2.144,0,0,0,.766.134.933.933,0,0,0,.727-.43,2,2,0,0,0,.3.662,1.167,1.167,0,0,0,.15.171.834.834,0,0,0,.182.13h0l.011.006Zm-5.162-4.5a.887.887,0,0,1-.061-.168.067.067,0,0,0-.018-.033,2.221,2.221,0,0,0,.037-.362,1.922,1.922,0,0,0,.8.46h.005a5.068,5.068,0,0,0,1.489.123,3.208,3.208,0,0,1-.869.226,2.328,2.328,0,0,1-1.277-.359l-.1.112ZM39.287,27.229h0c.051,0,.132-.007.183-.006h0c.974.015.81.829.238,1.126.716-.109,1.309-.083,1.569.2a1.67,1.67,0,0,1,.212.287,1.126,1.126,0,0,1,.089.966,1.993,1.993,0,0,1-.562.793,3.313,3.313,0,0,1-.571.412.169.169,0,0,1-.24-.077.206.206,0,0,1,.083-.261,2.6,2.6,0,0,0,.449-.324,1.415,1.415,0,0,0,.4-.554.8.8,0,0,0-.076-.683,1.383,1.383,0,0,0-.178-.242c-.738-.815-5.457,1.257-5.47,1.263a.156.156,0,0,1-.22-.109.23.23,0,0,1,.125-.26A23.427,23.427,0,0,1,39.5,28.386c-.5.039-.811.076-.856-.422-.019-.2.277-.243.422-.257-.213.992,1.4-.128.3-.146h-.076l-.067,0h0l.072-.338ZM33.576,29.7a.78.78,0,0,0,.131.093h0a.293.293,0,0,0,.161.041l-.072.338c-.7.064-.818-1.009-.273-1.058l.234-.021c-.174.208-.34.372-.181.608Zm5.64,5.534c1.048-.1.824.871.318,1.068a.636.636,0,0,1-.772-.3l.323-.122c.435.626.954-.546.059-.307l.072-.338Zm-3.2-2.156a.282.282,0,0,0-.014.174h0c.274,1.12,1.686-.176.416-.21l.123-.338c2.03.071-.464,2.521-.908.706h0a.571.571,0,0,1,.029-.352l.353.019Zm-7.038-2.247c-.2.1.1.393.337.021l.234-.047a.538.538,0,0,1-.791.485c-.481-.2-.114-.928.293-.8l-.074.338Zm2.013-1.056c.756.064,1.007.35.73.672a.715.715,0,0,1-1.152-.045l.254-.186c.113.178.678.291.692.039-.117-.159-.372-.164-.6-.143l.072-.338Zm-4.2.356c-.322.7.369.306.321.005-.01-.066-.091-.068-.174-.105A1.149,1.149,0,0,0,27,29.813c.529-.048.292.543-.021.827-.511.463-.737-.371-.271-.676l.077.17Zm-.911,9c-.336.33-.1.447.191.27.021.229-.5.41-.588.224a.631.631,0,0,1,.065-.56l.332.066Zm-1.3-9.24c.009-.03.018-.061.029-.093a.31.31,0,0,0,.17-.206.163.163,0,0,0-.031-.146,1.882,1.882,0,0,1,.535-.681l.008-.006h0c.152-.118.252-.143.314-.114a.3.3,0,0,1,.13.145.866.866,0,0,1,.078.271,2.5,2.5,0,0,0,.051.259,7.514,7.514,0,0,0-1.283.571Zm-7.48,6.757a.073.073,0,0,1-.1-.074.134.134,0,0,1,.091-.126,3.386,3.386,0,0,1,2.351.272.1.1,0,0,1,.026.153.156.156,0,0,1-.187.035,3.14,3.14,0,0,0-2.186-.26Zm9.347,3.037c.016,0,5.571-1.664,6.822-1.5a.162.162,0,0,0,.156-.09.078.078,0,0,0-.061-.118c-1.3-.167-6.911,1.508-6.927,1.513a.132.132,0,0,0-.088.127.073.073,0,0,0,.1.072Zm1.395-.245c.028,0,9.793-1.322,12.042-.054l-.161.188c-2.194-1.237-11.887.071-11.915.075l.035-.209Zm-1.082-.388c.011-.005,3.948-1.885,6.384-2.063a.153.153,0,0,0,.127-.112.073.073,0,0,0-.077-.1c-2.491.182-6.478,2.086-6.49,2.092a.112.112,0,0,0-.057.131.079.079,0,0,0,.113.05Zm1.353-.359c.02-.006,6.933-2.072,10.339-1.359a.163.163,0,0,0,.166-.08.081.081,0,0,0-.054-.126C35.093,36.411,28.116,38.5,28.1,38.5a.132.132,0,0,0-.088.127.074.074,0,0,0,.1.072Zm6.155,2.988a.133.133,0,0,1,.042-.178.121.121,0,0,1,.171.04s.822,1.339-1.453,2.5a.082.082,0,0,1-.074,0,12.208,12.208,0,0,1-.884,1.959.145.145,0,0,1-.15.064.072.072,0,0,1-.053-.11,9.794,9.794,0,0,0,1.25-3.511c.014-.139-.057-.369-.031-.419a.2.2,0,0,1,.123-.107h0c.087-.025.144.03.153.161a2.03,2.03,0,0,1-.013.322,7.3,7.3,0,0,1-.324,1.429c1.938-1.016,1.245-2.146,1.243-2.149Zm-3.781,3.618-.2.1c0,.008-.046.038-.126.08.133-.121.419-.473.749-.88.394-.486.857-1.057,1.118-1.37l.084-.1a3.12,3.12,0,0,1-.383.727,7.4,7.4,0,0,1-.936,1.159q-.144.143-.3.279Zm-5.218-8.2h0l-.033.017Zm0,0,.062-.032h0l-.062.032Zm-.145.075h0Zm3.2,7.243a.164.164,0,0,1-.22-.013.137.137,0,0,1,.011-.2l1.532-1.269a.165.165,0,0,1,.22.013.137.137,0,0,1-.011.2l-1.532,1.27Zm10.2-13.793-.234,0s-.526.642.707.53l.072-.336c-.7.185-.608-.117-.545-.2Zm-1.769-.339.191.175a6.222,6.222,0,0,1,2.929-.975.869.869,0,0,1,.451.1.083.083,0,0,1,.031.1.469.469,0,0,1-.138.172,4.3,4.3,0,0,1-1.5.72l.026.248a4.937,4.937,0,0,0,1.735-.845.813.813,0,0,0,.243-.318.24.24,0,0,0-.084-.289,1.124,1.124,0,0,0-.62-.153A6.849,6.849,0,0,0,36.749,30.291Z" transform="translate(-16.348 -25.903)" fill="#0d0a07"/>
    </g>
    <path id="Path_2909" data-name="Path 2909" d="M192.762,33.813l-.589,7.063,2.305.638.279-3.421L196.735,42l2.845,1.177-2.7-4.954,3.188-2.7-2.7-.736-2.532,2.278.226-2.769-2.305-.491Zm-6.157,3.7,1.714.094-.659-2.517-1.056,2.423Zm2.117,1.63-2.781-.106-.438,1.006-2.5-.1,3.434-6.769,2.747.147,2.256,7.5-2.4-.491Z" transform="translate(-147.955 -19.277)" fill="#0d0a07" fill-rule="evenodd"/>
    <path id="Path_2910" data-name="Path 2910" d="M158.645,90.76s-1.717.245-2.992.54-2.747.785-2.747.785l.343,7.21s2.158-.589,3.188-.883,3.237-.785,2.943-3.09-2.8-1.373-2.8-1.373l-1.373.343-.1-1.03s.932-.294,1.668-.442,1.913-.343,1.913-.343l-.049-1.717Zm19.62,3.777c.049.049.049,2.305.049,2.305-.443-1.218-2.694-3.456-3.188-1.226a3.681,3.681,0,0,0,1.471,3.777,2.521,2.521,0,0,0,1.815.2l.1,2.452a5.592,5.592,0,0,1-1.619-.638,7.679,7.679,0,0,1-3.581-4.611,8.692,8.692,0,0,1-.3-1.926,1.739,1.739,0,0,1-2.255,1.73,4.942,4.942,0,0,1-1.472-.442v2.5a9.988,9.988,0,0,0-1.864-.442c-.883-.1-2.354-.147-2.354-.147l-.479-1.317-2.675.034-.329,1.135s-.638.049-1.177.049-1.177.049-1.128.049l2.4-7.112a7.7,7.7,0,0,1,1.423-.147h1.373l2.453,6.278-.049-6.278a35.345,35.345,0,0,1,3.483.638,4.051,4.051,0,0,1,2.647,3.29c.02-1.406.641-2.22,1.915-2.358,1.815-.2,3.286,2.158,3.335,2.207Zm-15.893.678,1.65-.031-.913-2.511-.737,2.542Zm-7.067,2.029-.089-1.582s.733-.2,1.045-.245.889,0,.933.468-.244.8-.844,1.025-1.045.334-1.045.334Zm13.866-2.718a7.978,7.978,0,0,0,.889.134c.355.022.711-.156.711-.557a1.2,1.2,0,0,0-.644-1.047,4.571,4.571,0,0,0-1-.223Z" transform="translate(-122.912 -67.195)" fill="#0d0a07" fill-rule="evenodd"/>
    <path id="Path_2911" data-name="Path 2911" d="M189.256,31.183l-.589,7.063,2.305.638.279-3.421,1.977,3.912,2.845,1.177-2.7-4.954,3.188-2.7-2.7-.736-2.531,2.278.226-2.769-2.305-.491Zm-6.157,3.7,1.714.094-.659-2.517L183.1,34.881Zm2.117,1.63-2.781-.106L182,37.412l-2.5-.1,3.434-6.769,2.747.147,2.256,7.5-2.4-.491Z" transform="translate(-145.037 -17.088)" fill="#00862f" fill-rule="evenodd"/>
    <path id="Path_2912" data-name="Path 2912" d="M155.139,88.13s-1.717.245-2.992.54-2.747.785-2.747.785l.343,7.21s2.158-.589,3.188-.883,3.237-.785,2.943-3.09-2.8-1.374-2.8-1.374l-1.373.343-.1-1.03s.932-.294,1.668-.441,1.913-.343,1.913-.343l-.049-1.717Zm19.62,3.777c.049.049.049,2.305.049,2.305-.443-1.218-2.694-3.456-3.188-1.226a3.682,3.682,0,0,0,1.472,3.777,2.521,2.521,0,0,0,1.815.2l.1,2.452a5.6,5.6,0,0,1-1.619-.638,7.68,7.68,0,0,1-3.581-4.611,8.692,8.692,0,0,1-.3-1.926,1.739,1.739,0,0,1-2.255,1.73,4.945,4.945,0,0,1-1.472-.441v2.5a10,10,0,0,0-1.864-.442c-.883-.1-2.355-.147-2.355-.147l-.479-1.317-2.675.034-.329,1.135s-.638.049-1.177.049-1.177.049-1.128.049l2.4-7.112a7.694,7.694,0,0,1,1.422-.147h1.374l2.452,6.278-.049-6.278a35.308,35.308,0,0,1,3.483.638,4.05,4.05,0,0,1,2.647,3.289c.02-1.406.641-2.22,1.915-2.358,1.815-.2,3.286,2.158,3.335,2.207Zm-15.893.678,1.65-.031-.913-2.511-.737,2.542ZM151.8,94.614l-.089-1.582s.733-.2,1.044-.245.889,0,.933.468-.244.8-.844,1.025-1.044.334-1.044.334ZM165.665,91.9a7.993,7.993,0,0,0,.889.134c.355.022.711-.156.711-.557a1.2,1.2,0,0,0-.644-1.047,4.568,4.568,0,0,0-1-.223Z" transform="translate(-119.994 -65.006)" fill="#d9000d" fill-rule="evenodd"/>
  </g>
</svg>
