<svg xmlns="http://www.w3.org/2000/svg" viewBox="0 0 437.24 437.24">
  <path fill="#276a64" d="M158.52 8.82v-.45c-.51.14-1 .3-1.53.45zM148.78 16.89h1.68v-6l-1.68.55zM186.61 7.14h6.41v1.68h-6.41zM175.21 7.14h6.41v1.68h-6.41zM183.28 5.49H185V2.58l-1.68.28zM183.28 10.48h1.68v6.41h-1.68zM221.12 7.14h6.41v1.68h-6.41zM209.72 7.14h6.41v1.68h-6.41zM217.78 0v5.49h1.68V0h-1.68zM217.78 10.48h1.68v6.41h-1.68zM255.62 7.14h6.41v1.68h-6.41zM244.22 7.14h6.41v1.68h-6.41zM252.28 5.49H254V2.86l-1.68-.28zM252.28 10.48h1.68v6.41h-1.68zM278.72 8.37v.45h1.54zM286.79 16.89h1.68V11.4l-1.68-.55zM87.17 43.93h2.35v-1.68h-.08c-.76.56-1.52 1.11-2.27 1.68zM79.77 52h1.68v-3.6l-1.68 1.35zM117.61 42.25h6.41v1.68h-6.41zM106.21 42.25h6.41v1.68h-6.41zM114.28 34.18h1.68v6.41h-1.68zM114.28 45.59h1.68V52h-1.68zM152.11 42.25h6.41v1.68h-6.41zM140.71 42.25h6.41v1.68h-6.41zM148.78 34.18h1.68v6.41h-1.68zM148.78 45.59h1.68V52h-1.68zM186.61 42.25h6.41v1.68h-6.41zM175.21 42.25h6.41v1.68h-6.41zM183.28 34.18h1.68v6.41h-1.68zM183.28 45.59h1.68V52h-1.68zM221.12 42.25h6.41v1.68h-6.41zM209.72 42.25h6.41v1.68h-6.41zM217.78 34.18h1.68v6.41h-1.68zM217.78 45.59h1.68V52h-1.68zM255.62 42.25h6.41v1.68h-6.41zM244.22 42.25h6.41v1.68h-6.41zM252.28 34.18h1.68v6.41h-1.68zM252.28 45.59h1.68V52h-1.68zM290.12 42.25h6.41v1.68h-6.41zM278.72 42.25h6.41v1.68h-6.41zM286.79 34.18h1.68v6.41h-1.68zM286.79 45.59h1.68V52h-1.68zM324.63 42.25h6.41v1.68h-6.41zM313.22 42.25h6.41v1.68h-6.41zM321.29 34.18h1.68v6.41h-1.68zM321.29 45.59h1.68V52h-1.68zM347.81 42.25h-.09v1.68h2.36c-.75-.57-1.51-1.12-2.27-1.68zM355.79 52h1.68v-2.25c-.55-.46-1.12-.9-1.68-1.35zM50.36 79H55v-1.64h-3.22c-.47.56-.95 1.11-1.42 1.64zM45.27 87.1H47v-3.85c-.57.72-1.12 1.44-1.68 2.17zM83.11 77.36h6.41v1.68h-6.41zM71.71 77.36h6.41v1.68h-6.41zM79.77 69.29h1.68v6.41h-1.68zM79.77 80.69h1.68v6.41h-1.68zM117.61 77.36h6.41v1.68h-6.41zM106.21 77.36h6.41v1.68h-6.41zM114.28 69.29h1.68v6.41h-1.68zM114.28 80.69h1.68v6.41h-1.68zM152.11 77.36h6.41v1.68h-6.41zM140.71 77.36h6.41v1.68h-6.41zM148.78 69.29h1.68v6.41h-1.68zM148.78 80.69h1.68v6.41h-1.68zM186.61 77.36h6.41v1.68h-6.41zM175.21 77.36h6.41v1.68h-6.41zM183.28 69.29h1.68v6.41h-1.68zM183.28 80.69h1.68v6.41h-1.68zM221.12 77.36h6.41v1.68h-6.41zM209.72 77.36h6.41v1.68h-6.41zM217.78 69.29h1.68v6.41h-1.68zM217.78 80.69h1.68v6.41h-1.68zM255.62 77.36h6.41v1.68h-6.41zM244.22 77.36h6.41v1.68h-6.41zM252.28 69.29h1.68v6.41h-1.68zM252.28 80.69h1.68v6.41h-1.68zM290.12 77.36h6.41v1.68h-6.41zM278.72 77.36h6.41v1.68h-6.41zM286.79 69.29h1.68v6.41h-1.68zM286.79 80.69h1.68v6.41h-1.68zM324.63 77.36h6.41v1.68h-6.41zM313.22 77.36h6.41v1.68h-6.41zM321.29 69.29h1.68v6.41h-1.68zM321.29 80.69h1.68v6.41h-1.68zM359.13 77.36h6.41v1.68h-6.41zM347.72 77.36h6.41v1.68h-6.41zM355.79 69.29h1.68v6.41h-1.68zM355.79 80.69h1.68v6.41h-1.68zM385.46 77.36h-3.23V79h4.65c-.47-.53-.95-1.08-1.42-1.64zM390.29 87.1H392v-1.68c-.56-.73-1.11-1.45-1.68-2.17zM48.61 112.46h6.41v1.68h-6.41zM37.2 112.46h6.41v1.68H37.2zM45.27 104.4h1.68v6.41h-1.68zM45.27 115.8h1.68v6.41h-1.68zM83.11 112.46h6.41v1.68h-6.41zM71.71 112.46h6.41v1.68h-6.41zM79.77 104.4h1.68v6.41h-1.68zM79.77 115.8h1.68v6.41h-1.68zM117.61 112.46h6.41v1.68h-6.41zM106.21 112.46h6.41v1.68h-6.41zM114.28 104.4h1.68v6.41h-1.68zM114.28 115.8h1.68v6.41h-1.68zM152.11 112.46h6.41v1.68h-6.41zM140.71 112.46h6.41v1.68h-6.41zM148.78 104.4h1.68v6.41h-1.68zM148.78 115.8h1.68v6.41h-1.68zM186.61 112.46h6.41v1.68h-6.41zM175.21 112.46h6.41v1.68h-6.41zM183.28 104.4h1.68v6.41h-1.68zM183.28 115.8h1.68v6.41h-1.68zM221.12 112.46h6.41v1.68h-6.41zM209.72 112.46h6.41v1.68h-6.41zM217.78 104.4h1.68v6.41h-1.68zM217.78 115.8h1.68v6.41h-1.68zM255.62 112.46h6.41v1.68h-6.41zM244.22 112.46h6.41v1.68h-6.41zM252.28 104.4h1.68v6.41h-1.68zM252.28 115.8h1.68v6.41h-1.68zM290.12 112.46h6.41v1.68h-6.41zM278.72 112.46h6.41v1.68h-6.41zM286.79 104.4h1.68v6.41h-1.68zM286.79 115.8h1.68v6.41h-1.68zM324.63 112.46h6.41v1.68h-6.41zM313.22 112.46h6.41v1.68h-6.41zM321.29 104.4h1.68v6.41h-1.68zM321.29 115.8h1.68v6.41h-1.68zM359.13 112.46h6.41v1.68h-6.41zM347.72 112.46h6.41v1.68h-6.41zM355.79 104.4h1.68v6.41h-1.68zM355.79 115.8h1.68v6.41h-1.68zM393.63 112.46h6.41v1.68h-6.41zM382.23 112.46h6.41v1.68h-6.41zM390.29 104.4h1.68v6.41h-1.68zM390.29 115.8h1.68v6.41h-1.68zM14.1 147.57h6.41v1.68H14.1zM12.45 145.91v-.13.13zM10.77 150.9h1.68v6.41h-1.68zM48.61 147.57h6.41v1.68h-6.41zM37.2 147.57h6.41v1.68H37.2zM45.27 139.5h1.68v6.41h-1.68zM45.27 150.9h1.68v6.41h-1.68zM83.11 147.57h6.41v1.68h-6.41zM71.71 147.57h6.41v1.68h-6.41zM79.77 139.5h1.68v6.41h-1.68zM79.77 150.9h1.68v6.41h-1.68zM117.61 147.57h6.41v1.68h-6.41zM106.21 147.57h6.41v1.68h-6.41zM114.28 139.5h1.68v6.41h-1.68zM114.28 150.9h1.68v6.41h-1.68zM152.11 147.57h6.41v1.68h-6.41zM140.71 147.57h6.41v1.68h-6.41zM148.78 139.5h1.68v6.41h-1.68zM148.78 150.9h1.68v6.41h-1.68zM186.61 147.57h6.41v1.68h-6.41zM175.21 147.57h6.41v1.68h-6.41zM183.28 139.5h1.68v6.41h-1.68zM183.28 150.9h1.68v6.41h-1.68zM221.12 147.57h6.41v1.68h-6.41zM209.72 147.57h6.41v1.68h-6.41zM217.78 139.5h1.68v6.41h-1.68zM217.78 150.9h1.68v6.41h-1.68zM255.62 147.57h6.41v1.68h-6.41zM244.22 147.57h6.41v1.68h-6.41zM252.28 139.5h1.68v6.41h-1.68zM252.28 150.9h1.68v6.41h-1.68zM290.12 147.57h6.41v1.68h-6.41zM278.72 147.57h6.41v1.68h-6.41zM286.79 139.5h1.68v6.41h-1.68zM286.79 150.9h1.68v6.41h-1.68zM324.63 147.57h6.41v1.68h-6.41zM313.22 147.57h6.41v1.68h-6.41zM321.29 139.5h1.68v6.41h-1.68zM321.29 150.9h1.68v6.41h-1.68zM359.13 147.57h6.41v1.68h-6.41zM347.72 147.57h6.41v1.68h-6.41zM355.79 139.5h1.68v6.41h-1.68zM355.79 150.9h1.68v6.41h-1.68zM393.63 147.57h6.41v1.68h-6.41zM382.23 147.57h6.41v1.68h-6.41zM390.29 139.5h1.68v6.41h-1.68zM390.29 150.9h1.68v6.41h-1.68zM416.73 147.57h6.41v1.68h-6.41zM424.8 145.78v.13h.05zM424.8 150.9h1.68v6.41h-1.68zM14.1 182.68h6.41v1.68H14.1zM2.7 184.23v.12h6.41v-1.67H3c-.13.51-.22 1.03-.3 1.55zM10.77 174.61h1.68v6.41h-1.68zM10.77 186.01h1.68v6.41h-1.68zM48.61 182.68h6.41v1.68h-6.41zM37.2 182.68h6.41v1.68H37.2zM45.27 174.61h1.68v6.41h-1.68zM45.27 186.01h1.68v6.41h-1.68zM83.11 182.68h6.41v1.68h-6.41zM71.71 182.68h6.41v1.68h-6.41zM79.77 174.61h1.68v6.41h-1.68zM79.77 186.01h1.68v6.41h-1.68zM117.61 182.68h6.41v1.68h-6.41zM106.21 182.68h6.41v1.68h-6.41zM114.28 174.61h1.68v6.41h-1.68zM114.28 186.01h1.68v6.41h-1.68zM152.11 182.68h6.41v1.68h-6.41zM140.71 182.68h6.41v1.68h-6.41zM148.78 174.61h1.68v6.41h-1.68zM148.78 186.01h1.68v6.41h-1.68zM186.61 182.68h6.41v1.68h-6.41zM175.21 182.68h6.41v1.68h-6.41zM183.28 174.61h1.68v6.41h-1.68zM183.28 186.01h1.68v6.41h-1.68zM221.12 182.68h6.41v1.68h-6.41zM209.72 182.68h6.41v1.68h-6.41zM217.78 174.61h1.68v6.41h-1.68zM217.78 186.01h1.68v6.41h-1.68zM255.62 182.68h6.41v1.68h-6.41zM244.22 182.68h6.41v1.68h-6.41zM252.28 174.61h1.68v6.41h-1.68zM252.28 186.01h1.68v6.41h-1.68zM290.12 182.68h6.41v1.68h-6.41zM278.72 182.68h6.41v1.68h-6.41zM286.79 174.61h1.68v6.41h-1.68zM286.79 186.01h1.68v6.41h-1.68zM324.63 182.68h6.41v1.68h-6.41zM313.22 182.68h6.41v1.68h-6.41zM321.29 174.61h1.68v6.41h-1.68zM321.29 186.01h1.68v6.41h-1.68zM359.13 182.68h6.41v1.68h-6.41zM347.72 182.68h6.41v1.68h-6.41zM355.79 174.61h1.68v6.41h-1.68zM355.79 186.01h1.68v6.41h-1.68zM393.63 182.68h6.41v1.68h-6.41zM382.23 182.68h6.41v1.68h-6.41zM390.29 174.61h1.68v6.41h-1.68zM390.29 186.01h1.68v6.41h-1.68zM434.29 182.68h-6.16v1.67h6.41v-.13c-.08-.51-.17-1.03-.25-1.54zM416.73 182.68h6.41v1.68h-6.41zM424.8 174.61h1.68v6.41h-1.68zM424.8 186.01h1.68v6.41h-1.68zM14.1 217.78h6.41v1.68H14.1zM2.7 217.78h6.41v1.68H2.7zM10.77 209.71h1.68v6.41h-1.68zM10.77 221.12h1.68v6.41h-1.68zM48.61 217.78h6.41v1.68h-6.41zM37.2 217.78h6.41v1.68H37.2zM45.27 209.71h1.68v6.41h-1.68zM45.27 221.12h1.68v6.41h-1.68zM83.11 217.78h6.41v1.68h-6.41zM71.71 217.78h6.41v1.68h-6.41zM79.77 209.71h1.68v6.41h-1.68zM79.77 221.12h1.68v6.41h-1.68zM117.61 217.78h6.41v1.68h-6.41zM106.21 217.78h6.41v1.68h-6.41zM114.28 209.71h1.68v6.41h-1.68zM114.28 221.12h1.68v6.41h-1.68zM152.11 217.78h6.41v1.68h-6.41zM140.71 217.78h6.41v1.68h-6.41zM148.78 209.71h1.68v6.41h-1.68zM148.78 221.12h1.68v6.41h-1.68zM186.61 217.78h6.41v1.68h-6.41zM175.21 217.78h6.41v1.68h-6.41zM183.28 209.71h1.68v6.41h-1.68zM183.28 221.12h1.68v6.41h-1.68zM221.12 217.78h6.41v1.68h-6.41zM209.72 217.78h6.41v1.68h-6.41zM217.78 209.71h1.68v6.41h-1.68zM217.78 221.12h1.68v6.41h-1.68zM255.62 217.78h6.41v1.68h-6.41zM244.22 217.78h6.41v1.68h-6.41zM252.28 209.71h1.68v6.41h-1.68zM252.28 221.12h1.68v6.41h-1.68zM290.12 217.78h6.41v1.68h-6.41zM278.72 217.78h6.41v1.68h-6.41zM286.79 209.71h1.68v6.41h-1.68zM286.79 221.12h1.68v6.41h-1.68zM324.63 217.78h6.41v1.68h-6.41zM313.22 217.78h6.41v1.68h-6.41zM321.29 209.71h1.68v6.41h-1.68zM321.29 221.12h1.68v6.41h-1.68zM359.13 217.78h6.41v1.68h-6.41zM347.72 217.78h6.41v1.68h-6.41zM355.79 209.71h1.68v6.41h-1.68zM355.79 221.12h1.68v6.41h-1.68zM393.63 217.78h6.41v1.68h-6.41zM382.23 217.78h6.41v1.68h-6.41zM390.29 209.71h1.68v6.41h-1.68zM390.29 221.12h1.68v6.41h-1.68zM428.13 217.78h6.41v1.68h-6.41zM416.73 217.78h6.41v1.68h-6.41zM424.8 209.71h1.68v6.41h-1.68zM424.8 221.12h1.68v6.41h-1.68zM14.1 252.89h6.41v1.68H14.1zM2.7 253c.08.52.17 1 .26 1.56h6.15v-1.68H2.7zM10.77 244.82h1.68v6.41h-1.68zM10.77 256.22h1.68v6.41h-1.68zM48.61 252.89h6.41v1.68h-6.41zM37.2 252.89h6.41v1.68H37.2zM45.27 244.82h1.68v6.41h-1.68zM45.27 256.22h1.68v6.41h-1.68zM83.11 252.89h6.41v1.68h-6.41zM71.71 252.89h6.41v1.68h-6.41zM79.77 244.82h1.68v6.41h-1.68zM79.77 256.22h1.68v6.41h-1.68zM117.61 252.89h6.41v1.68h-6.41zM106.21 252.89h6.41v1.68h-6.41zM114.28 244.82h1.68v6.41h-1.68zM114.28 256.22h1.68v6.41h-1.68zM152.11 252.89h6.41v1.68h-6.41zM140.71 252.89h6.41v1.68h-6.41zM148.78 244.82h1.68v6.41h-1.68zM148.78 256.22h1.68v6.41h-1.68zM186.61 252.89h6.41v1.68h-6.41zM175.21 252.89h6.41v1.68h-6.41zM183.28 244.82h1.68v6.41h-1.68zM183.28 256.22h1.68v6.41h-1.68zM221.12 252.89h6.41v1.68h-6.41zM209.72 252.89h6.41v1.68h-6.41zM217.78 244.82h1.68v6.41h-1.68zM217.78 256.22h1.68v6.41h-1.68zM255.62 252.89h6.41v1.68h-6.41zM244.22 252.89h6.41v1.68h-6.41zM252.28 244.82h1.68v6.41h-1.68zM252.28 256.22h1.68v6.41h-1.68zM290.12 252.89h6.41v1.68h-6.41zM278.72 252.89h6.41v1.68h-6.41zM286.79 244.82h1.68v6.41h-1.68zM286.79 256.22h1.68v6.41h-1.68zM324.63 252.89h6.41v1.68h-6.41zM313.22 252.89h6.41v1.68h-6.41zM321.29 244.82h1.68v6.41h-1.68zM321.29 256.22h1.68v6.41h-1.68zM359.13 252.89h6.41v1.68h-6.41zM347.72 252.89h6.41v1.68h-6.41zM355.79 244.82h1.68v6.41h-1.68zM355.79 256.22h1.68v6.41h-1.68zM393.63 252.89h6.41v1.68h-6.41zM382.23 252.89h6.41v1.68h-6.41zM390.29 244.82h1.68v6.41h-1.68zM390.29 256.22h1.68v6.41h-1.68zM428.13 254.57h6.16c.08-.52.17-1 .25-1.55v-.13h-6.41zM416.73 252.89h6.41v1.68h-6.41zM424.8 244.82h1.68v6.41h-1.68zM424.8 256.22h1.68v6.41h-1.68zM14.1 287.99h6.41v1.68H14.1zM10.77 279.93h1.68v6.41h-1.68zM12.45 291.46v-.13zM48.61 287.99h6.41v1.68h-6.41zM37.2 287.99h6.41v1.68H37.2zM45.27 279.93h1.68v6.41h-1.68zM45.27 291.33h1.68v6.41h-1.68zM83.11 287.99h6.41v1.68h-6.41zM71.71 287.99h6.41v1.68h-6.41zM79.77 279.93h1.68v6.41h-1.68zM79.77 291.33h1.68v6.41h-1.68zM117.61 287.99h6.41v1.68h-6.41zM106.21 287.99h6.41v1.68h-6.41zM114.28 279.93h1.68v6.41h-1.68zM114.28 291.33h1.68v6.41h-1.68zM152.11 287.99h6.41v1.68h-6.41zM140.71 287.99h6.41v1.68h-6.41zM148.78 279.93h1.68v6.41h-1.68zM148.78 291.33h1.68v6.41h-1.68zM186.61 287.99h6.41v1.68h-6.41zM175.21 287.99h6.41v1.68h-6.41zM183.28 279.93h1.68v6.41h-1.68zM183.28 291.33h1.68v6.41h-1.68zM221.12 287.99h6.41v1.68h-6.41zM209.72 287.99h6.41v1.68h-6.41zM217.78 279.93h1.68v6.41h-1.68zM217.78 291.33h1.68v6.41h-1.68zM255.62 287.99h6.41v1.68h-6.41zM244.22 287.99h6.41v1.68h-6.41zM252.28 279.93h1.68v6.41h-1.68zM252.28 291.33h1.68v6.41h-1.68zM290.12 287.99h6.41v1.68h-6.41zM278.72 287.99h6.41v1.68h-6.41zM286.79 279.93h1.68v6.41h-1.68zM286.79 291.33h1.68v6.41h-1.68zM324.63 287.99h6.41v1.68h-6.41zM313.22 287.99h6.41v1.68h-6.41zM321.29 279.93h1.68v6.41h-1.68zM321.29 291.33h1.68v6.41h-1.68zM359.13 287.99h6.41v1.68h-6.41zM347.72 287.99h6.41v1.68h-6.41zM355.79 279.93h1.68v6.41h-1.68zM355.79 291.33h1.68v6.41h-1.68zM393.63 287.99h6.41v1.68h-6.41zM382.23 287.99h6.41v1.68h-6.41zM390.29 279.93h1.68v6.41h-1.68zM390.29 291.33h1.68v6.41h-1.68zM416.73 287.99h6.41v1.68h-6.41zM424.8 279.93h1.68v6.41h-1.68zM424.8 291.47l.05-.14h-.05zM48.61 323.1h6.41v1.68h-6.41zM37.2 323.1h6.41v1.68H37.2zM45.27 315.03h1.68v6.41h-1.68zM45.27 326.43h1.68v6.41h-1.68zM83.11 323.1h6.41v1.68h-6.41zM71.71 323.1h6.41v1.68h-6.41zM79.77 315.03h1.68v6.41h-1.68zM79.77 326.43h1.68v6.41h-1.68zM117.61 323.1h6.41v1.68h-6.41zM106.21 323.1h6.41v1.68h-6.41zM114.28 315.03h1.68v6.41h-1.68zM114.28 326.43h1.68v6.41h-1.68zM152.11 323.1h6.41v1.68h-6.41zM140.71 323.1h6.41v1.68h-6.41zM148.78 315.03h1.68v6.41h-1.68zM148.78 326.43h1.68v6.41h-1.68zM186.61 323.1h6.41v1.68h-6.41zM175.21 323.1h6.41v1.68h-6.41zM183.28 315.03h1.68v6.41h-1.68zM183.28 326.43h1.68v6.41h-1.68zM221.12 323.1h6.41v1.68h-6.41zM209.72 323.1h6.41v1.68h-6.41zM217.78 315.03h1.68v6.41h-1.68zM217.78 326.43h1.68v6.41h-1.68zM255.62 323.1h6.41v1.68h-6.41zM244.22 323.1h6.41v1.68h-6.41zM252.28 315.03h1.68v6.41h-1.68zM252.28 326.43h1.68v6.41h-1.68zM290.12 323.1h6.41v1.68h-6.41zM278.72 323.1h6.41v1.68h-6.41zM286.79 315.03h1.68v6.41h-1.68zM286.79 326.43h1.68v6.41h-1.68zM324.63 323.1h6.41v1.68h-6.41zM313.22 323.1h6.41v1.68h-6.41zM321.29 315.03h1.68v6.41h-1.68zM321.29 326.43h1.68v6.41h-1.68zM359.13 323.1h6.41v1.68h-6.41zM347.72 323.1h6.41v1.68h-6.41zM355.79 315.03h1.68v6.41h-1.68zM355.79 326.43h1.68v6.41h-1.68zM393.63 323.1h6.41v1.68h-6.41zM382.23 323.1h6.41v1.68h-6.41zM390.29 315.03h1.68v6.41h-1.68zM390.29 326.43h1.68v6.41h-1.68zM51.78 359.88H55v-1.68h-4.64c.47.57.95 1.12 1.42 1.68zM45.27 351.82c.56.73 1.11 1.46 1.68 2.17v-3.85h-1.68zM83.11 358.2h6.41v1.68h-6.41zM71.71 358.2h6.41v1.68h-6.41zM79.77 350.14h1.68v6.41h-1.68zM79.77 361.54h1.68v6.41h-1.68zM117.61 358.2h6.41v1.68h-6.41zM106.21 358.2h6.41v1.68h-6.41zM114.28 350.14h1.68v6.41h-1.68zM114.28 361.54h1.68v6.41h-1.68zM152.11 358.2h6.41v1.68h-6.41zM140.71 358.2h6.41v1.68h-6.41zM148.78 350.14h1.68v6.41h-1.68zM148.78 361.54h1.68v6.41h-1.68zM186.61 358.2h6.41v1.68h-6.41zM175.21 358.2h6.41v1.68h-6.41zM183.28 350.14h1.68v6.41h-1.68zM183.28 361.54h1.68v6.41h-1.68zM221.12 358.2h6.41v1.68h-6.41zM209.72 358.2h6.41v1.68h-6.41zM217.78 350.14h1.68v6.41h-1.68zM217.78 361.54h1.68v6.41h-1.68zM255.62 358.2h6.41v1.68h-6.41zM244.22 358.2h6.41v1.68h-6.41zM252.28 350.14h1.68v6.41h-1.68zM252.28 361.54h1.68v6.41h-1.68zM290.12 358.2h6.41v1.68h-6.41zM278.72 358.2h6.41v1.68h-6.41zM286.79 350.14h1.68v6.41h-1.68zM286.79 361.54h1.68v6.41h-1.68zM324.63 358.2h6.41v1.68h-6.41zM313.22 358.2h6.41v1.68h-6.41zM321.29 350.14h1.68v6.41h-1.68zM321.29 361.54h1.68v6.41h-1.68zM359.13 358.2h6.41v1.68h-6.41zM347.72 358.2h6.41v1.68h-6.41zM355.79 350.14h1.68v6.41h-1.68zM355.79 361.54h1.68v6.41h-1.68zM382.23 359.88h3.23c.48-.56 1-1.11 1.42-1.68h-4.65zM390.29 354c.57-.71 1.12-1.44 1.68-2.16v-1.69h-1.68zM89.43 395h.09v-1.68h-2.35c.75.56 1.5 1.11 2.26 1.68zM79.77 387.49l1.68 1.35v-3.6h-1.68zM117.61 393.31h6.41v1.68h-6.41zM106.21 393.31h6.41v1.68h-6.41zM114.28 385.24h1.68v6.41h-1.68zM114.28 396.65h1.68v6.41h-1.68zM152.11 393.31h6.41v1.68h-6.41zM140.71 393.31h6.41v1.68h-6.41zM148.78 385.24h1.68v6.41h-1.68zM148.78 396.65h1.68v6.41h-1.68zM186.61 393.31h6.41v1.68h-6.41zM175.21 393.31h6.41v1.68h-6.41zM183.28 385.24h1.68v6.41h-1.68zM183.28 396.65h1.68v6.41h-1.68zM221.12 393.31h6.41v1.68h-6.41zM209.72 393.31h6.41v1.68h-6.41zM217.78 385.24h1.68v6.41h-1.68zM217.78 396.65h1.68v6.41h-1.68zM255.62 393.31h6.41v1.68h-6.41zM244.22 393.31h6.41v1.68h-6.41zM252.28 385.24h1.68v6.41h-1.68zM252.28 396.65h1.68v6.41h-1.68zM290.12 393.31h6.41v1.68h-6.41zM278.72 393.31h6.41v1.68h-6.41zM286.79 385.24h1.68v6.41h-1.68zM286.79 396.65h1.68v6.41h-1.68zM324.63 393.31h6.41v1.68h-6.41zM313.22 393.31h6.41v1.68h-6.41zM321.29 385.24h1.68v6.41h-1.68zM321.29 396.65h1.68v6.41h-1.68zM347.72 395h.09c.76-.56 1.52-1.11 2.27-1.68h-2.36zM355.79 388.85c.56-.46 1.13-.9 1.68-1.36v-2.25h-1.68zM158.52 428.88v-.46H157zM148.78 425.85l1.68.54v-6h-1.68zM186.61 428.42h6.41v1.68h-6.41zM175.21 428.42h6.41v1.68h-6.41zM183.28 420.35h1.68v6.41h-1.68zM183.28 434.38c.56.1 1.12.2 1.68.28v-2.91h-1.68zM221.12 428.42h6.41v1.68h-6.41zM209.72 428.42h6.41v1.68h-6.41zM217.78 420.35h1.68v6.41h-1.68zM217.78 437.23h1.68v-5.48h-1.68zM255.62 428.42h6.41v1.68h-6.41zM244.22 428.42h6.41v1.68h-6.41zM252.28 420.35h1.68v6.41h-1.68zM252.28 434.66c.57-.08 1.12-.18 1.68-.28v-2.63h-1.68zM278.72 428.88l1.54-.46h-1.54zM286.79 426.39l1.68-.54v-5.5h-1.68z"/>
</svg>