<svg xmlns="http://www.w3.org/2000/svg" width="127.028" height="77.443" viewBox="0 0 127.028 77.443"><path d="M229.79,448.29c-5.08-5.608-9.077-10.93-10.365-17.842-.04-.443-.109-.46-.268-.508-.073-.023-.33-.113-.661-.194l-10.52-2.577a1.017,1.017,0,0,0-1.3.564c-5.229,12.839-21.468,21.8-39.494,21.8-18.677,0-35.068-9.361-39.86-22.766a1.177,1.177,0,0,0-1.5-.711L115.75,429.74a1.125,1.125,0,0,0-.484.247,1.407,1.407,0,0,0-.127.495,26.622,26.622,0,0,1-5,11.143c-1.587,2.182-3.356,4.166-5.4,6.613-.586.7-1.029,1.348-.887,1.716.172.306,1.119.272,1.61.2l9.92-1.567-.171,8.745c-.025,1.114.095,1.657.319,1.812.317.221,1.07-.321,1.523-.686a35.7,35.7,0,0,0,8.79-11.586,61.138,61.138,0,0,0,41.343,16.194c17.035,0,31.539-6.313,41.523-16.108,1.85,3.761,5.059,8.534,8.635,11.426.1.084,1.141.951,1.638.791.366-.121.567-.658.567-2.241s-.2-8.194-.2-8.194l9.388,1.506c.494.078,1.887.247,2.075-.092.258-.459-.687-1.49-1.021-1.859" transform="translate(-103.827 -385.617)" fill="#fff" fill-rule="evenodd"/><path d="M192.682,463.71c-23.554,0-44.5-12.57-50.931-30.566l9.963-3.562c4.957,13.863,21.8,23.545,40.968,23.545,18.492,0,35.178-9.268,40.582-22.538l10.521,2.578c-7.421,18.469-26.088,30.542-51.1,30.542" transform="translate(-129.323 -388.03)" fill="#b41616" fill-rule="evenodd"/><path d="M119.146,440.524c-1.286,7.194-5.676,12.6-10.991,18.474l11.033-1.722-.117,10.283a34.494,34.494,0,0,0,8.838-11.705,36.4,36.4,0,0,1-8.763-15.33" transform="translate(-106.737 -395.386)" fill="#8d090a" fill-rule="evenodd"/><path d="M435.54,440.524c1.286,7.194,5.675,12.6,10.992,18.474L435.5,457.276l.116,10.283c-3.839-3.105-7.059-8.41-8.608-11.961a39.87,39.87,0,0,0,8.535-15.074" transform="translate(-321.096 -395.386)" fill="#8d090a" fill-rule="evenodd"/><path d="M159.492,442.289l1.217,2-.519.313-.092-.155-.116-.144-.086.006-.043.044-.056.139-.233.658.757.17.19,0,.044-.075-.079-.177-.085-.137.517-.313,1.014,1.664-.517.313a1.184,1.184,0,0,0-.179-.246l-.193-.121-.24-.071-1.474-.33-.617,1.729a1.283,1.283,0,0,0-.068.445.883.883,0,0,0,.14.352l-.516.314-1.238-2.032.516-.313.115.186.116.15.078,0,.1-.182.311-.887-.984-.222-.194.016-.036.076.076.177.088.144-.516.313-1.028-1.686.518-.312a1.28,1.28,0,0,0,.171.237l.144.1a2.778,2.778,0,0,0,.375.119l1.625.363.57-1.622a1,1,0,0,0,.053-.354.931.931,0,0,0-.146-.332Z" transform="translate(-138.676 -396.573)" fill="#fff" fill-rule="evenodd"/><path d="M171.313,458.328a2.271,2.271,0,0,1,.568,1.7,2.183,2.183,0,0,1-.86,1.519,2.383,2.383,0,0,1-1.1.518,2.042,2.042,0,0,1-1.131-.125,2.6,2.6,0,0,1-1.006-.788,2.313,2.313,0,0,1-.58-1.557,2.143,2.143,0,0,1,.865-1.654,2.19,2.19,0,0,1,1.681-.525,2.331,2.331,0,0,1,1.569.916m-.533.447a.957.957,0,0,0-.789-.376,1.919,1.919,0,0,0-1.174.478,1.831,1.831,0,0,0-.7,1,1.012,1.012,0,0,0,.988,1.212,1.87,1.87,0,0,0,1.136-.474,2.29,2.29,0,0,0,.586-.665,1.161,1.161,0,0,0,.159-.644A.948.948,0,0,0,170.78,458.775Z" transform="translate(-146.43 -406.729)" fill="#fff" fill-rule="evenodd"/><path d="M178.409,466.408l1.649,1.6a2.488,2.488,0,0,1,.456.569,1.306,1.306,0,0,1,.166.539,1.239,1.239,0,0,1-.359.985,1.21,1.21,0,0,1-.964.372,1.736,1.736,0,0,1-1.115-.554l-.53-.517-.572.584-.12.154v.122l.12.156.158.155-.424.431-1.52-1.479.421-.431.106.1.205.159h.126l.2-.161,1.68-1.715.168-.206.009-.123-.13-.167-.151-.146Zm.646,1.625-.867.885.266.258a1.332,1.332,0,0,0,.408.3.591.591,0,0,0,.645-.157.565.565,0,0,0,.168-.5.817.817,0,0,0-.272-.447Z" transform="translate(-151.914 -412.787)" fill="#fff" fill-rule="evenodd"/><path d="M191.932,478.8a2.274,2.274,0,0,1,.927,1.53,2.172,2.172,0,0,1-.5,1.67,2.36,2.36,0,0,1-.963.747,2.034,2.034,0,0,1-1.131.126,2.581,2.581,0,0,1-1.153-.548,2.31,2.31,0,0,1-.913-1.39,2.149,2.149,0,0,1,.478-1.8,2.2,2.2,0,0,1,1.525-.881,2.337,2.337,0,0,1,1.733.55m-.422.554a.951.951,0,0,0-.852-.195,1.9,1.9,0,0,0-1.038.723,1.826,1.826,0,0,0-.458,1.133,1.011,1.011,0,0,0,1.231.964,1.869,1.869,0,0,0,1-.711,2.267,2.267,0,0,0,.424-.776,1.161,1.161,0,0,0,.012-.663A.931.931,0,0,0,191.511,479.351Z" transform="translate(-160.521 -420.738)" fill="#fff" fill-rule="evenodd"/><path d="M204.213,491.542l-5.905-3.486.309-.519.128.076c.133.079.227.1.281.075a.729.729,0,0,0,.213-.266l1.215-2.04a.481.481,0,0,0,.1-.285c-.011-.061-.091-.135-.237-.222l-.086-.05.308-.52,1.74,1.026-.311.518-.09-.053c-.148-.087-.252-.124-.308-.106s-.13.1-.223.258l-1.368,2.3,1.2.706,1.386-2.33a.49.49,0,0,0,.1-.286c-.012-.061-.09-.135-.237-.223l-.09-.052.309-.519,1.739,1.028-.308.519-.091-.055c-.15-.087-.249-.123-.306-.106s-.131.1-.224.26l-1.369,2.3,1.161.685,1.371-2.3a.552.552,0,0,0,.111-.317c-.014-.063-.095-.138-.242-.224l-.081-.049.307-.519,1.778,1.049-.308.518-.108-.063c-.156-.092-.263-.13-.323-.114s-.136.1-.225.255l-1.2,2.011a.72.72,0,0,0-.13.317c0,.062.068.131.2.207l.129.076Z" transform="translate(-167.346 -424.82)" fill="#fff" fill-rule="evenodd"/><path d="M223.917,497.569a2.277,2.277,0,0,1,1.283,1.249,2.162,2.162,0,0,1-.066,1.741,2.336,2.336,0,0,1-.743.965,2.028,2.028,0,0,1-1.064.4,2.581,2.581,0,0,1-1.254-.242,2.324,2.324,0,0,1-1.233-1.119,2.151,2.151,0,0,1,.009-1.865,2.2,2.2,0,0,1,1.253-1.233,2.337,2.337,0,0,1,1.816.1m-.268.64a.956.956,0,0,0-.873.026,1.882,1.882,0,0,0-.823.96,1.809,1.809,0,0,0-.157,1.21,1.017,1.017,0,0,0,1.436.628,1.859,1.859,0,0,0,.79-.941,2.239,2.239,0,0,0,.216-.858,1.156,1.156,0,0,0-.156-.644A.924.924,0,0,0,223.648,498.208Z" transform="translate(-182.352 -433.576)" fill="#fff" fill-rule="evenodd"/><path d="M243.092,503.11l.395.115,0,.153,2.356.685.092-.126.4.116.087,1.617-.615.034a4.113,4.113,0,0,0-.126-.555,1.287,1.287,0,0,0-.264-.451l-.281-.186-.109.007-.072.149-.7,2.406a1.336,1.336,0,0,0-.064.271l.027.1.087.071a2.677,2.677,0,0,0,.334.108l-.169.58-2.04-.593.169-.579.122.036a.859.859,0,0,0,.269.05l.113-.065a.746.746,0,0,0,.111-.26l.719-2.459.015-.139-.092-.057a.713.713,0,0,0-.383.016,1.233,1.233,0,0,0-.44.23c-.053.044-.185.177-.39.4l-.493-.355Z" transform="translate(-196.818 -437.462)" fill="#fff" fill-rule="evenodd"/><path d="M256.01,507.916l.957.2.6,3.561a.879.879,0,0,0,.117.361.522.522,0,0,0,.286.118l-.121.591-2.019-.414.122-.591.124.023.246,0,.089-.095a.9.9,0,0,0-.011-.239l-.046-.415-1.3-.266-.248.4-.086.171.014.1.1.08a1.911,1.911,0,0,0,.285.072l-.125.59-1.65-.339.121-.591.24.021.137-.057.148-.185Zm-.6,2.271.848.175-.171-1.257Z" transform="translate(-204.35 -440.693)" fill="#fff" fill-rule="evenodd"/><path d="M269.473,509.736l1.958.22.457,2.72,1.078-2.551,1.99.224-.065.6-.216-.025a.315.315,0,0,0-.248.048.416.416,0,0,0-.1.267l-.276,2.46,0,.2.066.1.177.057.243.027-.065.6-2.083-.232.068-.6.161.017a.661.661,0,0,0,.243,0l.1-.076.053-.209.3-2.664-1.459,3.472-.6-.067-.632-3.588-.3,2.633.019.142.084.087.191.047.208.023-.067.6-1.775-.2.068-.6.175.02.229,0,.1-.082a.608.608,0,0,0,.055-.232l.275-2.428v-.219l-.072-.109-.175-.052-.237-.025Z" transform="translate(-214.862 -441.916)" fill="#fff" fill-rule="evenodd"/><path d="M288.381,523.789l-.337-.4a4.888,4.888,0,0,0,.543-.5,1.28,1.28,0,0,0,.191-.351l-.125.06-.125.017a.425.425,0,0,1-.309-.162.519.519,0,0,1-.121-.37.559.559,0,0,1,.19-.411.583.583,0,0,1,.43-.153.67.67,0,0,1,.35.12.7.7,0,0,1,.255.3.959.959,0,0,1,.075.426,1.338,1.338,0,0,1-.295.761,2.957,2.957,0,0,1-.722.662" transform="translate(-227.674 -449.838)" fill="#fff" fill-rule="evenodd"/><path d="M300.8,511.5l3.475-.162.557,1.367-.555.223a1.59,1.59,0,0,0-.548-.669,1.682,1.682,0,0,0-.9-.139l-.411.017.127,2.7a.428.428,0,0,0,.075.272.47.47,0,0,0,.3.05l.176-.009.03.6-2.125.1-.029-.6.141,0c.175-.01.279-.04.318-.094l.051-.232-.117-2.5c-.007-.156-.038-.251-.1-.283a.6.6,0,0,0-.3-.04l-.14.007Z" transform="translate(-236.248 -442.993)" fill="#fff" fill-rule="evenodd"/><path d="M313.737,510.53l-.076-.6,3.865-.5.077.6-.173.022c-.153.02-.244.054-.28.1a.539.539,0,0,0-.016.33l.3,2.342c.021.18.057.288.106.325a.537.537,0,0,0,.338.02l.123-.014.624,1.214-.539.273a1.657,1.657,0,0,0-.5-.57,1.273,1.273,0,0,0-.906-.141l-1.871.241a1.269,1.269,0,0,0-.838.363,1.709,1.709,0,0,0-.34.679l-.586-.128.3-1.333.158-.02a.408.408,0,0,0,.367-.373l.452-2.492.01-.158c-.021-.172-.156-.243-.4-.211Zm2.674,2.756-.387-2.972-.938.121-.441,2.791-.006.124c.012.107.119.148.322.123Z" transform="translate(-244.485 -441.714)" fill="#fff" fill-rule="evenodd"/><path d="M329.228,507.557l3.554-.775.781,1.241-.509.318a1.859,1.859,0,0,0-.445-.459.933.933,0,0,0-.473-.177,1.973,1.973,0,0,0-.544.05l-.651.142.233,1.061.213-.046a1.006,1.006,0,0,0,.32-.106l.094-.136a.767.767,0,0,0-.029-.305l-.035-.161.544-.12.4,1.8-.542.118-.041-.184a.618.618,0,0,0-.105-.263l-.145-.09a1.147,1.147,0,0,0-.344.043l-.195.042.216.978.058.188.071.037.194-.022.358-.078a1.81,1.81,0,0,0,.648-.262,1.346,1.346,0,0,0,.409-.477,1.891,1.891,0,0,0,.2-.682l.6.071-.212,1.706-3.683.8-.129-.59.108-.024a.871.871,0,0,0,.278-.092l.08-.13a1.235,1.235,0,0,0-.041-.263l-.51-2.319a.743.743,0,0,0-.077-.241l-.1-.071-.224.02-.188.041Z" transform="translate(-255.361 -439.93)" fill="#fff" fill-rule="evenodd"/><path d="M348.692,500.681l1.855-.674,1.626,2.235-.181-2.761,1.885-.686.206.566-.2.073-.2.152a.416.416,0,0,0,.033.282l.853,2.324.087.183.1.056.181-.027.233-.083.207.566-1.967.717-.208-.567.151-.056a.689.689,0,0,0,.218-.108l.058-.112-.049-.211-.923-2.518.248,3.755-.567.206-2.17-2.932.914,2.489.079.121.115.039.191-.042.2-.071.207.567-1.677.61-.207-.565.165-.061.2-.106.054-.118-.054-.232-.84-2.295-.1-.2-.114-.065-.18.031-.223.084Z" transform="translate(-268.447 -434.56)" fill="#fff" fill-rule="evenodd"/><path d="M367.907,496.345l-.276-.536.187-.1c.119-.059.184-.119.2-.178a.553.553,0,0,0-.092-.306l-1.094-2.134q-.1-.206-.195-.24a.459.459,0,0,0-.309.079l-.131.067-.274-.537,1.893-.961.273.537-.153.079a.679.679,0,0,0-.227.158c-.035.047-.012.14.056.279l.372.723.661-.336a1.722,1.722,0,0,1,1.236-.2,1.214,1.214,0,0,1,.8.643,1.257,1.257,0,0,1,.07.995,1.728,1.728,0,0,1-.947.924Zm1.1-1.357.433-.218a.867.867,0,0,0,.408-.379.528.528,0,0,0-.027-.5.587.587,0,0,0-.277-.283.593.593,0,0,0-.338-.056,1.492,1.492,0,0,0-.433.16l-.333.169Zm.549-4.373,1.894-.963.273.537-.172.088-.184.127-.029.121.087.23,1.1,2.15a.832.832,0,0,0,.135.215l.1.039.191-.056.207-.1.274.537-1.895.961-.274-.536.155-.079.2-.133.035-.112-.08-.217-1.1-2.157a.83.83,0,0,0-.148-.227l-.123-.047-.2.075-.173.088Z" transform="translate(-280.029 -428.414)" fill="#fff" fill-rule="evenodd"/><path d="M388.276,481.559l2.934-2.142,1.218.819-.336.5a1.826,1.826,0,0,0-.593-.24.94.94,0,0,0-.505.029,1.921,1.921,0,0,0-.475.265l-.537.391.646.878.176-.128a.93.93,0,0,0,.245-.225l.034-.163a.833.833,0,0,0-.151-.268l-.1-.134.446-.327,1.1,1.489-.447.328-.112-.153-.2-.2-.171-.024a1.1,1.1,0,0,0-.3.178l-.158.116.595.808.127.147.08.007.169-.1.294-.215a1.8,1.8,0,0,0,.488-.5,1.313,1.313,0,0,0,.179-.6,1.835,1.835,0,0,0-.1-.7l.578-.176.5,1.643-3.04,2.218-.358-.486.089-.064a.853.853,0,0,0,.218-.2l.022-.151a1.361,1.361,0,0,0-.147-.223l-1.409-1.916-.172-.187-.118-.024-.2.106-.155.115Z" transform="translate(-295.059 -421.533)" fill="#fff" fill-rule="evenodd"/><path d="M403.881,470.491l.329-.3,1.373.874-.317.513a2.964,2.964,0,0,0-.942-.222,1.128,1.128,0,0,0-.786.279,1.01,1.01,0,0,0-.307.5,1.143,1.143,0,0,0,.027.647,1.8,1.8,0,0,0,.4.673,1.915,1.915,0,0,0,1.042.619,1.1,1.1,0,0,0,1.015-.263,1.288,1.288,0,0,0,.378-.626,2.391,2.391,0,0,0,.069-1l.6-.059a3.558,3.558,0,0,1-.032,1.241,2.4,2.4,0,0,1-.729,1.188,2.125,2.125,0,0,1-1.023.525,2.166,2.166,0,0,1-1.145-.08,2.372,2.372,0,0,1-1-.659,2.312,2.312,0,0,1-.555-1.036,2.093,2.093,0,0,1,.042-1.12,2.326,2.326,0,0,1,1.609-1.491Z" transform="translate(-304.435 -415.332)" fill="#fff" fill-rule="evenodd"/><path d="M410.037,462.454l.272-.308.14.064,1.622-1.834L412,460.24l.274-.311,1.509.607-.232.569a4.456,4.456,0,0,0-.557-.121,1.3,1.3,0,0,0-.521.048.6.6,0,0,0-.29.174l-.04.1.1.129,1.89,1.656.218.173.1.019.1-.048a2.972,2.972,0,0,0,.24-.256l.455.4-1.407,1.589-.453-.4.084-.1.16-.223-.01-.13-.19-.207-1.931-1.694-.12-.072-.092.06a.713.713,0,0,0-.148.352,1.239,1.239,0,0,0,.024.493c.018.069.081.243.193.523l-.53.293Z" transform="translate(-309.688 -408.432)" fill="#fff" fill-rule="evenodd"/><path d="M421.926,457.031l-.5-.345.121-.173.088-.249c-.016-.058-.092-.134-.226-.227l-1.974-1.368a.484.484,0,0,0-.284-.119q-.1.011-.239.215l-.083.121-.5-.344,1.217-1.739.5.344-.1.143-.125.245c-.007.057.053.129.182.22l.67.463.424-.608a1.712,1.712,0,0,1,.995-.756,1.217,1.217,0,0,1,1.013.19,1.256,1.256,0,0,1,.533.844,1.708,1.708,0,0,1-.4,1.259Zm.332-1.715.274-.4a.863.863,0,0,0,.182-.527.531.531,0,0,0-.257-.424.6.6,0,0,0-.38-.12.594.594,0,0,0-.324.11,1.466,1.466,0,0,0-.307.343l-.212.3Z" transform="translate(-315.266 -403.641)" fill="#fff" fill-rule="evenodd"/><path d="M428.666,444.488l-.352.589c-.509-.258-.852-.424-1.024-.5l-1.354-.546-.252-.125-.244-.248a.658.658,0,0,1-.09-.34.633.633,0,0,1,.086-.328l.252-.235a.648.648,0,0,1,.347-.086.69.69,0,0,1,.338.094,2.429,2.429,0,0,1,.289.211c.535.45.944.784,1.235,1q.327.243.769.512m.031.427a.664.664,0,0,1,.909-.231.633.633,0,0,1,.3.4.625.625,0,0,1-.072.5.636.636,0,0,1-.405.3.664.664,0,0,1-.806-.477A.632.632,0,0,1,428.7,444.915Z" transform="translate(-319.983 -396.828)" fill="#fff" fill-rule="evenodd"/><path d="M251.673,335.3c0,17.956-19.642,33.037-43.875,33.037S163.925,353.26,163.925,335.3s19.646-32.517,43.873-32.517,43.874,14.558,43.875,32.517" transform="translate(-144.23 -302.787)" fill="#fff" fill-rule="evenodd"/><path d="M210.7,369.52c-23.411,0-42.459-14.2-42.459-31.652s19.048-31.654,42.458-31.654,42.46,14.2,42.46,31.654S234.114,369.52,210.7,369.52m0-61.351c-22.592,0-41.624,13.054-41.624,29.7s19.032,29.7,41.624,29.7,41.661-13.054,41.661-29.7S233.3,308.169,210.7,308.169Z" transform="translate(-147.132 -305.091)" fill="#d0a355" fill-rule="evenodd"/><path d="M251.208,360.213l-1.186.015a10.313,10.313,0,0,0-.3-1.019,6.671,6.671,0,0,1,1.468-.046c0,.35.01.7.014,1.049m-.97.846h.98l.007,1.178c-.244,0-.542.006-.786.006A9.486,9.486,0,0,0,250.238,361.059Zm1.725-.846c.007-.35-.009-.7,0-1.049a5.916,5.916,0,0,1,1.459.046,4.666,4.666,0,0,0-.3,1.019Zm.938.853a10.01,10.01,0,0,0-.179,1.207h-.744l-.014-1.207Zm-19.077,20.256h-.646a.469.469,0,0,1,.357-.112A.688.688,0,0,1,233.824,381.322Zm.844,0-.42,0,.2-.134Zm1.414,0c-.222,0-.5,0-.721,0h0c-.045-.169-.134-.3-.092-.46l.108-.023c.182.081.258.142.454.092C235.881,381.089,235.9,381.234,236.082,381.315Zm2.022-.005q-.722,0-1.444,0a1.2,1.2,0,0,0,.045-.52,1.048,1.048,0,0,0-.848-.823,11.254,11.254,0,0,0-1.886-.085,2.054,2.054,0,0,1-.428-2.156,2.661,2.661,0,0,0,.576-.1c.043-.326.076-.643.095-.97l.238-.126a1.917,1.917,0,0,0,.206-2,1.83,1.83,0,0,1-.227-.479,1.281,1.281,0,0,1,1.5,1.25,1.12,1.12,0,0,1-.292.776v.1c.189.047.261.068.321.213.139.329-.238.512-.5.718l0,.562.178.06c.358-.2.71-.149.754.058a3.251,3.251,0,0,1-.136,1.333h.086a1.709,1.709,0,0,1,1.969.536c.245.491-.82.717-1.157.78v.112c.294.1.332.331.249.651a1.547,1.547,0,0,1,.7.092Zm1.2,0c-.219,0-.44,0-.66,0l.006-.051A1.056,1.056,0,0,1,239.306,381.306Zm3.871-8.534a4.717,4.717,0,0,1-.331,2.034l-.2-.006-.249.978.087.092c-.276,1.071-.78,2.161-1.083,3.188l-.2.038c-.061.332-.119.668-.191,1a1.247,1.247,0,0,1-1.176-.634,7.54,7.54,0,0,0-.077-1.039c-.123-.55-.41-.968-.547-1.509l.1-.19c.4.019,1.285.269,1.845-.069-.29-.192-1.4-.792-1.276-1.246.225-.021.45-.023.672-.031a3.51,3.51,0,0,0-1.3-1.23,4.627,4.627,0,0,0-1.356-.582,1.309,1.309,0,0,0-.345-.512,6.611,6.611,0,0,0-1.424-.918v-.153a7.121,7.121,0,0,0,1.347-1.392.521.521,0,0,1,.366.079c.627.485.67.772.748,1.613l.064.015c.118-.383.348-.806.79-.833a.587.587,0,0,1,.6.274,4.714,4.714,0,0,1,.506,1.606l.51-.008a.975.975,0,0,1,.055-.543.824.824,0,0,1,1.477.038C242.753,372.55,243.008,372.286,243.177,372.772Zm2.846-2.8-2.121-.006c-.418.4-.742.767-1.421.565l-.32-.184a11.122,11.122,0,0,1-2.4-2.294,2.494,2.494,0,0,0,1.467-1.04,1.612,1.612,0,0,1,.275-1.843,3.592,3.592,0,0,0,3.21,1.943C245.148,368.049,245.59,369.042,246.023,369.975Zm3.5.005-2.61,0c-.472-1.019-.919-2.125-1.352-3.159l.187-.216.154-.151.163-.216.148-.283.157-.321.071-.314.044-.073.212.237-.108.136a2.118,2.118,0,0,0,.625,1.3c-.139,0-.281.009-.42.016a1.583,1.583,0,0,0,.373.548c.317.492.664.94,1.029,1.4a3.137,3.137,0,0,0,1.327.884Zm18.769,11.341a.567.567,0,0,1,.79,0Zm-.878,0a3.425,3.425,0,0,0,.338-.192c.135.048.168.158.265.193Zm-1.4-.006c.091-.179.309-.205.354-.448.186.092.283.01.455-.069h.143c.052.2-.168.336-.048.522Zm-1.373,0,.157-.131a.558.558,0,0,1,.031-.489l.195-.145.024-.13a3.011,3.011,0,0,1-.9-.186c-.42-.324-.323-.6,0-.891a1.867,1.867,0,0,1,1.71-.229h.089l-.055-.29-.065-.276c-.162-.5-.166-1.184.771-.791.242-.076.194-.4.12-.613s-.42-.285-.475-.473a.4.4,0,0,1,.282-.466c.076-.231-.025-.179-.132-.364a1.209,1.209,0,0,1-.023-1c.19-.409.808-1.029,1.376-.775-.073.3-.335.587-.373.908-.066.57,0,1.452.595,1.715.021.352.08.635.1.986a.954.954,0,0,1,.535.032c.2.083.258,1.014.216,1.164a3.513,3.513,0,0,1-.546,1.04c-.446.042-.985-.1-1.439-.051a1.655,1.655,0,0,0-1.08.482.855.855,0,0,0-.183.975Zm-.641,0,.016-.074.322-.04.21.115Zm-1.262,0c.19-.064.787-.308.824,0Zm-3.7-8.541q.3.984.609,1.969l.15.067c.086.305.194.652.284.957l-.077.185c.33,1.015.7,2.125,1.031,3.138l.192.023c.069.319.146.662.2.978a1.033,1.033,0,0,0,.984-.932,5.569,5.569,0,0,1,.611-2.268c.016-.047.007-.162-.136-.144-.318.042-1.664.2-1.843-.075l.311-.206c.312-.195.929-.609.977-.986l-.014-.055c-.226-.02-.452-.022-.673-.03a4.5,4.5,0,0,1,2.67-1.843c.124-.6,1.267-1.192,1.785-1.408v-.153a6.974,6.974,0,0,1-1.377-1.453c-.135-.028-.172.012-.3.077a1.824,1.824,0,0,0-.741.842,3.068,3.068,0,0,0-.08.771l-.062.015c-.1-.345-.388-.823-.823-.793a.7.7,0,0,0-.731.648c-.1.427-.249.845-.368,1.269-.168,0-.331.006-.5,0,.008-.475-.079-.856-.487-1-.47-.162-.71.089-1.015.445C259.382,372.458,259.145,372.352,259.039,372.763Zm-7.075-2.789c.006-2.285,0-4.614,0-6.9l.631.012a2.925,2.925,0,0,0,.034.581c.195.553.734.267.772-.077a10.149,10.149,0,0,1,.969-4.05c.207-.367.461-.688.654-1.065a.328.328,0,0,0-.159-.311,1.342,1.342,0,0,0-.788-.034c-.124.033-.095.17-.362.208-.584,0-1.17-.006-1.752-.006l-.1-.131H251.3l-.108.137h-1.749a.39.39,0,0,1-.348-.2,1.572,1.572,0,0,0-.736,0l-.208.212a5.535,5.535,0,0,0,.621,1.237,8.514,8.514,0,0,1,.826,2.947,8.073,8.073,0,0,0,.1,1.079.409.409,0,0,0,.786.055c.016-.208.025-.382.04-.59.214.01.434-.014.647,0,0,2.284.015,4.619.02,6.9l-1.062,0c-.009-.172,0-.38,0-.551a1.732,1.732,0,0,0,.5-1.372,23.226,23.226,0,0,0-.06-2.324,2.537,2.537,0,0,0-.3-.984c-.186.1-.007.618-.15.686-.17.082-.138-.643-.176-.727l-.169-.128-.122.3-.11-.2a1.24,1.24,0,0,0-.171-.825c-.106-.149-.175-.088-.359-.074a2.859,2.859,0,0,0-.22-.594c-.167-.24-.129-.26-.4-.152-.122-.15-.141-.354-.3-.466-.13-.094-.215.01-.318.137-.106-.144-.156-.346-.324-.4l-.284.066c-.125-.111-.231-.373-.381-.294s-.007.32,0,.487c-.269-.088-.328-.224-.382-.076a.544.544,0,0,0,.242.5l-.219.137c-.047.216.017.29.141.471l.4.426-.1.244c-.323.236-.5-.57-.539-.728-.081-.262-.171-.52-.263-.779-.417-1.1-.97-2.127-1.325-3.25l-.023-.049a5.174,5.174,0,0,1-2.248,1.494c-.146.031-.2-.046-.25-.183s.025-.24-.093-.322a.724.724,0,0,0-.994.237l-.06.182-.173,0a.629.629,0,0,0-.649.015c-.417.3-.5.623.007.879-.046.43-.083.857-.117,1.286a2.685,2.685,0,0,1-.475,1.908,1.565,1.565,0,0,1-1.033.455l.068-.159a7.636,7.636,0,0,0-1.109-.839c-.227-.012-.442.018-.637-.013-.347-.057-.327-.265-.271-.628l-.161-.122c-.08-.052-.2.085-.317.085a.262.262,0,0,1-.224-.276,7.122,7.122,0,0,0,1.166-.229c.548-.187,1-.172,1.2-.731.133-.366-.1-.6-.538-.631.162.891-1,1.09-1.924,1.09l-.015-.161c1.123-.087,1.141-.338,1.112-1.412l-.248-.031c-1.029-.04-1.477-.656-2.321-.624a1.619,1.619,0,0,0-.955.237,1.463,1.463,0,0,0-.808-.38,1.225,1.225,0,0,1-.262.66,1.883,1.883,0,0,0-.612-.026,2.385,2.385,0,0,1-.1.426,1.959,1.959,0,0,0,.081.49,1.653,1.653,0,0,0-.631.956,3.132,3.132,0,0,0,.032,1.228c.79.12.647.576.685,1.114.121.325.477.531.626.847a1.23,1.23,0,0,1,.145.618,5.022,5.022,0,0,1-.172.8,1.448,1.448,0,0,0,.415-.25c.221.173.272.515.453.743.121-.046.263-.071.389-.109.139.34.18.71.289,1.061a5.243,5.243,0,0,0,.213.609c.281-.349.337-.792.757-.957a8.624,8.624,0,0,1-.882,1.443,13.583,13.583,0,0,0-1.883,1.231,5.957,5.957,0,0,0-1.1,1.4c-.456.039-.672-.094-.8-.594a7.4,7.4,0,0,1,.428-1.882c.233-.826.5-1.652.713-2.484.17-.74.588-1.56.111-2.184a1.624,1.624,0,0,0-1.242-.473,1.522,1.522,0,0,0-1.141.868c-.481.262-.577.129-.913.681a1.172,1.172,0,0,0,.4,1.551c0,.647-.067.788.356,1.25a.855.855,0,0,0,.325.332c.14-.378.357-.742.532-1.107a4,4,0,0,0,.355-1.6,4.056,4.056,0,0,0-.194-.87c.1-.227.292-.407.519-.332a.575.575,0,0,1,.484.648,4.782,4.782,0,0,1-.419,1.3c-.12.322-.237.644-.357.964-.108.338-.215.677-.323,1.014-.071.232-.141.463-.212.7a4.9,4.9,0,0,0-.146,2.449c.146.541.627.557,1.158.657a.625.625,0,0,1,.23.669,1.749,1.749,0,0,1-.973.723l.008.077c.009.124.016.249.025.374a7.258,7.258,0,0,1-1.43,1.117c.2.352.62.366.991.382,0,.253-.414.521-.43.787.3-.025.394-.158.7-.023a1.263,1.263,0,0,1,.157,1.17c.282.018.564-.057.794.1a.411.411,0,0,1,.074.646l-.2.25c-.064.112,0,.137.221.24.184.085.08.3.061.489a1.115,1.115,0,0,1,.922.577c-.57,0-1.141.032-1.714.051-.274.01-.551.185-.549.437,0,.292.186.456.58.447l7.6.079a5.117,5.117,0,0,1-2.979,1.162,3,3,0,0,0,2.09.48.813.813,0,0,1-.347.941c.493.566,1.439-.594,1.973-.658a1.118,1.118,0,0,1-.2.731,1.079,1.079,0,0,0,1.078-.366c.164-.143.344-.26.509-.4.338-.24.441-.46.923-.394-.1.326-.44.9-.483,1.105.25-.015.647-.459,1.023-.337.359.113.239.544-.035.734.023.121.008.14.026.263a2.013,2.013,0,0,0,1.824-1.082c.219.195.258.4.458.329.543-.179.344-.883.975-1.269l.284-.035c-.27.306-.274.547.084.625l.383-.057c-.092.236-.462,1.024-.069,1.425a4.564,4.564,0,0,1,.657-.577,2.031,2.031,0,0,0,2.216-.866c.219-.418,0-1.084.055-1.365.05-.241.263-.271.466-.327a2.351,2.351,0,0,1-.233.935l.264-.052a2.8,2.8,0,0,0-.328,1.293l-.2.167-.2.222c-.132,0-.356-.017-.49-.017a1.133,1.133,0,0,0-.748.33c-.133.031-.434-.052-.535.041-.394.372-.4.422-.842.339-.406-.074-.743-.447-1.145-.4a1.148,1.148,0,0,0-.785.413.145.145,0,0,0,.144.219c.141-.019.66-.271,1.018-.139.23.086.394.4.665.483a1.051,1.051,0,0,0,.721-.1,2.4,2.4,0,0,0,0,.477c.03.166.124.329.233.308.227-.043.224-.252.233-.477a.669.669,0,0,1,.363-.63c.625-.386.71-.292,1.342-.116.424.217.749.153.818-.373.03-.226-.307-.4-.237-.613.15-.469.726-.619.919-.983l-.086-.441c.025-.141.142-.189.535-.414a1.805,1.805,0,0,0-.085.373c.013.21.093.4.093.609-1.04.171-1.114.731-.9,1.525l.184.442c.394-.154.56-.52.938-.658.046.319.536,1.111.918,1.169a1.628,1.628,0,0,0,.884-1.191c.365.178.534.509.942.667a2.9,2.9,0,0,0,.294-1.1.946.946,0,0,0-.989-.84c0-.241.073-.362.086-.587.01-.132-.122-.293-.144-.424l.607.419-.047.406a2.555,2.555,0,0,0,.636.671l.262.524-.3.5c.147.558.507.482.951.235a1.441,1.441,0,0,1,1.576.458c.175.185-.062.983.373.84.242-.081.078-.477.078-.836a1.051,1.051,0,0,0,.919.056c.452-.316.609-.514,1.165-.359.336.1.456.138.533-.016.064-.123-.352-.457-.576-.488-.706-.1-.8.052-1.354.508-.209.215-.575-.008-.686-.249-.3-.361-.246-.226-.651-.317-.8-.567-1.442.416-1.667-.673,0-.3-.438-1.139-.048-1.139a2.341,2.341,0,0,1-.305-1.019c.586.163.562.538.481,1.084,0,1.162.757,1.478,1.864,1.476a1.488,1.488,0,0,1,.984.465c.4-.417.35-.629-.02-1.212.343.1.989-.149.559-.7l.18.025a11.3,11.3,0,0,1,.991,1.331c.311,0,.228-.184.464-.39.289.484,1.322,1.394,1.908,1.047-.222-.206-.411-.722-.208-.877.221-.168.593.074,1.093.274a.676.676,0,0,0-.126-.444,3.962,3.962,0,0,1-.313-.643c.5-.07.944.4,1.335.739a1.709,1.709,0,0,0,1.155.457,1.7,1.7,0,0,1-.132-.816c.636.076,1.33,1.27,2.021.663-.323-.281-.548-.459-.548-.883a3.105,3.105,0,0,0,2.255-.5,5.491,5.491,0,0,1-3.1-1.174l7.38-.011c.823-.04.925-.83.178-.974-.645,0-1.267.007-1.913.005a.991.991,0,0,1,.914-.577c-.018-.176-.128-.366.061-.489.243-.035.267-.053.226-.291-.254-.241-.329-.281-.319-.634l.181-.3a1.8,1.8,0,0,0,.8-.023c-.022-.129-.042-.259-.064-.389a.821.821,0,0,1,.2-.735c.309-.135.425-.047.726-.021-.111-.214-.467-.612-.4-.834.447-.02.668.027.939-.344a4.9,4.9,0,0,1-1.391-1.125c.01-.149.019-.3.029-.45a1.828,1.828,0,0,1-.662-.36l-.3-.266c-.079-.316-.068-.526.231-.72.53-.191.911-.1,1.157-.664a3.009,3.009,0,0,0,.024-1.711c-.066-.269-.137-.538-.2-.807-.062-.225-.125-.454-.187-.681q-.176-.513-.349-1.027a7.616,7.616,0,0,1-.761-2.324c-.009-.556.758-.661,1.021-.255a3.479,3.479,0,0,0-.2,1.456,7.221,7.221,0,0,0,.887,2.16,2.2,2.2,0,0,0,.551-.68,2.569,2.569,0,0,0,.144-.944,1.124,1.124,0,0,0,.511-1.137,1.055,1.055,0,0,0-.92-.952l-.1-.078-.169-.261a1.5,1.5,0,0,0-1-.625c-.489.023-1.3.212-1.376.839a7.269,7.269,0,0,0,.5,2.723c.309,1.116.686,2.244.939,3.371-.011.575-.349.7-.91.654a6.037,6.037,0,0,0-2.331-2.258,3.682,3.682,0,0,1-1.508-1.753.64.64,0,0,1,.485.42,1.953,1.953,0,0,0,.351.507,17.351,17.351,0,0,1,.47-1.725c.106.117.3.083.427.132.264-.223.188-.626.424-.756a.537.537,0,0,0,.413.32c-.047-.368-.266-.738-.168-1.1a1.784,1.784,0,0,1,.554-.893,1.327,1.327,0,0,0,.237-1.026.889.889,0,0,1,.668-.429,3.094,3.094,0,0,0,.033-1.171,1.569,1.569,0,0,0-.621-.882c-.056-.355.139-.6-.069-1a2.975,2.975,0,0,0-.671.051,1.262,1.262,0,0,0-.287-.673,3.227,3.227,0,0,0-.707.408,1.554,1.554,0,0,0-.474-.241,2.075,2.075,0,0,0-1.3.153,2.85,2.85,0,0,1-1.056.426c-.21.034-.4,0-.611.045a1.658,1.658,0,0,0,.115,1.141c.216.286.585.223.944.223l.023.211a3.428,3.428,0,0,1-1.5-.187.892.892,0,0,1-.471-.87c-.4.056-.709.248-.544.722a1.952,1.952,0,0,0,1.1.613,5.242,5.242,0,0,0,1.276.191l0,.25c-.206.168-.349.1-.583-.014-.254.227.092.682-.251.772-.374.1-.613-.012-.98.1a10.311,10.311,0,0,0-.933.7v.176a1.8,1.8,0,0,1-1.175-.788c-.1-.158.191-.609.257-.749a6.668,6.668,0,0,0-.188-4.091c-1.747-.055-3.485-.024-4.682.015-.736.486-.673,3.615-.107,4.312.123.155.263.158.608.134q-1.086,2.717-2.17,5.434l-.1.286c-.741,0-1.442.02-2.183.022l.043-.291c.979-.259,1.195-.822,1.871-1.677.194-.3.807-.755.752-1.088-.022-.133-.271.049-.409.044.313-.415.659-.761.622-1.294l-.122-.152c.1-.165.28-.293.313-.482l-.21-.153c.056-.148.313-.685.162-.821-.066-.058-.151.124-.3.108.026-.386.383-.6.327-1l-.22-.137a.523.523,0,0,0,.266-.457c-.111-.406-.107-.066-.405.031.011-.178.114-.48,0-.488-.177-.011-.266.189-.4.307l-.242-.078c-.185.063-.223.246-.339.4-.149-.062-.1-.238-.242-.159l-.31.517-.306-.033a.951.951,0,0,0-.393.752c-.187-.014-.261-.066-.365.085-.165.234-.09.824-.276.98l-.106-.265c-.416-.083.007,1.018-.387,1.112l-.112-.877c-.405-.152-.408,2.593-.4,2.9a2.086,2.086,0,0,0,.551,1.7c-.007.152-.006.348-.015.5Zm4.858-.012c.767-1.872,1.531-3.757,2.3-5.629.45.065.89.094,1.341.159.262.037.059.264.213.658a1.556,1.556,0,0,1,.458,1.27,2.293,2.293,0,0,1-.154.6,2.13,2.13,0,0,0,1.494,1l-.65.787c-.419.417-.837.832-1.258,1.247-.169.1-.34.2-.507.3-.12.058-.238.118-.36.177l-.282.052-.218.008-.2-.053-.251-.184-.153-.116-.225-.262C257.85,369.975,257.334,369.969,256.821,369.961Z" transform="translate(-187.376 -339.967)" fill="#111" fill-rule="evenodd"/><path d="M265.282,367.161c.166-.085.341-.073.394.025s-.041.243-.207.327-.341.072-.392-.025.039-.244.2-.327" transform="translate(-212.223 -346.027)" fill="#d0a355" fill-rule="evenodd"/><path d="M244.039,384.057a13.224,13.224,0,0,0,1.2-1.5,1.951,1.951,0,0,1-.429.893,2.133,2.133,0,0,1-.775.608m-2,.237a14.5,14.5,0,0,0,1.595-1.384,2.146,2.146,0,0,1-.64.878A2.361,2.361,0,0,1,242.035,384.294Zm-1.243-.576a14.5,14.5,0,0,0,1.769-1.135,2.148,2.148,0,0,1-.757.773A2.339,2.339,0,0,1,240.792,383.718Zm-2.462.159a15.444,15.444,0,0,0,1.983-1.1,2.32,2.32,0,0,1-.87.781A2.553,2.553,0,0,1,238.33,383.877Zm8.4.321c.373-.452.365-.6.616-.872a3.773,3.773,0,0,1,.768-.666,2.493,2.493,0,0,1-.622.839C247.275,383.744,247.262,384.023,246.734,384.2Zm13.017-.187a2.131,2.131,0,0,1-.78-.608,1.934,1.934,0,0,1-.427-.892A13.018,13.018,0,0,0,259.752,384.011Zm2,.234a2.329,2.329,0,0,1-.955-.5,2.135,2.135,0,0,1-.64-.88A14.227,14.227,0,0,0,261.752,384.246Zm1.245-.574a2.371,2.371,0,0,1-1.016-.361,2.176,2.176,0,0,1-.755-.774A14.419,14.419,0,0,0,263,383.671Zm2.459.16a2.565,2.565,0,0,1-1.114-.322,2.34,2.34,0,0,1-.866-.78A15.528,15.528,0,0,0,265.456,383.832Zm-8.4.32c-.527-.176-.54-.453-.763-.7a2.517,2.517,0,0,1-.62-.838,3.767,3.767,0,0,1,.767.665C256.69,383.556,256.681,383.7,257.054,384.152Zm-5.133,1.762c.205-.111.407-.411.538-.26.232.272-.229.722-.516.942-.358-.234-.819-.778-.485-.942C251.689,385.544,251.74,385.806,251.921,385.914Zm1.691-.173c-.031.026-.337-.2-.447-.338a.349.349,0,0,1,.159-.489.389.389,0,0,1,.44.254A.525.525,0,0,1,253.612,385.742Zm-3.4,0a.522.522,0,0,1-.154-.573.391.391,0,0,1,.439-.254.35.35,0,0,1,.161.489C250.553,385.544,250.249,385.768,250.216,385.742Zm1.712-.42c-.289,0-.6-.459-.822-.561,0-.145,0-.289,0-.437.266.208.631.586.8.6.144.009.547-.389.808-.585.012.136.008.338.011.405C252.576,384.842,252.124,385.321,251.929,385.322Zm-3.22.5.237-.151.252.039-.076.294Zm6.376,0c-.112.115-.367.271-.475.187l-.011-.3.25-.039Zm-.714-1.6c.117.141.193.6.017.621-.283-.157-.578-.441-.488-.632C254.056,383.883,254.253,384.081,254.371,384.221Zm-4.889.012c.116-.139.351-.349.5-.023.091.191-.273.488-.557.643C249.255,384.831,249.364,384.374,249.482,384.233Zm10.556-20.576.158.041.124-.145.129.012.07.092.14.011.082-.126.116.01.065.127.172.018.07-.11.133-.018.087.109h.159l.035-.3-.228-.2a5.825,5.825,0,0,0-1.148-.023l-.156.16Zm1-2.842-.106-.032-.087.093-.084-.011-.045-.063-.1-.011-.056.082-.077-.01-.04-.087-.113-.016-.051.071-.089.008-.056-.074-.1,0-.034.129.147.139a3.537,3.537,0,0,0,.733.02l.142-.077Zm-.938.615.008.344.157.16a5.814,5.814,0,0,0,1.15-.023l.225-.2-.033-.3h-.157l-.087.11-.136-.018-.071-.108-.171.016-.064.128-.118.01-.081-.125-.14.012-.072.09-.128.013-.123-.145Zm2.778.693-.333-.07c-.272.012-.534.093-.534.431,0,.178.016.283.21.367l.58.012.153-.241A.685.685,0,0,0,262.873,362.123Zm-2.109.011c-.383-.014-.658.086-.685.344-.044.368.533.421.785.419.364-.005.8-.052.8-.368C261.673,362.136,261.214,362.152,260.765,362.134Zm-1.184,1.1-.349-.058-.1.229c.009.114.228.2.328.178A.207.207,0,0,0,259.581,363.231Zm-.141-1.63-.25.1c-.056.194.119.211.19.23.182.043.226,0,.247-.172C259.642,361.641,259.558,361.592,259.44,361.6Zm-.177-.711-.234-.023.049.241a.483.483,0,0,0,.363.127l.211-.208C259.736,360.689,259.329,360.915,259.263,360.89Zm.212,3.085a.5.5,0,0,0-.392-.057l-.228.138-.053.309.169-.034c.091-.069.016-.283.252-.194.12.044-.029.231.049.252l.2-.091Zm.239-1.543a.4.4,0,0,0-.3-.109c-.122,0-.289.1-.279.23l.127.206.236.034.244-.138Zm.232,1.918.138.042.116-.124.114.014.061.085.122.016.08-.11.1.015.052.115.151.021.069-.094.119-.01.076.1.138.006.045-.172-.194-.186a4.828,4.828,0,0,0-.982-.028l-.189.1Zm2.966-1.036c.014-.13-.268-.137-.355-.141l-.229-.007c-.213,0-.384.066-.388.27l.1.286.185-.123.187.145c.135.017.131-.156.2-.159.132-.005.088.093.127.16l.094.046A3.542,3.542,0,0,0,262.912,363.315Zm-10.838-2.269c0-.547.011-1.091.015-1.636a8.521,8.521,0,0,0-2.2.092,5.915,5.915,0,0,0,.615,1.578C250.986,361.072,251.593,361.056,252.074,361.046Zm.035,2c0-.56.028-1.118,0-1.675l-.081-.1a9.621,9.621,0,0,0-1.361.029l-.129.16a11.373,11.373,0,0,0,.257,1.584Zm.329-2c.48.01,1.088.027,1.564.034a5.776,5.776,0,0,0,.617-1.578,8.542,8.542,0,0,0-2.2-.092C252.429,359.955,252.433,360.5,252.438,361.046Zm-.033,2h1.308a11.047,11.047,0,0,0,.257-1.584l-.129-.16a9.61,9.61,0,0,0-1.36-.029l-.081.1C252.375,361.929,252.4,362.488,252.4,363.048Zm-10.433-.378a3.173,3.173,0,0,0,2.084-.525c.051-.046.191-.075.145.079-.156.529-.9.778-1.427.825l-.04.075a7.19,7.19,0,0,1,.767,2.059,1.54,1.54,0,0,0,.436.709,2.835,2.835,0,0,0,1.4.73,2.335,2.335,0,0,1-1.408-.223c-.5-.217-.6-.531-.813-1.011-.16-.363-.255-.72-.4-1.085a6.132,6.132,0,0,0-.708-1.445Zm-.982,4.465-.224-.2C240.842,366.835,241.106,367.044,240.989,367.134Zm-.208.219c.115.072.217.16.157.284l-.311.017-.128-.283Zm1.415-6.131c-.166.084-.257.231-.206.329s.227.108.394.024.256-.229.2-.327S242.361,361.139,242.2,361.222Zm13.562,11.723c.126.579.233,1.117.363,1.7a.191.191,0,0,1-.155.242.261.261,0,0,1-.267-.2c-.145-.577-.26-1.117-.4-1.694a.2.2,0,0,1,.175-.241Zm-2.12-.068c.087.583.169,1.157.254,1.743a.194.194,0,0,1-.176.216.283.283,0,0,1-.268-.2c-.1-.575-.173-1.131-.269-1.7a.218.218,0,0,1,.2-.19Zm-5.8.092.282-.2a.2.2,0,0,1,.176.241c-.142.578-.26,1.118-.4,1.695a.266.266,0,0,1-.267.2.192.192,0,0,1-.155-.245C247.6,374.086,247.707,373.546,247.837,372.969Zm2.116-.069.263-.138a.214.214,0,0,1,.2.19c-.1.574-.171,1.13-.271,1.7a.281.281,0,0,1-.268.2l-.174-.215C249.786,374.058,249.868,373.487,249.953,372.9Zm-4,.149a.265.265,0,0,1,.283-.172l.111.241c-.19.516-.329,1.06-.515,1.575a.289.289,0,0,1-.3.211.2.2,0,0,1-.1-.275C245.6,374.1,245.775,373.576,245.949,373.049Zm11.694-.024c.177.528.349,1.053.526,1.581a.2.2,0,0,1-.1.275.288.288,0,0,1-.3-.21c-.187-.516-.329-1.061-.515-1.577l.111-.241A.26.26,0,0,1,257.642,373.026Zm-.829,3.96c.153.688.279,1.332.435,2.021a.23.23,0,0,1-.19.289.314.314,0,0,1-.315-.234c-.168-.689-.309-1.333-.475-2.019a.24.24,0,0,1,.208-.288A.361.361,0,0,1,256.814,376.986Zm-2.524-.081c.1.7.2,1.381.3,2.077a.229.229,0,0,1-.209.255.338.338,0,0,1-.323-.243c-.114-.683-.2-1.345-.318-2.029a.257.257,0,0,1,.236-.226A.312.312,0,0,1,254.289,376.905Zm4.773.177c.209.628.416,1.254.626,1.882a.243.243,0,0,1-.121.329.349.349,0,0,1-.359-.249c-.224-.616-.389-1.265-.614-1.88a.213.213,0,0,1,.13-.287A.317.317,0,0,1,259.062,377.083Zm-12.258-.1a.358.358,0,0,1,.335-.232.242.242,0,0,1,.211.288c-.167.686-.309,1.331-.478,2.019a.31.31,0,0,1-.315.234.228.228,0,0,1-.187-.289C246.523,378.318,246.649,377.674,246.8,376.986Zm2.525-.081a.307.307,0,0,1,.309-.165.259.259,0,0,1,.238.226c-.117.684-.2,1.346-.321,2.029a.334.334,0,0,1-.322.243.228.228,0,0,1-.21-.255C249.127,378.286,249.226,377.6,249.329,376.905Zm-4.774.177a.316.316,0,0,1,.336-.205.213.213,0,0,1,.131.287c-.223.615-.389,1.264-.612,1.88a.349.349,0,0,1-.36.249.242.242,0,0,1-.12-.329C244.139,378.336,244.345,377.711,244.556,377.083Zm-2.236,2.547,1.077-3.244h16.711l1.121,3.244Zm-2.883-8.909c-.054-.05.013-.394.136-.3S239.557,370.815,239.436,370.721Zm-.344-.683c.127.053.015.374-.086.321S238.931,369.971,239.092,370.038Zm.9.717-.226.283C239.666,370.926,239.894,370.615,239.995,370.755Zm-8,7.786.205-.044-.087.186-.207.044Zm-.223-.464.2-.042-.086.184-.2.042Zm-.261-.359.146-.032-.06.135-.149.032Zm.14-1.4.123.074-.123.075-.123-.075Zm.568,2.522.205-.046-.088.188-.207.044Zm4.154-5.413.091.068-.091.292-.443.086c-.092-.12.084-.289.188-.306Zm-1.834.212c0,.045-.006.259-.155.213-.128-.04-.124-.312-.109-.431l.059-.235C234.454,373.154,234.533,373.557,234.534,373.64Zm2.122.241-.284.212.045-.141Zm-1.711-.626.176-.218c.1-.086.292-.219.436-.131s-.355.319-.413.379-.067.345-.182.349C234.808,373.64,234.913,373.317,234.944,373.255Zm.5.147.514-.176.032.137-.181.17c-.1.153-.1.326-.32.234C235.355,373.71,235.359,373.518,235.447,373.4Zm-1.272-9.962c-.045-.215-.376-.215-.694-.157a.41.41,0,0,0-.315.628c.148.316.363.32.3.676-.026.172.162.221.262.072.215-.319.077-.517-.2-.789-.147-.219-.222-.385.071-.385C233.842,363.483,234.216,363.657,234.175,363.44Zm.566,2.979c.133.047.249.014.227-.13-.033-.2-.17-.37-.007-.475s.244.054.335.313c.064.189.2,1.037-.026,1.063s-.171-.132-.192-.152a.519.519,0,0,0-.362-.451c-.261-.155-.579-.354-.586-.551s.218-.313.322-.153C234.512,365.976,234.612,366.374,234.741,366.419Zm1.149-1.2.178-.062c.405,0,.493.249.508.644l.121.292c-.27.249-.507.036-.606-.268a2.876,2.876,0,0,0-.07-.415Zm1.735,2.4-.182-.152-.078-.13c-.033-.1-.006-.309.136-.344.165-.041.265.173.287.26.032.121,0,.175.1.276s.191.1.212.244l-.015.138c-.055.126-.261.111-.344.022C237.675,367.862,237.773,367.75,237.624,367.619Zm-.323.211c-.015.095-.064.1-.186.1l-.123-.091c0-.122.066-.13.178-.115Zm-2.937-4.806c.041.221.283.045.361-.069.293-.011.79-.216.6-.589a.574.574,0,0,0-.626.161l-.138.29Zm1.986,5.667a2.516,2.516,0,0,1-.587.046l-.218.253-.276.054a1.408,1.408,0,0,0-.318.42,8.414,8.414,0,0,1-.289-1.117c-.205-.076-.446-.009-.611-.16-.129-.119-.11-.326-.169-.49a3.726,3.726,0,0,0-.384-.031,1.673,1.673,0,0,0-.313-1.4c-.137-.144-.327-.151-.4-.373s.051-.529-.01-.788c-.1-.439-.331-.447-.643-.534a1.355,1.355,0,0,1,.621-1.66,2.138,2.138,0,0,1-.061-.849c.186.032.359.029.545.046a1.545,1.545,0,0,1,.258-.55,1.656,1.656,0,0,0,.766.244,1.387,1.387,0,0,1,1.409-.1,7.1,7.1,0,0,0,1.577.44c-.019.216-.206.313-.243.612-.42.135-.666.011-.841.527-.072.2.022.359.095.562l-.077.262c.056.251.348.373.8.515l-.02.136a.539.539,0,0,0,.27.5,3.742,3.742,0,0,1,.991.077l.736.566c-.009.177-.092.369-.025.535s.267.289.4.416c-.39.48-1,.891-.462,1.564-.4.423-.343.526-.39,1.048-.258.084-.315.242-.359.489a.489.489,0,0,0-.47.267,3.408,3.408,0,0,1-.147-.917c-.189.141-.363.287-.538.443-.181.115-.354.3-.569.3C236.378,369.726,236.63,368.882,236.35,368.69Zm27.693,2.041c-.123.1-.251-.211-.137-.3S264.1,370.682,264.043,370.73Zm.34-.681c.161-.067.2.262.09.322S264.258,370.1,264.383,370.049Zm-.9.717c.1-.14.33.171.225.284Zm-4.288,1.533h0l-14.7-.024.349-.936c.039-.126.289-.092.4-.09l13.588.023.37.991Zm-.5-1.412c.378-.007.687.631,1.323.6,1.282-.06,3.159-2.361,4.144-3.781l.059.217c-.115.291-.676.7-.58.92l.22.024c.617-.048.687.314.477.93a2.454,2.454,0,0,1,.473.074,2.017,2.017,0,0,1-.164.588,1.663,1.663,0,0,1,.3.1,1.8,1.8,0,0,1-.618.761,2.087,2.087,0,0,1-.293.672c-.822-.658-1.514-.14-1.694.7-.051.248-.009.553-.248.695a1.1,1.1,0,0,0-1.874-.456c-.352-.172-.63-.231-.772.184l-.019.121.534,2.107H243.7l.42-1.668-.092-.572c-.143-.412-.42-.354-.772-.182a1.1,1.1,0,0,0-1.873.457c-.238-.143-.2-.449-.251-.695-.181-.84-.87-1.358-1.692-.7a2.074,2.074,0,0,1-.292-.672,1.759,1.759,0,0,1-.621-.76,1.685,1.685,0,0,1,.3-.1,2.145,2.145,0,0,1-.163-.589,2.481,2.481,0,0,1,.475-.074c-.209-.615-.141-.979.475-.93l.221-.024c.1-.224-.463-.629-.579-.919l.057-.217c.987,1.42,2.863,3.72,4.141,3.781.76.036,1.056-.834,1.552-.474l.122-.188h2.032l-1.564-3.454a3.645,3.645,0,0,1-2.322-.725,2.391,2.391,0,0,1-.687-.926c-.057-.131-.2-.195-.289-.306l-.06-.153-.166-.023a1.532,1.532,0,0,0-.305.375,2.562,2.562,0,0,0-.382,1.5c.064.185.155.307.048.468a1.358,1.358,0,0,1-.7.535c-.169-.164-.385-.51-.535-.438-.073.034-.069.2-.022.331l-.046.053c-.171-.236-.38-.453-.537-.689a8.809,8.809,0,0,0,.974-.491l.056-.123-.088-.111c-.133-.07-1.25-.132-1.117-.291l.126-.077a2.155,2.155,0,0,0,1.313-1.07,8.255,8.255,0,0,0,.309-2.615.766.766,0,0,1,.283-.443c.171-.029.142.009.258.123a4.2,4.2,0,0,0,.938-.231c-.077-.121-.169-.174-.132-.312l.266-.078.032.269.224-.008a7.406,7.406,0,0,0,2.2-1.266c.278.606,1.09,2.585,1.3,3.093a3.415,3.415,0,0,1,.329,1.293,2.521,2.521,0,0,1-1.066,2.236l1.565,3.557h4.778c-.023-2.469-.023-5.1-.048-7.561a5.152,5.152,0,0,0-1.253.025c-.066.051-.025.461-.057.7-.08.057-.139.079-.2-.046a12.781,12.781,0,0,0-.3-2.534c-.211-.794-1.186-2.271-1.13-2.385.045-.091.278-.071.485-.047l.13.195q1.126.007,2.25.011l.071-.138h.354l.071.137c.752,0,1.5-.007,2.252-.011l.126-.195c.2-.024.442-.044.487.047.058.113-.921,1.592-1.13,2.385a13,13,0,0,0-.306,2.534c-.061.125-.121.1-.2.046-.031-.237.01-.648-.057-.7a5.166,5.166,0,0,0-1.254-.025c-.024,2.463-.024,5.093-.048,7.561h4.412c.636-1.9,1.622-4.333,2.337-6.206a2.072,2.072,0,0,1-.658-.242,5.455,5.455,0,0,1,0-3.716h3.385l-.012.009c-.11.1-.019.331.114.364a.75.75,0,0,0,.643-.123l-.119-.2-.06.1-.168-.1-.131.155c-.137.02-.126-.126-.187-.187l-.03-.02h.853c.051.167.089.335.122.5l-.091.048c-.04.067,0,.164-.125.16-.077,0-.072-.177-.207-.16l-.187.146-.185-.124-.095.287c0,.2.174.269.387.269l.23,0c.088-.006.367-.012.356-.141l-.007-.049a5.226,5.226,0,0,1-.454,3.1,1.26,1.26,0,0,0,.93,1.364c.233.106.607.111.57.414-.383.028-.772.026-1.149.092l-.012.264c.079.309.7.329.963.481l-.6.85a1.227,1.227,0,0,1-1.245-.666,2.04,2.04,0,0,0,.084-1.262l-.479-.815c-.023-.214.03-.6-.165-.7a2.851,2.851,0,0,0-1.758-.219.518.518,0,0,0-.3.321c-.684,1.573-1.343,3.09-1.918,4.725-.087.257-.284.9-.4,1.276h1.637Zm.86,8.973h1.524v.23H259.56Zm.011.391H261.1v.229H259.57Zm-1.6-4.708h1.523v.231h-1.523Zm.012.39H259.5v.229h-1.523Zm-1.51-4.432h1.523v.23H256.47Zm.011.389h1.524v.229h-1.524Zm-10.554-.389h1.521v.23h-1.521Zm.01.389h1.524v.229h-1.524Zm-1.636,3.7h1.525v.229H244.3Zm.012.389h1.519v.23h-1.519Zm-1.558,3.9h1.523v.228h-1.523Zm.011.389h1.524v.23h-1.524ZM269.3,363.452c.044-.215.374-.216.69-.158a.41.41,0,0,1,.317.63c-.149.316-.361.319-.305.674.029.174-.162.222-.262.074-.214-.32-.076-.519.2-.789.147-.221.224-.386-.068-.387C269.636,363.5,269.26,363.668,269.3,363.452Zm-.565,2.978c.127-.044.228-.444.284-.534.106-.16.329-.046.322.153s-.324.4-.587.55a.519.519,0,0,0-.359.451c-.022.022.03.179-.191.153s-.092-.874-.027-1.063c.091-.259.174-.418.336-.313s.026.272-.008.473C268.489,366.443,268.6,366.476,268.739,366.43Zm-1.152-1.2-.132.19a2.967,2.967,0,0,0-.066.416c-.1.3-.337.518-.609.267l.121-.291c.016-.395.1-.643.506-.643Zm-1.734,2.4c-.146.132-.049.243-.116.314-.082.088-.291.1-.344-.022l-.018-.138c.024-.147.121-.155.213-.245s.072-.155.1-.276c.025-.088.126-.3.29-.26.139.035.164.245.132.344l-.077.13Zm.321.21.132-.111c.116-.013.178-.006.181.115l-.127.092C266.242,367.942,266.194,367.935,266.174,367.84Zm2.939-4.806c-.042.221-.284.047-.361-.069-.292-.013-.791-.216-.6-.588a.573.573,0,0,1,.625.159l.136.291Zm2.377,15.517.085.186-.2-.043-.088-.186Zm.221-.466.089.184-.2-.042-.088-.183Zm.262-.358.062.133-.149-.03-.061-.134Zm-.141-1.4.125.074-.125.075-.122-.075Zm-.566,2.52.085.187-.2-.042-.086-.187Zm-4.154-5.412.253.141c.1.018.278.188.188.308l-.441-.087-.092-.293Zm1.833.212c0-.082.077-.485.206-.453l.059.236c.011.117.017.387-.114.429C268.949,373.911,268.943,373.7,268.945,373.65Zm-2.122.241.237.071.046.142Zm1.712-.624c.031.06.135.383-.019.378-.114,0-.125-.291-.182-.351s-.544-.3-.413-.378.338.047.438.131Zm-.5.146c.087.116.093.309-.047.367-.213.09-.222-.081-.321-.235l-.177-.169.03-.137C267.617,373.126,267.968,373.333,268.031,373.413Zm-1.817-3.525-.047.334c-.031.1-.118.489-.327.367-.245-.283-.24-.339-.584-.418a.684.684,0,0,1,.271.31l-.126.26c.187.232.42.436.626.654.369.361.9.614,1.109,1.082.053.123.037.3-.206.441a9.945,9.945,0,0,0-1.2.732,5.222,5.222,0,0,0-.592.73,2.514,2.514,0,0,0-1.155.4,7.622,7.622,0,0,0-1.106.868c.772.068.4.709.092,1-.13.128-.259.254-.39.381.3-.042,1.1-.328,1.311.077.288.549-.188,1.05-.38,1.6-.169.5.1,1.116-.2,1.563a1.831,1.831,0,0,1-1.5.694l-.061-.2-9.443-.031v0h-.825v0l-9.443.031-.072.231c-.685-.13-1.342-.076-1.792-.741-.3-.448-.03-1.062-.2-1.563-.189-.551-.667-1.053-.375-1.6.212-.405,1-.119,1.307-.076-.128-.128-.26-.254-.39-.381-.3-.295-.678-.935.095-1a7.847,7.847,0,0,0-1.109-.868,2.478,2.478,0,0,0-1.151-.4,5.471,5.471,0,0,0-.6-.731,9.326,9.326,0,0,0-1.2-.731c-.24-.138-.256-.319-.2-.442.206-.467.737-.721,1.106-1.08.206-.218.439-.421.625-.655l-.125-.258a.654.654,0,0,1,.272-.31c-.345.079-.34.136-.585.417-.209.122-.294-.267-.327-.367-.014-.112-.031-.222-.049-.336a4.446,4.446,0,0,1-1.374.762l.175-.4a3.309,3.309,0,0,0,.123-1.233,5.514,5.514,0,0,1-1.434,2.041,6.281,6.281,0,0,0-2.856,2.621c-.242.033-1,0-1.147-.273a3.89,3.89,0,0,1,.248-2.441c.3-.973.587-1.957.89-2.928.224-.831.443-1.45-.352-1.867a1.094,1.094,0,0,0-1.245.305,1.94,1.94,0,0,1-.469.471c-.606.34-.9.629-.649,1.265.078.194.243.265.429.365a4.239,4.239,0,0,0,.029.533c.02.382-.045.527.313.746a3.243,3.243,0,0,1,.454-.96,1.821,1.821,0,0,0,.046-1.492c-.019-.214-.035-.425-.046-.64.246-.322.692-.651,1.134-.32.534.4.356.737.221,1.38-.268.889-.569,1.795-.857,2.679-.229.751-.784,2.163-.418,2.945.221.475.822.412,1.306.6.083.382.27.725.1,1.077a1.6,1.6,0,0,1-.951.746l.051.3c-.147.479-.716.784-1.113,1.081.6.016.738.2.546.823.7-.133.636.536.592,1.11.771-.166.914.146.953.9-.233.38-.255.426.046.759.044.18.064.134.251.122a3.84,3.84,0,0,0,.422.335l-.029.283c.208.382.335.3.776.265a.938.938,0,0,1,1.281-.046.409.409,0,0,1,.61-.214.851.851,0,0,0,.166-.489,1.75,1.75,0,0,1,1.276.072c.018-.255-.378-.475-.663-.48-.541-.009-1.066.03-1.609.045a2.247,2.247,0,0,1-.809-1.614,1.519,1.519,0,0,1,.344-1.194.487.487,0,0,0,.423.007c.065-.326.121-.661.169-.989l.359-.138a1.651,1.651,0,0,0-.031-1.72c-.174-.3-.426-.558-.136-.841s.757-.115,1.213.079a1.468,1.468,0,0,1,.622,2.147c.149.191.306.154.338.422.046.339-.335.762-.57,1.01.494-.147.9-.25.989.218a3.624,3.624,0,0,1-.116,1.122,1.644,1.644,0,0,1,1.7.359,1.029,1.029,0,0,1,.285.843c-.146.459-.49.539-.969.654.026.121.052.243.079.366.134,0,.247-.069.374-.031s.2.158.331.23a.724.724,0,0,1,.575-.153,2.957,2.957,0,0,1,.905.35c.438-.129.859-.287,1.278-.456l-.268.857h-3.024v.007h-7.8l-.062.056.065.058h7.8v.177c.263.03.524.063.785.092a8.007,8.007,0,0,1-2.732,1.526,6.363,6.363,0,0,0,1.2,0,1.174,1.174,0,0,1-.022.986c.474-.115,1.268-.9,1.6-.665.207.147.121.406.04.665.553-.139.772-.526,1.208-.838.458-.326,1.117-.445,1.117.07a1.038,1.038,0,0,1-.157.471c.432,0,.693-.2.878.183a2.179,2.179,0,0,1,.071.748c.5-.364.641-.862,1.214-1.091.271-.108.43.409.563.372.44-.119.148-1.442,1.739-1.371l.188.048c-.159.226-.322.445-.495.664.612.062.658.278.389.723a.58.58,0,0,0-.083.493c.278-.321.332-.305.762-.355a2.13,2.13,0,0,0,1.623-.367c.33-.258.13-1.031.159-1.411.045-.63.428-.849,1.114-.849-.066.359-.133.72-.2,1.079a2.858,2.858,0,0,0,1.008-.585c.277-.189.829-.084.914.19.066.211-.028.48.02.631s.223.214.409.39l.037.038v0l.039-.038c.186-.176.36-.231.408-.39s-.046-.42.021-.631c.084-.274.638-.38.914-.19a2.876,2.876,0,0,0,1.008.585l-.2-1.079c.685,0,1.067.219,1.112.849.029.38-.172,1.154.16,1.411a2.129,2.129,0,0,0,1.624.367c.429.05.484.035.76.355a.585.585,0,0,0-.082-.493c-.267-.445-.223-.661.388-.723-.171-.219-.335-.437-.493-.663l.187-.048c1.593-.071,1.3,1.252,1.743,1.371.129.036.288-.48.56-.372.574.23.711.727,1.214,1.091a2.272,2.272,0,0,1,.068-.748c.188-.387.45-.183.879-.183a1.074,1.074,0,0,1-.157-.471c0-.514.663-.4,1.118-.07.439.312.659.7,1.211.838-.081-.258-.169-.517.04-.665.328-.235,1.126.55,1.6.665a1.187,1.187,0,0,1-.024-.986,6.364,6.364,0,0,0,1.2,0,7.972,7.972,0,0,1-2.73-1.526c.261-.03.52-.062.783-.092v-.177H272.2l.075-.055-.073-.058h-6.965v-.007h-3.024l-.222-.708c.3.115.615.225.929.319a2.88,2.88,0,0,1,.9-.35.735.735,0,0,1,.58.152c.123-.072.188-.186.324-.23s.246.03.376.03c.029-.121.053-.243.08-.365-.481-.117-.823-.2-.968-.655a1.031,1.031,0,0,1,.283-.844,1.657,1.657,0,0,1,1.7-.36,3.646,3.646,0,0,1-.117-1.122c.085-.467.5-.365.991-.218-.238-.247-.617-.669-.573-1.01.036-.267.192-.231.336-.421a1.467,1.467,0,0,1,.626-2.147c.455-.195.92-.369,1.213-.08s.036.545-.138.84a1.663,1.663,0,0,0-.031,1.722l.359.136c.049.33.106.664.172.991a.476.476,0,0,0,.419-.01,1.52,1.52,0,0,1,.346,1.2,2.225,2.225,0,0,1-.813,1.614c-.538-.015-1.068-.053-1.608-.046-.285,0-.677.225-.662.48a1.746,1.746,0,0,1,1.276-.072.859.859,0,0,0,.168.491.408.408,0,0,1,.609.212.936.936,0,0,1,1.279.047c.441.029.569.116.777-.265l-.027-.282a3.918,3.918,0,0,0,.422-.336c.184.012.208.059.247-.123.3-.332.28-.378.045-.757.038-.757.182-1.069.955-.9-.043-.575-.111-1.245.591-1.112-.191-.622-.053-.807.546-.822-.4-.3-.964-.6-1.112-1.082l.05-.3a1.6,1.6,0,0,1-.949-.747c-.175-.351.011-.7.1-1.074.484-.189,1.086-.126,1.31-.6.364-.782-.194-2.193-.424-2.945-.287-1.1-.584-1.888-.854-2.679-.134-.643-.312-.979.221-1.379.442-.333.89,0,1.134.319-.01.214-.026.426-.048.64a1.821,1.821,0,0,0,.048,1.492,3.179,3.179,0,0,1,.451.959c.36-.219.3-.364.312-.746a3.393,3.393,0,0,0,.031-.534c.187-.1.354-.17.429-.364.256-.635-.042-.925-.646-1.264a2.005,2.005,0,0,1-.47-.471,1.092,1.092,0,0,0-1.245-.305c-.794.416-.576,1.034-.352,1.867.3.971.592,1.955.89,2.927a3.9,3.9,0,0,1,.247,2.439c-.147.276-.908.307-1.146.274a6.284,6.284,0,0,0-2.856-2.62,5.554,5.554,0,0,1-1.434-2.04,3.253,3.253,0,0,0,.123,1.232c.059.132.119.265.176.4A4.461,4.461,0,0,1,266.214,369.888Zm.914-1.186a2.7,2.7,0,0,0,.587.046l.216.251.278.055a1.407,1.407,0,0,1,.317.421,8.636,8.636,0,0,0,.289-1.117c.2-.076.447-.007.608-.158.133-.12.11-.326.172-.492a3.634,3.634,0,0,1,.384-.029,1.68,1.68,0,0,1,.312-1.4c.141-.143.327-.151.4-.371s-.05-.53.006-.788c.1-.44.336-.447.646-.535a1.357,1.357,0,0,0-.621-1.661,2.224,2.224,0,0,0,.061-.849c-.187.033-.361.029-.548.047a1.5,1.5,0,0,0-.256-.551,1.643,1.643,0,0,1-.766.245,1.385,1.385,0,0,0-1.409-.1,7.164,7.164,0,0,1-1.577.44c.02.215-.1.417.113.725.419.121.8-.316.974.413a.924.924,0,0,1-.095.563l.072.261c-.053.252-.346.373-.8.516l.019.135a.541.541,0,0,1-.27.5,3.765,3.765,0,0,0-.993.076c-.244.19-.489.378-.732.568.008.178.089.368.022.535s-.264.289-.4.416c.388.48,1,.892.461,1.564.4.421.343.524.392,1.048.256.082.314.24.358.488a.482.482,0,0,1,.468.268,3.317,3.317,0,0,0,.15-.917c.19.139.364.287.541.443.18.114.352.3.568.3C267.1,369.738,266.848,368.893,267.128,368.7Zm-11.86-3.369-.065.213.151.167.061-.214Zm.761.293-.226.012-.11.193.226-.012Zm-1.072.352c-.068.031-.077.151-.019.269s.156.191.222.162.076-.152.02-.27S255.025,365.947,254.957,365.978Zm.954.178-.276.036-.115.244.274-.036Zm-1.282.4c-.065.033-.067.154,0,.27s.167.184.232.148.067-.153,0-.269S254.695,366.524,254.629,366.558Zm1.018.456c-.02-.069-.143-.1-.27-.063s-.221.121-.2.189.14.1.269.062S255.662,367.084,255.648,367.014Zm-.2.546c-.029-.063-.151-.07-.267-.017s-.191.149-.157.212.148.071.264.016S255.484,367.624,255.453,367.56Zm-1.012-.329c-.067.029-.073.147-.02.261s.149.186.216.157.072-.147.019-.261S254.5,367.2,254.44,367.231Zm-.248.55c-.077.033-.087.173-.024.311s.178.221.256.187.088-.174.026-.311S254.267,367.745,254.192,367.781Zm1.041.379c-.041-.062-.163-.058-.281.008s-.182.172-.144.234.164.061.279-.007S255.268,368.225,255.233,368.16Zm-1.246.311.042.268.252.11-.04-.267Zm1.059.24c-.039-.062-.166-.058-.281.009s-.184.171-.146.233.165.061.281-.007S255.082,368.775,255.046,368.711Zm.913-3.862-.22.056-.069.212.22-.056Zm-6.743.449.065.214-.152.166-.064-.214Zm-.762.293.226.013.111.193-.227-.012Zm1.071.353c.066.031.076.15.019.27s-.157.191-.224.16-.073-.15-.018-.269S249.459,365.915,249.525,365.944Zm-.953.177.274.037.115.244-.273-.036Zm1.281.4c.064.033.067.155,0,.27s-.164.184-.231.15-.066-.154,0-.27S249.788,366.49,249.854,366.523Zm-1.014.456c.016-.069.14-.1.267-.062s.219.118.2.188-.143.1-.273.063S248.818,367.049,248.839,366.979Zm.191.547c.029-.063.148-.07.267-.017s.191.148.158.213-.147.069-.267.016S249,367.59,249.03,367.526Zm1.013-.329c.067.03.073.146.019.26s-.148.186-.214.157-.075-.145-.018-.26S249.979,367.168,250.043,367.2Zm.248.548c.079.035.089.174.023.312s-.178.221-.256.186-.087-.174-.02-.311S250.215,367.712,250.291,367.745Zm-1.04.382c.037-.063.165-.058.279.008s.183.17.145.234-.162.06-.279-.008S249.216,368.19,249.251,368.127Zm1.245.31-.039.267-.253.11.041-.268Zm-1.057.242c.038-.064.162-.062.281.006s.181.171.144.233-.162.061-.281-.007S249.4,368.741,249.439,368.679Zm-.913-3.864.219.057.068.21-.222-.056Zm1.856,4.862-.039-.31c.029-.256.221-.183.293-.274.253-.326.151-.673.2-1.04-.072.031-.166.05-.219-.119a4.5,4.5,0,0,1-.027-.7c-.215,0-.268.122-.323-.08a5.139,5.139,0,0,1-.057-.809c-.147.063-.224,0-.345-.086a1.887,1.887,0,0,1-.03-.533c-.12.008-.144-.051-.187-.14-.007-.163.091-.366-.023-.516-.186.224-.369.016-.481-.176l-.071-.384c-.118-.018-.28.075-.356-.007s-.03-.261-.154-.32l-.3.028-.042.131-.211.013c0,.116.161.152.222.253s.2.446.035.505-.3-.075-.448-.127c.08.273.34.455.448.711.091.209-.028.232-.181.28a.721.721,0,0,1,.156.491l-.3-.024a2.984,2.984,0,0,0,.645.86c.158.207.257.255.281.409.02.123-.035.245-.339.257.2.208.372.439.585.632l-.188.207a1.168,1.168,0,0,0,.686.658c.261.075.375-.051.57.281C250.315,369.957,250.378,369.794,250.382,369.677Zm3.1-1.624c.073.029.33.084.381-.086a4.2,4.2,0,0,0,.029-.7c.215,0,.271.122.322-.08a5.266,5.266,0,0,0,.06-.809c.146.063.222,0,.343-.085a1.9,1.9,0,0,0,.031-.534c.118.009.144-.05.188-.138.005-.164-.092-.366.024-.516.183.223.366.016.48-.177l.069-.384c.121-.018.28.076.354-.007s.033-.262.156-.321l.3.029.04.132.211.012c0,.117-.163.152-.222.253s-.2.445-.034.5.3-.074.444-.125c-.076.273-.334.456-.444.711-.093.208.024.23.179.278a.731.731,0,0,0-.156.489l.3-.022a3.088,3.088,0,0,1-.642.861c-.161.205-.258.254-.285.407-.016.124.037.247.342.258-.2.206-.373.438-.586.63l.186.207c-.064.264-.47.541-.682.66s-.46.22-.671.332l-.125.441c-.172-.005.025-.542-.093-.582C253.557,369.552,253.461,368.591,253.482,368.053Zm9.215-3.827a.828.828,0,0,0-.72-.032c-.138.057-.2.322-.064.413l.1-.026c.057-.078.02-.235.174-.235l.166.151.168-.132.081.1Z" transform="translate(-188.035 -340.54)" fill="#d0a355" fill-rule="evenodd"/><path d="M255.407,339.441l.28.315.389-.186a1.949,1.949,0,0,0,.145.793,2.738,2.738,0,0,0,.507.768,2.4,2.4,0,0,0,1.414.845,1.677,1.677,0,0,0,1.393-.41,1.458,1.458,0,0,0,.545-.989,5.426,5.426,0,0,0-.384-1.936l-.013-.04c-.222-.673-.211-1.114.03-1.318a.716.716,0,0,1,.585-.174.956.956,0,0,1,.591.343,1.428,1.428,0,0,1,.39.944,1.575,1.575,0,0,1-.355,1l.271.3c.188-.178.384-.354.582-.53s.4-.351.613-.53l-.281-.315-.352.153a1.878,1.878,0,0,0-.171-.7,2.823,2.823,0,0,0-.466-.681,1.94,1.94,0,0,0-1.21-.7,1.512,1.512,0,0,0-1.221.379,1.485,1.485,0,0,0-.553.97,3.8,3.8,0,0,0,.271,1.57,3.481,3.481,0,0,1,.244,1.124.745.745,0,0,1-.279.524.852.852,0,0,1-.7.214,1.218,1.218,0,0,1-.717-.437,1.351,1.351,0,0,1-.375-.991,2.235,2.235,0,0,1,.478-1.173l-.275-.308c-.1.1-.212.2-.332.308s-.251.222-.393.34l-.319.265Zm.574-4.03-.086.279a2.684,2.684,0,0,0,1.3.23,1.573,1.573,0,0,0,.973-.5,1,1,0,0,0,.319-.669.759.759,0,0,0-.28-.607.83.83,0,0,0-.53-.237.6.6,0,0,0-.48.195.62.62,0,0,0-.193.448.572.572,0,0,0,.209.426l.208.14.247.069a1.266,1.266,0,0,1-.732.364A2.034,2.034,0,0,1,255.981,335.411Zm-8.518-1.87.207-.288a.97.97,0,0,0,.683.155,1.26,1.26,0,0,0,.591-.522l2.07-2.889-.01-.163a.843.843,0,0,0-.125-.361,1.374,1.374,0,0,0-.331-.324l.192-.267.242.189c.1.069.252.18.47.328s.38.255.508.338.247.156.361.224l.728,5.161,1.475-2.054a1.17,1.17,0,0,0,.286-.73.808.808,0,0,0-.4-.549l.19-.269c.176.13.332.245.471.345l.37.26c.1.065.218.146.369.244s.338.22.564.362l-.19.265a.927.927,0,0,0-.681-.171,1.322,1.322,0,0,0-.611.55l-2.585,3.6-.415-.286-.777-5.982-1.762,2.456a1.191,1.191,0,0,0-.284.737.78.78,0,0,0,.373.562l-.2.281c-.164-.122-.332-.242-.5-.362s-.373-.259-.61-.423c-.133-.091-.255-.169-.364-.239Zm-3.548-4.018,1.614-1.436-.082,2.1Zm-2.7,1.2c.166.063.328.127.495.195s.327.135.485.2.333.146.5.224.339.161.512.245l.144-.314a1.141,1.141,0,0,1-.473-.326.375.375,0,0,1-.02-.39l.164-.233.267-.271.277-.236,1.864.809-.018.48c-.006.144-.017.276-.033.391a1.066,1.066,0,0,1-.066.261l-.237.166a2.081,2.081,0,0,1-.625-.173l-.143.314c.246.1.49.195.728.294s.474.2.711.3.473.206.712.316.478.219.714.331l.143-.314a1.071,1.071,0,0,1-.441-.373,1.158,1.158,0,0,1-.12-.6l.107-5.143-.418-.181-3.982,3.476a1.205,1.205,0,0,1-.532.288,1.1,1.1,0,0,1-.574-.052Zm-3.381-.976.088-.319a1.2,1.2,0,0,0,.72.019q.2-.1.337-.594l.9-3.288a.816.816,0,0,0,.01-.622.956.956,0,0,0-.556-.292l-.091-.024.091-.331c.282.082.554.159.813.231s.5.138.728.2.49.125.752.189.524.128.8.192l-.088.33-.1-.025a.851.851,0,0,0-.616.011.772.772,0,0,0-.319.514l-.9,3.286a.868.868,0,0,0,0,.657,1.122,1.122,0,0,0,.614.357l-.086.32c-.349-.1-.652-.188-.911-.259s-.468-.129-.627-.17c-.212-.055-.45-.116-.709-.18S238.143,329.82,237.837,329.748Zm-6-1.133.061-.339.07.011a.812.812,0,0,0,.625-.07,1,1,0,0,0,.275-.626l.616-3.411a.642.642,0,0,0-.073-.543,1.019,1.019,0,0,0-.586-.243l-.042-.008.06-.33c.287.058.562.112.821.16s.5.093.721.131c.167.028.384.063.649.1s.567.088.915.138l-.058.33-.052-.009a1.052,1.052,0,0,0-.667.032.747.747,0,0,0-.266.532l-.546,3.016a1.224,1.224,0,0,0,.079.907,1.334,1.334,0,0,0,.855.379,1.983,1.983,0,0,0,1.222-.1,1.52,1.52,0,0,0,.722-.844l.366.063-.338,1.652c-.444-.084-.9-.169-1.356-.253s-.914-.163-1.378-.243c-.319-.054-.667-.114-1.037-.174s-.772-.121-1.2-.185l-.116-.016-.114-.015-.115-.025Zm-3.89-.13.009-.331a1.193,1.193,0,0,0,.7-.15.908.908,0,0,0,.179-.657l.061-3.4a.82.82,0,0,0-.148-.606.949.949,0,0,0-.61-.151l-.094,0,.008-.344c.295.013.577.024.844.033s.519.016.758.019.506.007.776.007.541,0,.823,0l-.006.343-.1,0a.847.847,0,0,0-.595.156.779.779,0,0,0-.183.575l-.061,3.4a.856.856,0,0,0,.166.635,1.126,1.126,0,0,0,.688.2l-.009.331c-.364-.015-.682-.026-.946-.035s-.486-.013-.652-.016c-.218,0-.462-.007-.728-.008S228.268,328.482,227.951,328.486Zm-8.516.786-.044-.338a.764.764,0,0,0,.6-.323,1.772,1.772,0,0,0,.05-.974l-.438-3.483a.644.644,0,0,0-.32-.158,1.9,1.9,0,0,0-.516-.021l-.038-.306c.093,0,.2-.01.318-.019s.307-.029.562-.059c.209-.025.414-.053.619-.082s.417-.061.632-.094l2.257,3.652L224.306,323c.14-.009.281-.02.421-.032s.281-.027.417-.044c.243-.029.637-.086,1.187-.172l.155-.024.041.322a1.171,1.171,0,0,0-.688.251.873.873,0,0,0-.1.688l.426,3.394a.726.726,0,0,0,.255.547,1.328,1.328,0,0,0,.735.089l.043.329c-.307.024-.6.051-.882.079s-.554.058-.812.09c-.323.039-.587.071-.792.1s-.4.06-.594.09l-.045-.332a1.269,1.269,0,0,0,.637-.256q.141-.15.072-.666l-.383-3.048-1.323,4.418-.424.051-2.477-4.075.352,2.777a1.762,1.762,0,0,0,.294.919.843.843,0,0,0,.687.192l.042.336q-.337.023-.614.048c-.184.019-.338.033-.465.048-.246.03-.449.056-.6.077S219.578,329.246,219.435,329.272Zm-3.785,1.117c.3-.088.582-.167.838-.239s.491-.135.7-.189c.163-.044.371-.1.632-.161s.566-.135.92-.221l-.087-.319a1.137,1.137,0,0,1-.717-.009.868.868,0,0,1-.338-.565l-.9-3.288a.774.774,0,0,1,.012-.6.831.831,0,0,1,.529-.311l.1-.025-.09-.332c-.272.08-.536.154-.794.226s-.5.141-.747.2-.473.121-.733.185-.533.129-.823.2l.094.331.09-.024a.961.961,0,0,1,.631-.019.842.842,0,0,1,.313.543l.9,3.287a.906.906,0,0,1,.014.678,1.178,1.178,0,0,1-.632.334Zm-6.443,2.741-.14-.307a1.54,1.54,0,0,0,.514-.482,3.05,3.05,0,0,0,.369-.81l.566-1.764-2.169-1.131a3.719,3.719,0,0,0-.852-.348,1.03,1.03,0,0,0-.592.014l-.138-.3c.207-.076.429-.161.661-.254s.485-.2.769-.323c.2-.087.428-.189.675-.3s.518-.239.8-.374l.13.287a1.53,1.53,0,0,0-.429.266l-.061.242.1.14.165.112,1.338.7.343-1.1a1.729,1.729,0,0,0,.081-.379l-.032-.257a.269.269,0,0,0-.25-.166,1.434,1.434,0,0,0-.52.121l-.135-.295c.161-.054.329-.116.5-.184s.365-.148.58-.242c.113-.047.259-.115.443-.2s.39-.182.607-.289l.132.29c-.349.159-.655.651-.907,1.478l-.042.134-.408,1.308,2.759,1.41a1.388,1.388,0,0,0,.512.167,1,1,0,0,0,.46-.084l.146.321c-.3.121-.565.23-.8.326s-.433.181-.6.251c-.243.106-.5.218-.762.337s-.535.245-.815.376l-.146-.321.093-.043a1.492,1.492,0,0,0,.444-.256l.053-.241-.107-.132a1.564,1.564,0,0,0-.252-.155l-1.387-.707-.423,1.368-.053.3.034.222a.249.249,0,0,0,.25.139,1.36,1.36,0,0,0,.5-.114l.143.309c-.178.069-.383.152-.61.244s-.478.2-.757.323c-.218.1-.385.169-.5.222S209.3,333.081,209.207,333.13Zm-5.346.864-.428-2.089,1.8,1.149Zm-.333,2.875c.142-.107.28-.212.426-.315s.285-.2.428-.3.3-.2.455-.3.315-.2.479-.3l-.2-.281a1.135,1.135,0,0,1-.529.227.4.4,0,0,1-.354-.182,1.1,1.1,0,0,1-.118-.256,2.619,2.619,0,0,1-.1-.362l-.066-.355,1.672-1.144.412.263c.122.079.233.156.326.23l.195.188.023.284a1.978,1.978,0,0,1-.473.433l.2.282c.213-.155.425-.31.635-.458s.42-.293.631-.437.428-.29.646-.434.437-.286.658-.427l-.2-.281a1.07,1.07,0,0,1-.555.177,1.232,1.232,0,0,1-.594-.212l-4.459-2.738-.376.255,1,5.124a1.127,1.127,0,0,1-.022.594,1.036,1.036,0,0,1-.339.451Zm-5.753,5.577-.25-.235a.728.728,0,0,0,.257-.62,1.8,1.8,0,0,0-.588-.787l-2.586-2.438a.642.642,0,0,0-.353.076,1.847,1.847,0,0,0-.414.3l-.225-.213.234-.21c.087-.082.218-.213.4-.394.144-.145.285-.293.428-.443s.287-.3.432-.46l4.107,1.45-1.7-3.887.308-.285.3-.288c.171-.172.44-.458.813-.863l.1-.113.24.226a1.14,1.14,0,0,0-.375.618c-.008.161.114.361.364.6l2.52,2.377a.755.755,0,0,0,.552.269,1.3,1.3,0,0,0,.629-.382l.244.229c-.221.206-.433.408-.634.6s-.393.385-.575.568c-.226.229-.409.416-.549.564s-.274.293-.4.437l-.247-.233a1.208,1.208,0,0,0,.327-.589c.009-.134-.116-.322-.374-.562l-2.261-2.134,1.821,4.247-.3.3-4.55-1.648,2.063,1.943a1.839,1.839,0,0,0,.821.533.841.841,0,0,0,.658-.273l.25.235c-.163.15-.315.288-.446.414s-.243.234-.331.324c-.175.174-.312.317-.414.425Z" transform="translate(-164.191 -316.195)" fill="#111" fill-rule="evenodd"/><path d="M254.893,338.624l.279.314.389-.187a1.928,1.928,0,0,0,.145.794,2.781,2.781,0,0,0,.508.768,2.4,2.4,0,0,0,1.416.846,1.687,1.687,0,0,0,1.394-.41,1.451,1.451,0,0,0,.547-.99,5.506,5.506,0,0,0-.384-1.935l-.015-.039c-.221-.675-.211-1.116.03-1.32a.717.717,0,0,1,.586-.175.958.958,0,0,1,.592.343,1.425,1.425,0,0,1,.389.944,1.552,1.552,0,0,1-.357,1l.269.3c.195-.178.387-.353.585-.529s.4-.352.612-.531l-.279-.314-.351.153a1.812,1.812,0,0,0-.172-.7,2.741,2.741,0,0,0-.465-.68,1.956,1.956,0,0,0-1.211-.7,1.514,1.514,0,0,0-1.222.381,1.5,1.5,0,0,0-.555.969,3.842,3.842,0,0,0,.268,1.57,3.383,3.383,0,0,1,.246,1.124.745.745,0,0,1-.277.524.852.852,0,0,1-.706.215,1.231,1.231,0,0,1-.718-.437,1.351,1.351,0,0,1-.376-.99,2.237,2.237,0,0,1,.479-1.174l-.273-.308c-.1.1-.213.2-.332.308s-.254.223-.4.342l-.321.264Zm.573-4.032-.086.28a2.68,2.68,0,0,0,1.3.231,1.59,1.59,0,0,0,.979-.5,1.017,1.017,0,0,0,.317-.668.757.757,0,0,0-.279-.607.827.827,0,0,0-.53-.237.6.6,0,0,0-.483.194.638.638,0,0,0-.192.448.578.578,0,0,0,.208.427l.21.14.247.069a1.254,1.254,0,0,1-.733.362A2.01,2.01,0,0,1,255.465,334.593Zm-8.525-1.869.208-.287a.968.968,0,0,0,.682.155,1.259,1.259,0,0,0,.59-.524l2.073-2.887-.009-.162a.848.848,0,0,0-.125-.362,1.458,1.458,0,0,0-.332-.324l.191-.266.245.187c.093.07.249.181.47.331s.379.255.5.336.246.156.362.226l.731,5.16,1.475-2.054a1.192,1.192,0,0,0,.289-.732.812.812,0,0,0-.4-.548l.19-.268c.177.13.334.245.472.343s.263.189.371.263c.091.064.217.144.369.243s.34.221.564.362l-.189.264a.934.934,0,0,0-.682-.171,1.327,1.327,0,0,0-.612.551l-2.586,3.6-.419-.286-.775-5.981-1.764,2.456a1.2,1.2,0,0,0-.285.736.767.767,0,0,0,.375.563l-.2.281c-.164-.121-.331-.242-.5-.36s-.373-.261-.61-.424c-.133-.09-.256-.169-.363-.236Zm-3.554-4.017L245,327.271l-.08,2.1Zm-2.7,1.2q.247.095.5.195c.165.067.323.136.487.2s.33.145.5.224.339.16.513.243l.142-.313a1.1,1.1,0,0,1-.472-.326.378.378,0,0,1-.021-.39l.162-.233.266-.271.283-.237,1.863.81-.02.478a3.316,3.316,0,0,1-.031.393,1.036,1.036,0,0,1-.065.261l-.238.165a2.1,2.1,0,0,1-.626-.174l-.14.314c.245.1.488.2.726.3s.475.2.712.3.474.206.713.315.478.219.716.331l.144-.313a1.055,1.055,0,0,1-.443-.374,1.144,1.144,0,0,1-.118-.6l.106-5.141-.417-.183-3.99,3.477a1.154,1.154,0,0,1-.535.287,1.093,1.093,0,0,1-.572-.05Zm-3.385-.974.087-.32a1.2,1.2,0,0,0,.719.019c.132-.067.245-.265.333-.593l.907-3.288a.8.8,0,0,0,0-.622.925.925,0,0,0-.553-.291l-.09-.025.09-.331c.282.083.553.159.813.232s.5.138.732.2.491.126.752.189.525.128.8.191l-.091.332-.1-.026a.858.858,0,0,0-.617.011.79.79,0,0,0-.318.515l-.905,3.287a.87.87,0,0,0,0,.656,1.105,1.105,0,0,0,.616.357l-.088.32c-.352-.1-.654-.187-.911-.258s-.47-.128-.63-.17c-.211-.055-.448-.116-.708-.18S237.606,329,237.3,328.932Zm-6-1.135.062-.338.068.012a.819.819,0,0,0,.624-.068,1.012,1.012,0,0,0,.281-.629l.617-3.409a.641.641,0,0,0-.076-.544,1,1,0,0,0-.587-.244l-.041-.007.057-.331c.292.058.565.111.825.16s.5.094.723.133c.167.029.379.063.643.1l.919.139-.058.33-.051-.009a1.061,1.061,0,0,0-.668.031.751.751,0,0,0-.266.532l-.546,3.015a1.211,1.211,0,0,0,.08.908,1.325,1.325,0,0,0,.853.379,2.015,2.015,0,0,0,1.227-.1,1.531,1.531,0,0,0,.72-.844l.369.062-.341,1.653c-.446-.085-.9-.17-1.358-.253s-.918-.163-1.379-.243c-.319-.055-.663-.112-1.038-.173s-.774-.121-1.2-.185l-.115-.017-.115-.014-.113-.025Zm-3.89-.129,0-.332a1.2,1.2,0,0,0,.7-.151.913.913,0,0,0,.179-.657l.06-3.4a.819.819,0,0,0-.148-.605.966.966,0,0,0-.611-.151H227.5l.006-.343c.294.012.578.023.847.031s.519.016.757.02.509.005.777.005.544,0,.824,0l0,.342h-.1a.836.836,0,0,0-.594.156.769.769,0,0,0-.184.573l-.061,3.4a.846.846,0,0,0,.167.635,1.124,1.124,0,0,0,.684.2l0,.331-.949-.036c-.268-.009-.486-.013-.652-.015-.22-.005-.463-.008-.732-.008S227.721,327.664,227.408,327.668Zm-8.529.785-.043-.336a.783.783,0,0,0,.6-.323,1.807,1.807,0,0,0,.047-.975l-.437-3.482a.661.661,0,0,0-.325-.158,1.932,1.932,0,0,0-.513-.02l-.038-.305c.093,0,.2-.01.316-.02s.309-.03.567-.06c.2-.025.411-.052.617-.081s.418-.06.63-.094l2.265,3.651,1.187-4.064c.141-.009.282-.021.422-.033s.281-.026.42-.043c.242-.029.636-.086,1.187-.172l.155-.023.039.322a1.172,1.172,0,0,0-.69.252.885.885,0,0,0-.1.687l.428,3.395a.72.72,0,0,0,.257.547,1.326,1.326,0,0,0,.734.089l.042.329c-.3.025-.6.051-.881.079s-.556.058-.816.089c-.322.039-.588.072-.791.1s-.4.059-.6.092l-.042-.333a1.243,1.243,0,0,0,.632-.257c.1-.1.12-.321.076-.665l-.381-3.048-1.327,4.418-.424.052-2.477-4.075.35,2.775a1.756,1.756,0,0,0,.293.919.853.853,0,0,0,.69.192l.042.336c-.224.016-.43.033-.615.048s-.34.032-.467.048c-.248.03-.445.055-.6.076S219.023,328.428,218.879,328.453Zm-3.789,1.119c.3-.089.581-.168.841-.239s.492-.134.7-.191c.16-.043.37-.1.631-.16s.569-.136.922-.22l-.088-.319a1.131,1.131,0,0,1-.716-.01.865.865,0,0,1-.339-.565l-.9-3.288a.77.77,0,0,1,.012-.6.856.856,0,0,1,.528-.31l.1-.024-.088-.332c-.272.079-.538.154-.794.226s-.5.139-.748.2-.473.12-.735.183-.535.13-.822.2l.089.332.092-.023a.951.951,0,0,1,.632-.018c.125.063.227.245.312.541l.9,3.288a.883.883,0,0,1,.011.678,1.175,1.175,0,0,1-.632.335Zm-6.448,2.74-.141-.306a1.543,1.543,0,0,0,.514-.482,3.158,3.158,0,0,0,.372-.81l.568-1.764-2.173-1.13a3.766,3.766,0,0,0-.852-.349,1.03,1.03,0,0,0-.6.014l-.136-.3c.207-.075.429-.16.66-.254s.485-.2.772-.324c.2-.086.428-.188.674-.3s.521-.239.8-.373l.133.287a1.433,1.433,0,0,0-.427.266l-.064.24.1.142.161.111,1.341.7.343-1.1a1.707,1.707,0,0,0,.084-.383l-.032-.254a.271.271,0,0,0-.25-.166,1.385,1.385,0,0,0-.52.12l-.135-.3c.16-.053.327-.115.5-.183s.365-.15.58-.242c.112-.049.258-.116.442-.2s.389-.183.609-.291l.133.291q-.528.239-.908,1.477l-.041.134-.412,1.307,2.76,1.411a1.425,1.425,0,0,0,.516.167.985.985,0,0,0,.459-.083l.148.321-.8.325c-.234.1-.43.182-.595.253-.242.105-.5.217-.761.336s-.537.245-.815.375l-.147-.321.094-.041a1.567,1.567,0,0,0,.444-.257l.054-.241L212,330.01a1.492,1.492,0,0,0-.254-.156l-1.387-.708-.424,1.37-.054.3.035.223a.254.254,0,0,0,.252.14,1.475,1.475,0,0,0,.5-.115l.141.311c-.178.068-.383.149-.612.244s-.477.2-.758.322c-.22.1-.381.169-.5.222Zm-5.351.862-.43-2.087,1.8,1.151Zm-.336,2.876c.141-.1.283-.211.426-.315s.286-.2.429-.3.3-.2.456-.305.315-.2.478-.3l-.2-.281a1.1,1.1,0,0,1-.528.226.4.4,0,0,1-.355-.183,1.021,1.021,0,0,1-.12-.256,2.81,2.81,0,0,1-.1-.362l-.065-.356,1.675-1.141.409.262a3.641,3.641,0,0,1,.329.229l.195.189.023.285a1.937,1.937,0,0,1-.474.432l.2.282c.214-.156.426-.309.634-.458s.422-.294.634-.438.425-.289.645-.434.438-.285.658-.427l-.2-.281a1.085,1.085,0,0,1-.555.177,1.224,1.224,0,0,1-.594-.212l-4.465-2.738-.377.255,1,5.124a1.116,1.116,0,0,1-.021.594,1.026,1.026,0,0,1-.342.452ZM197.2,341.63l-.251-.236a.741.741,0,0,0,.259-.622,1.851,1.851,0,0,0-.589-.786l-2.591-2.438a.658.658,0,0,0-.353.074,1.777,1.777,0,0,0-.412.3l-.226-.214.233-.211c.085-.081.22-.211.4-.393.143-.146.288-.294.429-.441s.284-.3.429-.462l4.114,1.451-1.7-3.887.307-.284.3-.29c.172-.171.44-.458.813-.864l.106-.111.238.225a1.126,1.126,0,0,0-.374.619c-.009.16.113.359.364.6l2.524,2.375a.755.755,0,0,0,.553.27,1.289,1.289,0,0,0,.626-.383l.245.229c-.219.208-.432.409-.634.6s-.392.385-.574.567c-.227.229-.412.416-.552.565s-.274.292-.405.436l-.246-.233a1.212,1.212,0,0,0,.328-.589q.01-.2-.372-.563l-2.267-2.132,1.821,4.246-.3.3-4.556-1.648,2.064,1.945a1.833,1.833,0,0,0,.822.532.835.835,0,0,0,.66-.272l.25.236c-.162.149-.313.289-.447.414s-.244.234-.333.323c-.173.174-.31.317-.41.424Z" transform="translate(-163.8 -315.646)" fill="#b41616" fill-rule="evenodd"/><path d="M262.086,436.216l-.262-.28a1.938,1.938,0,0,0,.608-.783c.039-.187-.076-.424-.344-.714l-2.679-2.893c-.243-.262-.456-.385-.64-.368a1.555,1.555,0,0,0-.756.447l-.1.086-.272-.291c.32-.266.62-.52.9-.765s.553-.473.8-.691c.263-.23.533-.47.811-.72s.563-.507.853-.775l.271.293-.107.093a1.324,1.324,0,0,0-.492.686.786.786,0,0,0,.272.65l2.68,2.895a.905.905,0,0,0,.683.374,1.823,1.823,0,0,0,.873-.474l.262.283q-.584.492-1.011.856c-.286.243-.514.442-.69.6-.231.2-.485.427-.761.676s-.582.525-.905.82m-7.122,4.739c.195-.143.413-.294.657-.457s.617-.4,1.118-.72l.64-.4q1.381-.869,2.253-1.408t1.716-1.054l-1.091-1.631-.4.254a1.649,1.649,0,0,1,.011,1.332,3.34,3.34,0,0,1-1.253,1.171,2.139,2.139,0,0,1-1.067.412.831.831,0,0,1-.689-.425l-.961-1.44.136-.087a2.19,2.19,0,0,1,1.114-.419,1.345,1.345,0,0,1,.9.432l.428-.269c-.145-.181-.284-.359-.415-.538s-.258-.361-.384-.548c-.143-.214-.268-.408-.37-.582s-.2-.341-.28-.5l-.455.287a1.306,1.306,0,0,1,.055.969,1.945,1.945,0,0,1-.786.772l-.185.116-1.182-1.767-.048-.265a2.044,2.044,0,0,1,.484-.364,4.831,4.831,0,0,1,1.752-.813,1.5,1.5,0,0,1,1.117.417l.444-.28-.938-1.407q-1.014.676-1.952,1.283t-1.76,1.129c-.365.231-.731.456-1.105.678s-.753.45-1.144.673l.21.316.085-.055a1.392,1.392,0,0,1,.839-.288.96.96,0,0,1,.611.48l1.983,2.974q.456.679.375.993t-.683.7Zm-8.91,3.273-.144-.376a2.062,2.062,0,0,0,.931-.524.863.863,0,0,0-.015-.793l-1.394-3.721c-.113-.3-.268-.475-.46-.511a2.51,2.51,0,0,0-1.064.206l-.131-.356c.218-.071.446-.146.676-.224s.528-.183.9-.315q.375-.133,1.195-.439c.549-.2.974-.36,1.286-.47a6.741,6.741,0,0,1,2.656-.517,1.327,1.327,0,0,1,1.247.87,1.277,1.277,0,0,1-.151,1.192,3.224,3.224,0,0,1-1.3,1.045,3.314,3.314,0,0,1,1.243.428l.164.083,1.635.807a2.135,2.135,0,0,0,.691.229,1.6,1.6,0,0,0,.654-.034l.124.336c-.176.048-.4.119-.675.207s-.566.191-.884.3c-.157.056-.313.114-.469.173s-.307.121-.457.185l-2.724-1.391a3.326,3.326,0,0,0-.829-.336,1.023,1.023,0,0,0-.525.048l-.053.028-.061.029.58,1.546a.82.82,0,0,0,.475.561,1.71,1.71,0,0,0,.954-.14l.057-.021.143.378q-1.014.346-1.688.574c-.451.154-.785.27-1,.348-.4.142-.713.254-.94.339S246.259,444.146,246.055,444.228Zm1.915-4.256.161-.048.248-.087a2.62,2.62,0,0,0,1.283-.8,1.119,1.119,0,0,0,.094-1.1,1.221,1.221,0,0,0-.773-.818,2.31,2.31,0,0,0-1.409.151.958.958,0,0,0-.417.223c-.052.067-.05.174,0,.321Zm-10.184,5.664c.235-.051.5-.1.791-.156s.733-.124,1.325-.216l.754-.116q1.621-.25,2.645-.4c.678-.1,1.349-.194,2.01-.283L245,442.548l-.473.072a1.685,1.685,0,0,1-.548,1.22,3.433,3.433,0,0,1-1.636.575,2.171,2.171,0,0,1-1.148-.047.8.8,0,0,1-.449-.66l-.278-1.7.161-.026a2.207,2.207,0,0,1,1.193.056,1.308,1.308,0,0,1,.638.751l.5-.077c-.06-.223-.11-.441-.156-.656s-.085-.433-.12-.653c-.042-.252-.074-.478-.1-.679s-.038-.39-.045-.568l-.534.082a1.316,1.316,0,0,1-.357.906,1.975,1.975,0,0,1-1.04.393l-.22.034-.339-2.081c-.022-.131,0-.221.067-.262a1.937,1.937,0,0,1,.594-.143,4.942,4.942,0,0,1,1.94-.05,1.484,1.484,0,0,1,.847.824l.52-.081-.271-1.655c-.8.144-1.577.275-2.317.4s-1.437.237-2.08.336c-.429.066-.857.127-1.291.185s-.878.113-1.327.163l.06.368.1-.015a1.4,1.4,0,0,1,.888.066.917.917,0,0,1,.356.681l.571,3.5a.962.962,0,0,1-.992,1.422Zm-9.448-2.736.044-2.341a1.156,1.156,0,0,0-.224-.887,1.725,1.725,0,0,0-.965-.251l.008-.374q.573.024,1.121.04c.363.011.709.021,1.041.026.4.007.794.01,1.176.01s.763,0,1.137-.01l-.007.379a1.866,1.866,0,0,0-1.005.22,1.04,1.04,0,0,0-.267.814l-.042,2.491a2.041,2.041,0,0,0,.479,1.578,2.529,2.529,0,0,0,1.7.485,4.382,4.382,0,0,0,1.268-.143,1.9,1.9,0,0,0,.843-.457,1.492,1.492,0,0,0,.347-.612,4.339,4.339,0,0,0,.12-1.033l.038-2.206a1.059,1.059,0,0,0-.243-.818,1.6,1.6,0,0,0-.934-.294l.008-.352c.237.013.484.024.735.032s.514.016.777.021c.321.005.607.007.87.007s.486,0,.677-.008l-.007.372a1.577,1.577,0,0,0-.921.271,1.019,1.019,0,0,0-.267.782l-.04,2.2a4.4,4.4,0,0,1-.152,1.207,1.948,1.948,0,0,1-.447.765,2.793,2.793,0,0,1-1.255.7,6.5,6.5,0,0,1-1.893.215,7.388,7.388,0,0,1-1.778-.217,3.456,3.456,0,0,1-1.242-.6,1.677,1.677,0,0,1-.55-.775A3.784,3.784,0,0,1,228.337,442.9Zm-7.093-1.33,1.722-1.906.587,2.424Zm-3.281,1.808c.247.046.493.093.741.144s.489.1.727.157.5.114.761.176.516.13.779.2l.091-.383a1.869,1.869,0,0,1-.751-.3.409.409,0,0,1-.159-.444,1.017,1.017,0,0,1,.143-.292,2.949,2.949,0,0,1,.273-.356l.3-.316,2.813.633.133.552a3.145,3.145,0,0,1,.085.454,1.033,1.033,0,0,1,0,.31.3.3,0,0,1-.273.228,3.637,3.637,0,0,1-.907-.1l-.089.382c.368.072.732.147,1.09.223s.714.153,1.071.234.713.162,1.076.248.722.176,1.084.267l.091-.384a1.769,1.769,0,0,1-.726-.357,1.387,1.387,0,0,1-.362-.675l-1.564-5.917-.631-.142-4.279,4.626a1.43,1.43,0,0,1-.631.416,1.769,1.769,0,0,1-.8.033Zm-8.485-4.057.172-.366a2.079,2.079,0,0,0,1.039.289c.212-.034.406-.222.576-.559l1.785-3.563a.669.669,0,0,0,.056-.677,2.415,2.415,0,0,0-.89-.6l.172-.342c.207.1.418.212.634.318s.5.243.865.417c.236.111.624.287,1.154.529s.944.433,1.238.573a6.613,6.613,0,0,1,2.229,1.5,1.267,1.267,0,0,1,.222,1.478,1.336,1.336,0,0,1-.984.723,3.329,3.329,0,0,1-1.678-.186,3.129,3.129,0,0,1,.549,1.171l.052.17.536,1.7a2.13,2.13,0,0,0,.31.644,1.612,1.612,0,0,0,.48.434l-.159.32c-.162-.092-.372-.2-.623-.329s-.535-.263-.842-.408c-.149-.072-.3-.141-.451-.207s-.3-.129-.454-.192l-.866-2.873a3.1,3.1,0,0,0-.326-.813,1,1,0,0,0-.4-.333l-.057-.019-.063-.023-.741,1.482a.786.786,0,0,0-.083.721,1.632,1.632,0,0,0,.763.57l.058.026-.183.362q-.958-.471-1.6-.782c-.425-.207-.746-.36-.955-.46-.381-.18-.682-.321-.9-.421S209.677,439.4,209.477,439.32Zm4.475-1.62.15.079.236.115a2.7,2.7,0,0,0,1.483.344,1.378,1.378,0,0,0,.948-1.813,2.241,2.241,0,0,0-1.094-.881,1.024,1.024,0,0,0-.453-.138c-.083.012-.163.088-.232.228ZM202.308,434l.256-.33a1.808,1.808,0,0,0,.884.416.841.841,0,0,0,.623-.411l2.461-3.174a.736.736,0,0,0,.215-.669,1.908,1.908,0,0,0-.666-.7l.241-.31c.257.212.486.4.693.56s.387.3.549.419c.22.162.534.381.939.654s.7.477.873.606a6.748,6.748,0,0,1,1.892,1.868,1.2,1.2,0,0,1-.01,1.44,1.166,1.166,0,0,1-1.083.426,4.157,4.157,0,0,1-1.7-.629,5.121,5.121,0,0,1,1.393,1.728,1.293,1.293,0,0,1-.146,1.355,1.469,1.469,0,0,1-1.576.472,7,7,0,0,1-2.547-1.31c-.176-.129-.473-.358-.885-.681s-.745-.572-.989-.75c-.19-.137-.4-.286-.624-.444S202.606,434.2,202.308,434Zm4.542-.677.141.092.2.146a2.709,2.709,0,0,1,1.026,1.159,1.129,1.129,0,0,1-.246,1.1,1.41,1.41,0,0,1-.919.607,1.534,1.534,0,0,1-1.075-.363,1,1,0,0,1-.474-.648,1.277,1.277,0,0,1,.349-.812Zm.284-.366.116.091.115.088a2.327,2.327,0,0,0,1.252.556,1.169,1.169,0,0,0,.924-.542.933.933,0,0,0,.2-.895,2.032,2.032,0,0,0-.781-.911,1.434,1.434,0,0,0-.32-.2l-.165.07Z" transform="translate(-170.035 -387.281)" fill="#111" fill-rule="evenodd"/><path d="M261.36,435.144l-.258-.28a1.87,1.87,0,0,0,.6-.783c.04-.189-.072-.424-.34-.714l-2.684-2.893c-.243-.262-.458-.385-.64-.369a1.592,1.592,0,0,0-.758.446l-.1.087-.269-.293q.477-.4.9-.763c.285-.242.552-.474.8-.69.265-.23.534-.47.812-.721s.564-.507.854-.773l.268.292-.106.093a1.324,1.324,0,0,0-.49.686.8.8,0,0,0,.273.652l2.681,2.893a.9.9,0,0,0,.687.372,1.832,1.832,0,0,0,.872-.471l.261.282-1.013.855c-.285.243-.515.443-.69.6-.228.2-.487.427-.763.677s-.581.524-.905.819m-7.131,4.74c.195-.142.415-.3.66-.457s.619-.4,1.118-.72l.644-.405q1.38-.869,2.252-1.408t1.72-1.054l-1.091-1.631-.4.254a1.66,1.66,0,0,1,.009,1.33,3.3,3.3,0,0,1-1.256,1.17,2.119,2.119,0,0,1-1.07.413.827.827,0,0,1-.687-.424l-.963-1.441.139-.084a2.173,2.173,0,0,1,1.112-.422,1.368,1.368,0,0,1,.9.433l.427-.268c-.148-.182-.285-.361-.415-.538s-.262-.361-.385-.548c-.142-.213-.268-.407-.371-.581s-.2-.342-.278-.5l-.454.286a1.32,1.32,0,0,1,.051.97,1.94,1.94,0,0,1-.787.772l-.184.115-1.18-1.765-.051-.267a2.02,2.02,0,0,1,.482-.363,4.909,4.909,0,0,1,1.756-.814,1.524,1.524,0,0,1,1.118.418l.444-.28-.94-1.406q-1.014.674-1.953,1.281t-1.765,1.13c-.361.229-.731.456-1.1.679s-.754.449-1.147.673l.213.313.084-.053a1.385,1.385,0,0,1,.839-.289.945.945,0,0,1,.611.483l1.988,2.973c.3.453.426.784.373.993s-.278.441-.686.7Zm-8.915,3.272-.151-.377a2.054,2.054,0,0,0,.936-.523.86.86,0,0,0-.016-.793l-1.394-3.724c-.114-.3-.268-.471-.463-.509a2.529,2.529,0,0,0-1.064.206l-.132-.356q.331-.107.677-.223c.226-.079.53-.183.905-.318.251-.086.65-.234,1.2-.437s.977-.361,1.286-.47a6.779,6.779,0,0,1,2.657-.517,1.326,1.326,0,0,1,1.25.869,1.273,1.273,0,0,1-.149,1.193,3.22,3.22,0,0,1-1.3,1.044,3.37,3.37,0,0,1,1.248.43l.163.083,1.637.806a2.124,2.124,0,0,0,.69.23,1.659,1.659,0,0,0,.654-.033l.127.333c-.177.049-.4.12-.677.209s-.565.188-.887.3c-.158.056-.314.111-.469.172s-.3.121-.456.186l-2.729-1.392a3.407,3.407,0,0,0-.826-.336,1.019,1.019,0,0,0-.526.05l-.053.026-.061.028.58,1.548a.819.819,0,0,0,.478.559,1.685,1.685,0,0,0,.954-.14l.059-.02.138.378-1.687.573c-.449.154-.787.27-1.005.35-.4.14-.712.253-.94.338S245.514,443.073,245.313,443.156Zm1.914-4.257.161-.048.247-.086a2.64,2.64,0,0,0,1.288-.8,1.124,1.124,0,0,0,.092-1.1,1.224,1.224,0,0,0-.775-.82,2.338,2.338,0,0,0-1.411.154.962.962,0,0,0-.417.222.338.338,0,0,0,0,.319Zm-10.2,5.666c.236-.054.5-.1.793-.159s.733-.124,1.325-.215l.753-.115c1.082-.167,1.969-.3,2.65-.4s1.351-.193,2.012-.281l-.312-1.922-.477.072a1.672,1.672,0,0,1-.546,1.221,3.427,3.427,0,0,1-1.638.572,2.149,2.149,0,0,1-1.149-.046.8.8,0,0,1-.45-.659l-.275-1.7.159-.024a2.2,2.2,0,0,1,1.195.055,1.325,1.325,0,0,1,.64.752l.5-.077c-.055-.224-.106-.442-.154-.657s-.082-.434-.12-.653c-.04-.251-.073-.478-.093-.679s-.04-.389-.049-.567l-.533.081a1.324,1.324,0,0,1-.357.907,2,2,0,0,1-1.042.394l-.218.034-.341-2.082c-.02-.131,0-.219.067-.261a2.113,2.113,0,0,1,.6-.143,4.972,4.972,0,0,1,1.942-.049,1.471,1.471,0,0,1,.846.823l.523-.078-.27-1.655c-.807.143-1.579.275-2.32.4s-1.438.237-2.084.336q-.641.1-1.292.184t-1.329.163l.06.369.1-.015a1.406,1.406,0,0,1,.888.066.924.924,0,0,1,.354.682l.572,3.5a1.465,1.465,0,0,1-.071,1.058,1.509,1.509,0,0,1-.919.366Zm-9.458-2.738.041-2.339a1.175,1.175,0,0,0-.22-.889,1.758,1.758,0,0,0-.969-.25l.007-.374c.382.015.756.03,1.12.041s.713.019,1.044.025c.4.005.794.01,1.18.01s.763,0,1.137-.009l-.009.379a1.892,1.892,0,0,0-1.007.219,1.032,1.032,0,0,0-.263.816l-.046,2.491a2.05,2.05,0,0,0,.479,1.576,2.546,2.546,0,0,0,1.708.485,4.371,4.371,0,0,0,1.267-.144,1.907,1.907,0,0,0,.848-.455,1.49,1.49,0,0,0,.341-.612,3.927,3.927,0,0,0,.121-1.037l.037-2.2a1.059,1.059,0,0,0-.24-.82,1.608,1.608,0,0,0-.935-.293l.007-.354q.359.02.737.034c.255.008.514.016.778.021.321.005.61.008.87.008s.485,0,.68-.01l-.007.374a1.577,1.577,0,0,0-.923.271,1.019,1.019,0,0,0-.267.78l-.04,2.2a4.375,4.375,0,0,1-.156,1.208,1.922,1.922,0,0,1-.445.765,2.794,2.794,0,0,1-1.254.7,6.451,6.451,0,0,1-1.9.214,7.376,7.376,0,0,1-1.781-.216,3.442,3.442,0,0,1-1.245-.6,1.694,1.694,0,0,1-.55-.775A3.673,3.673,0,0,1,227.573,441.826Zm-7.1-1.331,1.725-1.9.585,2.422Zm-3.286,1.808c.247.047.5.093.743.145s.487.1.73.158.5.113.76.177.515.128.779.2l.092-.383a1.884,1.884,0,0,1-.753-.3.417.417,0,0,1-.158-.444.988.988,0,0,1,.144-.292,3.072,3.072,0,0,1,.273-.356l.3-.315,2.815.632.132.553a3.033,3.033,0,0,1,.087.456,1.013,1.013,0,0,1,0,.309.3.3,0,0,1-.271.228,3.6,3.6,0,0,1-.911-.1l-.087.382c.367.073.733.148,1.092.222s.714.154,1.071.234.715.162,1.08.248.722.176,1.085.267l.091-.382a1.8,1.8,0,0,1-.73-.36,1.382,1.382,0,0,1-.362-.672l-1.566-5.919-.632-.143-4.283,4.627a1.415,1.415,0,0,1-.632.415,1.807,1.807,0,0,1-.8.033Zm-8.5-4.056.176-.364a2.068,2.068,0,0,0,1.035.288c.216-.034.407-.221.578-.559l1.791-3.564a.669.669,0,0,0,.055-.675,2.477,2.477,0,0,0-.892-.6l.17-.34c.208.107.419.211.637.318s.5.243.865.415c.238.112.626.291,1.155.531s.945.432,1.241.573a6.684,6.684,0,0,1,2.234,1.5,1.272,1.272,0,0,1,.221,1.478,1.343,1.343,0,0,1-.988.723,3.342,3.342,0,0,1-1.678-.185,3.1,3.1,0,0,1,.547,1.17l.053.171.54,1.7a2.022,2.022,0,0,0,.308.644,1.575,1.575,0,0,0,.48.433l-.158.321c-.161-.09-.368-.2-.625-.328s-.535-.262-.842-.409c-.149-.071-.3-.14-.451-.206s-.3-.13-.455-.192l-.865-2.872a3.12,3.12,0,0,0-.328-.813.982.982,0,0,0-.4-.334l-.057-.017-.064-.023-.741,1.48a.8.8,0,0,0-.086.724,1.669,1.669,0,0,0,.766.568l.058.025-.183.364q-.96-.471-1.6-.782c-.429-.209-.748-.361-.958-.462q-.573-.269-.907-.421C209.1,438.422,208.89,438.331,208.689,438.247Zm4.48-1.618.149.078.236.115a2.718,2.718,0,0,0,1.484.344,1.378,1.378,0,0,0,.949-1.813,2.235,2.235,0,0,0-1.1-.881.968.968,0,0,0-.453-.138c-.083.012-.163.088-.233.226Zm-11.656-3.7.256-.329a1.8,1.8,0,0,0,.883.415.841.841,0,0,0,.626-.411l2.464-3.174c.205-.268.278-.491.213-.669a1.89,1.89,0,0,0-.666-.7l.238-.311c.258.212.49.4.7.56s.387.3.548.419c.22.162.535.381.941.655s.7.476.877.6a6.832,6.832,0,0,1,1.894,1.867,1.208,1.208,0,0,1-.011,1.44,1.165,1.165,0,0,1-1.084.425,4.148,4.148,0,0,1-1.7-.627,5.075,5.075,0,0,1,1.392,1.726,1.285,1.285,0,0,1-.145,1.356,1.467,1.467,0,0,1-1.576.474,7.015,7.015,0,0,1-2.552-1.311q-.264-.193-.888-.679c-.415-.323-.742-.573-.986-.751q-.284-.209-.625-.445C202.073,433.3,201.808,433.122,201.513,432.924Zm4.544-.679.141.095.2.143a2.76,2.76,0,0,1,1.026,1.16,1.135,1.135,0,0,1-.247,1.105,1.416,1.416,0,0,1-.921.607,1.527,1.527,0,0,1-1.074-.363.984.984,0,0,1-.474-.65,1.263,1.263,0,0,1,.349-.811Zm.285-.365.117.092.113.089a2.343,2.343,0,0,0,1.255.554,1.164,1.164,0,0,0,.923-.54.933.933,0,0,0,.2-.9,1.992,1.992,0,0,0-.78-.911,1.5,1.5,0,0,0-.32-.2l-.163.07Z" transform="translate(-169.5 -386.561)" fill="#b41616" fill-rule="evenodd"/></svg>