<svg xmlns="http://www.w3.org/2000/svg" width="83.438" height="75.88" viewBox="0 0 83.438 75.88"><g transform="translate(0 0)"><g transform="translate(7.072 70.876)"><path d="M182.6,556.121a2.311,2.311,0,0,1-.778-1.837,2.258,2.258,0,0,1,.787-1.827,2.8,2.8,0,0,1,1.846-.665,3.22,3.22,0,0,1,1.405.291v1.386a2.987,2.987,0,0,0-1.143-.243,1.087,1.087,0,1,0-.01,2.146,2.567,2.567,0,0,0,1.218-.281v1.378a3.464,3.464,0,0,1-1.49.328A2.73,2.73,0,0,1,182.6,556.121Z" transform="translate(-181.82 -551.792)" fill="#008bd0"/><path d="M197.688,556.121a2.325,2.325,0,0,1-.769-1.827,2.484,2.484,0,0,1,.694-1.781,2.419,2.419,0,0,1,1.827-.721,2.118,2.118,0,0,1,1.649.7,2.512,2.512,0,0,1,.647,1.789v.412H198.55c.141.5.7.74,1.387.74a3.175,3.175,0,0,0,1.528-.412V556.3a3.158,3.158,0,0,1-1.893.5A2.765,2.765,0,0,1,197.688,556.121Zm2.427-2.305a.772.772,0,0,0-.749-.806.833.833,0,0,0-.825.806Z" transform="translate(-191.963 -551.792)" fill="#008bd0"/><path d="M214.909,556.923v-3.43h-1.377v-1.331h4.423v1.331h-1.387v3.43Z" transform="translate(-203.124 -552.041)" fill="#008bd0"/><path d="M229.744,556.923v-4.76H231.4v1.3h.881a2.258,2.258,0,0,1,1.48.468,1.547,1.547,0,0,1,.562,1.256,1.655,1.655,0,0,1-.515,1.237,1.984,1.984,0,0,1-1.443.5ZM231.4,555.7h.619c.4,0,.647-.2.647-.534s-.244-.544-.647-.544H231.4Z" transform="translate(-214.015 -552.041)" fill="#008bd0"/><path d="M254.17,556.355a1.478,1.478,0,0,1-.478-1.143,1.642,1.642,0,0,1,1.855-1.536,2.752,2.752,0,0,1,1.209.244v-.066a.612.612,0,0,0-.394-.647,1.9,1.9,0,0,0-.712-.112,2.82,2.82,0,0,0-1.387.347v-1.3a4.175,4.175,0,0,1,1.789-.347,2.619,2.619,0,0,1,1.7.525,1.691,1.691,0,0,1,.647,1.4v1.443q0,.253.281.253a.562.562,0,0,0,.271-.056v1.181a1.345,1.345,0,0,1-.843.244,1.239,1.239,0,0,1-1.162-.544,2.081,2.081,0,0,1-1.518.562A1.8,1.8,0,0,1,254.17,556.355Zm2.586-1.087v-.5a1.125,1.125,0,0,0-.694-.207c-.412,0-.74.225-.74.572s.29.543.665.543A.864.864,0,0,0,256.756,555.268Z" transform="translate(-230.103 -551.792)" fill="#008bd0"/><path d="M273.015,556.923v-4.76h2.792c1.012,0,1.565.553,1.565,1.237a1.092,1.092,0,0,1-.553.984,1.261,1.261,0,0,1,.871,1.228c0,.815-.656,1.312-1.808,1.312Zm1.63-2.886h.619a.413.413,0,1,0,0-.815h-.619Zm0,1.8h.825a.451.451,0,1,0,0-.89h-.825Z" transform="translate(-243.084 -552.041)" fill="#008bd0"/><path d="M290.119,556.923v-3.43h-1.377v-1.331h4.423v1.331h-1.387v3.43Z" transform="translate(-253.649 -552.041)" fill="#008bd0"/><path d="M306.72,556.8a2.678,2.678,0,0,1-1.921-.712,2.479,2.479,0,0,1,0-3.57,2.919,2.919,0,0,1,3.842,0,2.479,2.479,0,0,1,0,3.57A2.678,2.678,0,0,1,306.72,556.8Zm0-3.589a1.045,1.045,0,0,0-1.05,1.087,1.05,1.05,0,1,0,1.05-1.087Z" transform="translate(-263.926 -551.792)" fill="#008bd0"/><path d="M323.649,556.923v-4.76h1.64l1.134,1.565,1.134-1.565h1.64v4.76h-1.565v-2.549l-.881,1.218h-.656l-.881-1.218v2.549Z" transform="translate(-277.099 -552.041)" fill="#008bd0"/><path d="M346.509,556.8a2.677,2.677,0,0,1-1.921-.712,2.478,2.478,0,0,1,0-3.57,2.918,2.918,0,0,1,3.842,0,2.479,2.479,0,0,1,0,3.57A2.678,2.678,0,0,1,346.509,556.8Zm0-3.589a1.045,1.045,0,0,0-1.05,1.087,1.05,1.05,0,1,0,1.05-1.087Z" transform="translate(-290.655 -551.792)" fill="#008bd0"/><path d="M363.294,556.121a2.324,2.324,0,0,1-.769-1.827,2.484,2.484,0,0,1,.694-1.781,2.42,2.42,0,0,1,1.827-.721,2.119,2.119,0,0,1,1.65.7,2.513,2.513,0,0,1,.646,1.789v.412h-3.186c.141.5.7.74,1.387.74a3.174,3.174,0,0,0,1.528-.412V556.3a3.158,3.158,0,0,1-1.893.5A2.764,2.764,0,0,1,363.294,556.121Zm2.427-2.305a.772.772,0,0,0-.749-.806.833.833,0,0,0-.825.806Z" transform="translate(-303.215 -551.792)" fill="#008bd0"/><path d="M380.593,556.923v-4.76h1.659v1.687l1.415-1.687h1.958l-1.883,2.137,2.192,2.623h-2.071l-1.612-1.968v1.968Z" transform="translate(-315.353 -552.041)" fill="#008bd0"/></g><g transform="translate(0 0)"><path d="M182.459,374.694c1.108-.44,2.529-1.011,3.5-1.36a.641.641,0,0,0,.381-.84,28.947,28.947,0,0,1-.858-18.715,1.929,1.929,0,0,0-1.063-2.319c-2.394-1.061-4.322-1.92-5.741-2.523a.635.635,0,0,0-.77.22,44.327,44.327,0,0,0-5.932,12.817,22.743,22.743,0,0,1-2.263-9.823.638.638,0,0,0-.64-.615h-5.149a1.93,1.93,0,0,0-1.774,1.182c-4.251,10.008-.422,19.115,2.978,22.78a1.894,1.894,0,0,0,2.058.478c.953-.359,2.266-.851,3.077-1.175a.639.639,0,0,0,.3-.942,15.948,15.948,0,0,1-2.805-8.85c0-.16.006-.314.016-.461a54.616,54.616,0,0,0,4,4.318.64.64,0,0,0,.521.155c.456-.065.891-.166,1.249-.248a.631.631,0,0,0,.425-.33,29.94,29.94,0,0,1,2.417-4.814,25.3,25.3,0,0,0,3.764,10.314A1.9,1.9,0,0,0,182.459,374.694Z" transform="translate(-160.272 -344.607)" fill="#0d1a2c"/><path d="M366.758,354.127a1.916,1.916,0,0,0-1.725-1.2c-1.533-.045-2.775-.024-3.426,0a.639.639,0,0,0-.6.489,28.9,28.9,0,0,1-5.82,11.253,30.354,30.354,0,0,0-.882-12.279,1.909,1.909,0,0,0-2.608-1.2c-1.6.713-3.7,1.64-4.809,2.121a.632.632,0,0,0-.351.781,29.429,29.429,0,0,1-.511,19.857.641.641,0,0,0,.375.834c.759.276,1.515.567,2.317.871a4.034,4.034,0,0,0,3.832-.528,43.831,43.831,0,0,0,8.728-8.794,19.338,19.338,0,0,1-2.266,7.944.638.638,0,0,0,.335.9c1.047.395,2.147.8,3.2,1.182a1.9,1.9,0,0,0,2.163-.622C369.538,369.378,369.126,360.068,366.758,354.127Z" transform="translate(-285.03 -346.041)" fill="#0d1a2c"/><path d="M375.544,345.457a41.4,41.4,0,0,0,3.985-8.175,8.539,8.539,0,0,0-5.769-1.379.92.92,0,0,0-.706,1.333A37.7,37.7,0,0,1,375.544,345.457Z" transform="translate(-303.154 -335.846)" fill="#0d1a2c"/><path d="M261.736,372.653v0h.192v0a15.239,15.239,0,0,0,15.1-15.25,15.286,15.286,0,0,0-15.173-15.264h-.053a15.265,15.265,0,0,0-10.669,26.091A15.078,15.078,0,0,0,261.736,372.653Zm9.2-12.461c-.018.072-.034.134-.046.175-.567,1.961-1.535,4.619-5.178,5.685a.608.608,0,0,1-.7-.889c1.051-1.783,2.856-4.834,3.146-5.195.244-.3.469-.326.952-.416.26-.048.717-.107,1.132-.155A.64.64,0,0,1,270.939,360.191ZM253.383,353.5c.119-.271.221-.483.269-.575a8.074,8.074,0,0,1,1.925-2.394,9.982,9.982,0,0,1,5.9-2.343h.74a9.98,9.98,0,0,1,5.9,2.343,8.076,8.076,0,0,1,1.925,2.394c.048.092.149.3.268.575a1.05,1.05,0,0,1-1.3,1.417,22.55,22.55,0,0,0-7.114-1.154h-.1a22.55,22.55,0,0,0-7.115,1.154A1.05,1.05,0,0,1,253.383,353.5Zm.065,5.9c.416.049.872.107,1.133.155.483.09.708.112.952.416.289.361,2.095,3.412,3.145,5.195a.608.608,0,0,1-.7.889c-3.643-1.066-4.61-3.724-5.178-5.685-.012-.041-.028-.1-.046-.175A.64.64,0,0,1,253.448,359.4Z" transform="translate(-218.288 -340.072)" fill="#0d1a2c"/><g transform="translate(7.072 36.611)"><path d="M230.275,447.393a6.576,6.576,0,1,0,6.576,6.576A6.576,6.576,0,0,0,230.275,447.393Zm0,9.229a2.653,2.653,0,1,1,2.653-2.653A2.653,2.653,0,0,1,230.275,456.622Z" transform="translate(-209.954 -447.393)" fill="#0d1a2c"/><rect width="3.838" height="12.669" rx="1.919" transform="translate(54.197 0.242)" fill="#0d1a2c"/><path d="M318.945,451.706h-1.137a.448.448,0,0,1-.448-.448v-2.169a.96.96,0,0,0-.96-.96h-1.692a.96.96,0,0,0-.96.96v10.749a.96.96,0,0,0,.96.96h4.346a4.546,4.546,0,0,0,4.543-4.712A4.617,4.617,0,0,0,318.945,451.706Zm0,6.055h-1.511a.513.513,0,0,1-.513-.513v-1.979a.513.513,0,0,1,.513-.513h1.574a1.5,1.5,0,0,1,1.5,1.549A1.545,1.545,0,0,1,318.944,457.76Z" transform="translate(-270.447 -447.887)" fill="#0d1a2c"/><path d="M279.612,457.38h0a.448.448,0,0,1-.448-.448v-7.97a.833.833,0,0,0-.833-.833l-3.005.008h-.9a5,5,0,0,0-5,4.989l-.01,3.806a.448.448,0,0,1-.448.448.833.833,0,0,0-.833.833v3.576a.833.833,0,0,0,.833.833h.709a.96.96,0,0,0,.766-.382l.9-1.188a.64.64,0,0,1,.511-.254h4.883a.64.64,0,0,1,.511.254l.9,1.188a.96.96,0,0,0,.766.382h.707a.835.835,0,0,0,.835-.835v-3.572A.835.835,0,0,0,279.612,457.38Zm-3.834-.448a.448.448,0,0,1-.448.448h-1.946a.448.448,0,0,1-.448-.448V453.44c0-1.524,1.5-2.07,2.842-1.88v5.372Z" transform="translate(-239.804 -447.887)" fill="#0d1a2c"/><path d="M193.3,457.38a.448.448,0,0,1-.448-.448v-7.97a.833.833,0,0,0-.833-.833l-3,.008h-.9a5,5,0,0,0-5,4.989l-.011,3.806a.448.448,0,0,1-.448.448.833.833,0,0,0-.833.833v3.576a.833.833,0,0,0,.833.833h.709a.96.96,0,0,0,.766-.382l.9-1.188a.641.641,0,0,1,.511-.254h4.883a.641.641,0,0,1,.511.254l.9,1.188a.96.96,0,0,0,.766.382h.707a.835.835,0,0,0,.835-.835v-3.572A.835.835,0,0,0,193.3,457.38Zm-3.834-5.368v4.92a.448.448,0,0,1-.448.448H187.07a.448.448,0,0,1-.448-.448V453.44c0-1.524,1.5-2.07,2.842-1.88Z" transform="translate(-181.82 -447.887)" fill="#0d1a2c"/><path d="M373.38,448.129h-4.346a.96.96,0,0,0-.96.96v10.749a.96.96,0,0,0,.96.96h1.692a.96.96,0,0,0,.96-.96v-2.169a.448.448,0,0,1,.448-.448h1.137a4.617,4.617,0,0,0,4.652-4.38A4.546,4.546,0,0,0,373.38,448.129Zm-.047,6.044H371.76a.513.513,0,0,1-.513-.513V451.68a.514.514,0,0,1,.513-.514h1.511a1.545,1.545,0,0,1,1.566,1.457A1.5,1.5,0,0,1,373.333,454.173Z" transform="translate(-306.943 -447.887)" fill="#0d1a2c"/></g></g><path d="M252.066,520.344a6.407,6.407,0,0,0-9.426,0,3.749,3.749,0,0,1-5.651,0,6.407,6.407,0,0,0-9.426,0,3.749,3.749,0,0,1-5.651,0,6.407,6.407,0,0,0-9.426,0,3.749,3.749,0,0,1-5.651,0,6.406,6.406,0,0,0-9.425,0,3.749,3.749,0,0,1-5.651,0,6.407,6.407,0,0,0-9.426,0,1.334,1.334,0,0,0,1.887,1.887,3.749,3.749,0,0,1,5.651,0,6.408,6.408,0,0,0,9.425,0,3.748,3.748,0,0,1,5.651,0,6.408,6.408,0,0,0,9.426,0,3.749,3.749,0,0,1,5.651,0,6.408,6.408,0,0,0,9.425,0,3.749,3.749,0,0,1,5.651,0,6.407,6.407,0,0,0,9.425,0,3.749,3.749,0,0,1,5.651,0,1.334,1.334,0,0,0,1.887-1.887Z" transform="translate(-174.831 -458.401)" fill="#008dd1"/></g></svg>