<?xml version="1.0" encoding="utf-8"?>
<!-- Generator: Adobe Illustrator 23.0.0, SVG Export Plug-In . SVG Version: 6.00 Build 0)  -->
<svg version="1.1" id="Layer_1" xmlns="http://www.w3.org/2000/svg" xmlns:xlink="http://www.w3.org/1999/xlink" x="0px" y="0px"
	 viewBox="0 0 329.35 234.67" style="enable-background:new 0 0 329.35 234.67;" xml:space="preserve">
<style type="text/css">
	.st0{fill:#FFFFFF;}
	.st1{fill:#696969;}
	.st2{fill:#0B161B;}
	.st3{fill:#D56F34;}
	.st4{fill:#236862;}
	.st5{fill:#194943;}
	.st6{fill:#D61C23;}
	.st7{opacity:0.3;fill:#AF2F17;}
	.st8{opacity:0.3;fill:#F1B958;}
	.st9{fill:#94959A;}
	.st10{fill:#CCCECF;}
</style>
<g>
	<g>
		<path class="st0" d="M175.75,226.81c-3.87,0-7.77-0.07-11.6-0.22c-5.76-0.22-11.77-0.46-17.88-0.74
			c-8.48-0.39-15.97-0.82-22.89-1.3c-41.61-2.98-68.42-8.42-72.47-25.89c-14.18-4.13-25.94-11.97-27.28-12.89L0,169.65l25.16-6.56
			c-6.32-15.53,1.64-28.06,6.89-32.63l7.88-6.84l8.39,6.21c6.04,4.48,12.9,7.59,20.88,9.47v-9.26c-9.17-1.76-23.08-7.97-30.1-28.83
			c-4.03-11.96-3.53-21.93,1.49-29.64c3.29-5.06,7.89-8.01,11.79-9.71c-1.08-7.16-0.94-16.39,4.32-23.81
			c4.11-5.82,10.39-9.33,18.68-10.45c2.12-6.72,8.56-20.61,25.54-20.61c4.68,0,9.81,1.15,15.27,3.41
			c3.93-1.94,10.56-4.54,17.81-4.54c10.92,0,24.94,5.38,30.41,30.71c7.72,2.7,22.19,10.05,24.79,27.73
			c1.03,7.04-0.23,14.01-3.75,20.79h103.3l-28.56,28.6v19.11l-7.83,7.84c9.44-1.29,19.52-4.06,28.7-10.86l8.77-6.5l7.92,7.52
			c4.89,4.64,12.24,17.16,6.41,32.23l25.21,6.58l-23.63,16.1c-0.54,0.37-13.04,8.82-27.81,13.04c-1.94,6.83-8.75,13.98-36.26,20.67
			C222.09,224.19,198.69,226.81,175.75,226.81L175.75,226.81z"/>
		<path class="st1" d="M175.75,223.81c-3.83,0-7.7-0.07-11.49-0.22c-5.75-0.22-11.76-0.46-17.86-0.74
			c-8.46-0.39-15.92-0.82-22.82-1.3c-41.54-2.97-67.9-8.31-70.07-25.28c-14.48-3.82-26.75-11.98-28.21-12.98L7.14,170.89l20.49-5.35
			c0.26-0.47,0.59-1.29,0.86-2.3c-6.64-14.51,0.58-26.23,5.52-30.52l6.06-5.26l6.45,4.78c8.88,6.57,18.19,9.38,25.66,10.75v-15.52
			c-8.75-1.04-23.15-6.1-30.26-27.22c-3.72-11.04-3.33-20.14,1.16-27.04c3.49-5.36,8.69-8.08,12.66-9.44
			c-1.22-6.13-2.05-16.3,3.39-23.98c3.92-5.55,10.16-8.71,18.57-9.42c2.19-8.75,8.78-20.37,23.2-20.37c4.65,0,9.81,1.25,15.39,3.72
			c3.52-1.87,10.27-4.85,17.7-4.85c10.17,0,23.03,5.31,27.82,30.02c6.93,2.11,21.88,8.62,24.41,25.86
			c1.36,9.27-1.91,17.26-6.08,23.35H281.5l-24.32,24.36v19.11l-12.89,12.9c11.39-0.8,25.64-2.71,38.54-12.26l6.75-5l6.09,5.78
			c4.66,4.43,11.41,16.3,5.03,30.52c0.29,0.91,0.62,1.59,0.85,1.95l20.67,5.39l-18.17,12.39c-0.59,0.4-13.63,9.22-28.65,13.1
			c-1.04,6.09-5.96,13.25-34.44,20.18C221.6,221.22,198.46,223.81,175.75,223.81L175.75,223.81z"/>
		<g>
			<path class="st2" d="M269.44,93.1h-29.42h-17.31h-19.1v6.24l-6.2-6.24h-24.24l-6.19,6.23V93.1H143.5h-0.22H119.8v6.24l-6.2-6.24
				h-6.96H89.36H59.91l17.28,17.3v17.67l3.58,3.65h-3.58v20.07l12.18,12.16h24.21l6.21-6.21v6.21h23.48h0.22h23.48v-6.2l6.2,6.2
				h24.22l6.21-6.21v6.21h23.48v-22.28h12.92l12.16-12.18v-19.11L269.44,93.1z"/>
		</g>
		<path class="st2" d="M175.75,218.81c-3.77,0-7.57-0.07-11.29-0.22c-5.73-0.22-11.73-0.46-17.82-0.74
			c-8.41-0.39-15.83-0.81-22.69-1.29c-46.21-3.31-65.2-9.74-65.56-22.22c-0.02-0.7,0-1.39,0.06-2.07
			c-15.41-3.06-29.65-12.66-30.32-13.12l-9.09-6.19l10.64-2.78c2.21-0.58,3.59-4.71,4.06-7.58c-6.53-12.45-0.65-22.44,3.55-26.09
			l3.03-2.63l3.22,2.39c15.86,11.75,33.12,12.78,45.72,13.52c9.49,0.56,17.04,1.01,19.35,7.12l0.09-0.02
			c0.18,0.46,1.35,3.59,1.11,8.17c15.35,1.73,33.77,2.61,54.84,2.61c21.76,0,40.2-0.75,54.92-2.23c-0.25-4.2,0.68-7.22,1.01-8.14
			c2.09-6.52,9.78-6.98,19.5-7.56c12.6-0.75,29.86-1.77,45.72-13.52l3.37-2.5l3.04,2.89c4.02,3.81,9.58,14.05,3.17,26.37
			c0.53,2.65,1.93,6.55,4.27,7.16l10.64,2.78l-9.09,6.19c-0.68,0.47-15.08,10.18-30.6,13.18c0.07,0.99,0.03,2.06-0.16,3.19
			c-0.38,2.25-1.55,9.08-30.7,16.17C220.8,216.27,198.07,218.81,175.75,218.81C175.75,218.81,175.75,218.81,175.75,218.81z"/>
		<path class="st2" d="M108.71,156.89c0.17,0.41,1.15,3.09,1.14,7.06H89.37l-12.18-12.16v-3c4.32,0.53,8.4,0.77,12.08,0.99
			c9.5,0.57,17.05,1.01,19.35,7.13L108.71,156.89z"/>
		<path class="st2" d="M227.09,151.41v12.54h-7.56c0.01-3.42,0.76-5.85,1.05-6.65C221.59,154.17,223.89,152.44,227.09,151.41z"/>
		<path class="st2" d="M298.4,174.98c-7.22-1.88-8.21-12.94-8.21-12.94c7.8-13.04-1.42-21.79-1.42-21.79
			c-28.25,20.93-60.92,10.24-63.46,18.68c0,0-1.85,4.65,0.11,10.91c-14.38,1.73-34.24,2.85-60.78,2.85
			c-26.06,0-46.02-1.36-60.63-3.28c1.83-6.13,0.04-10.65,0.04-10.65c0,0.06-0.03,0.12-0.03,0.18c-2.62-8.38-35.24,2.25-63.45-18.64
			c0,0-9.48,8.24-1.68,21.28c0,0-0.72,11.58-7.94,13.46c0,0,17.55,11.96,33.94,13.1c-0.91,1.67-1.58,3.58-1.51,6.08
			c0.3,10.64,28.96,15.09,60.91,17.37c7.45,0.52,15.09,0.94,22.57,1.29c6.07,0.28,12.06,0.52,17.78,0.74
			c53.98,2.08,99.62-11.58,100.88-18.95c0.43-2.51-0.31-4.59-1.38-6.54C280.63,187.09,298.4,174.98,298.4,174.98z"/>
		<g id="ribbon_3_">
			<g>
				<path class="st3" d="M104.04,158.95c-2.54-8.44-35.21,2.25-63.46-18.68c0,0-9.48,8.24-1.68,21.28c0,0-0.72,11.58-7.94,13.46
					c0,0,23.7,16.17,41.75,12.71c18.05-3.45,23.7,3.77,23.7,3.77l7.17-24.96L104.04,158.95z"/>
				<path class="st4" d="M104.04,158.95c-2.54-8.44-35.21,2.25-63.46-18.68c0,0-9.48,8.24-1.68,21.28c0,0-0.72,11.58-7.94,13.46
					c0,0,23.7,16.17,41.75,12.71c18.05-3.45,23.7,3.77,23.7,3.77l7.17-24.96L104.04,158.95z"/>
				<path class="st5" d="M72.06,158.74c1.61-1.17,8.67-2.9,15.39,0.5c8.5,4.3,16.61,2.21,16.61-0.5c0,0,3.01,7.49-2.64,16.27
					s-30.24-14.17-30.24-14.17L72.06,158.74z"/>
				<path class="st3" d="M225.31,158.92c2.54-8.44,35.21,2.25,63.46-18.68c0,0,9.22,8.75,1.42,21.79c0,0,0.99,11.06,8.21,12.94
					c0,0-23.7,16.17-41.75,12.71c-18.05-3.45-23.7,3.77-23.7,3.77l-7.17-24.96L225.31,158.92z"/>
				<path class="st4" d="M225.31,158.92c2.54-8.44,35.21,2.25,63.46-18.68c0,0,9.22,8.75,1.42,21.79c0,0,0.99,11.06,8.21,12.94
					c0,0-23.7,16.17-41.75,12.71c-18.05-3.45-23.7,3.77-23.7,3.77l-7.17-24.96L225.31,158.92z"/>
				<path class="st5" d="M257.31,158.92c-0.53-1.72-8.67-2.9-15.39,0.5c-8.5,4.3-16.61,2.21-16.61-0.5c0,0-3.01,7.49,2.64,16.27
					c5.65,8.79,30.24-14.17,30.24-14.17L257.31,158.92z"/>
				<path class="st6" d="M265.53,194.64c-1.26,7.37-46.89,21.03-100.88,18.95c-5.72-0.22-11.71-0.46-17.78-0.74
					c-7.49-0.34-15.12-0.76-22.57-1.29c-31.95-2.29-60.61-6.73-60.91-17.37c-0.23-8.03,7.16-10.05,5.86-17.17
					c-2.98-16.33,2.52-18.19,2.8-18.27c-2.85,4.34,23.36,13.91,92.6,13.91c69.28,0,93.1-7.6,92.6-13.92c0,0.01,0.01,0.01,0.01,0.02
					c0.24,0.48,4.87,9.95,2.83,17.3C257.99,183.6,266.78,187.26,265.53,194.64z"/>
			</g>
			<path class="st7" d="M265.53,194.64c-1.26,7.37-46.89,21.03-100.88,18.95c-5.72-0.22-11.71-0.46-17.78-0.74
				c38.69,0.02,78.89-8.68,88.81-13.6c11.97-5.93-3.9-10.58,7.55-15.81c13.66-6.25,17.01-15.42,14.03-24.67
				c0.24,0.48,4.87,9.95,2.83,17.3C257.99,183.6,266.78,187.26,265.53,194.64z"/>
			<path class="st8" d="M164.38,174.28c0,0-53.03,1-85.62-8.39c-5.87-2.33-8.62-3.81-8.86-0.79c-0.24,3.02,2.36,8.93,1.28,14.4
				s-5.11,9.46-4.99,12.82c0,0,1.94-3.02,6.53-3.11c4.59-0.09,9.28-2.4,7.01-5.63s8.38-6.24,13.66-3.89
				C98.65,182.02,141.83,179.01,164.38,174.28z"/>
			<g>
				<path class="st2" d="M108.71,156.89l-0.09,0.02c-2.3-6.12-9.85-6.56-19.35-7.13c-3.68-0.22-7.76-0.46-12.08-0.99v3l12.18,12.16
					h20.48C109.86,159.98,108.88,157.3,108.71,156.89z"/>
			</g>
		</g>
		<g>
			<path class="st2" d="M80.57,122.34c0,0-24.16,5.23-33.9-23.69s15.19-31.23,15.19-31.23S50.39,34.94,81.9,35.2
				c0,0,3.15-31.51,34.63-15.85c0,0,33.79-22.5,40.9,23.57c0,0,21.08,3.75,23.83,22.55s-17.32,31.88-17.32,31.88
				s2.41-13.43-1.3-20.53c0,0-17.77,29.48-35.43,24.52c0,0-16.74,10.58-37.93-4.52c0,0,0.87,7.18-11.34,9.45
				C65.74,108.53,80.57,122.34,80.57,122.34z"/>
			<path class="st0" d="M71.18,117.98c-0.17-0.08-1.97-0.93-4.37-2.61c-6.2-4.32-16.45-14.14-13.38-30.32c0,0,5.2-9.17,15.75,5.21
				C69.18,90.26,60.88,100.91,71.18,117.98z"/>
			<path class="st0" d="M82.61,57.22c-0.74,0.45-1.4,0.93-1.99,1.45c-8.14,7.09-2.56,19.47-2.35,19.93
				c-0.75-0.45-1.47-0.9-2.14-1.35c-19.6-13.19-7.38-28.27-7.38-28.27c5.13-3.7,8.94-0.42,11.26,3.04
				C81.72,54.57,82.61,57.22,82.61,57.22z"/>
			<path class="st0" d="M99.01,64.88c-1.05-1.04-2.02-2.06-2.9-3.06C78.27,41.58,94.4,29.66,94.4,29.66
				c1.38-0.54,2.61-0.81,3.72-0.84c8.58-0.3,9.69,12.69,9.69,12.69C94.81,47.53,99.01,64.88,99.01,64.88z"/>
			<path class="st0" d="M137.16,38.22c-17.02,1.26-14.43,19.04-14.43,19.04c-0.74-0.91-1.41-1.8-2.01-2.68
				c-13.48-19.51,4.75-30.04,4.75-30.04C138.74,22.09,137.16,38.22,137.16,38.22z"/>
			<path class="st0" d="M171.28,85.32c-0.8,1.27-1.71,2.53-2.72,3.78c0.19-0.69,4.37-16.17-12.34-25.14c0,0,2.08-15.73,12.11-11.92
				C177.54,55.53,180.54,70.85,171.28,85.32z"/>
			<path class="st4" d="M115.28,21.84c0,0-23.93-8.74-26.93,16.08c0,0,8.2-17.96,23.37-4.41C111.72,33.51,112.46,25.26,115.28,21.84
				z"/>
			<path class="st4" d="M131.16,21.3c0,0,14.39-2.26,20.53,39.49c0,0-0.61-9.61,8.34-12.3c0,0-4.93,0.82-7.78-8.15
				S145.17,18.76,131.16,21.3z"/>
			<path class="st9" d="M139.84,91.11c-9.4,5.78-13.85-0.33-15.23-2.56c0,0-0.22,5.1-5.8,5.98c-5.59,0.89-0.4,5.61,1.45,6.1
				c0,0-30.08,1.15-27.59-18.86c0-0.01,0-0.01,0-0.01c0.04-0.32,0.09-0.66,0.15-1c0,0,1.66-14.84,24.82-6.61
				c0,0-6.84-9.45,12.1-10.94c4.16-0.32,7.43,0.56,9.9,2.2C148.44,71.24,147.18,86.61,139.84,91.11z"/>
			<path class="st10" d="M78.27,78.6c-0.75-0.45-1.47-0.9-2.14-1.35c-6.34-13.29-0.03-21.66,3.88-25.23c1.71,2.55,2.6,5.2,2.6,5.2
				C71.64,63.91,78.05,78.11,78.27,78.6z"/>
			<path class="st10" d="M82.61,57.22c-0.74,0.45-1.4,0.93-1.99,1.45c-4.07-12.23-11.87-9.69-11.87-9.69
				c5.13-3.7,8.94-0.42,11.26,3.04C81.72,54.57,82.61,57.22,82.61,57.22z"/>
			<path class="st10" d="M99.01,64.88c-1.05-1.04-2.02-2.06-2.9-3.06c-2.62-16.44,7.32-21.49,7.32-21.49
				c-0.08-5.91-5.31-11.51-5.31-11.51c8.58-0.3,9.69,12.69,9.69,12.69C94.81,47.53,99.01,64.88,99.01,64.88z"/>
			<path class="st10" d="M171.28,85.32c-0.8,1.27-1.71,2.53-2.72,3.78c0.19-0.69,4.37-16.17-12.34-25.14c0,0,2.08-15.73,12.11-11.92
				c0,0-4.9,2.96-6.46,9.46C161.87,61.5,173.97,68.25,171.28,85.32z"/>
			<path class="st10" d="M137.16,38.22c-17.02,1.26-14.43,19.04-14.43,19.04c-0.74-0.91-1.41-1.8-2.01-2.68
				c-1.01-15.51,12.96-19.95,12.96-19.95c-0.38-8.5-8.21-10.09-8.21-10.09C138.74,22.09,137.16,38.22,137.16,38.22z"/>
			<path class="st10" d="M71.18,117.98c-0.17-0.08-1.97-0.93-4.37-2.61c-7.09-11.95-1.82-24-1.82-24
				c-5.2-8.62-11.56-6.32-11.56-6.32s5.2-9.17,15.75,5.21C69.18,90.26,60.88,100.91,71.18,117.98z"/>
			<path class="st10" d="M139.64,65.41c-26.5-3.28-20.04,10.47-20.04,10.47c-17.79-3.48-24.42,1.22-26.93,5.89
				c0.04-0.32,0.09-0.66,0.15-1c0,0,1.66-14.84,24.82-6.61c0,0-6.84-9.45,12.1-10.94C133.9,62.89,137.17,63.77,139.64,65.41z"/>
		</g>
		<g>
			<path class="st0" d="M118.09,178.84h-4.82l-6.76,25.13h4.8l1.15-4.28h6.12l1.09,4.28h4.79L118.09,178.84z M113.77,194.89
				l1.85-6.86l1.74,6.86H113.77z"/>
			<path class="st0" d="M143.34,178.84h-5.38l-5.98,10.45v-10.45h-4.82v25.13h4.82v-10.44l5.98,10.44h5.38l-7.21-12.56
				L143.34,178.84z"/>
			<path class="st0" d="M166.56,182.55l-3.68-3.7h-11.9v25.13h11.9l3.68-3.69v-7.56l-1.31-1.27l1.31-1.31V182.55z M155.8,183.66
				h5.94v5.36h-5.94V183.66z M161.77,199.16h-5.97v-5.36h5.97V199.16z"/>
			<path class="st0" d="M179.94,178.84h-4.82l-6.76,25.13h4.8l1.15-4.28h6.12l1.09,4.28h4.8L179.94,178.84z M175.62,194.89
				l1.85-6.86l1.74,6.86H175.62z"/>
			<path class="st0" d="M204.59,182.55l-3.68-3.7h-11.9v25.13h4.82v-9.56h5.97v9.56h4.79v-11.25l-1.31-1.27l1.31-1.31V182.55z
				 M199.8,189.63h-5.97v-5.97h5.97V189.63z"/>
			<path class="st0" d="M222.86,187.41v-4.87l-3.68-3.7h-8.21l-3.69,3.7v7.6l3.59,3.66h7.19v5.36h-5.97v-3.75h-4.82v4.88l3.69,3.69
				h8.21l3.68-3.69v-7.56l-1.31-1.27l0.02-0.01l-2.49-2.43h-6.99v-5.36h5.97v3.75H222.86z"/>
		</g>
		<g>
			<path class="st10" d="M119.64,119.21v-11.35l-8.59-8.64H91.91l-8.59,8.64v17.71l2.89,2.95l5.49,5.6h16.75v12.48H94.54v-8.75
				H83.32v11.4l8.59,8.58h19.14l8.59-8.58v-17.63l-3.06-2.98l0.05-0.05l-0.06-0.06l-5.72-5.59h-16.3v-12.49h13.91v8.76H119.64z"/>
			<path class="st10" d="M149.63,99.23v23.71h-12.48V99.23h-11.23v58.6h11.23v-23.7h12.48v23.7h11.23v-58.6H149.63z"/>
			<path class="st10" d="M194.86,99.23h-19.14l-8.58,8.64v41.38l8.58,8.58h19.14l8.59-8.58v-41.38L194.86,99.23z M192.27,146.6
				h-13.91v-36.15h13.91V146.6z"/>
			<path class="st10" d="M237.47,99.23h-27.73v58.6h11.23v-22.28h16.51l7.01-7.02l1.57-1.57v-19.11L237.47,99.23z M220.96,110.45
				h13.86v13.91h-13.86V110.45z"/>
			<polygon class="st10" points="91.91,99.23 83.32,107.87 74.69,99.23 			"/>
			<polygon class="st10" points="254.66,99.23 246.05,107.85 246.03,107.87 237.44,99.23 			"/>
		</g>
		<polygon class="st0" points="111.05,99.23 119.64,107.87 119.64,119.21 108.45,119.21 108.45,110.45 94.54,110.45 94.54,122.94 
			110.84,122.94 116.56,128.53 86.21,128.53 83.32,125.57 83.32,107.87 74.69,99.23 		"/>
		<polygon class="st0" points="149.63,99.23 160.85,99.23 160.85,128.53 125.93,128.53 125.93,99.23 137.15,99.23 137.15,122.94 
			149.63,122.94 		"/>
		<polygon class="st0" points="203.45,107.87 203.45,128.53 192.27,128.53 192.27,110.45 178.36,110.45 178.36,128.53 
			167.14,128.53 167.14,107.87 175.72,99.23 194.86,99.23 		"/>
		<path class="st0" d="M209.74,99.23v29.3h34.74l1.57-1.57v-19.11l8.61-8.63H209.74z M234.82,124.36h-13.86v-13.91h13.86V124.36z"/>
		<path class="st0" d="M71.18,117.98c-0.17-0.08-1.97-0.93-4.37-2.61c-6.2-4.32-16.45-14.14-13.38-30.32c0,0,5.2-9.17,15.75,5.21
			C69.18,90.26,60.88,100.91,71.18,117.98z"/>
		<path class="st9" d="M139.84,91.11c-9.4,5.78-13.85-0.33-15.23-2.56c0,0-0.22,5.1-5.8,5.98c-5.59,0.89-0.4,5.61,1.45,6.1
			c0,0-30.08,1.15-27.59-18.86c0-0.01,0-0.01,0-0.01c0.04-0.32,0.09-0.66,0.15-1c0,0,1.66-14.84,24.82-6.61
			c0,0-6.84-9.45,12.1-10.94c4.16-0.32,7.43,0.56,9.9,2.2C148.44,71.24,147.18,86.61,139.84,91.11z"/>
		<path class="st10" d="M71.18,117.98c-0.17-0.08-1.97-0.93-4.37-2.61c-7.09-11.95-1.82-24-1.82-24c-5.2-8.62-11.56-6.32-11.56-6.32
			s5.2-9.17,15.75,5.21C69.18,90.26,60.88,100.91,71.18,117.98z"/>
		<path class="st10" d="M139.64,65.41c-26.5-3.28-20.04,10.47-20.04,10.47c-17.79-3.48-24.42,1.22-26.93,5.89
			c0.04-0.32,0.09-0.66,0.15-1c0,0,1.66-14.84,24.82-6.61c0,0-6.84-9.45,12.1-10.94C133.9,62.89,137.17,63.77,139.64,65.41z"/>
		<rect x="91.91" y="95.59" class="st2" width="32.52" height="3.64"/>
		<path class="st2" d="M112.17,100.35l-1.12-1.12h10.21c0,0-0.23,3.05-0.25,3.22S112.17,100.35,112.17,100.35z"/>
		<polygon class="st0" points="112.33,100.51 111.05,99.23 106.77,99.23 108.17,100.65 		"/>
		<g>
			<g>
				<g>
					<path class="st0" d="M110.63,100.23l8.01,8.05v9.94h-9.19v-7.76v-1h-1H94.54h-1v1v12.49v1h1h15.89l4.77,4.66l-0.05,0.05
						l0.73,0.71l2.76,2.68v16.8l-8,7.99H92.32l-8-7.99v-9.98h9.23v7.75v1h1h13.91h1v-1v-12.48v-1h-1H92.12l-5.2-5.3l-2.61-2.66
						v-17.3v-0.41l-0.29-0.29l-6.92-6.93h14.81H110.63 M111.05,99.23H91.91H74.69l8.63,8.64v17.71l2.89,2.95l5.49,5.6h16.75v12.48
						H94.54v-8.75H83.32v11.4l8.59,8.58h19.14l8.59-8.58v-17.63l-3.06-2.98l0.05-0.05l-0.06-0.06l-5.72-5.59h-16.3v-12.49h13.91
						v8.76h11.19v-11.35L111.05,99.23L111.05,99.23z"/>
				</g>
				<g>
					<path class="st0" d="M159.85,100.23v56.6h-9.23v-22.7v-1h-1h-12.48h-1v1v22.7h-9.23v-56.6h9.23v22.71v1h1h12.48h1v-1v-22.71
						H159.85 M160.85,99.23h-11.23v23.71h-12.48V99.23h-11.23v58.6h11.23v-23.7h12.48v23.7h11.23V99.23L160.85,99.23z"/>
				</g>
				<g>
					<path class="st0" d="M194.44,100.23l8.01,8.05v40.56l-8,7.99h-18.31l-7.99-7.99v-40.56l7.99-8.05H194.44 M177.36,147.6h1h13.91
						h1v-1v-36.15v-1h-1h-13.91h-1v1v36.15V147.6 M194.86,99.23h-19.14l-8.58,8.64v41.38l8.58,8.58h19.14l8.59-8.58v-41.38
						L194.86,99.23L194.86,99.23z M178.36,146.6v-36.15h13.91v36.15H178.36L178.36,146.6z"/>
				</g>
				<g>
					<path class="st0" d="M252.25,100.23l-6.91,6.92l-0.29,0.29v0.41v18.69l-1.28,1.28l-6.72,6.73h-16.09h-1v1v21.28h-9.23v-56.6
						h26.73H252.25 M219.96,125.36h1h13.86h1v-1v-13.91v-1h-1h-13.86h-1v1v13.91V125.36 M254.66,99.23h-17.19h-0.02h-27.71v58.6
						h11.23v-22.28h16.51l7.01-7.02l1.57-1.57v-19.11L254.66,99.23L254.66,99.23z M220.96,124.36v-13.91h13.86v13.91H220.96
						L220.96,124.36z"/>
				</g>
			</g>
		</g>
	</g>
	<g>
		<path class="st10" d="M97.53,110.45h-2.99v2.54c-0.45-0.15-0.85-0.42-1.18-0.92c-0.05-0.08-0.17-0.1-0.25-0.16
			c-0.76-0.57-1.65-0.97-2.28-1.69c-0.61-0.7-1.52-0.86-2.31-1.07c-0.98-0.25-1.78-0.7-2.55-1.3c-0.08-0.06-0.14-0.17-0.26-0.13
			c-0.39,0.13-0.62-0.16-0.89-0.34c-1.36-0.95-2.69-1.9-4.23-2.58c-0.22-0.1-0.44-0.21-0.66-0.32l-1.36-1.37
			c0.91,0.33,1.79,0.74,2.68,1.1c0.92,0.37,1.98,0.54,2.62,1.44c0.11,0.16,0.28,0.13,0.39,0.02c0.3-0.31,0.62-0.13,0.95-0.1
			c0.94,0.09,1.76,0.55,2.61,0.89c1.5,0.6,3.01,1.21,4.51,1.82c1.24,0.5,2.42,1.16,3.7,1.58C96.54,110.03,97.15,110.07,97.53,110.45
			z"/>
		<path class="st10" d="M117.87,119.21h-9.42V115c0.52,0.18,0.99,0.52,1.44,0.86c0.37,0.28,0.7,0.46,1.15,0.36
			c0.44-0.1,0.84,0.02,1.23,0.2c1.39,0.64,2.85,1.09,4.2,1.84c0.5,0.27,1,0.51,1.39,0.94L117.87,119.21z"/>
		<path class="st10" d="M119.63,107.86v1.12c-0.24-0.1-0.47-0.18-0.72-0.23c-0.97-0.19-1.62-0.74-2.32-1.29
			c-0.91-0.71-1.92-1.17-3.07-0.78c-0.7,0.24-1.07-0.01-1.43-0.51c-0.34-0.46-0.8-0.69-1.35-0.87c-1.44-0.44-2.94-0.85-3.6-2.46
			c-0.06-0.15-0.17-0.31-0.43-0.29c-1.11,0.09-2.18-0.04-3.12-0.71c-0.35-0.24-0.71-0.46-1.06-0.69c-0.62-0.42-1.26-0.72-2.05-0.69
			c-0.59,0.03-1.18-0.08-1.71-0.39c-0.77-0.45-1.62-0.58-2.5-0.49c-0.34,0.04-0.66,0.02-0.92-0.17c-0.1-0.07-0.2-0.13-0.3-0.19h8.2
			c0.66,0.26,1.31,0.56,1.97,0.85c0.88,0.39,1.7,1.06,2.69,0.99c1.49-0.1,2.82,0.17,3.89,1.21c0.5,0.48,0.98,0.69,1.63,0.48
			c0.34-0.12,0.68-0.17,1-0.12h0.01L119.63,107.86z"/>
		<path class="st10" d="M119.63,136.43v4.59c-0.12-0.07-0.23-0.15-0.29-0.29c-0.2-0.43-0.56-0.51-0.92-0.68
			c-0.63-0.28-1.32-0.12-1.96-0.38c-1.26-0.5-2.77-0.47-3.65-1.76c-0.06-0.11-0.18-0.18-0.25-0.28c-0.5-0.62-1.09-0.7-1.8-0.4
			c-0.77,0.32-1.64,0.24-2.31,0v-3.11H91.69l-4.41-4.49l-0.01-0.01l-1.07-1.1l-2.38-2.43c0.57,0.06,1.12,0.27,1.69,0.28
			c1.14,0.03,2.17,0.95,3.38,0.39c0.02-0.01,0.07,0.03,0.11,0.05c1.05,0.59,2.22,0.91,3.26,1.52c0.39,0.22,0.78,0.61,1.23,0.08
			c0.07-0.08,0.16-0.03,0.23,0.02c0.78,0.59,1.87,0.7,2.48,1.58c0.46,0.65,1.08,1.02,1.92,1.01c0.44-0.01,0.89,0.04,1.33,0.09
			c0.41,0.05,0.79,0.03,1.17-0.17c0.46-0.24,0.92-0.23,1.36,0.12c0.28,0.21,0.6,0.39,0.93,0.52c0.6,0.24,1.17,0.75,1.87,0.2
			c0.11-0.08,0.27,0.04,0.42,0.09c1.27,0.41,2.49,0.95,3.61,1.7c0.18,0.12,0.41,0.2,0.61,0.08c0.98-0.57,1.95-0.34,2.88,0.09
			c0.36,0.17,0.71,0.38,1.09,0.46c0.42,0.1,0.69,0.26,0.84,0.67c0.11,0.27,0.27,0.55,0.61,0.58c0.73,0.08,1.44,0.4,2.19,0.25
			c0.67-0.13,1.29-0.14,1.85,0.38C119.07,136.26,119.36,136.33,119.63,136.43z"/>
		<path class="st10" d="M137.15,140.57v7c-0.28-0.06-0.5-0.16-0.62-0.28c-0.29-0.31-0.58-0.33-0.96-0.32
			c-1.4,0.04-2.77-0.05-3.91-1.05c-0.57-0.49-1.21-0.89-1.81-1.35c-0.16-0.13-0.33-0.27-0.51-0.2c-0.8,0.3-1.58,0.04-2.36-0.04
			c-0.38-0.04-0.73-0.05-1.06-0.19v-6.57c0.43,0.08,0.84,0.24,1.22,0.55c0.16,0.13,0.38,0.23,0.6,0.17c0.6-0.17,0.93,0.19,1.29,0.57
			c0.57,0.62,1.18,1.2,1.77,1.8c0.08,0.07,0.12,0.18,0.26,0.12c0.06-0.02,0.1-0.05,0.06-0.13c-0.31-0.65,0.2-0.46,0.5-0.48
			c0.76-0.06,1.52,0.28,2.28,0.05c0.72-0.21,1.42-0.13,2.13,0.04C136.4,140.35,136.77,140.48,137.15,140.57z"/>
		<path class="st10" d="M160.85,144.84v2.19c-0.77,0.01-1.54-0.01-2.3-0.08c-0.37-0.04-0.72,0.06-1.04,0.24
			c-0.3,0.18-0.52,0.36-0.87-0.02c-0.19-0.21-0.64-0.22-0.97-0.09c-0.88,0.35-1.74,0.39-2.61-0.07c-0.2-0.11-0.46-0.16-0.68-0.09
			c-0.87,0.3-1.46-0.15-2-0.71c-0.22-0.24-0.46-0.3-0.76-0.23v-3.86c0.53,0.06,1.05,0.21,1.58,0.18c0.37-0.02,0.43,0.08,0.48,0.37
			c0.03,0.16-0.1,0.45,0.16,0.47c0.23,0.03,0.61,0.01,0.68-0.22c0.16-0.48,0.47-0.31,0.77-0.29c0.67,0.03,1.16,0.39,1.49,0.94
			c0.25,0.41,0.58,0.55,1.02,0.39c0.46-0.17,0.93-0.13,1.37,0.01c0.59,0.19,1.18,0.23,1.76,0.13c0.49-0.09,0.86,0.07,1.24,0.31
			C160.4,144.56,160.63,144.7,160.85,144.84z"/>
	</g>
	<g>
		<g>
			<path class="st2" d="M96.03,109.86c0.51,0.17,1.12,0.21,1.5,0.59h-2.99v2.54c-0.45-0.15-0.85-0.42-1.18-0.92
				c-0.05-0.08-0.17-0.1-0.25-0.16c-0.76-0.57-1.65-0.97-2.28-1.69c-0.61-0.7-1.52-0.86-2.31-1.07c-0.98-0.25-1.78-0.7-2.55-1.3
				c-0.08-0.06-0.14-0.17-0.26-0.13c-0.39,0.13-0.62-0.16-0.89-0.34c-1.36-0.95-2.69-1.9-4.23-2.58c-0.22-0.1-0.44-0.21-0.66-0.32
				l-1.36-1.37c0.91,0.33,1.79,0.74,2.68,1.1c0.92,0.37,1.98,0.54,2.62,1.44c0.11,0.16,0.28,0.13,0.39,0.02
				c0.3-0.31,0.62-0.13,0.95-0.1c0.94,0.09,1.76,0.55,2.61,0.89c1.5,0.6,3.01,1.21,4.51,1.82
				C93.57,108.78,94.75,109.44,96.03,109.86z"/>
			<path class="st2" d="M117.86,119.2l0.01,0.01h-9.42V115c0.52,0.18,0.99,0.52,1.44,0.86c0.37,0.28,0.7,0.46,1.15,0.36
				c0.44-0.1,0.84,0.02,1.23,0.2c1.39,0.64,2.85,1.09,4.2,1.84C116.97,118.53,117.47,118.77,117.86,119.2z"/>
			<path class="st2" d="M160.68,131.41c0.06-0.02,0.11-0.04,0.17-0.06v2.93c-0.19-0.06-0.38-0.13-0.56-0.21
				c-0.43-0.19-0.77-0.1-1.2,0.05c-0.89,0.31-1.7,1.07-2.76,0.71c-0.71-0.24-1.47-0.02-2.19-0.26c-0.1-0.04-0.31-0.02-0.36,0.06
				c-0.39,0.56-0.94,0.29-1.44,0.28c-0.91-0.01-1.82-0.05-2.72-0.14v-0.65h-3.65c-0.12-0.13-0.22-0.27-0.28-0.43
				c-0.17-0.46-0.51-0.47-0.8-0.31c-0.31,0.17-0.36,0.02-0.58-0.15c-0.55-0.42-1.1-0.77-1.93-0.73c-0.85,0.04-1.81,0.07-2.62-0.45
				c-0.39-0.25-0.84-0.53-1.3-0.41c-0.77,0.18-1.39-0.1-2.06-0.37c-0.44-0.18-0.84-0.39-1.21-0.67c-0.28-0.22-0.58-0.28-0.93-0.33
				c-0.73-0.1-1.48,0.06-2.2-0.23c-0.73-0.29-1.49-0.46-2.28-0.37c-0.66,0.09-1.08-0.16-1.33-0.78c-0.21-0.5-0.6-0.67-1.14-0.54
				c-0.46,0.12-0.93,0.2-1.39,0.26v-7.26c0.48,0.12,0.76,0.33,0.38,0.94c-0.09,0.14-0.3,0.48,0.03,0.68c0.25,0.15,1-0.08,1.09-0.37
				c0.1-0.33,0.22-0.2,0.4-0.11c0.62,0.3,1.27,0.54,1.95,0.41c0.57-0.11,1.03-0.17,1.35,0.43c0.04,0.07,0.17,0.13,0.27,0.14
				c1.47,0.12,2.76,0.87,4.18,1.19c0.28,0.07,0.78,0.01,0.58,0.61c-0.05,0.15,0.14,0.22,0.3,0.25c0.45,0.06,0.85,0.06,1.02-0.48
				c0.07-0.23,0.29-0.41,0.46-0.21c0.55,0.65,1.36,0.83,2.01,1.28c1.16,0.8,2.5,0.75,3.79,0.88c0.43,0.04,0.84,0.06,1.18,0.31
				c0.43,0.31,0.88,0.41,1.38,0.34c0.33-0.05,0.63,0.02,0.86,0.29c1.11,1.31,2.52,2.02,4.24,2.05c0.44,0.01,0.88,0.18,1.32-0.18
				c0.18-0.15,0.58-0.26,0.94-0.04c1.31,0.77,2.66,1.41,4.27,1.22c0.57-0.07,1.2-0.13,1.71,0.24
				C159.98,131.47,160.28,131.56,160.68,131.41z"/>
			<path class="st2" d="M178.36,137.45v0.36c-0.55-0.16-1.11-0.31-1.67-0.46c-1.3-0.54-2.67-0.84-4.03-1.16
				c-0.22-0.09-0.45-0.11-0.68-0.13c-0.78-0.05-1.57-0.06-2.33-0.28c-0.66-0.19-1.29-0.83-2.02-0.15c-0.16-0.05-0.33-0.09-0.5-0.11
				v-2.55c0.21,0.08,0.41,0.21,0.6,0.36c1.03,0.85,2.27,1.07,3.51,1.34c0.68,0.15,1.35,0.3,2,0.57c0.54,0.22,1.04,0.56,1.65,0.61
				c0.47,0.34,1.02,0.47,1.57,0.59C177.09,136.78,177.75,137.06,178.36,137.45z"/>
			<path class="st2" d="M118.88,136.08c0.19,0.18,0.48,0.25,0.75,0.35v4.59c-0.12-0.07-0.23-0.15-0.29-0.29
				c-0.2-0.43-0.56-0.51-0.92-0.68c-0.63-0.28-1.32-0.12-1.96-0.38c-1.26-0.5-2.77-0.47-3.65-1.76c-0.06-0.11-0.18-0.18-0.25-0.28
				c-0.5-0.62-1.09-0.7-1.8-0.4c-0.77,0.32-1.64,0.24-2.31,0v-3.11H96.56c-0.14-0.18-0.23-0.41-0.29-0.72
				c-0.12-0.64-0.56-0.92-1.23-0.77c-0.62,0.15-1.15-0.11-1.71-0.33c-0.62-0.26-1.11-0.92-1.89-0.67c-0.52,0.16-0.83,0.02-1.06-0.48
				c-0.25-0.53-0.52-1.04-1.25-1.09c-0.65-0.04-1.28-0.17-1.85-0.43l-0.01-0.01l-1.07-1.1l-2.38-2.43c0.57,0.06,1.12,0.27,1.69,0.28
				c1.14,0.03,2.17,0.95,3.38,0.39c0.02-0.01,0.07,0.03,0.11,0.05c1.05,0.59,2.22,0.91,3.26,1.52c0.39,0.22,0.78,0.61,1.23,0.08
				c0.07-0.08,0.16-0.03,0.23,0.02c0.78,0.59,1.87,0.7,2.48,1.58c0.46,0.65,1.08,1.02,1.92,1.01c0.44-0.01,0.89,0.04,1.33,0.09
				c0.41,0.05,0.79,0.03,1.17-0.17c0.46-0.24,0.92-0.23,1.36,0.12c0.28,0.21,0.6,0.39,0.93,0.52c0.6,0.24,1.17,0.75,1.87,0.2
				c0.11-0.08,0.27,0.04,0.42,0.09c1.27,0.41,2.49,0.95,3.61,1.7c0.18,0.12,0.41,0.2,0.61,0.08c0.98-0.57,1.95-0.34,2.88,0.09
				c0.36,0.17,0.71,0.38,1.09,0.46c0.42,0.1,0.69,0.26,0.84,0.67c0.11,0.27,0.27,0.55,0.61,0.58c0.73,0.08,1.44,0.4,2.19,0.25
				C117.7,135.57,118.32,135.56,118.88,136.08z"/>
			<path class="st2" d="M137.15,140.57v7c-0.28-0.06-0.5-0.16-0.62-0.28c-0.29-0.31-0.58-0.33-0.96-0.32
				c-1.4,0.04-2.77-0.05-3.91-1.05c-0.57-0.49-1.21-0.89-1.81-1.35c-0.16-0.13-0.33-0.27-0.51-0.2c-0.8,0.3-1.58,0.04-2.36-0.04
				c-0.38-0.04-0.73-0.05-1.06-0.19v-6.57c0.43,0.08,0.84,0.24,1.22,0.55c0.16,0.13,0.38,0.23,0.6,0.17
				c0.6-0.17,0.93,0.19,1.29,0.57c0.57,0.62,1.18,1.2,1.77,1.8c0.08,0.07,0.12,0.18,0.26,0.12c0.06-0.02,0.1-0.05,0.06-0.13
				c-0.31-0.65,0.2-0.46,0.5-0.48c0.76-0.06,1.52,0.28,2.28,0.05c0.72-0.21,1.42-0.13,2.13,0.04
				C136.4,140.35,136.77,140.48,137.15,140.57z"/>
			<path class="st2" d="M160.17,144.41c0.23,0.15,0.46,0.29,0.68,0.43v2.19c-0.77,0.01-1.54-0.01-2.3-0.08
				c-0.37-0.04-0.72,0.06-1.04,0.24c-0.3,0.18-0.52,0.36-0.87-0.02c-0.19-0.21-0.64-0.22-0.97-0.09c-0.88,0.35-1.74,0.39-2.61-0.07
				c-0.2-0.11-0.46-0.16-0.68-0.09c-0.87,0.3-1.46-0.15-2-0.71c-0.22-0.24-0.46-0.3-0.76-0.23v-3.86c0.53,0.06,1.05,0.21,1.58,0.18
				c0.37-0.02,0.43,0.08,0.48,0.37c0.03,0.16-0.1,0.45,0.16,0.47c0.23,0.03,0.61,0.01,0.68-0.22c0.16-0.48,0.47-0.31,0.77-0.29
				c0.67,0.03,1.16,0.39,1.49,0.94c0.25,0.41,0.58,0.55,1.02,0.39c0.46-0.17,0.93-0.13,1.37,0.01c0.59,0.19,1.18,0.23,1.76,0.13
				C159.42,144.01,159.79,144.17,160.17,144.41z"/>
			<path class="st2" d="M172.63,148.67l-0.03,0.03c-0.1,0.01-0.21,0.05-0.31,0.03c-1.46-0.33-2.89-0.83-4.42-0.78
				c-0.25,0.01-0.5-0.12-0.74-0.24v-1.34c0.04-0.01,0.08-0.02,0.12-0.03c0.4-0.12,0.79,0.02,1.17,0.1c0.26,0.14,0.51,0.28,0.76,0.41
				C170.34,147.44,171.55,147.92,172.63,148.67z"/>
			<path class="st2" d="M175.71,119.43c-0.65-0.47-1.45-0.53-2.23-0.59c-0.24-0.02-0.48-0.05-0.67-0.15
				c-0.64-0.34-1.23-0.46-1.8,0.16c-0.22,0.25-0.58,0.17-0.68-0.14c-0.4-1.25-1.42-1.46-2.47-1.35c-0.25,0.03-0.49,0.04-0.73,0.02
				v3.71c0.08,0.04,0.15,0.08,0.22,0.14c0.49,0.37,1.08,0.28,1.6,0.15c0.96-0.23,1.87-0.31,2.8,0.14c0.97,0.47,1.99,0.51,3.03,0.2
				c0.44-0.13,0.8,0.01,1.18,0.28c0.74,0.53,1.55,0.79,2.4,0.89v-2.49C177.47,120.1,176.51,120,175.71,119.43z M160.14,114.95
				c-0.77-0.82-1.71-0.68-2.64-0.63c-0.81,0.05-1.59,0.3-2.37,0.5c-0.28,0.07-0.47,0.04-0.64-0.22c-0.16-0.24-0.33-0.51-0.62-0.62
				c-0.26-0.1-0.61-0.53-0.71,0.16c-0.02,0.17-0.18,0.18-0.35,0.11c-0.55-0.22-1.11-0.43-1.66-0.64c-0.06-0.02-0.14-0.04-0.17-0.08
				c-0.31-0.6-0.82-0.72-1.36-0.8v7.11c0.23,0.06,0.46,0.1,0.69,0.15c0.1,0.02,0.23,0.02,0.31-0.03c1.34-0.91,2.65-0.42,3.95,0.09
				c0.68,0.26,1.28,0.74,2.09,0.32c0.25-0.13,0.59,0.16,0.87,0.31c0.43,0.23,0.84,0.38,1.29,0.06c0.39-0.27,0.61,0.1,0.81,0.28
				c0.62,0.56,0.8,0.74,1.22,0.46v-5.95C160.59,115.39,160.36,115.19,160.14,114.95z M114.44,102.63h-0.01c-0.32-0.05-0.66,0-1,0.12
				c-0.65,0.21-1.13,0-1.63-0.48c-1.07-1.04-2.4-1.31-3.89-1.21c-0.99,0.07-1.81-0.6-2.69-0.99c-0.66-0.29-1.31-0.59-1.97-0.85h-8.2
				c0.1,0.06,0.2,0.12,0.3,0.19c0.26,0.19,0.58,0.21,0.92,0.17c0.88-0.09,1.73,0.04,2.5,0.49c0.53,0.31,1.12,0.42,1.71,0.39
				c0.79-0.03,1.43,0.27,2.05,0.69c0.35,0.23,0.71,0.45,1.06,0.69c0.94,0.67,2.01,0.8,3.12,0.71c0.26-0.02,0.37,0.14,0.43,0.29
				c0.66,1.61,2.16,2.02,3.6,2.46c0.55,0.18,1.01,0.41,1.35,0.87c0.36,0.5,0.73,0.75,1.43,0.51c1.15-0.39,2.16,0.07,3.07,0.78
				c0.7,0.55,1.35,1.1,2.32,1.29c0.25,0.05,0.48,0.13,0.72,0.23v-1.12L114.44,102.63z M136.32,109.07
				c-0.04-0.01-0.09-0.02-0.13-0.03l-0.02-0.01c-1.1-0.4-2.26-0.64-3.27-1.28c-0.24-0.15-0.52-0.16-0.47,0.27
				c0.02,0.17,0.01,0.3-0.15,0.38c-0.05-0.03-0.1-0.05-0.14-0.08c-0.13-0.11-0.26-0.21-0.39-0.32c-0.13-0.26-0.4-0.31-0.63-0.37
				c-0.76-0.2-1.4-0.63-2.12-0.92c-0.18-0.12-0.43-0.13-0.57-0.32c-0.57-0.45-1.26-0.46-1.93-0.55c-0.04,0.01-0.09,0.01-0.13,0.02
				c-0.15-0.11-0.3-0.14-0.45-0.13v6.32c0.38,0.03,0.76,0.04,1.14,0.06c0.35,0.02,0.72,0,1.07-0.01c0.32,0,0.55,0.03,0.59,0.4
				c0.03,0.23,0.23,0.23,0.38,0.27c0.67,0.19,1.33,0.49,2.03,0.47c0.7-0.01,1.08,0.41,1.28,0.94c0.25,0.66,0.7,0.83,1.32,0.85
				c0.47,0.02,0.98-0.07,1.29,0.44c0.03,0.05,0.16,0.08,0.23,0.07c0.65-0.15,1.28-0.04,1.9,0.09v-6.29
				C136.87,109.25,136.6,109.16,136.32,109.07z"/>
		</g>
	</g>
	<g>
		<polygon class="st2" points="267.97,62.15 262.04,62.15 260.26,63.94 258.47,62.15 252.54,62.15 250.76,63.94 248.98,62.15 
			243.05,62.15 241.27,63.94 239.48,62.15 233.55,62.15 230.47,65.25 230.47,72.71 224.17,72.71 224.17,68.65 226.59,68.65 
			226.59,62.15 215.26,62.15 215.26,62.64 214.78,62.15 208.85,62.15 208.37,62.64 208.37,62.15 197.73,62.15 197.73,79.21 
			208.37,79.21 208.37,78.73 208.85,79.21 214.78,79.21 217.67,76.32 217.67,79.21 223.99,79.21 224.17,79.21 230.47,79.21 
			230.49,79.21 242.57,79.21 242.57,78.73 243.05,79.21 248.97,79.21 250.76,77.43 252.55,79.21 258.47,79.21 260.26,77.43 
			262.04,79.21 267.97,79.21 271.05,76.13 271.05,65.25 		"/>
		<polygon class="st2" points="267.97,62.15 262.04,62.15 260.26,63.94 258.47,62.15 252.54,62.15 250.76,63.94 248.98,62.15 
			243.05,62.15 241.27,63.94 239.48,62.15 233.55,62.15 230.47,65.25 230.47,72.71 224.17,72.71 224.17,68.65 226.59,68.65 
			226.59,62.15 215.26,62.15 215.26,62.64 214.78,62.15 208.85,62.15 208.37,62.64 208.37,62.15 197.73,62.15 197.73,79.21 
			208.37,79.21 208.37,78.73 208.85,79.21 214.78,79.21 217.67,76.32 217.67,79.21 223.99,79.21 224.17,79.21 230.47,79.21 
			230.49,79.21 242.57,79.21 242.57,78.73 243.05,79.21 248.97,79.21 250.76,77.43 252.55,79.21 258.47,79.21 260.26,77.43 
			262.04,79.21 267.97,79.21 271.05,76.13 271.05,65.25 		"/>
		<path class="st0" d="M206.37,64.15v2.5h-4.14v2.78h3.31v2.49h-3.31v2.78h4.14v2.5h-6.64V64.15H206.37z"/>
		<path class="st0" d="M213.95,64.15l1.91,1.92v2.53h-2.49v-1.95h-3.1v2.78h3.63l1.29,1.26l-0.01,0.01l0.68,0.66v3.93l-1.91,1.91
			h-4.27l-1.91-1.91v-2.54h2.5v1.95h3.1v-2.78h-3.73l-1.87-1.91v-3.95l1.91-1.92H213.95z"/>
		<path class="st0" d="M224.59,64.15v2.5h-2.42v10.56h-2.5V66.65h-2.41v-2.5H224.59z"/>
		<path class="st0" d="M225.99,74.71h2.5v2.5h-2.5V74.71z"/>
		<path class="st0" d="M238.65,64.15l1.91,1.92v3.88l-1.94,1.97h-3.65v2.78h3.1v-1.95h2.49v4.45h-8.09v-5.86l1.91-1.91h3.69v-2.78
			h-3.1v1.95h-2.5v-2.53l1.91-1.92H238.65z"/>
		<path class="st0" d="M248.15,64.15l1.91,1.92v9.22l-1.91,1.91h-4.27l-1.91-1.91v-9.22l1.91-1.92H248.15z M247.57,66.65h-3.1v8.06
			h3.1V66.65z"/>
		<path class="st0" d="M257.64,64.15l1.91,1.92v9.22l-1.91,1.91h-4.27l-1.91-1.91v-9.22l1.91-1.92H257.64z M257.06,66.65h-3.1v8.06
			h3.1V66.65z"/>
		<path class="st0" d="M267.14,64.15l1.91,1.92v3.97l-0.63,0.64l0.63,0.63v3.98l-1.91,1.91h-4.27l-1.91-1.91v-3.98l0.63-0.63
			l-0.63-0.64v-3.97l1.91-1.92H267.14z M263.46,66.65v2.78h3.1v-2.78H263.46z M266.56,71.93h-3.1v2.78h3.1V71.93z"/>
	</g>
</g>
</svg>
