<?xml version="1.0" encoding="utf-8"?>
<!-- Generator: Adobe Illustrator 23.0.1, SVG Export Plug-In . SVG Version: 6.00 Build 0)  -->
<svg version="1.1" id="Layer_1" xmlns="http://www.w3.org/2000/svg" xmlns:xlink="http://www.w3.org/1999/xlink" x="0px" y="0px"
	 viewBox="0 0 577.004 43.32" enable-background="new 0 0 577.004 43.32" xml:space="preserve">
<g>
	<polygon fill-rule="evenodd" clip-rule="evenodd" fill="#00B473" points="201.07,7.203 201.07,36.198 213.77,36.198 213.77,25.583 
		227.724,25.583 227.724,19.237 213.77,19.237 213.77,13.55 241.449,13.55 241.449,36.198 254.149,36.198 254.149,13.55 
		265.655,13.55 265.655,7.203 	"/>
	<polygon fill-rule="evenodd" clip-rule="evenodd" fill="#00B473" points="173.825,29.906 173.825,24.879 190.384,24.879 
		190.384,18.528 173.825,18.528 173.825,13.55 195.094,13.55 195.094,7.203 161.125,7.203 161.125,36.198 195.356,36.198 
		195.356,29.906 	"/>
	<polygon fill-rule="evenodd" clip-rule="evenodd" fill="#F03C46" points="39.886,7.203 4.696,7.203 4.696,13.55 15.941,13.55 
		15.941,36.198 28.641,36.198 28.641,13.55 39.886,13.55 	"/>
	<path fill-rule="evenodd" clip-rule="evenodd" fill="#F03C46" d="M49.502,25.213l5.875-11.223l5.624,11.223H49.502z M64.96,7.203
		H51.347l-15.85,28.995h8.254l2.607-4.977h17.797l2.597,4.977h14.064L64.96,7.203z"/>
	<polygon fill-rule="evenodd" clip-rule="evenodd" fill="#00B473" points="145.542,7.204 145.542,21.698 125.233,7.204 
		115.377,7.204 115.377,36.198 124.07,36.198 124.07,20.245 144.924,36.198 154.234,36.198 154.234,7.204 	"/>
	<polygon fill-rule="evenodd" clip-rule="evenodd" fill="#F03C46" points="111.062,7.203 76.61,7.203 76.61,13.55 87.854,13.55 
		87.854,36.198 100.555,36.198 100.555,13.55 111.062,13.55 	"/>
	<path fill-rule="evenodd" clip-rule="evenodd" fill="#F03C46" d="M310.593,25.277l5.875-11.223l5.624,11.223H310.593z
		 M326.05,7.267h-13.613l-15.85,28.995h8.254l2.606-4.977h17.797l2.597,4.977h14.064L326.05,7.267z"/>
	<path fill-rule="evenodd" clip-rule="evenodd" fill="#F03C46" d="M540.993,25.277l5.875-11.223l5.624,11.223H540.993z
		 M556.45,7.267h-13.613l-15.85,28.995h8.254l2.607-4.977h17.797l2.597,4.977h14.064L556.45,7.267z"/>
	<polygon fill-rule="evenodd" clip-rule="evenodd" fill="#F03C46" points="430.448,29.951 430.448,24.924 447.007,24.924 
		447.007,18.572 430.448,18.572 430.448,13.595 451.717,13.595 451.717,7.248 417.747,7.248 417.747,36.243 451.978,36.243 
		451.978,29.951 	"/>
	<polygon fill-rule="evenodd" clip-rule="evenodd" fill="#F03C46" points="499.321,7.179 499.321,21.673 479.011,7.179 
		469.155,7.179 469.155,36.173 477.848,36.173 477.848,20.221 498.703,36.173 508.012,36.173 508.012,7.179 	"/>
	<path fill-rule="evenodd" clip-rule="evenodd" fill="#F03C46" d="M387.776,7.058c-18.056,0.07-28.046,0.195-28.046,0.195v28.945
		h12.888v-7.646l13.691-0.122l3.469,7.674h11.386l-5.058-9.665C404.866,21.139,402.412,7.001,387.776,7.058z M372.619,22.954v-9.908
		l11.752-0.006c5.9,0.618,7.819,8.72,0.042,9.914H372.619z"/>
</g>
</svg>
