<?xml version="1.0" standalone="no"?>
<!DOCTYPE svg PUBLIC "-//W3C//DTD SVG 20010904//EN"
 "http://www.w3.org/TR/2001/REC-SVG-20010904/DTD/svg10.dtd">
<svg version="1.0" xmlns="http://www.w3.org/2000/svg"
 width="1632.000000pt" height="1632.000000pt" viewBox="0 0 1632.000000 1632.000000"
 preserveAspectRatio="xMidYMid meet">
<metadata>
Created by potrace 1.11, written by Peter Selinger 2001-2013
</metadata>
<g transform="translate(0.000000,1632.000000) scale(0.100000,-0.100000)"
fill="#000000" stroke="none">
<path d="M5075 12473 c-1182 -30 -2167 -158 -2948 -383 -279 -81 -447 -144
-662 -250 -536 -264 -904 -635 -1053 -1060 -66 -188 -62 -32 -62 -2609 0
-1533 4 -2367 10 -2426 68 -592 365 -1069 809 -1298 241 -125 336 -144 1311
-272 868 -113 2082 -228 3025 -285 675 -41 951 -47 1375 -30 661 27 1164 65
2180 166 1080 106 1815 195 2115 255 282 57 502 176 699 379 150 155 262 346
315 540 53 191 164 680 156 688 -14 15 -793 -70 -1235 -134 -1477 -214 -2709
-566 -3464 -992 l-99 -56 -66 17 c-235 61 -290 264 -134 493 57 83 190 205
271 247 37 19 130 60 207 90 812 318 2108 540 3550 607 403 18 470 16 749 -30
137 -22 253 -40 259 -40 5 0 7 13 4 30 -6 28 -5 30 26 30 93 0 448 -75 586
-124 24 -9 47 -16 52 -16 5 0 9 174 9 390 0 215 4 390 8 390 4 0 46 -15 93
-34 122 -50 448 -126 532 -126 116 1 280 67 370 150 32 29 59 51 61 49 2 -2
18 -56 36 -119 78 -278 221 -559 413 -815 107 -142 333 -357 533 -507 221
-167 321 -231 472 -308 119 -60 341 -140 387 -140 l26 0 -6 108 c-8 153 -25
569 -25 621 l0 44 -37 -7 c-21 -4 -61 -9 -89 -13 l-51 -5 -6 38 c-4 22 -7 58
-7 82 l0 43 -47 -8 c-27 -4 -109 -8 -183 -7 -118 1 -145 4 -217 28 -73 24 -87
33 -134 84 -119 132 -217 316 -266 502 -22 83 -26 117 -27 265 -1 134 3 187
18 250 37 157 87 239 172 281 112 55 253 13 372 -110 94 -98 172 -204 231
-316 l50 -95 3 80 3 80 39 -55 c22 -30 61 -95 88 -145 26 -49 48 -85 49 -80 4
28 -3 636 -7 672 -12 87 -311 430 -479 548 -38 28 -115 84 -170 125 -108 82
-251 157 -355 186 -92 26 -277 24 -383 -4 -175 -47 -306 -152 -383 -306 -25
-50 -47 -92 -48 -93 -1 -2 -27 34 -57 79 -69 106 -216 258 -321 333 -46 33
-103 76 -128 96 -107 87 -244 164 -364 204 -134 45 -993 205 -1101 205 -11 0
-15 -12 -15 -45 0 -52 1 -52 -125 -35 -74 9 -360 34 -527 45 -73 5 -98 11
-102 22 -5 13 -49 14 -349 10 -250 -4 -366 -9 -432 -21 -49 -9 -184 -27 -300
-41 -115 -13 -273 -33 -350 -45 -77 -12 -186 -25 -241 -30 -56 -5 -117 -12
-136 -15 l-35 -7 -7 48 c-3 26 -6 62 -6 80 0 21 -5 34 -13 34 -32 0 -477 -75
-682 -115 -307 -60 -775 -184 -1050 -278 l-70 -24 0 -49 c0 -27 4 -123 8 -213
l8 -164 -43 7 c-373 60 -1041 66 -1824 16 -403 -26 -1175 -100 -1499 -143
l-89 -12 -7 -32 c-6 -32 -6 -33 30 -33 20 0 65 5 101 10 252 36 893 99 1380
135 497 36 1030 51 1342 36 303 -14 589 -47 609 -69 4 -4 19 -283 35 -620 28
-599 28 -613 10 -645 -85 -147 -215 -297 -336 -387 -77 -57 -155 -87 -378
-144 -130 -34 -574 -126 -605 -126 -10 0 -13 8 -9 25 3 20 0 25 -15 25 -31 0
-133 -56 -186 -101 -62 -54 -215 -240 -283 -346 -30 -46 -73 -104 -96 -129
-45 -49 -158 -134 -177 -134 -27 0 -61 -49 -61 -87 0 -31 -8 -45 -49 -88 -59
-59 -114 -147 -137 -219 -22 -68 -40 -86 -137 -134 -196 -98 -496 -142 -752
-111 -233 28 -455 113 -622 237 l-83 62 25 24 c35 35 32 72 -9 111 -50 47
-226 162 -345 225 -169 89 -232 160 -261 291 -19 87 -10 163 25 199 l29 30 31
-63 c46 -97 79 -135 123 -143 20 -4 50 -18 66 -31 43 -36 118 -71 188 -89 48
-13 87 -15 168 -10 58 4 206 11 330 16 298 12 393 35 499 124 50 42 54 43 81
16 11 -11 28 -20 39 -20 25 0 221 132 319 214 207 173 458 478 556 674 107
212 106 398 -1 562 -58 88 -178 201 -260 243 -99 52 -179 67 -353 67 -165 0
-286 -13 -660 -70 -440 -68 -536 -79 -757 -92 -270 -15 -610 1 -707 33 -143
48 -240 145 -275 276 -13 48 -40 68 -80 60 -25 -5 -30 -1 -64 69 -20 41 -37
77 -37 79 0 15 49 -2 162 -56 148 -71 162 -72 249 -11 43 30 80 75 187 227
180 258 180 259 72 172 -111 -89 -202 -145 -249 -153 -22 -5 -61 -1 -101 10
-93 23 -112 21 -160 -19 -23 -19 -54 -38 -69 -43 -33 -9 -151 -8 -256 2 -76 8
-82 10 -117 47 -36 38 -96 153 -133 254 -35 95 -34 68 1 -66 43 -162 103 -349
116 -366 6 -7 81 -58 168 -113 l157 -100 7 -62 c14 -139 -1 -332 -30 -379 -19
-32 -181 131 -279 281 -133 203 -204 392 -208 551 l-2 86 -62 59 c-50 48 -61
63 -57 82 4 12 1 29 -5 36 -10 12 -9 20 4 40 10 14 14 26 11 26 -12 0 22 56
69 113 25 32 50 57 55 57 5 0 18 -17 29 -37 11 -21 36 -57 56 -81 l37 -42 49
41 49 41 -30 38 c-38 47 -69 117 -70 151 0 32 32 75 48 65 7 -4 12 -13 12 -20
0 -36 74 -157 126 -206 51 -48 58 -52 91 -47 48 8 73 33 73 73 0 25 -12 46
-50 90 -63 72 -93 134 -98 205 -5 64 2 73 60 74 43 1 75 26 95 74 8 18 44 68
81 110 59 67 73 78 128 96 34 11 78 34 100 50 122 93 406 191 625 216 95 11
111 11 142 -4 19 -9 42 -17 52 -17 24 0 72 27 79 45 23 60 -21 109 -106 119
-48 6 -242 -9 -260 -20 -20 -13 -4 18 32 62 65 79 152 148 313 247 30 19 36
51 11 61 -21 8 -105 -38 -199 -109 -114 -84 -237 -217 -240 -258 -2 -21 -35
-39 -35 -19 0 5 11 49 25 97 34 118 110 274 186 386 72 104 201 246 266 290
44 31 56 62 27 73 -25 10 -71 -21 -161 -107 -143 -137 -276 -333 -346 -507
-27 -68 -77 -233 -77 -254 0 -7 -26 -20 -57 -30 -32 -10 -89 -31 -126 -47 -48
-20 -69 -25 -72 -16 -3 6 -10 30 -17 52 -11 34 -26 49 -101 100 -49 33 -84 61
-78 63 6 2 49 -4 96 -13 61 -11 91 -13 99 -6 15 13 51 89 45 95 -12 12 -357
67 -386 61 -44 -8 -42 0 5 24 l39 20 -9 62 c-9 68 1 151 32 267 46 168 140
321 286 465 96 95 100 97 145 97 58 0 90 24 115 83 16 38 29 50 99 90 86 50
228 116 287 136 31 10 41 10 62 -4 30 -20 55 -10 101 40 26 27 46 36 140 58
144 34 309 63 470 82 129 16 545 33 535 22 -3 -3 -40 -19 -82 -36 -43 -17
-120 -51 -173 -75 l-96 -45 16 -38 c9 -21 19 -41 23 -45 4 -4 42 11 85 31 196
97 456 176 657 201 52 6 124 18 160 26 36 7 173 19 305 25 267 13 597 2 888
-30 l159 -17 34 42 c19 22 34 46 34 52 0 14 -46 28 -140 44 -54 9 -214 13
-572 13 -273 0 -496 1 -495 2 5 5 380 141 507 184 116 40 284 89 302 89 1 0 4
-20 5 -45 3 -93 73 -153 189 -163 85 -6 157 13 199 53 30 28 35 39 35 79 0 26
-5 56 -11 68 -12 23 -56 43 -114 52 -39 7 -41 6 -78 -43 -20 -28 -37 -52 -37
-55 0 -2 16 -7 35 -10 49 -9 54 -26 8 -26 -67 0 -109 48 -97 109 7 34 20 38
344 107 783 165 1155 225 1690 273 440 40 570 45 1143 45 l569 1 23 27 c13 15
25 32 27 39 3 10 62 10 297 0 161 -7 295 -11 297 -9 2 3 -78 28 -179 56 -861
244 -1686 391 -2617 467 -718 58 -2316 99 -3115 78z m-1498 -1433 c12 -25 25
-70 28 -101 l7 -56 -99 -39 c-54 -21 -141 -60 -193 -86 -52 -26 -96 -45 -99
-43 -2 3 8 16 22 29 27 25 43 67 33 85 -17 27 86 170 162 226 36 27 55 34 82
33 31 -3 38 -9 57 -48z m-1062 -1789 c-22 -77 -15 -108 30 -127 30 -12 40 -12
68 0 19 7 43 26 54 41 l20 28 41 -23 c73 -41 68 -124 -8 -162 -47 -24 -126
-23 -167 2 -52 31 -66 70 -61 169 3 47 10 99 17 115 20 49 23 21 6 -43z m9602
-1771 l2 -445 -29 70 c-36 87 -320 815 -320 821 0 3 78 3 173 2 l172 -3 2
-445z m-2037 -7 c-75 -225 -139 -415 -142 -423 -4 -10 -7 -7 -11 10 -28 131
-42 175 -71 235 -39 79 -106 153 -175 192 -25 15 -70 49 -100 76 -106 95 -227
137 -396 137 -107 0 -164 -11 -433 -79 -89 -22 -165 -41 -167 -41 -3 0 -5 20
-5 44 l0 44 113 21 c191 36 594 99 767 120 320 39 738 81 751 74 4 -1 -55
-186 -131 -410z m3112 346 l90 -21 27 -57 c35 -75 38 -203 5 -248 -36 -49 -97
-73 -189 -73 -44 0 -85 4 -92 8 -8 5 -12 70 -15 216 l-3 208 44 -6 c24 -3 84
-15 133 -27z m-2067 -350 c41 -112 75 -207 75 -211 0 -4 -63 -8 -140 -8 -77 0
-140 3 -140 8 0 7 66 238 102 355 11 37 22 66 24 64 3 -2 38 -96 79 -208z
m-8428 -406 c115 -88 316 -139 568 -144 l60 -1 -75 -26 c-62 -21 -95 -25 -185
-26 -122 -1 -206 19 -318 76 -55 27 -60 28 -77 13 -17 -15 -18 -14 -28 12 -8
25 -5 133 4 133 2 0 25 -16 51 -37z m2469 27 c32 -6 66 -13 74 -16 9 -3 -27
-27 -88 -59 -109 -57 -250 -147 -293 -187 -15 -14 -51 -58 -81 -99 -68 -91
-144 -164 -220 -209 -57 -35 -57 -36 -58 -82 0 -26 4 -49 8 -52 15 -9 155 80
224 143 36 34 97 102 135 152 57 76 82 99 159 149 115 74 317 180 345 180 12
0 45 -24 78 -57 114 -115 165 -224 159 -344 -3 -61 -4 -62 -32 -64 -18 0 -37
-11 -50 -27 -276 -338 -405 -500 -468 -588 -43 -59 -89 -115 -103 -124 -19
-12 -25 -24 -23 -41 3 -21 -9 -30 -107 -78 -61 -30 -141 -77 -178 -106 -122
-92 -140 -96 -452 -108 -379 -14 -462 -11 -519 14 -33 16 -46 27 -43 37 6 16
-4 31 -97 151 -32 42 -56 78 -55 79 28 23 45 23 72 0 37 -32 145 -64 237 -71
108 -8 172 12 244 78 43 39 56 47 56 33 0 -25 52 -134 91 -190 17 -25 51 -58
74 -73 l43 -28 129 14 c149 16 148 16 163 42 9 18 2 28 -56 83 -36 35 -79 79
-94 98 l-28 36 91 -9 c114 -11 258 5 335 36 121 48 68 70 -178 73 -102 2 -220
-1 -263 -6 l-79 -10 -45 35 c-25 19 -70 44 -100 55 -51 19 -57 19 -79 5 -14
-9 -24 -25 -24 -39 0 -19 -7 -26 -30 -31 -16 -4 -39 -20 -51 -36 -33 -47 -73
-62 -148 -57 -89 7 -180 37 -199 66 -11 16 -13 39 -10 85 10 121 70 208 190
278 56 33 72 38 84 29 12 -10 14 -8 14 14 0 16 9 31 25 42 13 9 37 41 52 72
51 106 171 214 483 437 206 147 269 200 286 241 10 23 22 34 41 37 59 9 302 6
359 -3z m385 -689 c-98 -199 -385 -542 -502 -602 -31 -16 10 40 244 326 155
189 283 342 285 340 2 -2 -10 -31 -27 -64z"/>
<path d="M4580 6369 c-140 -116 -258 -220 -262 -230 -9 -23 22 -59 50 -59 14
0 382 295 500 401 48 44 37 99 -20 99 -8 0 -128 -95 -268 -211z"/>
<path d="M10127 11231 l-247 -488 -103 -33 c-178 -56 -406 -150 -610 -253
-109 -55 -196 -102 -193 -104 2 -3 87 0 188 6 303 17 528 24 528 16 0 -4 -90
-184 -200 -400 -110 -216 -200 -395 -200 -398 0 -2 52 -6 115 -9 63 -2 117 -7
120 -10 4 -3 -8 -33 -24 -67 -17 -34 -30 -61 -29 -61 31 -3 699 -30 739 -30
l56 0 63 148 c35 81 67 152 71 157 7 9 696 -9 725 -19 6 -2 24 -52 39 -111 30
-113 43 -134 78 -136 12 0 42 -6 66 -12 42 -11 45 -15 60 -66 l16 -55 378 -77
c310 -63 377 -74 377 -61 0 8 -41 150 -91 316 -50 166 -109 360 -130 433 -22
73 -42 139 -45 148 -7 17 97 -16 269 -87 l97 -40 0 -42 c0 -22 -9 -151 -20
-286 -11 -135 -21 -265 -22 -289 l-3 -45 90 -26 90 -26 3 -47 c2 -26 5 -47 8
-47 6 0 564 -154 654 -180 35 -10 66 -17 68 -15 2 2 13 120 23 262 11 142 22
268 24 280 5 21 10 19 127 -37 l122 -58 116 -233 117 -232 69 -27 c59 -24 73
-34 94 -71 25 -43 29 -44 265 -142 132 -54 332 -137 444 -183 112 -47 206 -83
208 -80 3 3 -52 109 -121 237 -70 127 -124 234 -122 237 6 5 300 -124 731
-321 287 -131 262 -133 264 13 2 189 -59 306 -238 459 -162 138 -176 228 -62
386 58 80 91 136 91 153 0 35 -687 377 -1077 537 -51 21 -90 41 -87 46 2 4
178 155 389 334 211 179 387 329 389 334 3 5 -50 23 -119 41 -69 18 -125 37
-125 41 0 4 14 19 31 33 21 18 26 28 17 31 -30 11 -822 225 -833 225 -6 0
-142 -117 -300 -260 -159 -142 -290 -258 -291 -257 -1 1 6 101 16 222 10 121
20 242 22 270 l3 50 -95 20 -95 21 2 47 c1 41 -2 48 -20 52 -29 7 -454 97
-589 126 -60 12 -111 19 -114 16 -4 -3 -22 -194 -41 -424 -20 -230 -38 -421
-42 -424 -3 -3 -127 16 -276 42 -148 25 -291 50 -316 53 l-46 7 -20 72 c-29
101 -206 691 -210 696 -1 2 -36 6 -77 9 l-74 5 -17 62 -17 63 -77 6 c-42 3
-211 13 -376 21 -165 8 -327 17 -360 20 l-60 5 -248 -489z m586 -898 c-7 -2
-21 -2 -30 0 -10 3 -4 5 12 5 17 0 24 -2 18 -5z"/>
<path d="M7878 11544 c-3 -5 -8 -22 -12 -39 -4 -16 -9 -37 -12 -46 -4 -13 7
-17 58 -23 68 -7 108 -27 108 -55 0 -47 -89 -111 -154 -111 -43 0 -66 29 -66
82 0 34 -3 38 -26 38 -41 0 -94 -30 -100 -56 -10 -39 5 -93 35 -126 24 -28 36
-32 97 -37 l69 -6 -185 -49 c-319 -84 -529 -154 -870 -289 -200 -79 -250 -108
-250 -144 0 -28 29 -63 50 -63 11 0 85 27 165 60 431 178 897 331 1144 375
126 23 285 30 354 16 47 -10 65 -21 98 -54 61 -64 84 -119 84 -202 0 -119 -64
-214 -219 -324 -68 -48 -81 -62 -84 -88 -4 -36 19 -63 53 -63 35 0 167 93 246
173 51 51 81 92 112 155 41 84 42 88 42 186 0 95 -2 105 -33 164 -43 83 -105
144 -168 166 -62 21 -206 30 -305 19 l-77 -9 43 42 c56 54 78 98 79 156 1 58
-24 95 -86 126 -48 24 -181 42 -190 26z"/>
<path d="M6010 10937 c-41 -21 -70 -74 -70 -129 0 -109 73 -198 163 -198 32 0
35 3 41 38 4 20 9 44 12 53 3 12 -4 18 -24 22 -15 3 -40 17 -55 31 -40 37 -37
89 8 150 l36 46 -43 0 c-24 0 -54 -6 -68 -13z"/>
<path d="M7915 10894 c-259 -39 -526 -133 -758 -266 l-89 -51 31 -31 c31 -30
31 -30 59 -13 257 162 644 286 901 290 88 1 151 -20 151 -51 0 -54 -232 -195
-432 -262 l-83 -28 3 -38 c2 -21 5 -40 6 -42 2 -1 50 14 107 34 201 70 429
203 490 286 39 54 44 79 25 116 -35 68 -194 89 -411 56z"/>
<path d="M5231 10690 c-6 -28 -11 -53 -11 -55 0 -3 20 -5 44 -5 62 0 98 -9
126 -31 l25 -19 -25 -21 c-21 -18 -33 -20 -74 -15 -26 3 -64 14 -83 26 -44 26
-49 25 -89 -5 -33 -25 -33 -27 -18 -50 25 -39 109 -75 173 -75 72 1 127 26
174 80 87 103 16 185 -185 214 l-46 7 -11 -51z"/>
<path d="M3971 10699 c-15 -43 -15 -44 14 -57 38 -18 33 -56 -14 -103 -63 -64
-94 -46 -72 40 9 35 9 55 1 76 l-11 28 -25 -24 c-84 -78 -75 -228 15 -237 59
-6 133 57 177 153 41 87 27 137 -43 151 -27 5 -31 3 -42 -27z"/>
<path d="M4563 10509 c-66 -19 -115 -117 -93 -185 28 -84 169 -116 249 -56 32
24 71 89 71 121 0 21 -3 23 -37 16 -20 -3 -49 -20 -65 -36 -32 -32 -68 -38
-88 -14 -10 12 -9 21 3 47 9 18 17 51 19 73 3 44 -6 50 -59 34z"/>
<path d="M7535 10429 c-39 -86 15 -132 155 -133 49 -1 91 1 93 4 3 3 9 29 13
57 l6 51 -38 -9 c-94 -21 -152 -2 -140 47 6 22 3 24 -32 24 -36 0 -40 -3 -57
-41z"/>
<path d="M6987 9768 c-24 -61 -22 -66 21 -73 79 -13 122 -44 122 -87 0 -52
-117 -128 -173 -113 -68 19 -119 84 -121 155 -1 34 -4 39 -30 44 -15 3 -41 6
-57 6 -24 0 -29 -5 -35 -36 -9 -47 0 -94 29 -157 61 -133 180 -171 317 -102
149 75 234 235 172 322 -26 37 -100 70 -174 79 l-54 6 -17 -44z"/>
<path d="M4940 9419 c-263 -30 -594 -143 -815 -279 -78 -47 -145 -98 -145
-109 0 -4 13 -22 28 -41 l29 -34 51 37 c54 40 56 40 67 -10 8 -37 5 -36 39
-24 22 9 25 7 32 -22 21 -99 97 -193 195 -240 l68 -33 -118 -42 c-98 -35 -122
-41 -147 -32 -16 5 -72 14 -125 19 l-96 9 -53 52 c-63 61 -144 104 -229 121
-59 11 -64 11 -83 -9 -31 -31 -17 -49 49 -62 56 -12 128 -44 167 -75 11 -8 18
-16 15 -18 -2 -1 -78 1 -169 4 -192 8 -507 0 -532 -13 -10 -5 -18 -20 -18 -33
l0 -25 333 -1 c182 -1 345 -4 361 -8 21 -4 -9 -12 -110 -28 -260 -42 -349 -74
-349 -124 0 -19 6 -25 30 -27 18 -2 33 2 40 12 17 23 341 87 555 110 l55 6
-110 -57 c-125 -66 -231 -134 -296 -191 -38 -34 -42 -41 -30 -56 7 -9 18 -16
24 -16 6 0 58 31 116 69 217 142 482 270 709 346 48 15 88 35 95 46 10 16 24
19 82 19 91 0 319 34 437 65 164 42 350 121 476 201 54 35 63 53 37 74 -12 10
-29 4 -92 -33 -258 -151 -631 -248 -898 -234 -117 6 -177 25 -234 74 -47 39
-66 72 -80 132 -11 50 -1 53 22 6 40 -85 129 -151 232 -173 97 -21 126 -23
187 -12 108 20 172 67 198 146 12 37 9 183 -4 215 -9 22 29 29 155 29 l99 0
24 49 25 49 -32 6 c-37 7 -295 -8 -407 -24 -137 -20 -276 -50 -406 -90 -71
-21 -130 -37 -132 -35 -6 6 190 86 292 120 184 60 400 95 590 95 l94 0 17 43
c9 23 19 48 22 55 6 14 -212 15 -337 1z m-121 -348 c19 -57 14 -158 -8 -180
-64 -64 -297 -13 -358 78 -28 42 -29 61 -3 61 13 0 24 -10 30 -25 19 -51 145
-73 212 -39 55 28 93 93 69 117 -17 17 -13 25 12 29 27 5 31 1 46 -41z"/>
<path d="M7841 8960 c-6 -28 -11 -53 -11 -55 0 -2 25 -4 55 -3 40 1 60 -3 75
-17 36 -32 19 -105 -31 -131 -32 -16 -54 -11 -91 24 -26 24 -30 25 -67 12 -65
-21 -68 -25 -45 -57 32 -44 98 -76 158 -77 66 0 127 33 166 92 90 137 18 262
-152 262 l-46 0 -11 -50z"/>
<path d="M5870 8514 c-14 -2 -59 -9 -100 -15 -392 -55 -1108 -292 -1710 -564
-189 -85 -190 -86 -190 -112 0 -13 6 -26 13 -28 6 -3 108 38 225 90 118 52
216 95 219 95 2 0 -3 -7 -11 -16 -19 -18 -21 -51 -4 -56 7 -3 48 6 93 19 146
43 526 140 750 192 1015 232 1876 318 2363 235 101 -17 136 -14 146 13 11 29
-16 42 -119 59 -134 22 -600 30 -806 15 -612 -46 -1423 -197 -2223 -415 -93
-26 -171 -45 -173 -43 -2 2 20 13 49 24 29 11 134 52 233 90 463 180 902 302
1230 343 97 12 118 22 113 54 -2 16 -11 21 -38 22 -19 1 -46 0 -60 -2z"/>
<path d="M5775 8133 c-224 -21 -823 -154 -1383 -307 -535 -146 -603 -168 -615
-193 -23 -50 0 -48 225 15 117 33 272 77 343 97 199 56 737 190 918 229 270
58 455 87 592 93 143 6 168 13 163 46 -3 21 -8 22 -103 23 -55 1 -118 -1 -140
-3z"/>
<path d="M3501 7760 c-17 -49 -14 -135 5 -154 36 -36 149 -2 173 51 11 24 11
25 -16 18 -15 -5 -39 -9 -53 -9 -33 -1 -38 34 -11 73 24 34 20 39 -42 47 -43
6 -45 5 -56 -26z"/>
<path d="M5682 7588 c-7 -7 -12 -22 -12 -35 0 -20 5 -23 36 -23 75 0 299 -83
459 -170 39 -21 122 -54 185 -74 191 -60 292 -76 511 -83 193 -6 197 -5 218
16 41 41 26 46 -170 53 -182 6 -293 21 -439 58 -109 28 -139 40 -300 118 -249
121 -450 178 -488 140z"/>
<path d="M6290 7015 c-13 -16 -11 -39 15 -125 40 -135 -12 -280 -148 -415 -70
-69 -243 -192 -254 -181 -2 2 12 64 31 137 60 229 81 405 53 444 -10 13 -21
16 -40 11 -37 -9 -46 -32 -37 -96 18 -130 -84 -531 -211 -828 -44 -103 -132
-279 -169 -338 -30 -48 22 -75 58 -30 32 42 159 305 220 458 l58 147 70 37
c312 165 484 398 460 625 -6 63 -37 147 -59 161 -18 12 -33 10 -47 -7z"/>
</g>
</svg>
